<?xml version="1.0" encoding="UTF-8" standalone="no"?>
<!-- Created with Inkscape (http://www.inkscape.org/) -->

<svg
   width="181.29393mm"
   height="171.17128mm"
   viewBox="0 0 181.29393 171.17128"
   version="1.1"
   id="svg5"
   inkscape:version="1.2.2 (732a01da63, 2022-12-09)"
   xml:space="preserve"
   sodipodi:docname="clock.svg"
   xmlns:inkscape="http://www.inkscape.org/namespaces/inkscape"
   xmlns:sodipodi="http://sodipodi.sourceforge.net/DTD/sodipodi-0.dtd"
   xmlns:xlink="http://www.w3.org/1999/xlink"
   xmlns="http://www.w3.org/2000/svg"
   xmlns:svg="http://www.w3.org/2000/svg"><sodipodi:namedview
     id="namedview7"
     pagecolor="#f0f0f0"
     bordercolor="#ffffff"
     borderopacity="1"
     inkscape:showpageshadow="0"
     inkscape:pageopacity="0"
     inkscape:pagecheckerboard="0"
     inkscape:deskcolor="#505050"
     inkscape:document-units="mm"
     showgrid="true"
     inkscape:zoom="1"
     inkscape:cx="485.5"
     inkscape:cy="299.5"
     inkscape:current-layer="layer1"><inkscape:grid
       type="xygrid"
       id="grid132"
       dotted="true"
       empspacing="10"
       units="mm"
       spacingx="1"
       spacingy="1"
       enabled="false"
       originx="-11.681215"
       originy="-60.132218" /></sodipodi:namedview><defs
     id="defs2"><linearGradient
       inkscape:collect="always"
       id="linearGradient5525"><stop
         style="stop-color:#e2f2f0;stop-opacity:1;"
         offset="0.50284094"
         id="stop5521" /><stop
         style="stop-color:#9ad3c9;stop-opacity:1;"
         offset="1"
         id="stop5523" /></linearGradient><linearGradient
       inkscape:collect="always"
       xlink:href="#linearGradient5525"
       id="linearGradient5527"
       x1="143.23085"
       y1="88.234001"
       x2="170.49747"
       y2="119.18684"
       gradientUnits="userSpaceOnUse" /></defs><g
     inkscape:label="Layer 1"
     inkscape:groupmode="layer"
     id="layer1"
     transform="translate(-11.681215,-60.13222)"><g
       id="g3283"><path
         id="rect3799"
         style="display:inline;fill:#ffffff;stroke:#000000;stroke-width:0;stroke-linecap:round;stroke-linejoin:bevel;stroke-miterlimit:1.5;paint-order:markers fill stroke"
         d="M 28.373451,98.385857 H 158.81762 V 213.72208 H 28.373451 Z" /><path
         id="path3797"
         style="display:inline;fill:url(#linearGradient5527);fill-opacity:1;stroke-width:0.352778"
         d="m 74.265625,60.681641 c -0.882915,0.202173 -1.562326,0.88341 -2.382864,1.247322 -1.049037,0.664812 -2.336645,1.174105 -3.019666,2.251712 -0.463385,1.339847 -0.09296,2.784595 -0.232666,4.168929 -0.0031,0.690106 -0.007,1.380209 -0.0093,2.070318 -6.099913,0.137701 -12.215957,-0.319683 -18.249722,0.587315 -3.596023,0.579124 -6.965779,2.093056 -10.038765,4.010114 -4.108366,2.498909 -8.006257,5.32237 -12.081228,7.874225 -3.490882,2.309132 -7.096215,4.518747 -9.836689,7.71553 -1.912629,2.362535 -3.238392,5.058105 -4.639419,7.743807 -1.426645,3.050907 -1.197529,6.515917 -1.384986,9.796517 -0.313478,13.57571 -0.123046,27.15597 -0.14623,40.73381 0.03714,19.56628 0.07428,39.13256 0.111414,58.69884 1.444735,4.58583 3.786591,8.90198 6.853515,12.60351 3.387031,3.94725 8.11016,6.5954 13.129297,7.80058 3.688879,0.88756 7.477281,0.79068 11.244749,1.00277 14.446088,0.44513 28.899979,0.55631 43.349403,0.85904 16.984477,0.28952 33.966777,0.71602 50.952617,0.91816 4.98946,0.0179 9.98658,0.033 14.96847,-0.24656 3.06639,-0.36644 6.01797,-1.43338 8.84879,-2.63237 2.08066,-1.08159 3.91042,-2.57329 5.92754,-3.76307 3.41562,-2.30848 6.90954,-4.49483 10.35188,-6.76281 3.32574,-2.01725 6.43138,-4.47131 8.79635,-7.58608 1.90964,-2.5247 3.4699,-5.36397 4.52345,-8.30674 0.78432,-2.09909 0.90998,-4.34956 0.89468,-6.56745 0.28301,-15.19374 0.19381,-30.3913 0.24469,-45.58694 -0.003,-15.52376 0.0416,-31.04837 -0.13269,-46.57135 -0.0995,-3.189929 -0.0798,-6.343148 -0.56798,-9.500536 -0.72524,-3.916191 -2.93968,-7.343699 -5.20117,-10.544922 -2.51601,-3.588875 -6.21629,-6.14913 -10.15218,-7.895497 -3.23796,-1.490473 -6.7889,-2.184913 -10.34196,-2.262706 -6.52074,-0.265898 -13.11805,-0.306349 -19.66837,-0.473261 -4.74086,-0.102874 -9.49299,-0.18945 -14.2203,-0.511114 -0.85307,-0.165525 -1.4151,-1.056324 -1.15633,-1.891256 0.0716,-2.646932 0.32483,-5.303529 0.0509,-7.946634 C 125.99959,61.5091 120.94057,61.452893 115.88571,61.331492 102.0132,61.067235 88.139043,60.876738 74.265625,60.681641 Z M 44.783203,99.060547 c 11.24112,0.09934 22.475316,0.554484 33.715517,0.715404 20.831443,0.430349 41.66924,0.574819 62.4964,1.195629 2.69861,0.138 5.54226,0.12956 7.99237,1.42543 3.67396,1.76095 6.53681,4.9785 8.14665,8.6928 0.70481,1.1125 0.60889,2.45195 0.56508,3.70472 0,29.34714 0,58.69427 0,88.04141 -1.81465,3.90694 -4.59233,7.69936 -8.67969,9.4082 -3.42282,1.34648 -7.16671,1.41507 -10.79322,1.26603 -8.76973,-0.2459 -17.54365,-0.32801 -26.31506,-0.50904 -15.393517,-0.267 -30.789398,-0.56375 -46.182768,-0.73191 -5.666472,0.47196 -11.364925,1.43289 -17.063626,0.74527 -5.623371,-0.60397 -11.25638,-2.74835 -15.251631,-6.86209 -1.738842,-1.75468 -3.405839,-3.79587 -3.954241,-6.25787 -0.03121,-1.97727 0.02898,-3.96656 0.01016,-5.94921 0.05708,-28.1569 0.114787,-56.31381 0.171477,-84.47071 1.32754,-3.09752 3.515043,-5.79741 6.197543,-7.80928 1.977727,-1.4224 4.407331,-2.012917 6.769254,-2.434861 0.721466,-0.09932 1.447374,-0.160403 2.175781,-0.169922 z" /><path
         id="path6382"
         style="display:inline;fill:#c6e5e1;fill-opacity:1;stroke-width:0.352778"
         d="m 39.553141,84.050684 c -0.977052,0.0074 -1.731563,0.02383 -2.338358,0.04909 -0.606796,0.02526 -1.065772,0.05931 -1.452108,0.101286 -0.386336,0.04198 -0.699767,0.09182 -1.015442,0.149345 -0.581116,0.105904 -1.128564,0.213737 -1.648478,0.326595 -0.519915,0.112858 -1.012504,0.230892 -1.484664,0.356051 -0.47216,0.125159 -0.923823,0.257686 -1.361674,0.400492 -0.437851,0.142806 -0.861486,0.295671 -1.278475,0.46147 -0.416989,0.1658 -0.827043,0.344329 -1.236617,0.538469 -0.409574,0.19414 -0.818945,0.404177 -1.23455,0.632003 -0.415605,0.227826 -0.837708,0.473664 -1.27279,0.740523 -0.435083,0.266859 -0.883333,0.554342 -1.351339,0.86558 -0.313331,0.208375 -0.602336,0.407873 -0.873332,0.604614 -0.270996,0.196741 -0.52402,0.390887 -0.764811,0.589629 -0.240791,0.198741 -0.469231,0.402123 -0.691947,0.616499 -0.222717,0.214377 -0.439519,0.439517 -0.656291,0.683163 -0.216773,0.243645 -0.433332,0.505651 -0.656291,0.792199 -0.222959,0.286549 -0.452222,0.597942 -0.693498,0.941028 -0.241275,0.343086 -0.494638,0.71794 -0.766361,1.131197 -0.271723,0.413258 -0.561616,0.864611 -0.875916,1.361674 -0.235929,0.37312 -0.455959,0.700698 -0.660941,1.000973 -0.204983,0.300275 -0.394885,0.573403 -0.571025,0.838708 -0.176139,0.265306 -0.338425,0.522439 -0.487825,0.79065 -0.149401,0.268211 -0.286062,0.547803 -0.410828,0.856795 -0.06238,0.154496 -0.122182,0.316033 -0.1788,0.487826 -0.05662,0.171792 -0.110114,0.353429 -0.161231,0.547253 -0.05112,0.193824 -0.09985,0.400044 -0.145727,0.620634 -0.04588,0.22059 -0.08881,0.45588 -0.129708,0.70797 -0.08181,0.50418 -0.154074,1.07619 -0.217558,1.73478 -0.06348,0.65858 -0.1181,1.40377 -0.165365,2.25464 -0.04726,0.85087 -0.08726,1.80717 -0.120406,2.8882 -0.03315,1.08102 -0.05948,2.28638 -0.08062,3.63543 -0.02114,1.34906 -0.03683,2.84192 -0.04806,4.49689 -0.01123,1.65496 -0.01828,3.47224 -0.0217,5.47098 -0.0069,3.99749 -3.68e-4,8.72071 0.01137,14.32057 0.01174,5.59987 0.02888,12.07651 0.04237,19.58175 l 0.09405,52.3875 0.803052,1.98541 c 0.161127,0.39839 0.347569,0.8181 0.554488,1.2516 0.20692,0.43351 0.434247,0.88079 0.676962,1.33377 0.242715,0.45298 0.500948,0.91159 0.769462,1.3684 0.268513,0.4568 0.547159,0.91204 0.831474,1.35702 0.284314,0.44498 0.574427,0.88008 0.864546,1.29759 0.290119,0.41752 0.580688,0.81726 0.866614,1.19166 0.285926,0.3744 0.566972,0.72306 0.838708,1.0387 0.271737,0.31563 0.533799,0.598 0.781348,0.83922 0.291868,0.28442 0.593702,0.56164 0.905888,0.83096 0.312186,0.26932 0.634796,0.5309 0.9679,0.78548 0.333103,0.25459 0.676841,0.50187 1.031461,0.74208 0.35462,0.24021 0.720356,0.4735 1.097091,0.69969 0.376735,0.2262 0.764303,0.44531 1.163753,0.65785 0.39945,0.21254 0.810753,0.41828 1.233517,0.61753 0.422763,0.19924 0.857119,0.39195 1.303796,0.57826 0.446676,0.18631 0.905472,0.36628 1.37666,0.54002 0.246621,0.0909 0.491393,0.17691 0.740007,0.25838 0.248613,0.0815 0.501099,0.15826 0.764294,0.23099 0.263195,0.0727 0.536975,0.14146 0.82734,0.20619 0.290364,0.0647 0.597468,0.12548 0.927592,0.18294 0.330124,0.0575 0.683096,0.11186 1.065568,0.16278 0.382472,0.0509 0.794375,0.0986 1.241784,0.14366 0.447409,0.0451 0.930274,0.0876 1.455209,0.12764 0.524935,0.04 1.091822,0.0775 1.706872,0.11317 1.2301,0.0713 2.653023,0.13496 4.319116,0.19327 1.666094,0.0583 3.575661,0.11115 5.778459,0.16226 2.202798,0.0511 4.698861,0.10061 7.539075,0.15038 2.840214,0.0498 6.024173,0.10025 9.602514,0.15451 6.160376,0.0934 13.804679,0.22236 21.157882,0.35554 7.353203,0.13318 14.415523,0.27064 19.411733,0.3793 6.63595,0.14432 11.7214,0.25359 15.76441,0.33538 4.04301,0.0818 7.04366,0.13569 9.51105,0.16847 2.46738,0.0328 4.40112,0.0446 6.31021,0.0419 1.90908,-0.003 3.79327,-0.0198 6.16138,-0.0444 2.07781,-0.0216 3.66406,-0.0402 4.91649,-0.0703 0.62622,-0.0151 1.16917,-0.0333 1.64848,-0.0558 0.47932,-0.0225 0.89506,-0.0496 1.26711,-0.0832 0.37204,-0.0336 0.70019,-0.0733 1.00459,-0.12144 0.3044,-0.0482 0.58506,-0.10466 0.86144,-0.17105 0.27639,-0.0664 0.54865,-0.14282 0.83665,-0.231 0.28799,-0.0882 0.59145,-0.18826 0.93069,-0.30179 0.39743,-0.13299 0.82748,-0.29818 1.27847,-0.48937 0.45099,-0.1912 0.92312,-0.40852 1.40509,-0.64441 0.48196,-0.23588 0.97364,-0.49051 1.46399,-0.75757 0.49035,-0.26707 0.97905,-0.54622 1.45521,-0.83096 0.47615,-0.28475 0.93987,-0.57512 1.37924,-0.86403 0.43937,-0.28892 0.85455,-0.5767 1.23455,-0.85628 0.38,-0.27958 0.72463,-0.55097 1.02268,-0.8077 0.14902,-0.12837 0.28653,-0.25298 0.41083,-0.37311 0.12429,-0.12012 0.23552,-0.23552 0.33227,-0.34571 0.18709,-0.21308 0.39855,-0.48123 0.62736,-0.79117 0.22881,-0.30993 0.47474,-0.66179 0.7307,-1.04386 0.25596,-0.38207 0.52211,-0.79421 0.79065,-1.2237 0.26854,-0.42949 0.5396,-0.87641 0.80615,-1.3286 0.26655,-0.45219 0.52826,-0.90944 0.77825,-1.35961 0.24999,-0.45016 0.48808,-0.89329 0.70693,-1.31671 0.21886,-0.42343 0.41855,-0.82745 0.5917,-1.19941 0.17315,-0.37197 0.32017,-0.7119 0.43305,-1.00769 l 0.78083,-2.04639 0.0987,-50.8 c 0.0166,-8.54736 0.024,-16.04513 0.0212,-22.50922 -0.003,-6.46409 -0.0157,-11.89451 -0.0382,-16.30702 -0.0225,-4.41251 -0.0548,-7.80726 -0.0971,-10.19989 -0.0212,-1.19631 -0.0447,-2.14233 -0.0708,-2.83962 -0.0261,-0.69729 -0.0551,-1.14602 -0.0863,-1.34824 -0.0381,-0.24752 -0.086,-0.50278 -0.14366,-0.76533 -0.0577,-0.26254 -0.12512,-0.53209 -0.20102,-0.80718 -0.0759,-0.2751 -0.16038,-0.55611 -0.25322,-0.84129 -0.0928,-0.28518 -0.19384,-0.57485 -0.3023,-0.86765 -0.10847,-0.2928 -0.22448,-0.58881 -0.34727,-0.88677 -0.12279,-0.29795 -0.25228,-0.59749 -0.38809,-0.89814 -0.27162,-0.60129 -0.56779,-1.205736 -0.88367,-1.802988 -0.31587,-0.597252 -0.65127,-1.187645 -1.00097,-1.761133 -0.3497,-0.573488 -0.71418,-1.129849 -1.08727,-1.659847 -0.18655,-0.264999 -0.37491,-0.523685 -0.56534,-0.774113 -0.19044,-0.250428 -0.38265,-0.492663 -0.57568,-0.726054 -0.19302,-0.233391 -0.38705,-0.457905 -0.58136,-0.671793 -0.19431,-0.213889 -0.38914,-0.417345 -0.58342,-0.609266 -0.24279,-0.23983 -0.51131,-0.484308 -0.80099,-0.731221 -0.28968,-0.246913 -0.60042,-0.496194 -0.92811,-0.744658 -0.32769,-0.248463 -0.67205,-0.496043 -1.02888,-0.740523 -0.35682,-0.24448 -0.72621,-0.485923 -1.10329,-0.720886 -0.37707,-0.234963 -0.76187,-0.463766 -1.15031,-0.683679 -0.38845,-0.219914 -0.78057,-0.430605 -1.17151,-0.629936 -0.39094,-0.199331 -0.78075,-0.386958 -1.1653,-0.560172 -0.38455,-0.173215 -0.76347,-0.332309 -1.13275,-0.473873 -0.26752,-0.102556 -0.53581,-0.199614 -0.81029,-0.291972 -0.27447,-0.09236 -0.55528,-0.180139 -0.84801,-0.263033 -0.29272,-0.08289 -0.59758,-0.160965 -0.91984,-0.235128 -0.32226,-0.07416 -0.66217,-0.144158 -1.02526,-0.210323 -0.36308,-0.06617 -0.74907,-0.128685 -1.16427,-0.187586 -0.4152,-0.0589 -0.85929,-0.114029 -1.3379,-0.166398 -0.47861,-0.05237 -0.99181,-0.101741 -1.54513,-0.148311 -0.55331,-0.04657 -1.14663,-0.09079 -1.78593,-0.132292 -1.27861,-0.08301 -2.74094,-0.156615 -4.43126,-0.223759 -1.69031,-0.06714 -3.60884,-0.127342 -5.80119,-0.184484 -2.19236,-0.05714 -4.65823,-0.110809 -7.44296,-0.163815 -2.78473,-0.05301 -5.88808,-0.105463 -9.3555,-0.160197 C 106.78526,85.183036 88.608055,84.869733 80.264868,84.705941 70.114242,84.506663 62.351699,84.355774 56.378471,84.249121 50.405242,84.142469 46.221552,84.080273 43.227336,84.056885 c -1.497109,-0.01169 -2.697142,-0.01357 -3.674195,-0.0062 z m 7.592818,13.714408 c 2.153853,-0.0099 4.933341,-0.0069 8.565886,0 4.210459,0.008 8.064475,0.03152 10.882023,0.06305 1.408774,0.01576 2.558626,0.0334 3.364136,0.05219 0.80551,0.01879 1.266924,0.03848 1.299145,0.0584 0.03222,0.01991 0.801182,0.04983 2.162659,0.0863 1.361477,0.03647 3.315486,0.07981 5.716447,0.127124 4.801922,0.09463 11.392617,0.205276 18.613851,0.309026 8.899894,0.127865 16.331394,0.248425 22.506634,0.369486 3.08763,0.06053 5.86098,0.121461 8.3473,0.182935 2.48631,0.06147 4.68563,0.123923 6.62388,0.188102 1.93825,0.06418 3.6157,0.129789 5.05912,0.198437 1.44343,0.06865 2.65273,0.140095 3.65456,0.214974 0.50092,0.03744 0.94981,0.07591 1.35031,0.115239 0.4005,0.03933 0.75262,0.07949 1.05936,0.120923 0.30674,0.04144 0.56792,0.08388 0.78755,0.12764 0.21964,0.04377 0.39774,0.08908 0.53692,0.135392 0.27112,0.0902 0.54375,0.19166 0.817,0.30386 0.27326,0.1122 0.54688,0.23475 0.82063,0.36742 0.27374,0.13267 0.54751,0.27523 0.8201,0.42685 0.27259,0.15162 0.54411,0.31257 0.81391,0.48162 0.2698,0.16905 0.53768,0.34626 0.80305,0.53123 0.26536,0.18498 0.52826,0.37786 0.78755,0.57723 0.25929,0.19937 0.5153,0.40528 0.76687,0.61753 0.25157,0.21226 0.49884,0.4306 0.74104,0.65423 0.24221,0.22363 0.47935,0.45278 0.71056,0.68626 0.2312,0.23348 0.45633,0.47132 0.67489,0.71314 0.21856,0.24181 0.43031,0.48723 0.63459,0.73587 0.20427,0.24864 0.40128,0.50053 0.58962,0.75447 0.18835,0.25395 0.36822,0.51019 0.53899,0.76792 0.17077,0.25772 0.33214,0.51669 0.48369,0.77669 0.15155,0.26 0.29305,0.52111 0.42375,0.78187 0.13069,0.26075 0.25044,0.52135 0.35863,0.78134 l 0.82631,1.98593 0.0951,44.60141 c 0.0259,12.20268 0.0513,21.20467 0.0413,27.90114 -0.005,3.34824 -0.0186,6.12016 -0.0455,8.42739 -0.0134,1.15362 -0.0301,2.19112 -0.0506,3.12643 -0.0205,0.93531 -0.0452,1.76857 -0.0739,2.51354 -0.0287,0.74496 -0.0613,1.40179 -0.0992,1.98437 -0.0379,0.58259 -0.081,1.09077 -0.12919,1.53893 -0.0482,0.44816 -0.10162,0.836 -0.16123,1.1777 -0.0596,0.34171 -0.12533,0.637 -0.19741,0.90021 -0.0721,0.26321 -0.15054,0.49425 -0.23616,0.70693 -0.0856,0.21268 -0.1783,0.40727 -0.27853,0.59738 -0.20047,0.38022 -0.43121,0.74325 -0.6966,1.20096 -0.13571,0.23406 -0.27935,0.46602 -0.42995,0.69505 -0.1506,0.22903 -0.30833,0.45525 -0.47284,0.67851 -0.16451,0.22326 -0.33571,0.44317 -0.51315,0.65991 -0.17744,0.21674 -0.36096,0.43028 -0.55035,0.63975 -0.18939,0.20948 -0.38462,0.41504 -0.58498,0.6165 -0.20035,0.20146 -0.40616,0.39848 -0.6165,0.59118 -0.21033,0.1927 -0.42506,0.38111 -0.6444,0.56431 -0.21934,0.1832 -0.44288,0.36139 -0.67025,0.53433 -0.22736,0.17295 -0.45857,0.34086 -0.69298,0.50281 -0.2344,0.16195 -0.47215,0.31799 -0.71261,0.46819 -0.24047,0.15021 -0.48362,0.2943 -0.72916,0.43202 -0.24554,0.13771 -0.49347,0.26929 -0.74311,0.39377 -0.24964,0.12448 -0.5012,0.24194 -0.75395,0.35244 -0.25276,0.11049 -0.50682,0.21377 -0.76172,0.30954 -0.25489,0.0958 -0.51031,0.18377 -0.76636,0.26406 -0.25604,0.0803 -0.51272,0.15297 -0.76894,0.21704 -0.32361,0.0809 -0.62201,0.15158 -0.93018,0.21291 -0.30817,0.0613 -0.626,0.11311 -0.98908,0.15555 -0.36309,0.0424 -0.77153,0.076 -1.25988,0.10025 -0.48835,0.0242 -1.05649,0.0393 -1.74046,0.046 -0.68397,0.007 -1.4835,0.005 -2.43344,-0.005 -0.94994,-0.0101 -2.05049,-0.0285 -3.33675,-0.0548 -2.57252,-0.0525 -5.88788,-0.13674 -10.2278,-0.2496 -2.91042,-0.0757 -8.45348,-0.19222 -15.03939,-0.31936 -6.58591,-0.12715 -14.214886,-0.26466 -21.296892,-0.38189 -12.344817,-0.20433 -21.595367,-0.35699 -28.576033,-0.49558 -3.490334,-0.0693 -6.413241,-0.13526 -8.87181,-0.20205 -2.45857,-0.0668 -4.452428,-0.13468 -6.085417,-0.20826 -0.816495,-0.0368 -1.542839,-0.075 -2.191597,-0.11524 -0.648759,-0.0402 -1.220231,-0.0823 -1.727027,-0.12712 -0.506796,-0.0448 -0.948847,-0.0926 -1.339453,-0.14314 -0.390606,-0.0506 -0.729723,-0.10424 -1.029911,-0.16175 -0.300189,-0.0575 -0.561307,-0.11838 -0.796851,-0.18397 -0.235544,-0.0656 -0.445665,-0.136 -0.642338,-0.21084 -0.196672,-0.0748 -0.380216,-0.15454 -0.56379,-0.23978 -0.183574,-0.0852 -0.367025,-0.17552 -0.563273,-0.27233 -0.14344,-0.0708 -0.308138,-0.16105 -0.488859,-0.26717 -0.180721,-0.10612 -0.377336,-0.22843 -0.585494,-0.36277 -0.416316,-0.26867 -0.877618,-0.58629 -1.344621,-0.92501 -0.467003,-0.33871 -0.939786,-0.69842 -1.378727,-1.05006 -0.438941,-0.35164 -0.844025,-0.69559 -1.176155,-1.00304 -0.179506,-0.16617 -0.363095,-0.35391 -0.548287,-0.55914 -0.185193,-0.20523 -0.372225,-0.42772 -0.558106,-0.66404 -0.185881,-0.23632 -0.370851,-0.48625 -0.552421,-0.74569 -0.18157,-0.25944 -0.35949,-0.52846 -0.53175,-0.80305 -0.172261,-0.2746 -0.33866,-0.55487 -0.496611,-0.83665 -0.157951,-0.28177 -0.307841,-0.56495 -0.446484,-0.84594 -0.138643,-0.28099 -0.266003,-0.55975 -0.380339,-0.83199 -0.114336,-0.27224 -0.21521,-0.53824 -0.30024,-0.79375 -0.09301,-0.2795 -0.174419,-0.52457 -0.245463,-0.82786 -0.03552,-0.15164 -0.06871,-0.31768 -0.09922,-0.51004 -0.03051,-0.19236 -0.05842,-0.41089 -0.08423,-0.66715 -0.05162,-0.51251 -0.09445,-1.17589 -0.129191,-2.08307 -0.03474,-0.90718 -0.06125,-2.05824 -0.08165,-3.54552 -0.0204,-1.48729 -0.03428,-3.31065 -0.04289,-5.56349 -0.0086,-2.25283 -0.01201,-4.9352 -0.01137,-8.13903 0.0013,-6.40767 0.01832,-14.90254 0.04134,-26.22683 l 0.09198,-45.32591 1.185974,-2.40864 c 0.114523,-0.23262 0.235852,-0.46277 0.363285,-0.69092 0.127433,-0.22814 0.260795,-0.45387 0.400493,-0.67696 0.139697,-0.22308 0.285349,-0.44349 0.436665,-0.66094 0.151317,-0.21744 0.308484,-0.43215 0.470773,-0.64337 0.162288,-0.21122 0.329679,-0.41933 0.502295,-0.62373 0.172615,-0.20441 0.350488,-0.40502 0.532784,-0.60204 0.182295,-0.19701 0.369359,-0.39025 0.560689,-0.57929 0.19133,-0.18904 0.386809,-0.37401 0.586527,-0.55449 0.199719,-0.18047 0.403355,-0.35628 0.610816,-0.52761 0.207461,-0.17134 0.418995,-0.33811 0.633553,-0.49971 0.214558,-0.16161 0.432182,-0.31845 0.65319,-0.46974 0.221008,-0.15129 0.445498,-0.297307 0.67231,-0.437704 0.226813,-0.140396 0.456359,-0.275193 0.688331,-0.404109 0.231971,-0.128917 0.466315,-0.2516 0.702799,-0.368453 0.236484,-0.116854 0.474852,-0.227557 0.715202,-0.331763 0.24035,-0.104206 0.482483,-0.20203 0.726054,-0.293005 0.226068,-0.08444 0.437545,-0.15873 0.663008,-0.224276 0.225464,-0.06555 0.4649,-0.122136 0.746725,-0.171049 0.281824,-0.04891 0.606338,-0.09052 1.001489,-0.125057 0.395151,-0.03454 0.860826,-0.06233 1.42627,-0.08475 0.565443,-0.02242 1.23043,-0.03911 2.023132,-0.05168 0.792702,-0.01257 1.713084,-0.02087 2.79001,-0.02584 z" /><path
         style="display:inline;fill:#736f6d;fill-opacity:1;stroke-width:0.352778"
         d="m 92.108854,163.48233 c -1.683565,-0.31672 -3.752794,-2.06705 -4.828318,-4.0842 -0.290308,-0.54448 -0.590621,-1.85221 -0.667364,-2.90607 -0.126047,-1.73092 -0.354319,-2.18618 -2.361946,-4.71061 -6.775915,-8.52017 -7.292287,-9.24621 -7.572526,-10.64742 -0.439685,-2.19842 0.866425,-4.07183 3.428262,-4.91731 2.466594,-0.81405 2.489426,-0.7936 10.043132,8.99712 4.028189,5.22113 4.571538,5.39836 7.662619,2.49941 1.114061,-1.04482 3.395907,-3.14478 5.070757,-4.66659 3.44719,-3.13219 3.55832,-3.23393 8.80317,-8.05858 2.10926,-1.94028 4.70587,-4.32153 5.77024,-5.29167 1.06438,-0.97014 2.26881,-2.08139 2.67652,-2.46944 1.25143,-1.19111 6.63565,-6.07163 7.75652,-7.0309 3.55079,-3.03884 7.90949,1.42047 4.67431,4.7822 -1.17943,1.22556 -4.1362,3.98428 -7.85136,7.32544 -1.16304,1.04596 -3.15362,2.87158 -4.42351,4.05695 -1.26989,1.18535 -3.08571,2.8421 -4.03515,3.68166 -0.94945,0.83956 -3.46459,3.14143 -5.58922,5.11528 -2.12462,1.97384 -4.34351,4.03423 -4.93085,4.57862 -0.58735,0.5444 -1.99413,1.80184 -3.1262,2.79432 l -2.05829,1.80449 v 2.06772 c 0,2.57878 -0.592874,4.03272 -2.230867,5.4709 -1.77782,1.56095 -3.749149,2.07162 -6.209929,1.60868 z"
         id="path3795"
         sodipodi:nodetypes="sssssssssssssssssssscsss" /><path
         style="display:inline;fill:#e28d8e;fill-opacity:1;stroke:#000000;stroke-width:0;stroke-linecap:round;stroke-linejoin:bevel;stroke-miterlimit:1.5;stroke-dasharray:none;paint-order:markers fill stroke"
         d="M 69.459678,65.03784 124.91687,66.1433 124.54839,80.330023 69.459678,79.040322 Z"
         id="path4055" /><path
         style="display:inline;fill:#ebc0bf;fill-opacity:1;stroke:#000000;stroke-width:0;stroke-linecap:round;stroke-linejoin:bevel;stroke-miterlimit:1.5;stroke-dasharray:none;paint-order:markers fill stroke"
         d="M 70.012406,64.853597 125.28536,66.1433 130.07568,62.458435 74.065756,61.168734 Z"
         id="path4327" /><path
         style="display:inline;fill:#da5654;fill-opacity:1;stroke:#000000;stroke-width:0;stroke-linecap:round;stroke-linejoin:bevel;stroke-miterlimit:1.5;stroke-dasharray:none;paint-order:markers fill stroke"
         d="m 124.54839,66.511786 v 13.818237 l 6.08002,-3.316377 -0.18424,-14.186723 z"
         id="path5358" /><path
         style="display:inline;fill:#000000;stroke-width:0.352778"
         d="m 109.01631,230.54748 c -58.920156,-1.10072 -74.273405,-1.4826 -75.494439,-1.87774 -0.679097,-0.21977 -2.028472,-0.6459 -2.998611,-0.94697 -3.56561,-1.10652 -8.210825,-3.87886 -10.657262,-6.36043 -3.041861,-3.08554 -6.100709,-8.50968 -7.181102,-12.73397 -0.659447,-2.57842 -0.682293,-4.38901 -0.677255,-53.67658 0.0045,-44.09528 0.077,-51.31892 0.534871,-53.30121 0.707206,-3.061727 1.072779,-3.915947 3.095004,-7.231945 3.166223,-5.191905 4.638879,-6.74986 8.870787,-9.384584 1.561977,-0.972467 3.236832,-2.055925 3.721901,-2.407684 0.48507,-0.351758 2.310695,-1.56041 4.056945,-2.685894 1.74625,-1.125481 4.540817,-2.956673 6.210151,-4.069313 7.328338,-4.884466 10.214116,-5.610955 22.304597,-5.615139 l 7.700857,-0.0028 -0.114163,-3.147575 c -0.06279,-1.731166 -0.03568,-3.212613 0.06025,-3.292105 0.09593,-0.07949 1.379788,-0.88647 2.85302,-1.793282 l 2.678603,-1.648753 22.897785,0.341771 c 12.593781,0.187974 25.556851,0.44517 28.806811,0.571542 l 5.90903,0.229768 v 4.870454 4.870453 l 0.97014,0.187561 c 0.53358,0.103156 8.59014,0.290636 17.90347,0.416617 16.99134,0.229845 18.72792,0.354884 23.38037,1.683484 1.76118,0.502937 6.74659,2.847244 7.13207,3.353738 0.0986,0.129522 0.8936,0.784645 1.76673,1.455833 0.87312,0.671184 2.13253,1.833502 2.79867,2.582926 1.61574,1.817733 4.80359,7.054207 5.6309,9.249512 1.47158,3.904897 1.49414,4.857048 1.37096,57.855555 -0.13443,57.83962 0.19014,52.22315 -3.37942,58.47817 -2.54284,4.45587 -5.00248,7.15652 -8.44169,9.26885 -1.50805,0.92623 -3.05942,1.94898 -3.44748,2.27277 -0.38805,0.3238 -1.89618,1.33586 -3.35139,2.24904 -2.3504,1.47493 -3.7521,2.39105 -9.03274,5.90358 -3.56263,2.36975 -5.70652,3.23525 -10.8329,4.37327 -2.89705,0.64313 -8.80284,0.63801 -45.04547,-0.0391 z m 47.44861,-3.13133 c 3.17945,-1.06397 8.43419,-4.20636 9.9822,-5.96945 1.4967,-1.70464 4.56165,-6.90417 5.46464,-9.27049 l 0.78094,-2.04647 0.099,-50.8 c 0.0666,-34.18949 -0.0221,-51.58597 -0.27127,-53.20374 -0.61001,-3.96038 -3.80471,-10.000866 -6.91331,-13.071592 -1.94231,-1.918642 -5.52723,-4.15248 -8.4815,-5.284999 -4.2804,-1.640886 -8.72818,-1.929642 -36.46761,-2.367513 C 106.78499,85.182909 88.60812,84.869724 80.264925,84.705932 39.662381,83.90882 37.272597,83.890155 34.747195,84.350389 c -4.64893,0.847235 -7.124277,1.83146 -10.868328,4.321369 -2.506649,1.666998 -3.464486,2.743577 -5.978889,6.720088 -3.77487,5.969924 -3.453895,0.191693 -3.345924,60.233734 l 0.09421,52.3875 0.803007,1.98547 c 1.289018,3.18715 4.203347,7.74836 6.183746,9.67819 2.334944,2.27531 5.310487,4.06186 9.079999,5.45172 3.945939,1.45492 7.341207,1.65182 35.967969,2.08591 12.320764,0.18682 30.577014,0.51748 40.569435,0.7348 26.54384,0.57726 28.27479,0.60027 37.74723,0.50152 8.31125,-0.0866 8.75139,-0.12636 11.46527,-1.03454 z m -30.33888,-12.55719 c -5.82084,-0.15137 -22.17209,-0.46704 -36.336115,-0.70149 -49.37932,-0.81734 -49.247526,-0.8114 -52.387499,-2.36032 -1.147526,-0.56606 -3.645528,-2.37786 -4.974053,-3.60768 -1.436046,-1.32936 -3.134071,-4.0361 -3.814308,-6.08021 -0.744103,-2.23604 -0.744516,-2.26602 -0.652413,-47.56323 l 0.09216,-45.32578 1.185757,-2.40851 c 1.832366,-3.7219 5.35862,-6.908423 9.255756,-8.36403 1.808551,-0.67551 2.686287,-0.710315 17.216483,-0.682724 8.420926,0.01598 15.416223,0.09425 15.54511,0.173905 0.128884,0.07965 12.05091,0.314597 26.493392,0.522097 35.59961,0.511464 47.69839,0.912079 49.92533,1.653122 4.33785,1.44348 9.05405,5.79787 10.78519,9.95779 l 0.82632,1.98562 0.0948,44.6015 c 0.10378,48.81076 0.19603,46.41343 -1.9271,50.0751 -2.17141,3.74494 -6.31154,6.89421 -10.41106,7.91936 -2.58888,0.64739 -3.55807,0.65691 -20.91777,0.20548 z m 19.82186,-1.93418 c 4.68515,-1.08466 8.46521,-4.06609 10.47648,-8.26309 l 1.09888,-2.29306 V 157.38947 112.4103 l -1.14991,-2.29305 c -2.4912,-4.96778 -6.71158,-8.02714 -12.10527,-8.77514 -1.4409,-0.19983 -15.00232,-0.53026 -30.13649,-0.73429 -15.134165,-0.20402 -33.15229,-0.53014 -40.040276,-0.724686 -20.499972,-0.579017 -32.327408,-0.52524 -34.219443,0.155586 -4.117481,1.48162 -6.952308,3.82863 -8.848591,7.32593 l -1.205576,2.22343 v 45.51571 45.51572 l 1.161433,2.35924 c 1.583972,3.21755 4.9059,6.22484 8.339871,7.54996 l 2.49314,0.96206 13.052778,0.24732 c 7.179028,0.13602 24.800277,0.43623 39.158333,0.66713 14.358051,0.23089 29.915551,0.54301 34.572221,0.69358 13.46654,0.43544 14.77663,0.4223 17.35242,-0.17402 z m -54.217697,-4.79719 c -2.422232,-0.68861 -3.531626,-2.41473 -3.520031,-5.47685 0.0096,-2.53398 0.902032,-4.60359 2.791972,-6.47474 1.371349,-1.35771 1.467823,-1.39209 3.906135,-1.39209 2.250373,0 2.586457,0.0932 3.365158,0.93346 1.567011,1.69083 0.688153,3.07302 -1.095947,1.72359 -0.910978,-0.68903 -3.517395,-0.67833 -4.698354,0.0193 -0.840426,0.49645 -2.160044,2.27333 -2.160044,2.90852 0,0.12979 1.56017,0.23599 3.467043,0.23599 3.252223,0 3.547142,0.0611 4.759763,0.986 4.371452,3.33427 -0.762113,8.25781 -6.815695,6.53685 z m 4.938889,-2.34091 c 1.673398,-0.80751 1.826528,-1.95039 0.36274,-2.70734 -0.773709,-0.4001 -1.822189,-0.5346 -3.596347,-0.46134 -2.088635,0.0863 -2.585868,0.22673 -2.996092,0.84649 -0.432252,0.65304 -0.410651,0.84335 0.178258,1.57062 0.824057,1.01767 2.751815,1.76523 3.934774,1.52586 0.48507,-0.0982 1.43757,-0.44659 2.116667,-0.77429 z m 22.461218,-5.94955 c -0.85098,-1.32406 -1.96244,-3.12176 -2.46992,-3.99489 -2.61456,-4.49847 -2.86195,-5.29166 -1.65046,-5.29166 0.46557,0 1.14867,0.6831 2.02848,2.02847 0.72958,1.11566 1.44558,2.08139 1.5911,2.14606 0.14552,0.0647 0.26458,0.28948 0.26458,0.49956 0,0.21008 0.73937,1.56824 1.64304,3.01812 1.23392,1.97973 1.55705,2.77247 1.29772,3.18361 -0.67964,1.07746 -1.17933,0.78382 -2.70454,-1.58927 z m -53.32287,0.60159 c -0.278797,-0.4511 0.437949,-1.80572 3.608578,-6.82006 1.839693,-2.90947 2.806442,-4.13043 3.209053,-4.05289 0.985107,0.18971 0.864532,1.28965 -0.351081,3.20274 -0.642694,1.01146 -1.290468,1.89193 -1.439495,1.9566 -0.149028,0.0647 -0.270958,0.28121 -0.270958,0.48119 0,0.19997 -0.730808,1.53612 -1.624016,2.96921 -1.546126,2.48066 -2.549568,3.20573 -3.132081,2.26321 z m 67.515,-17.91016 c -2.44489,-1.50717 -4.70708,-2.95759 -5.02708,-3.22317 -0.83186,-0.69039 -0.75004,-1.80759 0.13238,-1.80759 0.69035,0 4.49485,2.19619 6.38061,3.68327 0.50666,0.39955 1.6687,1.16581 2.58231,1.70281 1.65638,0.97358 2.08804,2.06821 0.90216,2.28775 -0.28882,0.0535 -2.52548,-1.13591 -4.97038,-2.64307 z m -84.20836,0.52162 c -0.210322,-0.25342 -0.272425,-0.63539 -0.138003,-0.84882 0.443163,-0.70364 9.913197,-6.46745 10.626122,-6.46745 0.497226,0 0.77017,1.11497 0.386203,1.57762 -0.488696,0.58884 -8.824753,5.69959 -9.747976,5.97638 -0.434397,0.13024 -0.903055,0.0313 -1.126346,-0.23773 z m 91.30504,-17.54013 c -1.24716,-0.30861 -2.82781,-1.77814 -2.82781,-2.629 0,-0.25647 0.2569,-0.67951 0.57089,-0.94009 0.49302,-0.40918 0.67941,-0.33768 1.36673,0.5243 0.60299,0.75622 1.18723,1.04221 2.41088,1.18013 1.44895,0.16332 1.7256,0.0715 2.69021,-0.89314 0.59135,-0.59135 1.07518,-1.4171 1.07518,-1.83501 0,-1.13447 -1.85665,-2.82222 -3.10466,-2.82222 -0.57326,0 -1.25416,-0.2553 -1.51313,-0.56734 -0.40006,-0.48203 -0.36989,-0.64116 0.20062,-1.05833 0.36931,-0.27005 0.91894,-0.49628 1.2214,-0.50273 0.79918,-0.017 2.13744,-1.23558 2.13744,-1.9462 0,-0.33556 -0.27781,-0.821 -0.61736,-1.07876 -0.71984,-0.54644 -3.61597,-0.65721 -3.61597,-0.1383 0,0.53748 -1.30959,0.42064 -1.52315,-0.13589 -0.30994,-0.8077 0.75789,-1.93761 2.06245,-2.18235 2.92204,-0.54818 5.3756,0.8512 5.69727,3.2494 0.15975,1.19106 0.0536,1.59814 -0.58288,2.23459 -0.77495,0.77495 -0.77531,0.78141 -0.085,1.54026 2.1713,2.38701 1.85329,5.75605 -0.70112,7.42782 -1.05498,0.69045 -3.31206,0.95639 -4.86195,0.57286 z m -97.637962,-2.53018 c -0.431337,-0.43134 -0.04384,-1.52367 0.794287,-2.23901 0.22733,-0.19403 1.014271,-1.10684 1.748761,-2.02848 l 1.335434,-1.67569 h -1.586911 c -4.87347,0 -7.122093,-3.80503 -4.094561,-6.92866 1.387012,-1.43103 3.368149,-2.03983 5.571398,-1.71209 1.28646,0.19137 1.915798,0.55553 3.111888,1.80068 1.983175,2.06451 2.077071,3.71819 0.323222,5.69253 -0.646843,0.72816 -2.029421,2.43518 -3.072395,3.79337 -1.766679,2.30063 -3.070786,3.66464 -3.530272,3.69243 -0.106715,0.006 -0.377098,-0.17133 -0.600851,-0.39508 z m 5.799226,-8.47412 c 1.086023,-1.02026 1.02942,-1.72771 -0.244916,-3.06118 -0.938043,-0.98158 -1.286189,-1.11066 -2.995542,-1.11066 -1.709353,0 -2.057499,0.12908 -2.995542,1.11066 -1.207265,1.26329 -1.274642,1.60291 -0.529131,2.66727 0.599634,0.8561 1.280206,1.044 4.031103,1.11292 1.525485,0.0382 2.084476,-0.10879 2.734028,-0.71901 z m 41.677649,7.99027 c -2.139149,-1.40182 -3.095237,-2.9604 -3.40759,-5.55494 -0.152297,-1.26507 -0.505721,-2.61799 -0.785378,-3.0065 -0.279661,-0.38851 -2.24899,-2.9054 -4.37629,-5.5931 -4.845603,-6.12211 -5.370163,-7.09711 -4.815071,-8.94985 0.43517,-1.45246 1.556523,-2.44494 3.511078,-3.10756 1.674657,-0.56773 2.633355,0.0391 5.17181,3.27374 1.164167,1.48343 2.950954,3.76085 3.970641,5.06093 3.954321,5.04168 3.92103,5.00962 5.201391,5.00962 0.961629,0 1.628125,-0.39573 3.416458,-2.02848 2.874588,-2.62449 2.385208,-2.17304 6.979138,-6.43819 4.31966,-4.01051 4.48794,-4.16509 8.87551,-8.15317 1.62475,-1.47681 3.45037,-3.14369 4.05694,-3.70417 0.60657,-0.56048 2.5025,-2.28905 4.21318,-3.84127 1.71067,-1.55222 3.43688,-3.14366 3.83602,-3.53652 3.07246,-3.02411 5.33433,-3.4439 6.79979,-1.26201 1.32178,1.96798 1.09818,2.65697 -1.7714,5.4583 -1.41708,1.38338 -3.8927,3.70585 -5.50138,5.16106 -1.60867,1.45521 -3.36306,3.04271 -3.89863,3.52778 -0.53558,0.48507 -2.74963,2.53587 -4.92011,4.55733 -2.17048,2.02147 -4.29698,3.97679 -4.72555,4.34515 -0.8481,0.72896 -6.18682,5.63637 -9.50426,8.73643 l -2.07636,1.94029 -0.0836,2.31391 c -0.0804,2.22667 -0.639717,3.54852 -2.173426,5.13684 -1.677239,1.73695 -5.823017,2.07637 -7.992921,0.65438 z m 4.820176,-1.62074 c 4.741767,-1.3164 4.263972,-8.22759 -0.619432,-8.9599 -3.297608,-0.49451 -5.719664,1.67824 -5.443305,4.883 0.184383,2.13821 1.157404,3.46811 2.928606,4.00277 1.761151,0.53163 1.507762,0.52563 3.134131,0.0741 z m -6.747037,-9.3097 c 0.112324,-0.29272 0.60556,-0.71507 1.096077,-0.93857 0.490512,-0.22349 0.891843,-0.51943 0.891843,-0.65764 0,-0.13822 -0.833438,-1.28512 -1.852083,-2.54869 -1.018646,-1.26357 -3.030234,-3.80833 -4.470199,-5.65502 -1.852927,-2.37631 -2.780873,-3.30043 -3.175,-3.1619 -0.874265,0.30728 -1.791607,1.20737 -1.791607,1.75791 0,0.27596 1.071563,1.83985 2.38125,3.47531 1.309688,1.63546 3.214688,4.01759 4.233333,5.29361 1.018646,1.27603 1.852084,2.46566 1.852084,2.64362 0,0.52346 0.612112,0.37039 0.834302,-0.20863 z m 16.291958,-4.58306 c 2.11364,-1.94028 4.71151,-4.32153 5.77305,-5.29166 1.06155,-0.97014 2.41566,-2.21822 3.00914,-2.77351 0.94587,-0.88502 4.68512,-4.29919 7.5875,-6.92788 0.53558,-0.48507 2.76075,-2.54624 4.94482,-4.58038 2.18407,-2.03415 4.27089,-3.90846 4.63736,-4.16515 0.36647,-0.25668 0.66631,-0.69583 0.66631,-0.97586 0,-0.96854 -1.12498,-0.50218 -2.94005,1.21879 -1.00235,0.95038 -2.601,2.41881 -3.55256,3.26319 -0.95156,0.84439 -2.15655,1.93212 -2.67775,2.41719 -2.29871,2.13933 -7.84752,7.22251 -8.53495,7.81871 -0.41525,0.36015 -2.50654,2.28046 -4.64732,4.26735 -5.45056,5.05877 -7.59708,7.04458 -9.187096,8.49932 -1.145505,1.04804 -1.303539,1.34883 -0.939261,1.78776 0.382965,0.46145 0.537172,0.42991 1.227907,-0.25118 0.43447,-0.4284 2.51927,-2.36641 4.6329,-4.30669 z m 23.20748,-11.31624 c -0.27914,-0.72744 0.10108,-1.04519 4.29265,-3.58726 5.88156,-3.56701 6.05958,-3.65063 6.5398,-3.072 0.23007,0.27721 0.33844,0.71212 0.24084,0.96647 -0.27601,0.71927 -9.53414,6.24931 -10.4623,6.24931 -0.21859,0 -0.49353,-0.25043 -0.61099,-0.55652 z m -69.790684,-1.35517 c -0.388056,-0.25496 -2.570868,-1.68115 -4.850695,-3.16929 -2.279826,-1.48815 -4.145138,-2.91865 -4.145138,-3.1789 0,-0.26025 0.20871,-0.64639 0.4638,-0.85809 0.352538,-0.29258 1.304625,0.15855 3.96875,1.88055 6.134382,3.96506 6.856338,4.52549 6.856338,5.32234 0,0.62921 -1.337549,0.63118 -2.293055,0.004 z m 56.641864,-11.99769 c -0.50249,-0.60547 -0.2608,-1.12277 2.84444,-6.08805 2.60072,-4.15854 3.0469,-4.69701 3.89198,-4.69701 1.42558,0 0.32222,2.347 -4.3535,9.26041 -1.45693,2.15418 -1.7205,2.32282 -2.38292,1.52465 z m -43.454325,-2.05381 c -5.859064,-9.56469 -6.021053,-9.92919 -4.321966,-9.72482 0.788356,0.0948 1.367353,0.87767 3.845952,5.20003 1.604832,2.79863 2.837088,5.29894 2.738349,5.55625 -0.348675,0.90863 -1.354921,0.44985 -2.262335,-1.03146 z m 26.087009,-2.70646 c -1.488302,-0.11218 -2.817057,-0.31563 -2.952785,-0.45211 -0.597514,-0.60085 0.373609,-2.12134 3.004707,-4.70449 2.909764,-2.85672 3.392644,-3.8842 2.326506,-4.95034 -0.66264,-0.66263 -2.81909,-0.64654 -3.376588,0.0252 -0.241543,0.29104 -0.747776,0.52917 -1.124962,0.52917 -0.53526,0 -0.661289,-0.20592 -0.574164,-0.93812 0.260713,-2.19103 4.440132,-2.84472 6.425282,-1.00495 2.03747,1.88827 1.65393,3.71912 -1.453359,6.93772 l -2.330217,2.41369 h 2.665966 c 2.021,0 2.71415,0.12555 2.86511,0.51896 0.2248,0.58581 -0.63321,1.59771 -1.35472,1.59771 -0.26132,0 -0.68654,0.0521 -0.94494,0.11577 -0.25841,0.0637 -1.687534,0.024 -3.175836,-0.0882 z m -8.524085,-0.61554 c -0.129353,-0.12934 -0.235186,-2.81111 -0.235186,-5.95947 0,-5.018 0.07257,-5.75214 0.588158,-5.94999 1.378553,-0.529 1.723006,1.42441 1.360237,7.71398 -0.223171,3.86926 -0.333001,4.43067 -0.866789,4.43067 -0.336179,0 -0.71707,-0.10583 -0.84642,-0.23519 z m 84.960641,100.24542 c 0.58209,-0.42907 2.14402,-1.44445 3.47096,-2.25641 1.32695,-0.81196 2.59695,-1.63091 2.82223,-1.81989 0.22527,-0.18898 1.08656,-0.81969 1.91395,-1.40158 2.79388,-1.96488 6.5633,-7.97491 7.6724,-12.23306 0.45266,-1.7379 0.52463,-9.03995 0.52463,-53.23208 0,-50.835651 -0.005,-51.235937 -0.73256,-53.636297 -1.08731,-3.589567 -4.22901,-8.715883 -6.94114,-11.325895 -2.21478,-2.131381 -7.1251,-5.027238 -8.52437,-5.027238 -0.32678,0 -0.7465,-0.152348 -0.9327,-0.338551 -0.74732,-0.747321 -9.56225,-1.37475 -22.20395,-1.580434 -7.17903,-0.116804 -14.44184,-0.311217 -16.13958,-0.432032 l -3.08681,-0.219661 v 1.806374 c 0,1.585743 -0.11849,1.881773 -0.97014,2.423717 -0.53357,0.339538 -1.04951,0.705595 -1.14653,0.81346 -0.097,0.107862 -1.00317,0.71912 -2.01369,1.358353 l -1.8373,1.162244 -11.21547,-0.205669 C 108.24245,80.925262 95.297668,80.646561 85.644786,80.419044 L 68.094092,80.005377 v -3.641288 -3.641287 h -7.116258 c -10.888567,0 -13.254721,0.587858 -20.576797,5.112198 -6.148214,3.799004 -6.091763,3.520785 -0.728944,3.592484 2.535223,0.0339 19.770124,0.315175 38.299777,0.625069 74.62688,1.248075 74.24466,1.234839 78.49305,2.717948 4.67025,1.63038 8.68755,4.089263 11.35897,6.952531 1.40841,1.50955 4.83372,6.906242 5.77044,9.091518 1.77381,4.13813 1.7442,3.17272 1.7442,56.88179 0,55.54204 0.0829,53.4379 -2.28483,58.00691 -0.68362,1.31918 -1.24294,2.47949 -1.24294,2.57846 0,0.22883 0.60112,-0.11156 1.94027,-1.09868 z M 123.4802,72.948897 v -6.123908 l -9.78958,-0.224331 C 108.30635,66.477277 96.320724,66.273142 87.055898,66.147024 L 70.210759,65.917726 v 6.22476 6.22476 l 7.849305,0.04862 c 4.317118,0.02674 11.103681,0.1561 15.08125,0.287464 3.977569,0.131364 12.431006,0.268235 18.785416,0.304158 l 11.55347,0.06531 z m 4.85069,4.037704 1.14651,-0.91241 1e-5,-5.732639 c 1e-5,-3.239149 -0.14064,-5.732639 -0.32337,-5.732639 -0.17785,0 -0.37629,0.135022 -0.44097,0.300052 -0.0647,0.165029 -0.79228,0.722644 -1.6169,1.239146 l -1.4993,0.939098 v 5.82882 5.82882 l 0.79375,-0.422921 c 0.43656,-0.232604 1.30968,-0.833501 1.94027,-1.335327 z m -1.79638,-12.933182 1.00264,-0.679228 -4.23334,-0.240415 c -3.66626,-0.208213 -45.955334,-1.122726 -48.031223,-1.038687 -0.804806,0.03256 -3.257786,1.449571 -3.283006,1.896463 -0.0082,0.145521 5.104754,0.287168 11.36215,0.314769 6.257396,0.02759 17.488959,0.163714 24.959029,0.302469 16.65328,0.309326 16.96118,0.299945 18.22375,-0.555371 z"
         id="path3784" /></g></g></svg>
