<?xml version="1.0" encoding="UTF-8" standalone="no"?>
<!-- Created with Inkscape (http://www.inkscape.org/) -->

<svg
   width="99.430611mm"
   height="114.94065mm"
   viewBox="0 0 99.430611 114.94065"
   version="1.1"
   id="svg5"
   inkscape:version="1.2.2 (732a01da63, 2022-12-09)"
   xml:space="preserve"
   sodipodi:docname="dog.svg"
   xmlns:inkscape="http://www.inkscape.org/namespaces/inkscape"
   xmlns:sodipodi="http://sodipodi.sourceforge.net/DTD/sodipodi-0.dtd"
   xmlns="http://www.w3.org/2000/svg"
   xmlns:svg="http://www.w3.org/2000/svg"><sodipodi:namedview
     id="namedview7"
     pagecolor="#f0f0f0"
     bordercolor="#ffffff"
     borderopacity="1"
     inkscape:showpageshadow="0"
     inkscape:pageopacity="0"
     inkscape:pagecheckerboard="0"
     inkscape:deskcolor="#505050"
     inkscape:document-units="mm"
     showgrid="true"
     inkscape:zoom="1.436055"
     inkscape:cx="257.99848"
     inkscape:cy="218.3064"
     inkscape:current-layer="layer1"><inkscape:grid
       type="xygrid"
       id="grid132"
       dotted="true"
       empspacing="10"
       units="mm"
       spacingx="1"
       spacingy="1"
       originx="-91.220292"
       originy="-127.33424" /></sodipodi:namedview><defs
     id="defs2" /><g
     inkscape:label="Layer 1"
     inkscape:groupmode="layer"
     id="layer1"
     transform="translate(-91.220289,-127.33424)"><g
       id="g3431"><path
         id="path304"
         style="display:inline;fill:#cc8f75;fill-opacity:1;stroke-width:0.352778"
         d="m 165.38867,127.88281 c -4.46965,0.14286 -9.04799,2.13252 -11.58351,5.93149 -0.60887,0.72538 -1.22032,1.77746 -2.26414,1.83023 -3.35855,-0.38833 -6.83205,-0.92867 -10.16211,-0.62305 -2.77386,0.23687 -5.68568,0.64017 -8.23633,1.58204 -1.50197,0.46531 -2.82656,1.43998 -4.41016,1.60937 -1.07056,-0.0914 -1.98236,-0.76457 -3.01172,-1.03516 -1.69579,-0.56782 -3.64657,-1.01915 -5.49577,-1.28167 -3.37292,-0.47535 -6.94843,-0.57776 -10.22884,0.19574 -3.24416,0.92303 -6.34802,2.38776 -9.12304,4.30468 -2.617942,1.93167 -4.930196,4.6346 -6.53139,7.4937 -1.94871,3.47618 -3.22601,7.63208 -2.269394,11.60982 0.95384,2.89887 3.663597,5.05921 6.647776,5.56622 3.150298,0.57132 6.646018,0.20865 9.252938,-1.79032 1.1127,-0.81925 2.16487,-1.7177 3.25163,-2.57082 -0.6777,2.72982 -1.25379,5.53134 -1.00713,8.35986 0.2546,3.7599 1.43637,7.45279 3.65117,10.49354 1.24167,1.61631 2.70487,3.08344 4.32843,4.31445 0.70059,0.61632 1.91684,0.65289 2.28534,1.60168 0.0244,1.04547 -1.18089,1.43185 -1.89402,1.94047 -1.79363,1.03699 -3.28013,2.62082 -4.76306,4.07324 -0.58394,0.66619 -1.56822,0.85333 -2.33163,0.38595 -1.75548,-0.97742 -3.12354,-2.57429 -4.13059,-4.29137 -0.79322,-1.67166 -0.96314,-3.65204 -0.54085,-5.45009 0.0671,-0.56099 0.66823,-1.06145 0.49414,-1.62109 -1.12334,-0.33016 -2.29029,0.31882 -3.26076,0.84348 -2.00543,1.09189 -3.28891,3.12914 -3.87465,5.28994 -0.827112,2.89058 -1.00151,6.10034 0.003,8.91931 0.55014,1.26868 1.16411,2.67539 2.36914,3.44727 0.59071,0.007 1.19753,0.37197 1.23633,1.01172 0.99721,1.10533 2.48961,1.78585 3.97071,1.88086 0.95087,0.31542 0.57207,1.50726 0.47992,2.2415 -1.12345,5.80858 -0.5068,11.82079 1.29907,17.44885 0.15616,0.67857 0.5292,1.37271 0.56061,2.04241 -1.15096,2.58532 -2.66375,5.01992 -3.31079,7.80038 -0.19369,1.06316 -0.19953,2.07435 -0.28858,3.16412 1.46464,1.34785 2.76123,3.27536 4.91361,3.48366 1.51182,0.29522 3.16181,-0.19471 4.58053,0.51048 0.91256,0.70751 1.56737,1.71834 2.60791,2.27774 1.73421,0.97111 3.83028,0.85014 5.75166,0.7772 3.74308,-0.29745 7.54189,-1.22978 10.72051,-3.29126 0.85568,-0.564 1.54224,-1.36511 1.87305,-2.3379 0.43693,-0.81998 1.60414,-0.78124 2.16406,-0.11718 1.86691,0.8308 3.9581,1.03364 5.98047,1.16406 2.08293,0.0139 4.09972,-0.3268 5.88281,-1.45313 0.73221,-0.39625 1.26225,-1.50598 2.20898,-1.28711 0.65457,0.39401 0.65121,1.31322 1.04752,1.92312 0.57486,1.32644 1.17603,2.86477 2.64975,3.41087 2.88926,1.23916 6.11671,1.38868 9.21983,1.30066 2.89307,-0.15007 6.10549,-0.56303 8.21536,-2.7671 1.98076,-2.08862 1.7393,-5.61207 -0.009,-7.76989 -0.78927,-1.01415 -1.82189,-1.79572 -2.75,-2.67383 -0.83884,-9.6109 -1.55405,-19.25021 -3.62249,-28.70003 -0.96918,-4.45288 -2.4439,-8.78742 -4.35407,-12.92301 -0.39878,-0.73525 -0.20385,-1.72908 0.60333,-2.08661 1.71936,-0.8921 3.48318,-1.74158 4.95072,-3.03482 2.54731,-2.1547 4.96885,-4.62808 6.4064,-7.67838 1.27841,-2.95506 1.7962,-6.21082 1.86314,-9.35706 0.0346,-2.13056 -0.17416,-4.29629 -0.91344,-6.30602 -0.1933,-0.65871 0.6071,-0.99326 1.12014,-0.70435 1.952,0.6852 4.0875,0.45323 6.09861,0.20044 2.61408,-0.42866 5.22854,-2.0882 5.99269,-4.7439 0.78916,-2.75815 0.39025,-5.74918 -0.54347,-8.42212 -1.26995,-3.20724 -3.304,-6.0919 -5.70657,-8.55201 -2.77867,-2.7432 -6.25245,-4.79854 -9.91452,-6.23314 -2.63887,-0.98057 -5.29744,-1.44804 -8.14844,-1.32813 z m -21.13086,28.59571 c 1.33919,-0.0415 2.22982,1.12109 2.86888,2.14224 0.89316,1.12719 2.19379,1.80733 3.31049,2.67207 1.01213,0.55561 2.08854,1.00605 3.22125,1.22181 2.05759,0.99773 4.35968,1.22061 6.55249,1.7602 1.56459,0.57846 3.01616,1.44062 4.53842,2.12386 2.77174,1.34062 5.66215,3.18587 6.73432,6.23398 0.40405,1.04457 0.79285,2.36798 -0.0737,3.29916 -0.7622,0.86744 -1.42905,2.01184 -2.58375,2.38066 -0.33244,0.1043 -0.72455,-0.27849 -0.80273,0.23633 -0.70508,0.95289 -1.49711,1.97288 -2.59961,2.4707 -1.00577,0.30954 -1.79766,1.10433 -2.8086,1.43555 -3.92986,1.604 -8.10553,2.63866 -12.30166,3.15796 -0.79244,0.0512 -1.42595,0.59123 -2.23566,0.52566 -4.83728,0.22461 -9.68779,0.27727 -14.52908,0.15036 -1.10244,-0.0846 -2.16124,-0.46413 -3.27132,-0.55821 -2.97326,-0.45245 -6.22263,-0.9 -8.52946,-3.01405 -1.50949,-1.41863 -2.12608,-3.52194 -2.08399,-5.54883 -0.007,-1.83528 0.17917,-3.81886 1.42578,-5.27149 1.4016,-1.84878 3.3006,-3.30428 5.4668,-4.14257 0.79929,-0.45863 1.65182,-0.78568 2.55528,-0.94919 1.26812,-0.37663 2.49719,-1.17699 3.8041,-1.59183 1.66107,-0.36658 3.18536,-1.20719 4.72265,-1.91601 1.84746,-1.14061 2.71962,-3.20981 3.82617,-4.97657 0.65887,-0.91201 1.5974,-1.81836 2.79297,-1.84179 z m 0.36719,5.95703 c -1.49699,0.12525 -3.1671,0.87608 -3.77344,2.33593 -0.44666,1.44771 0.93683,2.60169 2.13477,3.0918 0.84612,0.34524 1.72851,0.59243 2.58984,0.89649 -0.12726,1.84963 -0.0707,4.00871 -1.55735,5.36991 -1.48787,1.39303 -3.77341,1.40882 -5.63387,0.89949 -1.45606,-0.41072 -2.1689,-2.12947 -3.69745,-2.3319 -0.48679,0.36513 -0.0122,1.09947 0.27539,1.48046 1.03573,1.17783 2.39507,2.19147 3.94336,2.54883 1.56911,0.15591 3.26293,0.18099 4.72248,-0.48594 0.92342,-0.57952 1.84868,-1.2646 2.4533,-2.18398 -0.0123,-0.8446 1.05124,-0.91749 1.54306,-0.43259 1.27842,0.98052 2.46146,2.35584 4.19327,2.44431 1.66945,0.19066 3.51577,-0.0598 4.74023,-1.32227 1.32096,-1.1253 2.05534,-3.0304 1.63823,-4.73407 -0.12372,-0.64196 -1.11476,-0.63077 -1.15687,0.0598 -0.25619,1.26276 -0.59119,2.64809 -1.63983,3.53759 -1.37218,1.37273 -3.73572,1.39911 -5.18365,0.1313 -1.20523,-0.88381 -2.3667,-1.96661 -2.75852,-3.46428 -0.31717,-0.71806 -0.50665,-1.72316 0.29596,-2.20614 1.31142,-0.89092 2.79283,-2.30386 2.42578,-4.04883 -0.21875,-0.86057 -0.95546,-1.57096 -1.88553,-1.5019 -1.19142,-0.0855 -2.43582,-0.14576 -3.66916,-0.084 z m -40.01953,21.37304 c 0.20407,2.33435 0.68025,4.8019 2.31445,6.58985 0.70528,1.17672 0.54607,2.63563 0.7246,3.95015 0.0542,1.55992 0.41221,3.15258 0.10844,4.69985 -0.15755,0.82272 -1.18499,0.86475 -1.71208,0.37054 -0.90511,-0.64331 -1.6665,-1.51919 -2.67174,-1.9932 -0.90044,-1.14462 -1.50287,-2.52917 -1.91265,-3.92023 -0.32221,-1.72923 -0.0765,-3.52066 0.23277,-5.23564 0.47958,-2.22706 1.76662,-4.15365 2.69551,-6.20546 0.0736,0.58138 0.14713,1.16276 0.2207,1.74414 z m 37.94531,18.23438 c 2.5649,0.0749 5.15441,-0.14196 7.70105,0.22325 1.99342,0.49083 3.82491,1.55966 5.42522,2.82705 2.24267,1.76984 3.48486,4.60676 3.44887,7.44394 0.0958,0.98399 -0.13132,2.07319 -1.00746,2.65371 -2.74982,2.17449 -5.92753,3.93049 -9.43062,4.47096 -3.92754,0.65913 -8.02288,0.73849 -11.90659,-0.23024 -2.19517,-0.6655 -4.14413,-1.94787 -6.04616,-3.19624 -0.68037,-0.37531 -1.32465,-1.12344 -0.93945,-1.93872 0.7828,-1.88924 1.97218,-3.59164 3.18381,-5.23096 1.96157,-2.61634 4.6274,-4.62513 7.56425,-6.03093 0.67187,-0.30603 1.31091,-0.79035 2.00708,-0.99182 z m -26.17383,14.41601 c 1.08079,1.17704 2.16076,2.35481 3.24219,3.53125 -0.0509,2.65109 0.11782,5.31425 -0.12891,7.95704 -0.0918,1.21549 -1.28865,1.81766 -1.88027,2.76696 -0.73043,0.77226 -1.11484,1.97678 -2.15879,2.38343 -0.72541,-0.0632 -0.6873,-0.90338 -0.41118,-1.40355 0.34068,-0.93135 0.9473,-1.73431 1.31548,-2.65114 -1.00612,0.0392 -1.50278,1.15538 -1.93945,1.92578 -0.65258,1.26176 -0.81145,2.68183 -0.95374,4.07018 -0.0651,0.96947 -1.26693,1.34267 -1.98572,0.78919 -0.9727,-0.64108 -0.54368,-1.96228 -0.36444,-2.89396 0.30048,-1.49562 1.00989,-2.85527 1.56925,-4.25605 0.27801,-0.64979 -0.6032,-0.22841 -0.75756,0.0531 -1.30976,1.29917 -1.62683,3.17593 -2.37108,4.78828 -0.19947,0.50409 -0.97338,0.49758 -1.07617,-0.0508 -0.11479,-1.00209 0.43705,-1.96914 0.72142,-2.91445 0.90724,-2.61382 2.27671,-5.03445 3.02272,-7.70078 0.34198,-1.73087 1.83984,-2.96362 2.26913,-4.65694 0.36362,-0.80974 0.95896,-1.48436 1.43986,-2.22392 0.14909,0.16211 0.29817,0.32421 0.44726,0.48632 z m 33.13282,5.3418 c 0.99914,0.1434 0.97483,1.40751 1.21379,2.15888 0.31036,1.50857 0.80096,3.00133 0.98738,4.52276 -0.10362,0.78708 -1.12319,0.64008 -1.49513,0.1331 -1.30237,-1.16885 -1.43311,-3.0586 -1.60839,-4.68779 -0.007,-0.73723 -0.12991,-2.07686 0.90235,-2.12695 z m -9.88868,0.52734 c 2.38737,0 4.77474,10e-6 7.16211,0 0.0198,2.14336 -0.24213,4.49709 1.06067,6.35954 0.72834,1.25799 2.1857,2.45814 2.64832,4.02132 0.42516,1.14328 -1.28185,2.09891 -2.05664,1.23438 -0.38836,-0.63119 -0.18672,-1.45554 -0.59961,-2.09961 -0.6067,-1.27402 -1.31556,-2.58642 -2.4336,-3.47852 0.11097,1.54268 1.18101,2.80304 1.56836,4.2793 0.17918,0.71823 0.69474,1.85185 -0.20703,2.2832 -0.78356,0.11612 -1.76782,0.28566 -2.42383,-0.27343 -0.61016,-0.83881 -0.36548,-1.99605 -0.8917,-2.88956 -0.48216,-0.98136 -0.96282,-2.12459 -1.94228,-2.68857 -0.0402,1.68478 1.10215,3.15249 1.11914,4.82227 -0.17905,0.96399 -1.37528,0.78041 -2.03481,0.45716 -0.85984,-0.38727 -1.91314,-0.73704 -2.39488,-1.59974 -0.0104,-1.5365 0.25779,-3.09682 0.37236,-4.64123 0.19199,-1.9288 0.38004,-3.858 0.57491,-5.78651 0.1595,0 0.31901,0 0.47851,0 z m 29.62305,4.88868 c 0.10991,1.15133 0.87918,2.06101 1.78516,2.71093 1.25088,1.06406 2.34706,2.46158 2.49024,4.15433 0.10391,0.84016 0.21849,2.02572 -0.63868,2.50583 -0.82861,0.30408 -1.10447,-0.80649 -1.05274,-1.42773 -0.13193,-1.89843 -1.49783,-3.49004 -2.95055,-4.60015 -0.61959,-0.41661 -1.5948,-1.01161 -2.27405,-0.52876 1.06057,1.66784 3.07096,2.70618 3.60734,4.72055 0.21823,0.99617 0.39604,2.14272 -0.078,3.08609 -0.58477,0.74716 -1.62678,0.97692 -2.52773,1.07813 -1.09103,0.0556 -1.49074,-1.15126 -1.57464,-2.0358 -0.35473,-2.50729 -1.99165,-5.10109 -4.6281,-5.60288 -0.28605,-0.10008 -1.02169,-0.1871 -0.68463,0.32894 1.05112,1.37809 2.73742,2.29115 3.31203,4.01978 0.27371,0.84783 0.67961,1.73683 0.59135,2.63956 -0.37068,0.88454 -1.52005,0.55311 -2.2758,0.58353 -1.69712,-0.14221 -3.48543,-0.34894 -4.98787,-1.20267 -0.70415,-0.71426 -0.84804,-1.80843 -1.25774,-2.70177 -0.55681,-1.67241 -1.22826,-3.32484 -1.56062,-5.05994 0.021,-0.89912 1.04939,-0.81346 1.65845,-1.07094 2.00727,-0.89393 4.14749,-1.48361 6.3475,-1.607 2.19412,-0.18221 4.39481,-0.27247 6.59171,-0.41581 0.0358,0.14192 0.0716,0.28385 0.10742,0.42578 z m -42.51172,-0.27344 c 2.10573,0.0731 4.34776,0.0831 6.25391,1.09375 1.63005,0.84075 3.0721,2.4942 2.84961,4.43945 -0.10541,2.00671 -1.0905,4.21375 -3.10995,4.92008 -1.77489,0.74957 -3.5827,1.51915 -5.48771,1.85336 -0.91996,-0.089 -0.88703,-1.25356 -0.86381,-1.95142 0.0815,-1.92707 0.66039,-3.79163 1.48271,-5.52396 0.083,-0.2915 0.4921,-1.21641 -0.16773,-0.92696 -1.39233,0.77029 -1.87811,2.46319 -2.29577,3.89539 -0.43882,1.70614 -0.44867,3.48016 -0.62806,5.22375 -1.24544,0 -2.49088,0 -3.73632,0 -0.0142,-2.10206 -0.13727,-4.28901 0.75195,-6.25586 0.29169,-0.81064 0.83778,-1.60767 0.8418,-2.47266 -0.71232,-0.0308 -1.16415,0.77512 -1.57227,1.27344 -1.03458,1.50337 -1.54205,3.32546 -1.47748,5.14435 0.0842,0.67829 -0.80189,1.08241 -1.19595,0.48542 -1.33842,-1.37596 -0.94918,-3.54682 -0.038,-5.04374 0.8175,-1.63155 2.34499,-2.7137 3.35904,-4.19497 0.29665,-0.59749 0.49903,-1.36573 1.26246,-1.52154 1.21694,-0.35783 2.51064,-0.40745 3.77161,-0.43788 z" /><path
         style="display:inline;fill:#ffffff;fill-opacity:1;stroke-width:0.352778"
         d="m 124.48218,237.01595 c 0.31023,-3.70037 1.88635,-6.75006 3.48854,-6.75006 0.8462,0 0.82442,0.9053 -0.0661,2.7485 -0.92354,1.91152 -1.36681,5.72466 -0.66299,5.70319 0.84591,-0.0258 5.1567,-1.60419 6.13893,-2.24777 1.14535,-0.75046 1.93702,-2.54083 1.93702,-4.38059 0,-1.5218 -0.99347,-2.79369 -2.95485,-3.78296 -1.37467,-0.69334 -5.12784,-1.03594 -7.75413,-0.7078 -1.64806,0.20591 -2.02372,0.38184 -2.18467,1.02313 -0.10691,0.42595 -0.76299,1.32736 -1.45797,2.00313 -2.69169,2.61733 -3.62891,5.291 -2.41654,6.89389 0.48151,0.63661 0.51873,0.57777 0.52916,-0.83637 0.0221,-2.99505 2.75174,-6.99194 3.95402,-5.78966 0.29915,0.29916 0.16319,0.93011 -0.5363,2.48879 -0.65569,1.46106 -0.93705,2.68387 -0.93705,4.07239 v 1.98436 h 1.35994 1.35995 z m 39.54184,0.39369 c -0.50115,-2.07092 -0.92755,-2.784 -2.49972,-4.18035 -1.20046,-1.0662 -1.5654,-1.61063 -1.38855,-2.07148 0.18856,-0.49137 0.4814,-0.57686 1.36834,-0.39947 2.63534,0.52707 4.54598,2.8368 5.06432,6.12214 0.25482,1.61511 0.67659,1.81675 2.41646,1.15526 0.73069,-0.27781 0.90491,-0.57902 0.90491,-1.56454 0,-1.81868 -0.46857,-2.74085 -2.2604,-4.44857 -1.72727,-1.64619 -1.96938,-2.25279 -1.04129,-2.60894 1.95189,-0.749 5.76516,3.03412 5.76933,5.72372 0.001,0.68802 0.14666,1.07782 0.35458,0.94932 0.60133,-0.37164 0.38862,-2.68095 -0.35825,-3.88942 -0.39107,-0.63276 -1.26296,-1.57145 -1.93754,-2.08597 -0.67458,-0.51453 -1.32983,-1.34718 -1.45611,-1.85034 l -0.22961,-0.91484 -4.09466,0.23982 c -3.96572,0.23227 -5.33659,0.50006 -7.67575,1.49943 -0.61141,0.26121 -1.2861,0.47493 -1.49931,0.47493 -0.21321,0 -0.38765,0.14443 -0.38765,0.32096 0,0.64089 2.16217,6.92021 2.499,7.25754 0.52384,0.5246 3.1142,1.14311 5.00424,1.19487 1.66443,0.0456 1.67991,0.0357 1.44766,-0.92407 z m -50.98512,-3.2805 c 0.15889,-2.69291 1.79354,-5.62063 3.14047,-5.62472 0.96792,-0.003 0.98994,0.32083 0.12441,1.8295 -1.26636,2.20736 -1.22121,3.02453 0.0645,1.1667 0.67136,-0.97014 1.55836,-2.06631 1.9711,-2.43593 0.68377,-0.61233 0.75044,-1.03613 0.75044,-4.77019 v -4.09815 l -1.55187,-1.69031 -1.55187,-1.69031 -0.5648,0.80636 c -0.31063,0.44349 -0.56547,0.96946 -0.5663,1.16883 -7.1e-4,0.19936 -0.4764,1.07685 -1.05682,1.94997 -0.58043,0.87313 -1.05599,1.86276 -1.05683,2.19919 -7e-4,0.33642 -0.65043,2.08267 -1.44356,3.88055 -1.53495,3.47946 -2.52864,6.29494 -2.30179,6.52179 0.0759,0.0759 0.40466,-0.70435 0.73061,-1.73386 0.63991,-2.02119 1.95493,-3.81211 2.7991,-3.81211 0.89868,0 0.97337,0.62844 0.24449,2.05716 -0.88987,1.7443 -1.58421,4.47034 -1.31639,5.16828 0.11305,0.29462 0.497,0.53567 0.85321,0.53567 0.50785,0 0.66585,-0.30835 0.73194,-1.42842 z m 33.58522,-0.77644 c -0.14344,-0.63059 -0.60297,-1.81489 -1.02118,-2.63178 -0.87962,-1.71815 -0.98239,-2.92447 -0.24917,-2.92447 0.93536,0 3.36935,3.8287 3.36935,5.30001 0,0.5215 0.18625,0.71308 0.61331,0.63083 1.09932,-0.21171 0.85677,-1.19204 -0.78976,-3.19206 -1.78803,-2.1719 -2.293,-3.49316 -2.293,-5.99965 v -1.67802 h -3.31675 -3.31675 l -0.20084,2.02847 c -0.11046,1.11566 -0.31873,3.2191 -0.46282,4.67431 -0.14408,1.45521 -0.26773,2.78902 -0.27477,2.96402 -0.0181,0.44887 2.49966,1.70252 3.13721,1.56212 0.44835,-0.0987 0.40362,-0.47296 -0.29442,-2.46326 -0.83077,-2.36871 -0.73931,-3.39991 0.26729,-3.01365 0.89446,0.34324 2.39097,2.90826 2.59821,4.45332 0.18068,1.34711 0.26416,1.43634 1.34377,1.43634 1.11702,0 1.1434,-0.034 0.89032,-1.14653 z m 4.56844,-4.99859 c 0,-0.0813 -0.22403,-1.07353 -0.49784,-2.20486 -0.27382,-1.13133 -0.59597,-2.50002 -0.7159,-3.04153 -0.13108,-0.59188 -0.37265,-0.88902 -0.60565,-0.74502 -0.57233,0.35372 -0.0789,4.2347 0.66923,5.2633 0.55142,0.75817 1.15016,1.13721 1.15016,0.72811 z m -3.70417,-9.03431 c 3.62694,-0.51226 5.96587,-1.44997 9.08403,-3.64188 1.94129,-1.36463 2.02847,-1.49203 2.02847,-2.96414 0,-4.13323 -1.93642,-6.97777 -6.17361,-9.06887 -1.94949,-0.9621 -2.42314,-1.04568 -5.99722,-1.05833 l -3.88056,-0.0137 -2.90732,1.53701 c -3.36679,1.77992 -5.81431,4.20737 -8.16526,8.09832 -1.21608,2.01268 -1.44879,2.64229 -1.12211,3.03592 0.49265,0.5936 3.98758,2.69706 5.53013,3.32835 2.52713,1.03423 7.3658,1.34589 11.60345,0.74737 z m -40.23474,-23.18515 c -0.36361,-4.85315 -0.39067,-5.01376 -0.95268,-5.6551 -0.97507,-1.11271 -1.76794,-3.03029 -1.99561,-4.8264 l -0.2253,-1.77753 -0.98641,1.99415 c -0.70233,1.41984 -1.04377,2.75252 -1.18557,4.62733 -0.17607,2.32818 -0.0938,2.86336 0.71065,4.62043 0.50039,1.09299 1.04874,1.98725 1.21855,1.98725 0.16982,0 0.84219,0.47625 1.49417,1.05834 1.96086,1.75065 2.18743,1.51156 1.9222,-2.02847 z m 41.6244,-10.63682 c 0.10812,-0.17494 1.18905,-0.42823 2.40207,-0.56287 4.00862,-0.44495 10.76328,-2.45273 12.6669,-3.76514 0.51502,-0.35507 1.0802,-0.64559 1.25594,-0.64559 0.53365,0 2.57016,-2.16387 2.57016,-2.73089 0,-0.38504 0.12118,-0.42993 0.44197,-0.1637 0.52209,0.4333 1.05768,0.083 2.44357,-1.59826 0.84592,-1.0262 0.90455,-1.27324 0.58061,-2.44644 -0.80436,-2.91318 -2.7385,-4.80578 -6.99393,-6.84375 -1.64924,-0.78983 -3.25688,-1.57278 -3.57254,-1.73988 -0.31567,-0.1671 -1.18879,-0.40109 -1.94028,-0.51999 -1.79791,-0.28445 -4.03648,-0.88014 -4.80114,-1.27758 -0.33692,-0.17512 -0.78918,-0.3184 -1.00502,-0.3184 -0.43085,0 -2.86294,-1.07949 -3.14491,-1.39588 -0.097,-0.10885 -0.75663,-0.58612 -1.46582,-1.06059 -0.70918,-0.47446 -1.55765,-1.31674 -1.88548,-1.87171 -1.43479,-2.4289 -3.57674,-1.96462 -5.16451,1.11945 -1.06755,2.0736 -2.36791,3.59626 -3.58507,4.19795 -1.7335,0.85694 -4.11114,1.833 -4.46511,1.833 -0.2073,0 -0.65258,0.14541 -0.98949,0.32312 -1.22958,0.64858 -3.1986,1.44077 -3.5811,1.44077 -0.21584,0 -0.6681,0.15106 -1.00501,0.33569 -0.33692,0.18463 -1.24589,0.61762 -2.01994,0.96221 -2.07054,0.92176 -4.6217,3.54654 -5.08183,5.22849 -0.49207,1.79872 -0.45551,4.62734 0.0778,6.02119 1.12474,2.93943 3.65066,4.3382 9.23357,5.11326 1.55223,0.21549 2.88837,0.45746 2.96922,0.5377 0.3021,0.29987 15.87075,0.13297 16.05933,-0.17216 z m -12.23408,-9.18482 c -1.82359,-1.15648 -2.85734,-2.48758 -2.67493,-3.44435 0.21016,-1.10233 1.44647,-0.89661 2.89077,0.48101 1.1428,1.09004 1.66131,1.3238 3.175,1.43137 2.95914,0.2103 4.67849,-1.23479 4.87673,-4.09883 l 0.10741,-1.55173 -1.5875,-0.5304 c -3.78722,-1.26533 -4.32036,-4.40335 -1.03305,-6.08041 1.14696,-0.58514 1.95099,-0.70152 4.27307,-0.61852 2.62927,0.094 2.91673,0.17803 3.5595,1.04068 1.18504,1.59043 0.41767,3.74079 -1.91896,5.37743 -0.74333,0.52066 -0.76309,0.63641 -0.32129,1.88196 0.48163,1.35781 0.85248,1.80654 2.63205,3.1848 2.25196,1.74411 5.2325,0.34651 5.71655,-2.68053 0.23259,-1.45458 0.78385,-1.96172 1.73545,-1.59655 1.30062,0.49909 0.90823,3.9153 -0.63328,5.51358 -1.46764,1.52167 -2.6196,2.02115 -4.66143,2.02115 -2.00547,0 -2.98757,-0.41794 -4.75889,-2.02522 -0.9194,-0.83425 -1.41472,-1.00662 -1.41472,-0.49233 0,0.48986 -1.76058,2.11145 -2.92086,2.69027 -0.60485,0.30174 -2.00916,0.53284 -3.23789,0.53284 -1.79454,0 -2.45235,-0.1792 -3.80373,-1.03622 z"
         id="path403"
         sodipodi:nodetypes="ssssssssssssssscccsssssssssscsssscsssssssscsssscccscscsssssssssssssssscccsssssssssssssssssssscssssssssscsssssssssssssssssssssssssssssscssssssssscssssssssssssssss" /><path
         style="display:inline;fill:#000000;stroke-width:0.352778"
         d="m 118.99401,241.41342 c -0.92579,-0.45367 -2.05816,-1.26115 -2.51636,-1.79438 -0.74173,-0.86322 -1.09874,-0.97802 -3.25562,-1.04693 -2.70243,-0.0863 -4.02582,-0.63078 -5.70293,-2.34618 -2.01051,-2.05639 -1.85806,-4.09764 0.7085,-9.48681 l 1.42759,-2.99761 -0.9141,-3.52878 c -1.63993,-6.33075 -1.82585,-10.57843 -0.73506,-16.79387 0.21505,-1.22541 0.18084,-1.27768 -0.96121,-1.46834 -1.96027,-0.32726 -3.18225,-0.93351 -3.37615,-1.67498 -0.10087,-0.38572 -0.42423,-0.70131 -0.71857,-0.70131 -0.73545,0 -2.12344,-1.62121 -3.020302,-3.52778 -1.429498,-3.03885 -0.79713,-9.58292 1.208922,-12.51056 1.14026,-1.6641 3.34902,-3.08276 5.10842,-3.28107 1.74123,-0.19626 1.80748,-0.0712 0.99386,1.87604 -1.30139,3.11465 0.8187,7.55525 4.56012,9.55133 0.99712,0.53198 1.00999,0.52516 2.86818,-1.51943 1.02946,-1.13273 2.75511,-2.52844 3.84784,-3.11214 1.08971,-0.58209 1.98184,-1.18133 1.98252,-1.33165 7e-4,-0.15032 -0.41939,-0.43324 -0.93348,-0.62869 -1.00689,-0.38282 -4.02583,-2.77861 -5.30914,-4.21327 -1.27373,-1.42395 -3.17428,-5.28817 -3.81716,-7.76111 -0.45111,-1.73529 -0.55576,-3.23698 -0.43021,-6.17362 0.0912,-2.1343 0.28908,-4.1727 0.43964,-4.52978 0.18497,-0.43867 -0.48744,-0.12809 -2.0733,0.95763 -2.91234,1.99386 -4.59051,2.46465 -7.98345,2.23961 -3.241762,-0.215 -5.052094,-1.06125 -6.996976,-3.27075 -2.027611,-2.30348 -2.512409,-4.59814 -1.750218,-8.28418 2.226878,-10.76942 12.730384,-19.03891 24.182314,-19.03891 2.60118,0 8.05906,1.07166 10.5953,2.08039 2.34993,0.93464 2.53261,0.92935 4.87315,-0.14124 3.58498,-1.6398 6.82125,-2.24342 12.17536,-2.2709 3.7023,-0.019 6.63116,0.28526 8.07385,0.83876 0.35783,0.13728 0.85309,-0.31063 1.5296,-1.38341 1.90468,-3.02031 4.88459,-5.12395 8.71479,-6.15213 1.89774,-0.50943 7.889,-0.33897 10.21672,0.29069 2.39363,0.64748 6.98836,3.01984 9.17904,4.73933 7.55925,5.93337 11.38974,15.40728 8.3885,20.74725 -1.84934,3.29047 -6.96386,4.83298 -12.01874,3.62481 -0.95326,-0.22784 -0.96797,-0.20846 -0.59138,0.77904 1.16513,3.05516 0.9913,9.3994 -0.36559,13.34328 -1.63208,4.74371 -5.64985,9.40586 -10.05989,11.67329 -3.35606,1.72553 -3.27688,1.54817 -1.96338,4.39784 2.5488,5.52969 3.9287,10.82958 5.28061,20.28161 0.74667,5.22042 1.79624,15.73254 1.8007,18.03527 0.002,1.15164 0.25169,1.61208 1.58028,2.91689 4.39799,4.31929 3.82037,9.05337 -1.40654,11.52766 -1.11752,0.52901 -2.42861,0.69495 -6.30152,0.79756 -8.29604,0.2198 -10.14146,-0.68957 -12.17139,-5.99774 l -0.36046,-0.94257 -1.24723,1.17629 c -1.38808,1.30912 -3.58517,1.94358 -6.73051,1.94358 -2.38721,0 -5.37167,-0.62614 -6.49606,-1.36286 -0.61491,-0.40291 -0.89785,-0.4443 -0.99732,-0.14589 -0.72315,2.16944 -3.02921,3.77537 -7.1469,4.97708 -6.09984,1.78018 -8.73045,1.92428 -11.38466,0.62364 z m 5.56588,-4.00378 c 0.12606,-1.11566 0.47706,-2.81056 0.77998,-3.76646 0.64121,-2.02334 2.0743,-3.58176 2.7659,-3.00778 0.35343,0.29332 0.26961,0.80359 -0.40454,2.46267 -0.53722,1.32212 -0.85034,2.79797 -0.85034,4.00805 v 1.91536 l 1.85209,-0.52097 c 1.01864,-0.28653 2.16958,-0.61603 2.55764,-0.73222 0.38805,-0.11619 1.29614,-0.58077 2.01797,-1.0324 1.04882,-0.65622 1.42094,-1.19442 1.85268,-2.67957 0.73407,-2.52512 1.5711,-11.68676 1.08294,-11.85328 -1.80925,-0.61715 -6.27095,-3.085 -7.17439,-3.96827 -1.24271,-1.21499 -1.30998,-1.4384 -0.74883,-2.48693 0.29631,-0.55365 0.59165,-0.66065 1.31938,-0.478 0.5157,0.12943 1.01859,0.35018 1.11754,0.49056 0.18664,0.26476 1.72844,1.22486 3.91655,2.43888 1.47958,0.8209 6.06609,1.83606 8.2954,1.83606 4.29326,0 11.69701,-2.16865 13.63144,-3.99282 1.25942,-1.18764 3.12376,-2.35718 3.75753,-2.35718 1.0914,0 1.62425,1.26454 0.96001,2.27829 -0.60272,0.91988 -4.59031,3.66569 -6.74489,4.64447 -0.77611,0.35257 -1.4608,0.66898 -1.52154,0.70312 -0.40518,0.22783 3.74315,15.56709 4.30836,15.93099 1.02176,0.65783 3.04831,1.12745 4.8861,1.13226 1.70454,0.004 2.02599,-0.0933 2.01298,-0.61205 -0.0375,-1.49344 -1.07768,-3.38129 -2.60287,-4.72382 -1.24947,-1.09983 -1.54592,-1.54889 -1.2544,-1.90016 0.78462,-0.94541 4.14597,0.77649 5.06546,2.59485 0.26208,0.51828 0.67239,1.77576 0.91181,2.79441 0.42732,1.81813 0.45891,1.85198 1.72303,1.84668 2.00748,-0.008 2.2457,-0.31024 1.95781,-2.48048 -0.21744,-1.63916 -0.47843,-2.11857 -1.95977,-3.59991 -1.96731,-1.96731 -2.16822,-2.73365 -0.71667,-2.73365 0.67824,0 1.50451,0.47447 2.61099,1.4993 1.60264,1.48439 2.38079,3.04034 2.40811,4.81515 l 0.0141,0.91749 0.54692,-1.00948 c 0.88344,-1.63061 0.37482,-3.1295 -1.78257,-5.25314 -1.03437,-1.0182 -1.97122,-2.16877 -2.0819,-2.55682 -0.11068,-0.38806 -0.45165,-3.48368 -0.75771,-6.87917 -1.53949,-17.0792 -3.32627,-25.91031 -6.60938,-32.66682 l -1.04548,-2.15155 -1.99837,0.50154 c -2.88801,0.72482 -4.55854,1.0406 -6.81161,1.28759 -1.63425,0.17916 -2.13678,0.10024 -2.80445,-0.44041 -0.77343,-0.62628 -0.7852,-0.70176 -0.23934,-1.53485 0.4815,-0.73486 0.95348,-0.91504 2.92645,-1.11718 1.2938,-0.13255 3.17058,-0.46452 4.17063,-0.7377 4.00666,-1.09448 4.68376,-1.30546 5.75216,-1.79235 0.6114,-0.27863 1.21504,-0.5066 1.34142,-0.5066 0.74534,0 6.35962,-4.16164 7.57889,-5.61793 4.31504,-5.15384 5.46944,-13.17388 2.78284,-19.33349 -0.95675,-2.19357 -3.33875,-5.51311 -5.37416,-7.48939 -1.79903,-1.74677 -2.11195,-3.06545 -0.90613,-3.8185 1.01212,-0.63208 1.58393,-0.23369 4.79999,3.34431 1.52714,1.69899 3.09411,3.37111 3.48216,3.71582 1.82073,1.61736 5.0643,2.48834 7.32012,1.96565 3.94567,-0.91424 5.05036,-2.34556 4.77548,-6.18745 -0.63193,-8.83211 -11.59262,-18.09945 -21.38451,-18.08076 -2.70599,0.005 -6.44741,1.14118 -7.72631,2.34594 -0.23907,0.22521 -0.56245,0.46333 -0.71862,0.52916 -0.40307,0.16991 -2.69918,3.09787 -2.52162,3.21553 0.0809,0.0536 1.25838,0.64819 2.61657,1.32128 4.28869,2.12534 5.60273,3.59739 4.33917,4.86094 -0.69337,0.69337 -1.61975,0.49209 -3.61787,-0.7861 -5.01641,-3.20896 -8.53735,-4.22667 -14.656,-4.2362 -7.26836,-0.0113 -10.9652,1.14376 -16.51311,5.15961 -2.82912,2.04786 -2.95499,2.10015 -3.61597,1.50198 -1.27468,-1.15357 -0.63849,-2.68649 1.6474,-3.96948 0.64693,-0.3631 0.64578,-0.38084 -0.0392,-0.60721 -0.38805,-0.12825 -1.10243,-0.37324 -1.5875,-0.54443 -0.48507,-0.17119 -2.52526,-0.56671 -4.53375,-0.87894 -3.38024,-0.52547 -3.88981,-0.52395 -6.85203,0.0204 -6.63425,1.21921 -11.45387,4.36346 -15.10378,9.85351 -2.499127,3.75908 -3.551248,9.21291 -2.214012,11.47667 1.281694,2.16973 4.869599,3.56185 7.799142,3.02609 3.3898,-0.61994 9.49279,-5.86423 12.26138,-10.53619 1.46085,-2.46518 2.53355,-3.17876 3.53236,-2.34982 0.78374,0.65045 0.63627,1.82891 -0.39932,3.19085 -1.41356,1.85904 -4.23116,7.99346 -4.86237,10.58622 -1.07248,4.40538 -0.46095,8.93911 1.74788,12.95827 1.54357,2.80866 3.58827,4.75075 6.50784,6.18128 4.02855,1.97391 6.47807,2.56161 12.7604,3.06154 4.20843,0.3349 5.23126,0.70531 5.23126,1.89445 0,1.49968 -1.25508,1.79664 -5.54485,1.31194 -2.09207,-0.23637 -4.0743,-0.48182 -4.40495,-0.54542 -0.74911,-0.1441 -1.23725,0.61081 -2.84253,4.39595 -2.9539,6.96515 -3.65463,12.00039 -4.31189,30.98405 l -0.17501,5.05489 -1.75283,1.96663 c -0.96405,1.08165 -2.01225,2.51332 -2.32932,3.1815 -0.64721,1.36389 -0.46434,3.27513 0.38044,3.97624 0.43884,0.36419 0.51983,0.2617 0.51983,-0.65779 0,-2.43048 1.97498,-6.40552 3.18255,-6.40552 0.9896,0 1.01458,0.34588 0.16121,2.23181 -0.98873,2.18506 -1.38538,4.14505 -1.08281,5.35059 0.18954,0.75518 0.42325,0.88427 1.60095,0.88427 h 1.379 z m 12.46002,-61.08194 c -0.88593,-0.56184 -1.86951,-1.39091 -2.18573,-1.84238 -1.2505,-1.78534 -0.18696,-3.16942 1.26375,-1.64465 1.54057,1.61921 2.47594,2.03911 4.54222,2.03911 3.04029,0 4.54637,-1.66114 4.55322,-5.022 0.002,-0.85032 -0.18735,-1.01273 -1.59046,-1.36604 -1.68264,-0.42369 -3.34646,-1.97315 -3.34646,-3.11645 0,-1.8755 3.11225,-3.54828 6.60164,-3.54828 2.50531,0 3.62891,0.72798 3.62891,2.35114 0,1.88268 -0.76894,3.08629 -2.75334,4.30976 -0.37222,0.22948 -0.34757,0.56553 0.1288,1.7561 0.77822,1.94497 3.42346,4.283 4.84577,4.283 1.47557,0 3.31035,-1.48246 3.59701,-2.9063 0.42037,-2.08795 0.5729,-2.38537 1.22335,-2.38537 1.23258,0 1.43968,2.13052 0.40429,4.15919 -2.01097,3.94014 -6.24837,4.37142 -9.87221,1.00479 -0.93551,-0.86912 -1.23233,-0.99331 -1.38113,-0.57787 -0.10424,0.29104 -0.66583,0.97457 -1.24797,1.51895 -2.43004,2.27238 -5.76759,2.66412 -8.41166,0.9873 z m -8.19907,-13.40919 c -2.55277,-2.66998 -0.98323,-9.52186 1.99623,-8.71465 1.77797,0.48169 2.74395,3.34833 2.23441,6.63084 -0.29597,1.90666 -0.87966,2.69773 -2.18164,2.95673 -0.8238,0.16387 -1.21848,-0.004 -2.049,-0.87292 z m 27.18893,-1.1385 c -1.09448,-0.63619 -1.97876,-3.09482 -1.98724,-5.52529 -0.007,-1.91594 0.11579,-2.34443 0.89195,-3.12059 2.35702,-2.35703 5.52754,1.4616 4.91448,5.91909 -0.34316,2.49499 -2.08208,3.73653 -3.81919,2.72679 z m -42.91721,73.13603 c 0,-2.75844 2.06934,-6.77843 3.25507,-6.32342 0.46993,0.18033 0.43149,0.44063 -0.28221,1.91116 -0.45444,0.93631 -0.9259,2.17864 -1.0477,2.76073 -0.18479,0.88315 -0.0469,0.76637 0.83301,-0.70556 0.57994,-0.97014 1.62524,-2.39889 2.32286,-3.175 l 1.26842,-1.41111 -3.5e-4,-3.88056 -3.6e-4,-3.88055 -2.10943,-2.11667 c -3.57949,-3.59176 -4.55599,-7.97181 -3.37881,-15.15555 0.73081,-4.45974 1.70603,-5.7178 3.1745,-4.09517 0.5861,0.64764 0.58645,0.89253 0.007,4.9667 -0.72705,5.11311 -0.42551,7.89779 1.13831,10.51204 l 0.9902,1.65532 0.26506,-3.35139 c 0.78383,-9.91079 2.01405,-15.83887 4.46838,-21.53174 0.78263,-1.8153 1.34016,-3.38335 1.23898,-3.48454 -0.31672,-0.31671 -3.77206,1.06724 -5.62735,2.2539 -3.6325,2.3234 -6.71022,7.09617 -8.30863,12.8846 -0.67975,2.46165 -0.82809,3.85143 -0.82838,7.76111 -3e-4,4.09438 0.13405,5.24944 0.95773,8.23353 0.52695,1.90906 0.95809,3.84665 0.95809,4.30575 0,0.4591 -0.7301,2.54404 -1.62243,4.63319 -1.67606,3.92392 -2.26435,6.11086 -1.64388,6.11086 0.19462,0 0.44937,-0.59739 0.56613,-1.32755 0.25939,-1.62211 2.1316,-4.66967 2.86874,-4.66967 0.73666,0 0.67292,0.81988 -0.19621,2.52352 -1.07351,2.10424 -1.44329,4.81229 -0.71522,5.23785 1.00031,0.58467 1.44836,0.38614 1.44836,-0.64178 z m 33.76296,-1.27198 c -0.10781,-0.66438 -0.59944,-2.0509 -1.09251,-3.08116 -1.00127,-2.09216 -0.74318,-2.99326 0.53233,-1.85853 0.85453,0.76022 2.41902,3.87374 2.42433,4.82472 0.004,0.68532 0.0566,0.71018 0.85654,0.40323 1.00516,-0.38572 0.61037,-1.82004 -1.00003,-3.63326 -1.19896,-1.34996 -1.65385,-2.21572 -1.97368,-3.75636 -0.2286,-1.10114 -0.34516,-2.37073 -0.25902,-2.82132 0.15431,-0.8072 0.10486,-0.82087 -3.36376,-0.92973 -2.14566,-0.0673 -3.55563,0.0273 -3.61065,0.2423 -0.0497,0.19403 -0.26553,2.47961 -0.47972,5.07907 -0.43844,5.32081 -0.44433,5.30451 2.16085,5.97215 1.22371,0.31361 1.32233,0.28233 1.31517,-0.4172 -0.004,-0.41593 -0.32176,-1.44826 -0.70556,-2.29407 -0.81474,-1.79554 -0.88085,-2.51912 -0.23013,-2.51912 1.11222,0 3.0601,3.3966 3.0601,5.33603 0,0.52501 0.26383,0.6612 1.28088,0.6612 1.26144,0 1.27791,-0.0183 1.08486,-1.20795 z m 4.55969,-5.23025 c -0.11683,-0.43656 -0.49201,-2.02816 -0.83373,-3.53688 -0.41712,-1.84156 -0.77276,-2.71115 -1.08209,-2.64583 -0.25342,0.0535 -0.45238,0.21636 -0.44213,0.36188 0.0102,0.14552 0.0186,1.11214 0.0186,2.14805 0,1.50953 0.19261,2.13734 0.97014,3.16215 1.10677,1.45876 1.68013,1.67259 1.36918,0.51063 z m -41.41934,-31.39722 1.21171,-2.55764 -0.90959,-0.38687 c -1.3636,-0.57997 -4.1185,-3.53226 -4.95329,-5.30819 -0.405,-0.86161 -0.83399,-2.27877 -0.9533,-3.14926 -0.20527,-1.49761 -0.25109,-1.55179 -0.85216,-1.00783 -1.61231,1.45912 -2.34268,7.7838 -1.2115,10.49109 0.68938,1.64992 4.14192,4.47634 5.46796,4.47634 0.88045,0 1.12087,-0.27948 2.20017,-2.55764 z"
         id="path300"
         sodipodi:nodetypes="ssssscsssssssssssssssscssssssssssssssssssssscsssscsssssscsssscssssssssssssssscscssssscssssscssssscsssssssssssssssscssssssssssssscssssssssssssssscssssssssccsssscsssssssssssssscssscscssscssssscccssscscssssssssssssssccssscsssssssscsssssssssssssscsssssss" /></g></g></svg>
