<?xml version="1.0" encoding="UTF-8" standalone="no"?>
<!-- Created with Inkscape (http://www.inkscape.org/) -->

<svg
   width="161.47501mm"
   height="167.93944mm"
   viewBox="0 0 161.47501 167.93944"
   version="1.1"
   id="svg5"
   inkscape:version="1.2.2 (732a01da63, 2022-12-09)"
   xml:space="preserve"
   sodipodi:docname="mug.svg"
   xmlns:inkscape="http://www.inkscape.org/namespaces/inkscape"
   xmlns:sodipodi="http://sodipodi.sourceforge.net/DTD/sodipodi-0.dtd"
   xmlns="http://www.w3.org/2000/svg"
   xmlns:svg="http://www.w3.org/2000/svg"><sodipodi:namedview
     id="namedview7"
     pagecolor="#f0f0f0"
     bordercolor="#ffffff"
     borderopacity="1"
     inkscape:showpageshadow="0"
     inkscape:pageopacity="0"
     inkscape:pagecheckerboard="0"
     inkscape:deskcolor="#505050"
     inkscape:document-units="mm"
     showgrid="true"
     inkscape:zoom="1.4142136"
     inkscape:cx="303.70236"
     inkscape:cy="359.5638"
     inkscape:current-layer="layer1"><inkscape:grid
       type="xygrid"
       id="grid132"
       dotted="true"
       empspacing="10"
       units="mm"
       spacingx="1"
       spacingy="1"
       originx="-32.500138"
       originy="-77.666421" /></sodipodi:namedview><defs
     id="defs2" /><g
     inkscape:label="Layer 1"
     inkscape:groupmode="layer"
     id="layer1"
     transform="translate(-32.500138,-77.666422)"><g
       id="g3570"><path
         id="path1207"
         style="display:inline;fill:#ffffff;stroke-width:0.352778"
         d="m 87.533203,78.21875 c -3.72438,0.06028 -7.412362,0.09507 -11.076482,0.68377 -6.1358,0.756363 -12.208729,2.242743 -18.097346,4.181464 -0.78775,0.201773 -1.394925,0.837187 -2.233538,0.855099 -2.207022,0.757257 -4.305942,1.806953 -6.408685,2.811265 -3.275549,1.823855 -6.500457,3.871108 -9.330376,6.392367 -3.07778,2.729493 -5.389223,6.332766 -6.634614,10.216055 -0.323716,0.82513 -0.648111,1.65014 -0.521714,2.55373 -0.06706,37.36185 -0.134106,74.7237 -0.201151,112.08555 0.831837,2.75887 1.905698,5.4829 3.652659,7.80129 3.958712,5.4313 9.831571,9.10441 15.867416,11.84472 5.428756,2.40919 11.074884,4.19055 16.920486,5.35703 4.316008,0.85295 8.689232,1.29252 13.069204,1.81141 3.271912,0.24015 6.762538,0.26358 10.125761,0.25134 3.117264,-0.0316 6.163211,-0.0534 9.209447,-0.4781 5.31746,-0.55964 10.63604,-1.26565 15.81217,-2.64335 5.67103,-1.47514 11.26695,-3.45934 16.45931,-6.24699 1.58496,-0.86511 3.17203,-1.75056 4.55881,-2.91317 2.2924,-1.3139 4.15805,-3.27175 5.93657,-5.24865 2.33307,-2.61022 4.24577,-5.73787 4.72458,-9.26201 0.67954,-4.3861 0.41365,-8.89996 0.48976,-13.36337 0.0288,-0.59965 0.8997,-0.76424 1.28626,-1.17994 3.70307,-2.57409 7.32036,-5.27593 10.82475,-8.11475 3.38264,-2.78219 6.71622,-5.54078 9.82638,-8.62885 4.92154,-4.85642 9.69383,-10.03368 13.42394,-15.90849 3.85563,-6.2398 6.95193,-13.12114 7.83313,-20.46381 1.17773,-9.30812 -0.30052,-19.04779 -4.70517,-27.37385 -1.89777,-3.56366 -4.42715,-6.7904 -7.46733,-9.50336 -3.09515,-2.81198 -7.12114,-4.50151 -11.27672,-4.87435 -3.72436,-0.38664 -7.57361,-0.0936 -11.27259,0.26811 -2.54564,0.25325 -5.00078,0.86955 -7.55964,1.08661 -0.50883,0.0891 -0.95193,-0.19976 -0.95444,-0.73498 -0.39029,-2.46664 -0.35329,-4.92659 -1.19086,-7.29398 -1.43329,-4.391507 -4.73429,-7.870518 -8.25013,-10.725622 -4.58415,-3.613306 -10.0124,-6.136399 -15.51275,-8.168699 -4.11635,-1.542756 -8.4334,-2.445155 -12.69531,-3.480725 -3.14529,-0.581135 -6.3225,-0.98589 -9.50093,-1.334952 C 97.742732,78.168821 92.5489,78.185954 87.533203,78.21875 Z m 78.412107,52.25195 c 2.45012,0.0909 4.93251,0.49509 7.20508,1.4375 1.45151,0.77585 1.92892,2.52307 2.31974,4.00404 1.11302,5.21234 0.53788,10.71501 -1.27415,15.70462 -1.76792,5.22775 -5.11891,9.78888 -9.15458,13.50171 -2.24586,2.01415 -4.43763,4.09761 -6.8871,5.86581 -2.35004,1.78171 -4.73842,3.54484 -7.23047,5.10937 -0.71268,0.21076 -0.85298,-0.76132 -0.87305,-1.28125 -0.31051,-6.10257 -0.17182,-12.21843 -0.22353,-18.32694 -0.007,-7.64427 -0.001,-15.28855 -0.003,-22.93283 3.90095,-1.62286 8.11015,-2.27271 12.27403,-2.81328 1.27703,-0.14819 2.56058,-0.26052 3.84706,-0.26875 z" /><path
         id="path304"
         style="display:inline;fill:#c8d3ec;fill-opacity:1;stroke-width:0.352778"
         d="m 87.646484,78.320312 c -6.206512,0.072 -12.351582,0.49083 -18.40009,1.905967 -3.322403,0.795643 -6.712475,1.548588 -9.983832,2.601728 -3.077965,1.190711 -6.203806,2.288115 -9.108963,3.87547 -3.74436,2.022016 -7.477146,4.224467 -10.516475,7.239859 -2.34795,2.369023 -4.362462,5.33394 -5.389077,8.402364 -0.963076,2.48656 -0.741343,5.19847 -0.864929,7.80999 -0.214281,16.26096 -0.11127,32.52414 -0.148956,48.7861 -0.004,19.99206 -6.3e-4,39.98412 -0.0017,59.97618 1.192578,2.83511 2.265172,5.84876 4.466797,8.08594 1.654994,1.76601 3.288158,3.58743 5.193359,5.08593 0.935552,0.28343 1.499871,1.19725 2.37373,1.61962 3.311285,2.0423 6.84116,3.78161 10.48206,5.20692 2.595907,0.89739 5.125219,1.99838 7.816166,2.59634 4.289133,1.17565 8.692806,2.07691 13.089931,2.52319 6.670319,0.79903 13.373239,1.33254 20.102781,0.86153 5.918504,-0.41082 11.861084,-1.00798 17.682204,-2.28221 4.46164,-0.97887 8.97886,-2.15039 13.18946,-4.01562 1.91609,-0.50709 3.63953,-1.57523 5.42983,-2.48282 5.46767,-2.8606 10.68458,-6.66362 13.97649,-11.98414 1.26262,-2.04056 2.19703,-4.30393 2.38079,-6.74007 0.36582,-4.20947 0.34274,-8.51155 0.5039,-12.76758 6.90747,-5.02321 13.80912,-10.12171 19.99273,-16.00758 6.99091,-6.67854 13.65184,-13.94009 18.16952,-22.56216 2.08189,-3.99084 3.61948,-8.32969 4.42191,-12.66813 0.91857,-4.92646 1.03144,-9.92539 0.51449,-14.87665 -0.62421,-5.81225 -2.59146,-11.38535 -5.51682,-16.45672 -1.65638,-2.65772 -3.42001,-5.31044 -5.71037,-7.46893 -1.34368,-1.14567 -2.67339,-2.32754 -4.2693,-3.11912 -2.6343,-1.58421 -5.74183,-2.46124 -8.73692,-2.69227 -4.39016,-0.34191 -8.7382,0.24685 -13.10743,0.79101 -1.73575,0.25246 -3.48246,0.51482 -5.16406,1.01172 -0.97303,-0.0692 -0.92352,-1.2742 -1.01731,-1.99229 -0.1403,-2.79737 -0.34319,-5.69477 -1.70233,-8.21033 -1.72383,-3.519769 -4.57562,-6.308247 -7.4729,-8.875507 -2.12645,-1.750945 -4.59324,-3.02986 -6.95985,-4.420655 -2.08771,-1.125027 -4.26343,-2.091153 -6.45894,-2.983638 -0.65362,-0.241161 -1.46033,-0.166706 -1.91964,-0.778155 -1.3653,-0.522313 -2.82149,-0.814393 -4.21634,-1.26705 -4.99189,-1.364646 -10.03312,-2.652033 -15.2008,-3.127356 -5.943967,-0.618127 -11.93411,-0.670467 -17.919076,-0.600877 z m 2.677735,2.132813 c 6.341382,0.0152 12.723451,0.142308 18.967921,1.352592 3.50621,0.632834 7.03323,1.238318 10.42392,2.36085 2.28425,0.604808 4.50139,1.415532 6.72227,2.210957 5.55484,2.330073 11.04115,5.205383 15.3182,9.526862 2.323,2.410249 4.2923,5.307014 5.11478,8.586254 0.40235,2.18877 0.35033,4.44404 0.18836,6.65517 -0.33712,2.31813 -1.69829,4.34125 -3.11875,6.14505 -3.66322,4.37103 -8.46612,7.66128 -13.52739,10.21478 -4.44416,2.21442 -9.24817,3.57674 -14.02585,4.86038 -3.57565,0.83261 -7.16795,1.65843 -10.83609,1.95425 -3.25871,0.42435 -6.527905,0.79023 -9.817802,0.82615 -6.481389,0.11241 -12.991373,0.002 -19.425615,-0.83923 -3.314227,-0.50966 -6.652413,-0.95559 -9.904244,-1.78779 -2.66273,-0.83491 -5.432676,-1.35667 -8.019163,-2.41588 -0.621485,-0.47285 -1.467456,-0.34821 -2.145655,-0.73286 -4.59037,-1.93264 -9.084019,-4.23745 -12.920303,-7.45287 -3.140876,-2.64395 -6.183028,-5.72472 -7.60787,-9.65802 -0.515131,-2.12354 -0.299347,-4.33928 -0.329506,-6.50533 -0.0592,-2.29756 1.09955,-4.37772 2.32322,-6.238299 2.903214,-4.210973 6.963574,-7.526642 11.476741,-9.889092 6.837947,-3.683822 14.335061,-5.996807 21.937681,-7.477534 3.436524,-0.776989 6.957708,-1.090156 10.459874,-1.412904 2.909167,-0.211081 5.828764,-0.265415 8.745271,-0.283486 z m 49.982421,17.476563 c 0.33945,1.906197 1.78069,3.363212 2.35742,5.191402 1.2592,3.18976 0.90076,6.89705 -0.81636,9.84885 -2.60227,4.59873 -7.10358,7.74044 -11.70214,10.12582 -8.52918,4.32966 -18.00919,6.34136 -27.44699,7.45818 -6.737765,0.8581 -13.552749,0.60424 -20.317438,0.26671 -5.296509,-0.32518 -10.533113,-1.26421 -15.730506,-2.29444 -3.056602,-0.68548 -5.995828,-1.80241 -8.97034,-2.76912 -2.787656,-0.97201 -5.488209,-2.18097 -8.038513,-3.67126 -1.245741,-0.65867 -2.484968,-1.34407 -3.521674,-2.31023 -1.738714,-1.26099 -3.360074,-2.69499 -4.630472,-4.43835 -2.225469,-2.69612 -3.568458,-6.27775 -2.955095,-9.78938 0.262944,-2.22373 1.509883,-4.18308 1.859999,-6.379901 -0.278363,-0.241621 -0.841528,0.356574 -1.103515,0.609375 -1.963839,2.356346 -2.805045,5.554976 -2.583985,8.587886 0.291476,3.25833 1.973578,6.18455 4.095976,8.56478 1.308423,1.44804 2.705059,2.84847 4.236055,4.05241 1.000172,0.4512 1.810109,1.38343 2.757813,1.81836 3.901691,2.18171 7.929478,4.19266 12.220703,5.49024 3.544731,1.14487 7.220957,2.12772 10.921238,2.77272 3.834133,0.75503 7.73286,1.12131 11.611965,1.56321 5.651759,0.28978 11.430623,0.14193 17.093971,-0.0957 6.063088,-0.28455 11.976688,-1.42367 17.886498,-2.90434 2.22692,-0.54656 4.41122,-1.24387 6.55651,-2.04232 2.41735,-0.80211 4.74645,-1.87265 7.01371,-3.02719 2.8226,-1.68467 5.65779,-3.50127 8.24619,-5.59064 2.06436,-2.03772 3.80527,-4.43194 5.05664,-7.05078 0.89124,-1.8629 0.87892,-4.00614 0.73437,-5.97657 -0.11829,-1.87146 -0.66086,-4.10095 -2.00245,-5.65608 -0.8069,-0.933417 -1.71702,-1.843581 -2.82763,-2.402511 z m 25.7207,32.591792 c 2.63313,0.0484 5.43222,0.2166 7.75,1.58985 1.4192,1.27627 1.72674,3.30286 2.03016,5.0928 0.85557,6.62807 -0.38349,13.55123 -3.75341,19.34876 -1.86846,3.34351 -4.61846,6.07187 -7.26904,8.79444 -2.16159,2.15951 -4.46005,4.18824 -6.96278,5.94564 -2.53002,2.03415 -5.2557,3.82006 -8.00782,5.53906 0.0627,-14.50912 0.12591,-29.01823 0.18946,-43.52734 3.23569,-0.99291 6.50654,-1.91966 9.87646,-2.31402 2.03645,-0.28372 4.08953,-0.46769 6.14697,-0.46919 z" /><path
         style="fill:#000000;stroke-width:0.352778"
         d="m 82.26804,245.11062 c -3.00743,-0.24428 -6.420555,-0.61281 -7.584722,-0.81895 -1.164167,-0.20613 -2.831042,-0.47832 -3.704167,-0.60486 -3.328782,-0.48242 -12.884851,-3.14126 -14.547295,-4.04759 -0.336917,-0.18367 -0.791115,-0.33396 -1.009333,-0.33396 -0.218214,0 -1.907614,-0.72037 -3.754219,-1.60082 -3.939102,-1.87814 -9.463052,-5.45243 -11.784682,-7.6253 -2.428078,-2.27251 -4.977543,-5.84426 -6.146962,-8.6118 l -1.033897,-2.4468 0.01757,-56.62083 c 0.01609,-51.86974 0.06727,-56.8058 0.609928,-58.82518 1.575403,-5.86251 5.727527,-10.785294 12.74911,-15.115426 1.730329,-1.067075 3.952829,-2.308292 4.938888,-2.75826 0.98606,-0.449968 2.538191,-1.156801 3.449179,-1.57074 0.910985,-0.413938 1.871423,-0.752616 2.134306,-0.752616 0.262879,0 0.628777,-0.133854 0.813103,-0.297451 0.184327,-0.163601 1.287639,-0.573176 2.451806,-0.910167 1.164166,-0.336994 2.513541,-0.745229 2.998611,-0.907193 3.255825,-1.087098 11.683372,-2.610499 17.638888,-3.188476 4.089019,-0.396836 17.761835,-0.39002 21.872218,0.0109 10.9584,1.068874 20.33359,3.456615 28.51825,7.263225 1.424,0.662288 2.63927,1.204158 2.7006,1.204158 0.33411,0 5.25495,3.23125 7.06504,4.639232 2.74849,2.137922 4.69073,4.220104 6.33696,6.793586 1.85244,2.895828 2.67216,5.466868 2.90912,9.124428 0.19268,2.97408 0.24048,3.12184 0.94275,2.91429 0.40688,-0.12025 1.64695,-0.35769 2.75572,-0.52763 1.10877,-0.16995 2.14064,-0.38555 2.29306,-0.47912 0.15241,-0.0936 2.587,-0.34969 5.41019,-0.56916 10.1198,-0.78667 15.14403,0.62124 20.75505,5.81605 5.51958,5.11016 9.6763,13.44561 11.17518,22.40957 0.80202,4.79644 0.56739,13.62699 -0.48202,18.14125 -1.92131,8.26489 -5.96181,15.79924 -13.18793,24.59163 -2.1435,2.60811 -9.8679,10.35571 -12.59153,12.62936 -1.044,0.87151 -2.07588,1.7456 -2.29306,1.94242 -0.21718,0.19682 -1.10925,0.90891 -1.98238,1.58243 -0.87312,0.67352 -1.78043,1.38561 -2.01623,1.58243 -0.94706,0.79049 -1.42069,1.15595 -3.45182,2.66343 -1.16417,0.86403 -2.19605,1.65124 -2.29306,1.74936 -0.097,0.0981 -0.97014,0.72837 -1.94028,1.40058 -0.97014,0.6722 -1.94649,1.39909 -2.16967,1.61531 -0.25816,0.2501 -0.49907,2.82159 -0.66217,7.06809 -0.29541,7.69092 -0.75415,9.69549 -3.0269,13.2268 -1.39026,2.16013 -6.69368,7.73567 -7.35813,7.73567 -0.17307,0 -0.52445,0.20865 -0.78084,0.46367 -0.2564,0.25502 -1.34285,1.00908 -2.41434,1.67569 -6.57325,4.08945 -16.9796,7.65897 -27.156,9.31487 -4.23701,0.68945 -15.569844,1.60919 -19.05,1.54605 -1.455208,-0.0264 -5.106458,-0.24787 -8.11389,-0.49215 z m 22.225,-3.96759 c 6.02772,-0.84538 10.05786,-1.61556 13.58194,-2.59559 2.3048,-0.64095 7.66742,-2.43631 8.99584,-3.01174 2.62476,-1.13695 8.23485,-4.06212 8.71883,-4.54609 0.27962,-0.27963 0.84322,-0.6876 1.25243,-0.9066 1.76955,-0.94704 5.67005,-4.86263 7.1527,-7.18037 2.46442,-3.85252 2.41413,-3.31913 2.52814,-26.81265 0.34245,-70.56776 0.30938,-79.84991 -0.28098,-78.8827 -1.30356,2.13563 -6.24545,6.67549 -9.14057,8.39694 -4.4086,2.62137 -12.66114,6.19363 -16.58055,7.17719 -7.56538,1.89849 -8.20305,2.03512 -12.34722,2.64548 -11.763482,1.73254 -27.68084,1.51002 -37.394449,-0.52277 -8.52715,-1.7845 -12.079742,-2.90271 -19.755555,-6.21823 -1.26118,-0.54476 -2.714438,-1.27826 -3.229458,-1.63 -0.51502,-0.35174 -1.096589,-0.63952 -1.29237,-0.63952 -1.054061,0 -8.113567,-5.94513 -9.844235,-8.29028 l -0.781029,-1.05833 -0.01118,50.30296 c -0.01235,55.60468 -0.166137,51.882 2.299367,55.66104 1.207516,1.85084 5.957467,6.74849 6.544973,6.74849 0.144413,0 0.711316,0.37746 1.259776,0.83879 1.540937,1.29613 8.563787,4.75672 12.109708,5.9672 6.835316,2.33338 10.097597,3.05702 21.519444,4.77343 2.71969,0.4087 21.404388,0.24478 24.694438,-0.21665 z m 51.85833,-44.676 c 4.14556,-3.17967 4.09781,-3.14132 7.76111,-6.23217 5.69898,-4.80842 13.27437,-12.57957 15.09779,-15.48793 0.30412,-0.48507 0.90303,-1.27882 1.3309,-1.76389 1.6069,-1.82167 5.79901,-9.31619 7.1566,-12.7943 2.22139,-5.69117 2.69778,-8.54866 2.68972,-16.13347 -0.006,-5.68469 -0.11325,-6.93587 -0.83132,-9.70139 -1.98421,-7.64186 -4.64503,-12.60151 -9.1877,-17.12547 -4.68158,-4.66229 -7.49141,-5.76623 -14.66849,-5.76304 -4.54435,0.002 -6.41303,0.19724 -11.81805,1.23467 -1.06716,0.20483 -2.29747,0.44095 -2.73403,0.52471 l -0.79375,0.15229 v 8.60242 8.60242 l 1.85208,-0.64917 c 3.37209,-1.18194 7.66734,-1.75244 13.19382,-1.75244 5.84807,0 7.60108,0.37462 10.27729,2.19626 2.72225,1.85298 6.3489,7.19498 5.47673,8.06714 -0.42471,0.42472 -1.87214,-0.14172 -1.87214,-0.73264 0,-0.1772 -0.4172,-0.76693 -0.9271,-1.31051 -0.81304,-0.86671 -0.89819,-0.89463 -0.69206,-0.22692 0.9503,3.07832 0.78971,10.24711 -0.32907,14.68907 -0.71099,2.8229 -2.66797,6.93828 -4.56055,9.5905 -1.76891,2.4789 -6.07892,6.98648 -8.96506,9.37601 -1.04054,0.8615 -2.38991,2.00039 -2.99861,2.53087 -0.6087,0.53047 -1.21444,0.96704 -1.3461,0.97014 -0.13167,0.003 -0.44917,0.2079 -0.70556,0.45511 -0.56684,0.54654 -4.84049,3.6044 -6.90436,4.94016 l -1.49931,0.97037 v 10.60235 10.60235 l 1.14653,-0.7962 c 0.63059,-0.4379 2.8134,-2.07469 4.85069,-3.6373 z m -0.83127,-24.0997 c 8.48767,-6.119 13.67996,-11.42016 16.67641,-17.02608 3.65983,-6.84704 4.57771,-16.45478 2.05447,-21.50491 -0.72077,-1.44258 -0.97511,-1.63532 -2.90655,-2.2026 -4.32484,-1.27021 -14.76271,-0.36081 -19.84375,1.7289 l -1.14653,0.47154 v 21.17584 c 0,16.90018 0.089,21.10213 0.44097,20.8108 0.24254,-0.20077 2.36877,-1.75485 4.72498,-3.45349 z M 98.495818,134.54297 c 4.954982,-0.34487 9.461122,-0.87167 12.347222,-1.44349 4.02536,-0.79753 6.90852,-1.44263 7.76111,-1.73653 0.48507,-0.16721 1.83444,-0.58089 2.99861,-0.91929 1.16417,-0.3384 2.27542,-0.72609 2.46945,-0.86153 0.19402,-0.13543 0.82902,-0.3584 1.41111,-0.49548 0.58208,-0.13709 2.39422,-0.88744 4.02697,-1.66746 7.04229,-3.36432 12.18844,-7.4127 15.08551,-11.86749 1.67925,-2.58216 2.23057,-4.34549 2.23057,-7.13418 0,-10.481443 -10.11113,-19.018909 -28.75139,-24.27661 -1.27117,-0.358549 -3.12562,-0.783272 -7.9375,-1.81792 -8.00755,-1.721778 -29.716937,-1.704287 -37.923606,0.03055 -6.691764,1.4146 -10.658433,2.472239 -14.599571,3.892709 -9.78112,3.525322 -17.229063,8.965268 -20.340041,14.856281 -3.081147,5.83451 -1.948056,12.28159 3.084947,17.55273 4.046392,4.23786 10.316343,8.18396 16.508832,10.39012 1.455208,0.51843 2.889168,1.07131 3.186578,1.22861 0.297413,0.1573 1.091162,0.39549 1.763889,0.52931 0.672729,0.13381 1.620019,0.37371 2.105088,0.53311 8.009946,2.63206 22.935921,4.01644 34.572222,3.20656 z m -17.286111,-1.62194 c -5.010496,-0.44208 -9.002141,-1.00774 -11.1125,-1.57477 -0.582083,-0.1564 -1.693333,-0.38533 -2.469444,-0.50873 -1.456362,-0.23158 -4.486279,-1.0849 -8.868678,-2.49771 -2.237352,-0.72128 -3.86552,-1.36861 -6.829933,-2.71544 -1.247221,-0.56666 -7.061235,-4.17398 -8.097636,-5.02421 -6.839003,-5.61047 -9.27523,-12.41874 -6.565911,-18.34907 0.916555,-2.00622 2.374886,-3.704167 3.181424,-3.704167 0.786631,0 0.676854,0.829454 -0.411526,3.109407 -0.829165,1.73695 -0.959227,2.45518 -0.970139,5.35726 -0.01115,2.96164 0.100909,3.58245 0.963461,5.33823 0.911744,1.85591 3.364424,4.70885 5.662359,6.58641 2.714861,2.21822 8.868208,5.39213 13.117134,6.76585 1.358195,0.43912 3.34257,1.08721 4.409722,1.44021 2.034826,0.67309 3.855339,1.0703 8.819445,1.92426 7.05607,1.21383 9.62134,1.40476 18.873611,1.40476 10.381034,0 15.874314,-0.55297 24.165274,-2.43255 2.66132,-0.60332 9.48948,-2.7925 11.28889,-3.61934 8.82623,-4.05568 12.7619,-7.21199 15.56125,-12.47977 0.7023,-1.32158 0.83827,-2.09037 0.84039,-4.75167 0.002,-3.07592 -0.0443,-3.25981 -1.49678,-5.89241 -0.82462,-1.494579 -1.4993,-2.963016 -1.4993,-3.263198 0,-1.794546 3.74347,1.343554 4.95827,4.156458 2.96044,6.85494 -0.60318,14.57727 -9.43704,20.45001 -2.81496,1.87138 -8.10125,4.4069 -11.74901,5.6353 -4.72833,1.59228 -8.93321,2.64501 -14.99306,3.75365 -3.34743,0.61241 -14.445522,1.44697 -18.515576,1.39235 -2.040181,-0.0274 -6.011294,-0.25289 -8.824697,-0.50112 z"
         id="path300" /></g></g></svg>
