<?xml version="1.0" encoding="UTF-8" standalone="no"?>
<!-- Created with Inkscape (http://www.inkscape.org/) -->

<svg
   width="168.98056mm"
   height="173.20543mm"
   viewBox="0 0 168.98056 173.20543"
   version="1.1"
   id="svg5"
   inkscape:version="1.2.2 (732a01da63, 2022-12-09)"
   xml:space="preserve"
   sodipodi:docname="recorder.svg"
   xmlns:inkscape="http://www.inkscape.org/namespaces/inkscape"
   xmlns:sodipodi="http://sodipodi.sourceforge.net/DTD/sodipodi-0.dtd"
   xmlns="http://www.w3.org/2000/svg"
   xmlns:svg="http://www.w3.org/2000/svg"><sodipodi:namedview
     id="namedview7"
     pagecolor="#f0f0f0"
     bordercolor="#ffffff"
     borderopacity="1"
     inkscape:showpageshadow="0"
     inkscape:pageopacity="0"
     inkscape:pagecheckerboard="0"
     inkscape:deskcolor="#505050"
     inkscape:document-units="mm"
     showgrid="true"
     inkscape:zoom="1"
     inkscape:cx="346.5"
     inkscape:cy="433.5"
     inkscape:current-layer="layer1"><inkscape:grid
       type="xygrid"
       id="grid132"
       dotted="true"
       empspacing="10"
       units="mm"
       spacingx="1"
       spacingy="1"
       originx="-21.691927"
       originy="-24.216394" /></sodipodi:namedview><defs
     id="defs2" /><g
     inkscape:label="Layer 1"
     inkscape:groupmode="layer"
     id="layer1"
     transform="translate(-21.691927,-24.216394)"><g
       id="g1957"><path
         id="path4068"
         style="display:inline;fill:#65483e;fill-opacity:1;stroke-width:0.352778"
         d="m 31.013672,24.753906 c -1.42401,0.74071 -2.483494,2.023021 -3.670861,3.082891 -1.646792,1.632907 -3.388002,3.187707 -4.968782,4.876875 -0.408709,0.591215 0.337512,1.195152 0.483393,1.758984 2.713481,5.062796 5.754478,10.072253 8.90335,14.889193 2.02876,3.20845 4.840812,6.049074 8.341403,7.607743 1.28698,0.318617 2.383657,1.11567 3.238806,2.1123 7.271936,7.611821 14.585011,15.185462 21.962437,22.694994 1.257708,1.207575 2.45384,2.52624 3.880176,3.527802 1.033552,0.646327 1.59523,1.831802 2.291015,2.802734 2.248332,3.700005 4.696195,7.375873 7.957543,10.267048 1.071019,1.030198 2.57304,1.337964 4.006005,1.39968 1.450582,0.37583 2.364055,1.70811 3.401669,2.69207 11.21338,11.69649 22.546604,23.27102 33.818074,34.91562 8.98745,9.2631 18.01451,18.48836 26.98838,27.76423 1.61405,1.65603 2.92021,3.56332 4.28927,5.41643 2.43926,3.16473 5.07571,6.17858 7.95117,8.95508 1.30598,-0.13419 2.61186,-0.26935 3.91797,-0.40235 1.6884,2.45433 2.95099,5.16903 3.90848,7.98394 0.83445,2.43185 1.58103,4.93753 1.67302,7.52245 0.18499,1.19593 1.13684,2.46051 2.47936,2.2652 2.27277,-0.14521 4.20977,-1.53791 6.0524,-2.74898 4.15697,-2.85009 7.78304,-6.51068 10.53498,-10.73516 0.97992,-1.61309 2.14355,-3.52051 1.49691,-5.47309 -0.35752,-1.21591 -1.7665,-1.30821 -2.82289,-1.33193 -1.3197,-0.26535 -2.51947,-0.93743 -3.8164,-1.29883 -2.9304,-0.92261 -5.83896,-1.98719 -8.46545,-3.606 -0.76015,-0.41061 -1.87658,-0.7914 -1.83338,-1.84908 -0.0206,-1.21401 0.17819,-2.41985 0.26562,-3.62891 -2.5164,-2.48742 -4.95902,-5.06578 -7.7207,-7.25781 -0.85504,-0.44874 -1.47504,-1.25802 -2.30113,-1.77028 -2.61639,-2.1862 -4.95182,-4.69247 -7.38264,-7.07777 -12.80839,-12.95259 -25.4272,-26.0951 -38.16222,-39.12198 -6.43221,-6.63357 -12.92708,-13.207057 -19.319039,-19.879257 -0.975745,-1.150462 -2.186993,-2.197482 -2.760752,-3.621415 0.02476,-1.589682 -0.580333,-3.13326 -1.630121,-4.321503 -2.066566,-2.396579 -4.642629,-4.280153 -7.106416,-6.241367 -1.725569,-1.394466 -3.998788,-2.10702 -5.396275,-3.890255 -0.5882,-1.42425 -1.878823,-2.398523 -2.844993,-3.560814 C 71.580098,62.019904 64.267662,54.796145 57.236375,47.307284 55.954707,45.846034 54.404357,44.436179 53.952853,42.467915 52.612258,39.409864 50.012642,37.133795 47.417957,35.137108 44.842478,33.013651 41.929714,31.349496 39.142259,29.525815 36.482634,27.903016 33.881649,26.159316 31.101562,24.75 l -0.04297,-0.002 z M 31.15625,27.4375 c 2.576655,1.319825 4.995699,2.935733 7.469565,4.439077 3.579709,2.290388 7.335504,4.419614 10.317204,7.499199 1.082265,1.157717 2.351525,2.291969 2.868578,3.831027 0.502212,1.796176 -0.808934,3.370555 -1.819284,4.703329 -1.933335,2.341627 -4.065233,4.603077 -6.651606,6.227856 -0.975149,0.57315 -2.225714,1.104029 -3.302515,0.461542 -2.344735,-1.239398 -4.04532,-3.376486 -5.674911,-5.41203 -2.282939,-3.042077 -4.123736,-6.382577 -6.106489,-9.621151 -1.263861,-2.159174 -2.498613,-4.335301 -3.747026,-6.503849 2.028635,-1.863706 3.9021,-3.922798 6.121093,-5.5625 0.187763,-0.07401 0.328049,-0.214015 0.525391,-0.0625 z m 49.611328,48.183594 c 1.591884,0.841127 3.005719,2.029361 4.478738,3.075856 2.793528,2.157673 5.791927,4.186523 7.95095,7.025706 0.718439,0.916029 1.124537,2.30851 0.286625,3.286267 -1.474068,1.997817 -3.05259,3.954563 -4.916182,5.604604 -1.515854,1.367531 -3.172906,2.710853 -5.153647,3.318114 -1.17512,0.114734 -2.038712,-0.931584 -2.851891,-1.627016 -3.367536,-3.386858 -6.078089,-7.368045 -8.530921,-11.449156 -0.353839,-0.492848 -0.628243,-1.460355 0.158203,-1.683594 0.904858,-0.07111 1.415166,-0.988754 2.152967,-1.421914 1.990756,-1.492688 3.694586,-3.338788 5.108752,-5.378867 0.333664,-0.365716 0.77703,-0.839669 1.316406,-0.75 z M 160.4043,157.45703 c 0.42939,0.12836 0.41781,0.62817 0.87973,0.73846 1.64242,1.29015 3.07691,2.86163 4.67982,4.16999 1.59898,1.46068 3.40142,2.71833 4.83303,4.35132 0.74542,0.92643 0.24371,2.16991 -0.13871,3.13989 -1.22245,2.37324 -3.15649,4.32667 -5.24173,5.96087 -1.01733,0.84787 -2.28321,1.24142 -3.5476,1.54382 -0.94507,0.51296 -1.7314,-0.44032 -2.32477,-1.05135 -2.84099,-3.38894 -5.62047,-6.83167 -8.44446,-10.23581 2.71611,-1.93381 5.37049,-4.02946 7.43945,-6.66797 0.31497,-0.58609 0.47809,-1.29927 1.07373,-1.70633 0.20801,-0.17869 0.51649,-0.33997 0.79151,-0.24289 z m 0.50586,10.58985 c -0.68511,0.0541 -0.20639,0.96321 -0.75782,1.20312 -0.76828,0.46777 -1.71223,-0.59959 -2.45312,0.10156 -0.7515,0.78102 -0.3043,2.25606 0.77176,2.48359 0.64513,0.41633 1.43676,0.0576 1.71659,-0.61095 0.46763,-0.59309 -0.37124,-1.3598 0.2597,-1.88045 0.46149,-0.3241 1.02153,0.50151 1.33984,-0.11914 0.23319,-0.42819 0.25309,-1.36649 -0.47693,-1.20324 -0.13486,-0.0117 -0.26709,0.004 -0.40002,0.0255 z m 26.21875,10.38476 c 0.84236,-0.009 1.02692,1.00014 0.66211,1.60156 -1.77178,3.74277 -4.72828,6.7582 -7.73514,9.53687 -2.07235,1.86332 -4.37886,3.49708 -6.88323,4.72327 -0.63193,0.37657 -1.68686,0.19689 -1.71367,-0.6742 -0.13476,-0.73319 0.40176,-1.51915 1.17774,-1.50781 3.60503,-1.39935 6.60654,-3.9849 9.09376,-6.89624 1.47059,-1.70431 2.85256,-3.54256 3.63085,-5.67407 0.32861,-0.67521 0.98909,-1.17853 1.76758,-1.10938 z" /><path
         id="path4082"
         style="display:inline;fill:#c0a9a1;fill-opacity:1;stroke-width:0.352778"
         d="M 52.776335 47.111121 C 52.636665 47.114703 52.536914 47.219656 52.427519 47.394824 C 52.01968 48.04788 51.932726 47.947993 62.261544 58.622046 C 63.716751 60.125894 67.913981 64.478307 71.588623 68.293807 C 76.91891 73.828411 78.332722 75.118905 78.580961 74.67533 C 78.752094 74.369532 78.841123 73.983772 78.778882 73.818534 C 78.716645 73.6533 74.379455 69.116025 69.14071 63.735429 C 58.29013 52.591038 57.530505 51.804651 54.806185 48.892407 C 53.58434 47.586276 53.083609 47.10324 52.776335 47.111121 z M 94.263725 90.999915 C 94.175139 91.002216 94.114663 91.045087 94.069938 91.116703 C 93.675783 91.747843 93.202642 91.23145 109.67932 108.16269 C 114.79131 113.41571 119.65548 118.4279 120.48848 119.30103 C 121.32149 120.17415 126.18211 125.19318 131.28989 130.45435 C 141.25176 140.71538 141.70717 141.18642 151.33414 151.18539 C 157.01946 157.09039 157.72731 157.71263 158.13011 157.16177 C 158.52339 156.62393 158.29714 156.25779 156.32505 154.23998 C 155.08498 152.97115 153.13822 150.96285 151.9987 149.77669 C 150.85918 148.59053 145.69847 143.27205 140.53067 137.95829 C 135.36286 132.64453 129.82774 126.94783 128.23064 125.2986 C 126.63356 123.64936 121.09894 117.95215 115.93114 112.63839 C 110.76334 107.32463 105.60088 102.00666 104.45897 100.8205 C 96.879208 92.947002 94.883826 90.983807 94.263725 90.999915 z M 171.45643 172.80836 C 171.27838 172.81314 171.11959 172.8786 170.93915 172.99129 C 169.85369 173.66917 170.64984 174.57164 173.49351 175.88517 C 179.45107 178.63704 183.97414 179.90958 183.96678 178.83228 C 183.96478 178.58974 182.97276 178.08931 181.76174 177.7202 C 178.60378 176.75768 175.33342 175.23789 173.3421 173.80726 C 172.33224 173.08175 171.84815 172.79783 171.45643 172.80836 z " /><path
         style="display:inline;fill:#ffffff;fill-opacity:1;stroke-width:0.352778"
         d="m 174.52203,193.31544 c 0.83059,-0.42608 1.58955,-0.86788 1.68656,-0.98178 0.097,-0.1139 0.98558,-0.79289 1.9746,-1.50887 3.58473,-2.59509 8.81453,-8.77549 9.40148,-11.11036 0.16965,-0.67487 0.0584,-0.79375 -0.74297,-0.79375 -0.80495,0 -1.03011,0.24455 -1.54279,1.67569 -1.23219,3.43961 -7.03498,9.24825 -11.22854,11.23984 -1.40372,0.66665 -2.09511,1.20273 -2.09511,1.62446 0,0.83475 0.71599,0.79392 2.54677,-0.14523 z"
         id="path4066" /><path
         id="path4080"
         style="display:inline;fill:#ffffff;fill-opacity:1;stroke-width:0.352778"
         d="M 31.024691 27.312846 L 27.926172 30.274939 L 24.827653 33.237549 L 27.262646 37.199064 C 28.60187 39.378029 30.545483 42.589848 31.581763 44.336096 C 34.680617 49.55802 36.611127 51.90335 39.507377 53.966516 C 40.904485 54.961754 41.524342 54.931348 43.307145 53.778414 C 46.910335 51.448245 51.67821 45.884848 51.67821 44.010535 C 51.67821 42.383715 48.498469 38.846481 44.586654 36.12161 C 43.539149 35.391946 40.539249 33.465753 37.919877 31.841252 C 35.300505 30.216754 32.677172 28.533481 32.090775 28.100395 L 31.024691 27.312846 z M 80.348812 75.589486 L 79.217098 77.166134 C 77.826872 79.101983 75.358572 81.633699 74.019482 82.497591 C 71.674348 84.010519 71.695775 83.894886 73.30118 86.45859 C 76.277793 91.212012 81.008044 96.818039 82.546094 97.415027 C 83.378783 97.738231 83.844088 97.594451 85.694222 96.441443 C 87.516102 95.306047 91.561603 91.291415 92.776477 89.412931 C 94.001906 87.518125 93.820177 86.752904 91.615308 84.516073 C 89.053304 81.916925 87.177871 80.386705 82.682519 77.228662 L 80.348812 75.589486 z M 160.40594 157.72659 C 160.08183 157.74091 159.54263 158.21022 159.1502 158.93892 C 158.28625 160.54318 155.34998 163.52523 153.22447 164.95664 L 151.48297 166.12918 L 152.46637 167.32135 C 153.00737 167.97707 153.62372 168.67246 153.8358 168.86648 C 154.04789 169.06051 155.23376 170.48926 156.4713 172.04148 C 159.62855 176.00155 160.751 177.15693 161.4405 177.15693 C 161.76978 177.15693 162.75519 176.85002 163.63055 176.4748 C 165.7748 175.55567 169.95588 171.28722 170.50403 169.45766 C 170.73115 168.69958 170.91646 167.85963 170.91589 167.59111 C 170.91518 167.32258 169.54156 165.91214 167.86337 164.45693 C 166.18516 163.00172 164.01359 161.05687 163.0373 160.13523 C 162.06103 159.2136 161.13272 158.45936 160.97438 158.45936 C 160.81603 158.45936 160.68654 158.30096 160.68654 158.10693 C 160.68654 157.8366 160.57571 157.71909 160.40594 157.72659 z " /><path
         style="display:inline;fill:#000000;stroke-width:0.352778"
         d="m 170.8797,196.86331 c -1.07913,-0.38574 -1.72666,-1.62273 -1.72666,-3.29846 0,-1.50972 -2.21444,-8.87192 -3.2054,-10.65676 -2.11392,-3.80746 -1.91159,-3.64207 -4.16702,-3.40633 l -2.03297,0.21248 -1.69864,-1.71969 c -1.85735,-1.88037 -6.58429,-7.63757 -8.00907,-9.75466 -0.49309,-0.7327 -5.1653,-5.71571 -10.38269,-11.07335 -5.21739,-5.35765 -10.49858,-10.79066 -11.73597,-12.07338 -1.2374,-1.28271 -6.65436,-6.85658 -12.03769,-12.38637 C 110.50027,127.177 105.03112,121.54138 103.72993,120.18318 89.042255,104.85201 84.009742,99.89846 83.12185,99.89846 c -1.868956,0 -3.376125,-0.71876 -4.908296,-2.340741 -2.32369,-2.459898 -4.663334,-5.582757 -6.770013,-9.036342 -1.035618,-1.697743 -2.104101,-3.086806 -2.374403,-3.086806 -0.270302,0 -0.841064,-0.376812 -1.268363,-0.837364 C 67.373477,84.136659 62.56906,79.175722 57.124287,73.572902 51.679519,67.970085 45.979537,62.076273 44.457657,60.475544 42.935781,58.874815 41.516841,57.563575 41.304462,57.56168 c -0.212383,-0.0018 -1.179897,-0.374392 -2.150036,-0.827768 -3.708347,-1.733035 -8.08724,-7.311757 -14.257961,-18.164679 -1.817935,-3.197341 -2.804568,-5.291487 -2.679171,-5.68658 0.184721,-0.582009 7.454879,-7.636387 8.457103,-8.206101 0.851619,-0.4841 15.577855,8.917421 19.15397,12.228272 2.518378,2.331575 4.173156,4.688187 4.707939,6.704707 0.245449,0.925509 0.961291,2.005743 2.023943,3.054199 7.352679,7.254448 24.649052,25.221705 24.945427,25.913001 0.207282,0.483482 1.840188,1.841275 3.704167,3.080082 3.740154,2.485722 4.51643,3.098235 7.589795,5.988621 2.170938,2.041688 2.975621,3.585246 2.975621,5.707892 0,0.752369 1.040098,2.015945 4.902851,5.956293 8.5319,8.703281 28.6247,29.341761 33.41517,34.322671 3.50317,3.64241 23.39704,24.0145 25.62519,26.24117 1.60395,1.60289 4.7011,4.10709 5.57487,4.50758 0.11742,0.0538 2.00455,1.79719 4.1936,3.87416 l 3.9801,3.77631 -0.22446,2.1909 -0.22447,2.1909 2.50057,1.48556 c 2.51847,1.4962 10.92966,4.55237 12.52902,4.55237 0.47349,0 1.17839,0.3175 1.56645,0.70555 1.57155,1.57156 0.44764,4.80132 -3.2532,9.34861 -3.36602,4.1359 -7.48254,7.65219 -11.0343,9.4254 -2.24793,1.12227 -3.29932,1.34274 -4.44695,0.93251 z m 4.44695,-3.91701 c 4.58533,-2.76839 9.88476,-8.11939 11.84341,-11.95866 0.96535,-1.89225 0.88654,-2.41974 -0.36156,-2.41974 -0.88415,0 -1.09173,0.18105 -1.37219,1.19678 -1.07212,3.8829 -8.67106,11.37886 -12.50602,12.33654 -1.06624,0.26627 -1.50779,0.95893 -1.1709,1.83684 0.26838,0.6994 1.191,0.44289 3.56726,-0.99176 z m 0.0691,-4.19375 c 3.37632,-2.31976 8.92678,-8.56871 8.92678,-10.05016 0,-0.24976 -0.51594,-0.60024 -1.14653,-0.77886 -2.8514,-0.80766 -8.0203,-3.09573 -9.763,-4.32168 l -1.9137,-1.34625 -2.78929,2.7893 -2.7893,2.7893 0.87117,1.1606 c 1.3247,1.7648 2.53291,4.37061 3.56418,7.68699 0.51285,1.64924 0.99928,3.18835 1.08097,3.42026 0.21921,0.62233 1.94512,0.034 3.95872,-1.3495 z m -11.42862,-12.16144 c 0.62096,-0.31113 2.32136,-1.77956 3.77869,-3.2632 2.13193,-2.17042 2.73686,-3.03254 3.09587,-4.41216 0.40636,-1.56158 0.38686,-1.76628 -0.21845,-2.29305 -0.36554,-0.31813 -1.75869,-1.55295 -3.09586,-2.74407 -1.33718,-1.19111 -3.09773,-2.69923 -3.91234,-3.35138 -0.8146,-0.65216 -1.48929,-1.38417 -1.4993,-1.62671 -0.01,-0.24253 -0.2369,-0.44097 -0.50418,-0.44097 -0.26728,0 -0.68758,-0.24292 -0.93399,-0.53983 -0.39782,-0.47935 -0.52122,-0.46124 -1.10153,0.16164 -0.35943,0.38581 -0.65351,0.80514 -0.65351,0.93184 0,0.65734 -3.24263,3.95655 -5.32825,5.42122 l -2.38391,1.67416 2.82937,3.30896 c 1.55616,1.81993 3.62257,4.30577 4.59201,5.52409 1.55381,1.95269 1.90741,2.21514 2.98451,2.21514 0.67202,0 1.72992,-0.25456 2.35087,-0.56568 z m -6.01474,-4.80377 c -0.54421,-0.26246 -0.79375,-0.69468 -0.79375,-1.37482 0,-1.87446 2.21618,-2.10286 3.16692,-0.32639 0.46754,0.87361 0.46156,0.92234 -0.19351,1.57741 -0.63628,0.63628 -1.06638,0.66071 -2.17966,0.1238 z m 2.51883,-2.54197 c -0.32096,-0.8364 0.13317,-1.68111 0.83149,-1.54662 0.39054,0.0752 0.61843,0.44053 0.61843,0.99138 0,1.00563 -1.11346,1.43203 -1.44992,0.55524 z m -7.89869,-6.15064 c 1.67514,-1.22775 4.23333,-3.62738 4.23333,-3.97096 0,-0.15364 0.39688,-0.67623 0.88195,-1.1613 1.49074,-1.49074 3.28654,0.64507 -16.93417,-20.1404 -5.09641,-5.23875 -10.57291,-10.87437 -12.17,-12.52361 -1.59709,-1.64924 -7.09207,-7.30321 -12.21106,-12.56438 -5.11898,-5.26117 -10.35814,-10.65867 -11.64257,-11.99445 -7.190393,-7.477841 -10.061771,-10.36617 -10.305339,-10.36617 -0.149906,0 -0.722133,0.711253 -1.271616,1.580561 -0.972397,1.538372 -3.442088,4.04193 -5.748937,5.827772 l -1.139247,0.881944 5.869947,5.997223 c 9.760732,9.97237 27.055142,27.71027 29.580342,30.33889 1.30475,1.35819 6.83674,7.04853 12.2933,12.64519 5.45656,5.59667 9.97393,10.31948 10.03861,10.49514 0.0647,0.17566 0.34249,0.31939 0.61736,0.31939 0.27487,0 0.49977,0.16177 0.49977,0.35949 0,0.19772 1.13263,1.53391 2.51695,2.96931 2.71888,2.81919 2.79831,2.8404 4.89138,1.30636 z m -4.38452,-3.07286 c -0.61159,-0.61159 -0.71729,-1.817 -0.22722,-2.59124 0.3952,-0.62436 2.27346,-0.65249 3.00544,-0.045 1.22404,1.01586 0.27503,3.1906 -1.39231,3.1906 -0.45735,0 -1.08101,-0.24947 -1.38591,-0.55437 z m 3.04396,-2.69119 c -0.5579,-0.5579 -0.53431,-0.8264 0.13104,-1.49174 0.69609,-0.6961 1.01727,-0.69623 1.71279,-7.1e-4 0.41793,0.41793 0.46431,0.72063 0.18917,1.23472 -0.41096,0.7679 -1.39773,0.89299 -2.033,0.25772 z m -11.47015,-8.08419 c -1.83525,-1.06746 -1.07763,-3.8193 1.05565,-3.8343 1.8088,-0.0127 2.59353,2.62792 1.09323,3.67877 -0.91191,0.63872 -1.27319,0.66487 -2.14888,0.15553 z m -9.7936,-9.2549 c -0.45875,-0.22871 -1.06065,-0.8195 -1.33757,-1.31286 -0.43275,-0.771 -0.43414,-1.0417 -0.01,-1.92696 1.02077,-2.12977 3.90332,-1.93569 4.65044,0.31311 0.61272,1.84427 -1.57896,3.78625 -3.30303,2.92671 z m -10.44555,-11.16022 c -1.73549,-0.71635 -2.08311,-3.3934 -0.59284,-4.56564 1.3008,-1.02321 2.73158,-0.94505 3.63098,0.19836 1.83554,2.3335 -0.35091,5.47648 -3.03814,4.36728 z m -11.17224,-11.80634 c -1.81388,-1.68105 -0.64239,-4.42657 1.88877,-4.42657 1.54735,0 2.82222,1.22429 2.82222,2.71025 0,1.1107 -1.60792,2.58142 -2.82222,2.58142 -0.52542,0 -1.37536,-0.3893 -1.88877,-0.8651 z m -9.69667,-9.93022 c -1.11652,-0.78205 -1.572105,-2.10714 -1.056989,-3.07431 0.983251,-1.84612 2.542549,-2.13126 3.951269,-0.72255 1.18384,1.18385 1.18266,2.39731 -0.004,3.49652 -1.08887,1.00913 -1.776872,1.08061 -2.89087,0.30034 z M 85.150287,96.994834 c 3.260651,-2.010396 7.613114,-6.559896 8.495086,-8.87966 0.287063,-0.755036 0.160998,-1.130639 -0.804245,-2.396155 -1.469503,-1.926646 -5.974584,-5.820822 -9.193918,-7.947187 -1.381724,-0.912629 -2.565146,-1.78436 -2.62982,-1.93718 -0.166804,-0.394141 -1.117131,-0.345987 -1.117131,0.0566 0,1.006704 -5.433519,6.483854 -7.678607,7.740269 -0.476945,0.266912 -0.31599,0.7005 1.108368,2.985791 3.94535,6.330054 8.297217,11.164478 10.050074,11.164478 0.271607,0 1.068194,-0.354132 1.770193,-0.786959 z M 75.361632,78.626345 c 1.362565,-1.397212 2.677237,-2.77851 2.921494,-3.069552 1.201289,-1.431388 1.049302,-1.731951 -2.922669,-5.779717 -2.116529,-2.156918 -4.778738,-4.889027 -5.91602,-6.071347 -1.137285,-1.182321 -5.163414,-5.360053 -8.946956,-9.283848 -3.783541,-3.923796 -6.932083,-7.282378 -6.996758,-7.463519 -0.252874,-0.708236 -1.054773,-0.273237 -1.506431,0.817182 -0.472708,1.14124 -4.751148,5.669957 -6.925437,7.330556 l -1.141127,0.871527 8.679494,8.819444 c 4.773718,4.850695 10.665668,10.836208 13.093217,13.301144 l 4.413726,4.481699 1.385037,-0.706592 c 0.761771,-0.388627 2.499864,-1.849766 3.86243,-3.246977 z M 53.089148,61.207991 c -0.679097,-0.51448 -1.993039,-1.661879 -2.919871,-2.549778 -0.926832,-0.887896 -1.879332,-1.63164 -2.116666,-1.652764 -1.206074,-0.107354 -1.356512,-0.182104 -1.251134,-0.621651 0.06273,-0.261673 1.5029,-1.786869 3.200372,-3.38932 2.129144,-2.009965 3.261924,-2.846161 3.652573,-2.696256 0.311446,0.119515 0.482395,0.435857 0.379888,0.702988 -0.102506,0.267127 0.288823,0.940477 0.869626,1.496331 0.580803,0.555851 1.680076,1.819057 2.442831,2.807117 1.14941,1.48893 1.386826,2.072396 1.386826,3.408225 0,1.366682 -0.165033,1.750613 -1.085402,2.525052 -1.417091,1.192403 -2.958956,1.182279 -4.559043,-0.02995 z m -9.235785,-7.600537 c 2.116359,-1.455441 5.775162,-5.128891 6.929088,-6.956827 0.501085,-0.793771 0.895586,-1.942362 0.895586,-2.607504 0,-2.254447 -3.348775,-5.770887 -8.72629,-9.163198 -9.302393,-5.868243 -11.217112,-7.114536 -11.323245,-7.370303 -0.276744,-0.666916 -1.110495,-0.09512 -3.889848,2.667687 l -2.949109,2.931552 0.616465,1.203826 c 0.339054,0.662107 1.968277,3.426329 3.620495,6.142718 1.652217,2.716389 3.533588,5.812014 4.180818,6.879167 2.21632,3.654248 6.260857,7.39758 8.000206,7.404421 0.548408,0.0021 1.735625,-0.505577 2.645834,-1.131539 z"
         id="path4064" /></g></g></svg>
