<?xml version="1.0" encoding="UTF-8" standalone="no"?>
<!-- Generator: Adobe Illustrator 19.2.0, SVG Export Plug-In . SVG Version: 6.00 Build 0)  -->

<svg
   version="1.1"
   x="0px"
   y="0px"
   viewBox="0 0 472.44095 332.59843"
   xml:space="preserve"
   id="svg106"
   sodipodi:docname="phone.svg"
   width="125mm"
   height="88mm"
   inkscape:version="1.2.2 (732a01da63, 2022-12-09)"
   xmlns:inkscape="http://www.inkscape.org/namespaces/inkscape"
   xmlns:sodipodi="http://sodipodi.sourceforge.net/DTD/sodipodi-0.dtd"
   xmlns="http://www.w3.org/2000/svg"
   xmlns:svg="http://www.w3.org/2000/svg"><defs
   id="defs110" /><sodipodi:namedview
   id="namedview108"
   pagecolor="#505050"
   bordercolor="#eeeeee"
   borderopacity="1"
   inkscape:showpageshadow="0"
   inkscape:pageopacity="0"
   inkscape:pagecheckerboard="0"
   inkscape:deskcolor="#505050"
   showgrid="false"
   inkscape:zoom="2.1108447"
   inkscape:cx="261.03294"
   inkscape:cy="164.1523"
   inkscape:current-layer="svg106"
   inkscape:document-units="mm" />
<style
   type="text/css"
   id="style2">
	.st0{fill:#F8C09D;}
	.st1{fill:#30333A;}
	.st2{fill:#1C1C28;}
	.st3{fill:#E6E6E6;}
	.st4{fill:#4D4D4D;}
	.st5{fill:#1A1A1A;}
	.st6{fill:#443833;}
	.st7{fill:#FFFFFF;}
	.st8{fill:#703B21;}
	.st9{fill:#333333;}
	.st10{fill:#F2F2F2;}
	.st11{fill:#F6AE8D;}
	.st12{fill:#EF937E;}
	.st13{fill:#E26C60;}
</style>
<g
   id="Body"
   transform="matrix(0.36457752,0,0,0.36457752,-250.4332,-25.805506)">
	<polygon
   class="st0"
   points="1039.4,554 1039.4,896 1060.4,896 1106.4,554 "
   id="polygon4" />
	<path
   class="st1"
   d="m 1113.3,554 h -164 c 0,0 16,-51.7 16.5,-66.9 0.4,-15.2 -11.9,-110.3 -11.9,-110.3 0,-17.5 10.8,-31.7 24.2,-31.7 h 103.5 c 13.4,0 24.2,14.2 24.2,31.7 0,0 -11,88.4 -9.1,106.3 1.9,17.9 16.6,70.9 16.6,70.9 z"
   id="path6" />
	<polygon
   class="st0"
   points="1025.5,554 1019.3,896 998.3,896 959.3,554 "
   id="polygon8" />
	<path
   class="st1"
   d="M 1093.9,749.7 H 968.3 c 0,0 -12.4,-41.5 -16.7,-89.5 -4.3,-48 -2.3,-106.3 -2.3,-106.3 h 163.6 c 0,0 4.6,36.6 0,83.4 -4.6,46.9 -19,112.4 -19,112.4 z"
   id="path10" />
	<path
   class="st2"
   d="m 948.9,570.9 c 0,0 59.2,2.7 90.7,2.5 31.5,-0.2 74.7,-3.6 74.7,-3.6 L 1113,554 c 0,0 -33.9,4.9 -73.3,4.4 -39.4,-0.5 -90.3,-4.4 -90.3,-4.4 z"
   id="path12" />
	<polygon
   class="st0"
   points="1065.3,345 1014.1,345 1018.8,388.5 1062,388.5 "
   id="polygon14" />
	<path
   class="st3"
   d="m 1018.8,379 c 0,0 5.8,9.5 20.8,9.5 14.9,0 24.7,-9.5 24.7,-9.5 l -24.5,63.8 z"
   id="path16" />
	<path
   class="st4"
   d="m 1009.6,436.2 h -19.8 c -3.7,0 -6.7,-3 -6.7,-6.7 v -4.3 h 33.3 v 4.3 c -0.1,3.7 -3.1,6.7 -6.8,6.7 z"
   id="path18" />
	<circle
   class="st2"
   cx="1039.6"
   cy="476.70001"
   r="4.5999999"
   id="circle20" />
	<circle
   class="st2"
   cx="1039.6"
   cy="507.79999"
   r="4.5999999"
   id="circle22" />
	<polygon
   class="st2"
   points="1039.8,522.1 1035,558.7 1044.3,558.7 "
   id="polygon24" />
	<path
   class="st0"
   d="m 1019.3,896 10,44.8 c 0,0 -1,14.9 -12.6,14.9 -11.6,0 -13.9,-11.3 -15.9,-21.4 -1.9,-10 -2.5,-38.3 -2.5,-38.3 z"
   id="path26" />
	<path
   class="st5"
   d="m 993.7,906.5 c 0.1,1.2 -3.2,35.3 -1.3,35.3 2.9,0 5.9,0 5.9,0 0,0 -3.5,-31.4 -2.3,-35.3 1.2,-3.9 -2.3,0 -2.3,0 z"
   id="path28" />
	<path
   class="st6"
   d="m 1027.2,931.4 c -3.9,-2.7 -5.7,-2.5 -11.5,-1.4 -5.8,1.1 -10.3,4.3 -13.4,6.3 -3.1,1.9 -1.5,-11.3 -1.8,-22.3 -0.3,-11 -2.1,-17.9 -2.1,-17.9 l -0.4,-3.8 c 0,0 -5.5,2.7 -4.5,10.8 1,8.1 3.2,30.5 2.9,40.2 -0.3,9.7 13.9,14.5 26.2,14.8 12.3,0.3 11.7,-3.2 11.1,-9.5 -0.8,-6.2 -2.6,-14.5 -6.5,-17.2 z"
   id="path30" />
	<path
   class="st0"
   d="m 1060.4,896 10,44.8 c 0,0 -1,14.9 -12.6,14.9 -11.6,0 -13.9,-11.3 -15.9,-21.4 -1.9,-10 -2.5,-38.3 -2.5,-38.3 z"
   id="path32" />
	<path
   class="st5"
   d="m 1034.8,906.5 c 0.1,1.2 -3.2,35.3 -1.3,35.3 2.9,0 5.9,0 5.9,0 0,0 -3.5,-31.4 -2.3,-35.3 1.2,-3.9 -2.3,0 -2.3,0 z"
   id="path34" />
	<path
   class="st6"
   d="m 1068.3,931.4 c -3.9,-2.7 -5.7,-2.5 -11.5,-1.4 -5.8,1.1 -10.3,4.3 -13.4,6.3 -3.1,1.9 -1.5,-11.3 -1.8,-22.3 -0.3,-11 -2.1,-17.9 -2.1,-17.9 l -0.4,-3.8 c 0,0 -5.5,2.7 -4.5,10.8 1,8.1 3.2,30.5 2.9,40.2 -0.3,9.7 13.9,14.5 26.2,14.8 12.3,0.3 11.7,-3.2 11.1,-9.5 -0.8,-6.2 -2.6,-14.5 -6.5,-17.2 z"
   id="path36" />
</g>
<g
   id="Right_arm"
   transform="matrix(0.36457752,0,0,0.36457752,-250.4332,-25.805506)">
	<path
   class="st1"
   d="m 1149.2,274.5 v 0 c -10,2.1 -16.1,13.2 -13.7,25 l 26.1,126.6 c 2.4,11.7 12.5,19.6 22.5,17.5 v 0 c 10,-2.1 16.1,-13.2 13.7,-25 L 1171.7,292 c -2.5,-11.7 -12.6,-19.5 -22.5,-17.5 z"
   id="path39" />
	<path
   class="st1"
   d="m 1070.9,352.3 -1.4,2.2 c -5.2,7.9 -2.9,18.6 5,23.7 l 96.1,62.8 c 7.9,5.2 18.6,2.9 23.7,-5 l 1.4,-2.2 c 5.2,-7.9 2.9,-18.6 -5,-23.7 l -96.1,-62.8 c -7.9,-5.2 -18.5,-2.9 -23.7,5 z"
   id="path41" />
</g>
<g
   id="Left_arm"
   transform="matrix(0.36457752,0,0,0.36457752,-250.4332,-25.805506)">
	<path
   class="st1"
   d="m 991.7,350.9 1.3,1.5 c 6.2,7.4 5.3,18.4 -2.1,24.6 l -106.5,89.9 c -7.4,6.2 -18.4,5.3 -24.6,-2.1 l -1.3,-1.5 c -6.2,-7.4 -5.3,-18.4 2.1,-24.6 l 106.5,-89.9 c 7.4,-6.2 18.4,-5.3 24.6,2.1 z"
   id="path44" />
	<path
   class="st1"
   d="m 829.5,350.4 58.2,93.3 c 5.4,8.6 2.8,20 -5.9,25.4 v 0 c -8.6,5.4 -20,2.8 -25.4,-5.9 l -58.2,-93.3 z"
   id="path46" />
	<path
   class="st0"
   d="m 819.8,329.2 c 1.5,7.5 4.3,17.1 5.6,21.2 0.4,1.2 -0.1,2.4 -1.2,3.1 l -20.4,12.9 c -1.1,0.7 -2.5,0.5 -3.3,-0.4 -8.4,-8.2 -15.5,-14.7 -21.6,-31.5 -8.7,-24.1 -3.4,-30.5 1.2,-31.1 2.8,-0.4 4.4,3.2 5.1,6.2 -0.2,-6.5 7,-6.9 9.4,-0.6 1.1,-0.5 6.9,-2.8 9.1,6.2 1,4.2 4.3,12.5 6.9,16.3 -0.2,-1 -0.4,-2 -0.6,-3.1 -1.6,-7.7 7.8,-9 9.8,0.8 z"
   id="path48" />
</g>
<g
   id="Collar"
   transform="matrix(0.36457752,0,0,0.36457752,-250.4332,-25.805506)">
	<polygon
   class="st7"
   points="1065.3,345 1039.8,442.7 1084.2,379.5 1076.2,371.7 1086.4,361.1 "
   id="polygon51" />
	<polygon
   class="st7"
   points="1014.1,345 1039.6,442.7 995.2,379.5 1003.2,371.7 993,361.1 "
   id="polygon53" />
</g>
<g
   id="Hair"
   transform="matrix(0.36457752,0,0,0.36457752,-250.4332,-25.805506)">
	<path
   class="st8"
   d="m 947.3,220.4 c -3.1,28.6 -3.9,47.7 0.4,81.8 3.1,24.4 4.4,31 4.4,31 h 171.2 c 0,0 19.4,-93.1 -2.3,-168.8 l -155.6,-2 c 0,0 -14,20.5 -18.1,58 z"
   id="path56" />
</g>
<g
   id="Phone"
   transform="matrix(0.36457752,0,0,0.36457752,-250.4332,-25.805506)">
	<path
   class="st9"
   d="m 1185.1,324.4 -46.4,14.9 c -2,0.7 -4.2,-0.5 -4.9,-2.5 L 1106.6,252 c -0.7,-2 0.5,-4.2 2.5,-4.9 l 46.4,-14.9 c 2,-0.7 4.2,0.5 4.9,2.5 l 27.2,84.8 c 0.7,2 -0.4,4.2 -2.5,4.9 z"
   id="path59" />
	<path
   class="st10"
   d="m 1178.4,313.8 -40.3,12.9 c -1.7,0.5 -3.5,-0.4 -4,-2.1 l -21.5,-66.8 c -0.5,-1.7 0.4,-3.5 2.1,-4 l 40.3,-12.9 c 1.7,-0.5 3.5,0.4 4,2.1 l 21.5,66.8 c 0.5,1.7 -0.4,3.5 -2.1,4 z"
   id="path61" />
	<g
   id="g73">
		<path
   class="st0"
   d="m 1185.8,309.9 h -0.1 c -3.3,1 -6.7,-0.9 -7.7,-4.1 l -10.7,-35.5 c -1,-3.3 0.9,-6.7 4.1,-7.7 h 0.1 c 3.3,-1 6.7,0.9 7.7,4.1 l 10.7,35.5 c 1,3.3 -0.9,6.7 -4.1,7.7 z"
   id="path63" />
		<path
   class="st0"
   d="m 1176.9,267.3 v 0 c 1,3.3 -0.8,6.8 -4.1,7.9 l -15.7,5.2 c -3.3,1 -6.8,-0.8 -7.9,-4.1 v 0 c -1,-3.3 0.8,-6.8 4.1,-7.9 l 15.7,-5.2 c 3.3,-1 6.8,0.8 7.9,4.1 z"
   id="path65" />
		<path
   class="st0"
   d="m 1180.5,279.4 v 0 c 1,3.3 -0.8,6.8 -4.1,7.9 l -15.7,5.2 c -3.3,1 -6.8,-0.8 -7.9,-4.1 v 0 c -1,-3.3 0.8,-6.8 4.1,-7.9 l 15.7,-5.2 c 3.3,-1.1 6.8,0.8 7.9,4.1 z"
   id="path67" />
		<path
   class="st0"
   d="m 1184.1,291.3 v 0 c 1,3.3 -0.8,6.8 -4.1,7.9 l -15.7,5.2 c -3.3,1 -6.8,-0.8 -7.9,-4.1 v 0 c -1,-3.3 0.8,-6.8 4.1,-7.9 l 15.7,-5.2 c 3.3,-1 6.8,0.8 7.9,4.1 z"
   id="path69" />
		<path
   class="st0"
   d="m 1187.7,303.2 v 0 c 1,3.3 -0.8,6.8 -4.1,7.9 l -15.7,5.2 c -3.3,1 -6.8,-0.8 -7.9,-4.1 v 0 c -1,-3.3 0.8,-6.8 4.1,-7.9 l 15.7,-5.2 c 3.3,-1 6.8,0.8 7.9,4.1 z"
   id="path71" />
	</g>
</g>
<g
   id="Head"
   transform="matrix(0.36457752,0,0,0.36457752,-250.4332,-25.805506)">
	<path
   class="st0"
   d="m 1064.9,339.8 c 0,13.4 -10.9,24.5 -24.3,24.5 v 0 h -0.2 c -13.4,0 -24.5,-11.1 -24.5,-24.5 v -24.6 h 49 z"
   id="path76" />
	<path
   class="st11"
   d="m 1015.9,334.5 c 8.4,4.3 16.6,8.2 23.9,8.2 7.6,0 16.4,-1.4 25.1,-5.8 v -16 h -49 z"
   id="path78" />
	<path
   class="st0"
   d="m 1042.4,332.4 c -28.8,0 -66,-41.2 -66,-69.1 v -94.6 h 139.4 v 94.6 c 0,29.2 -25.2,69.1 -73.4,69.1 z"
   id="path80" />
	<polygon
   class="st8"
   points="985.7,214 984.9,233.4 972.5,233.4 972.5,216 "
   id="polygon82" />
	<path
   class="st8"
   d="m 1078.3,189.3 c 0,0 -33,20.6 -58.8,26 -27.6,5.8 -43.7,0 -43.7,0 0,0 -33.5,-18.4 -10.4,-52.8 35.4,-52.8 97.9,-36.1 112.9,-23.1 0,0 25.4,-8 38,14.5 14.9,26.7 -0.1,66.4 -0.1,66.4 0,0 -7.7,-3.4 -18.6,-11 -11.6,-8 -19.3,-20 -19.3,-20 z"
   id="path84" />
	<circle
   class="st0"
   cx="973.59998"
   cy="250.5"
   r="18.299999"
   id="circle86" />
	<path
   class="st12"
   d="m 970,253.1 c 0,-3.6 2.9,-6.5 6.5,-6.5 1,0 1.9,0.2 2.8,0.6 -1.1,-1.9 -3.2,-3.2 -5.6,-3.2 -3.6,0 -6.5,2.9 -6.5,6.5 0,2.6 1.5,4.8 3.7,5.9 -0.6,-1 -0.9,-2.1 -0.9,-3.3 z"
   id="path88" />
	<circle
   class="st0"
   cx="1116.2"
   cy="250.5"
   r="18.299999"
   id="circle90" />
	<path
   class="st12"
   d="m 1119.9,253.1 c 0,-3.6 -2.9,-6.5 -6.5,-6.5 -1,0 -1.9,0.2 -2.8,0.6 1.1,-1.9 3.2,-3.2 5.6,-3.2 3.6,0 6.5,2.9 6.5,6.5 0,2.6 -1.5,4.8 -3.7,5.9 0.6,-1 0.9,-2.1 0.9,-3.3 z"
   id="path92" />
</g>
<g
   id="Mouth"
   transform="matrix(0.36457752,0,0,0.36457752,-250.4332,-25.805506)">
	<path
   class="st13"
   d="m 1044.8,286.7 c 0,9.3 7.5,16.8 16.8,16.8 v 0 c 9.3,0 16.8,-7.5 16.8,-16.8"
   id="path95" />
</g>
<g
   id="Nose"
   transform="matrix(0.36457752,0,0,0.36457752,-250.4332,-25.805506)">
	<path
   class="st12"
   d="M 1057.5,259.2 V 273 c 0,0.6 0.8,1.1 1.4,1.1 h 8.2 c 2.2,0 3.4,-2.6 2,-4.3 l -9.5,-11.4 c -0.6,-0.8 -2.1,-0.3 -2.1,0.8 z"
   id="path98" />
</g>
<g
   id="Eyes"
   transform="matrix(0.36457752,0,0,0.36457752,-250.4332,-25.805506)">
	<ellipse
   class="st9"
   cx="1031.6"
   cy="241"
   rx="4.8000002"
   ry="8.5"
   id="ellipse101" />
	<ellipse
   class="st9"
   cx="1092.7"
   cy="241"
   rx="4.8000002"
   ry="8.5"
   id="ellipse103" />
</g>
<path
   class="st0"
   d="m 305.4604,68.842811 v 0 c 3.42703,1.458309 4.81242,5.906164 3.06245,9.916518 L 290.00231,122.1076 c -1.71351,4.01035 -5.8697,6.08844 -9.29673,4.63013 v 0 c -3.42702,-1.45831 -4.81242,-5.90616 -3.06245,-9.91651 l 18.52054,-43.348267 c 1.71352,-4.010353 5.8697,-6.088451 9.29673,-4.630142 z"
   id="path272"
   style="fill:#f69b76;stroke-width:0.364578" /><path
   class="st0"
   d="m 339.07444,110.33174 v 0 c 0.69271,3.64578 -1.71351,7.18217 -5.39575,7.83842 l -49.21796,9.18734 c -3.64578,0.69271 -7.18217,-1.71351 -7.83842,-5.39573 v 0 c -0.69269,-3.64578 1.71353,-7.18219 5.39575,-7.83842 l 49.21798,-9.18736 c 3.64576,-0.6927 7.14571,1.71351 7.8384,5.39575 z"
   id="path274"
   style="fill:#f69b76;stroke-width:0.364578" /><path
   class="st1"
   d="m 294.59599,71.358398 14.72892,6.890514 c 0.69271,0.328129 1.49478,0.03643 1.8229,-0.656233 l 13.78103,-29.530783 c 0.32812,-0.692691 0.0364,-1.494767 -0.65625,-1.822884 l -14.72892,-6.890514 c -0.6927,-0.328129 -1.49476,-0.03643 -1.82289,0.656233 l -13.78103,29.530783 c -0.32812,0.692691 -0.0364,1.494767 0.65624,1.822884 z"
   id="path276"
   style="fill:#333333;stroke-width:0.364578" /><path
   class="st2"
   d="m 297.4397,67.822003 12.79666,5.979067 c 0.54688,0.255202 1.23957,0.03643 1.49477,-0.546861 l 10.86441,-23.260045 c 0.2552,-0.546874 0.0364,-1.239565 -0.54686,-1.494779 L 309.252,42.520318 c -0.54686,-0.255202 -1.23956,-0.03643 -1.49477,0.546861 l -10.86441,23.260058 c -0.2552,0.546861 -0.0364,1.239552 0.54688,1.494766 z"
   id="path278"
   style="fill:#f2f2f2;stroke-width:0.364578" /><g
   id="g290"
   transform="matrix(-0.36457752,0,0,0.36457752,706.13106,-31.634755)">
	<path
   class="st3"
   d="m 1127.5,268.2 h -0.1 c -3.1,1.4 -6.8,0 -8.2,-3.1 l -15.1,-33.9 c -1.4,-3.1 0,-6.8 3.1,-8.2 h 0.1 c 3.1,-1.4 6.8,0 8.2,3.1 l 15.1,33.9 c 1.4,3.1 0,6.8 -3.1,8.2 z"
   id="path280"
   style="fill:#f8c09d" />
	<path
   class="st3"
   d="m 1113.3,227 v 0 c 1.5,3.1 0.1,6.8 -3,8.3 l -14.9,7.1 c -3.1,1.5 -6.8,0.1 -8.3,-3 v 0 c -1.5,-3.1 -0.1,-6.8 3,-8.3 L 1105,224 c 3.1,-1.5 6.8,-0.1 8.3,3 z"
   id="path282"
   style="fill:#f8c09d" />
	<path
   class="st3"
   d="m 1118.4,238.5 v 0 c 1.5,3.1 0.1,6.8 -3,8.3 l -14.9,7.1 c -3.1,1.5 -6.8,0.1 -8.3,-3 v 0 c -1.5,-3.1 -0.1,-6.8 3,-8.3 l 14.9,-7.1 c 3.1,-1.5 6.8,-0.1 8.3,3 z"
   id="path284"
   style="fill:#f8c09d" />
	<path
   class="st3"
   d="m 1123.5,249.9 v 0 c 1.5,3.1 0.1,6.8 -3,8.3 l -14.9,7.1 c -3.1,1.5 -6.8,0.1 -8.3,-3 v 0 c -1.5,-3.1 -0.1,-6.8 3,-8.3 l 14.9,-7.1 c 3.1,-1.5 6.8,-0.1 8.3,3 z"
   id="path286"
   style="fill:#f8c09d" />
	<path
   class="st3"
   d="m 1128.5,261.2 v 0 c 1.5,3.1 0.1,6.8 -3,8.3 l -14.9,7.1 c -3.1,1.5 -6.8,0.1 -8.3,-3 v 0 c -1.5,-3.1 -0.1,-6.8 3,-8.3 l 14.9,-7.1 c 3.1,-1.5 6.9,-0.1 8.3,3 z"
   id="path288"
   style="fill:#f8c09d" />
</g><path
   class="st4"
   d="m 343.63167,208.36663 h 0.47395 c 15.16642,0 27.48914,-12.46855 27.48914,-27.63497 v -0.0729 h -55.41578 v 0.0729 c 0,15.16642 12.28627,27.63497 27.45269,27.63497 z"
   id="path292"
   style="fill:#4d4d4d;stroke-width:0.364578" /><path
   class="st5"
   d="m 352.7461,305.34425 v 14.94768 l 29.45787,0.14583 c 0,0 -1.09374,-6.70823 -8.34884,-7.98424 -7.21863,-1.31248 -13.34353,2.84371 -13.34353,2.84371 l -0.76561,-9.95298 z"
   id="path294"
   style="fill:#754c24;stroke-width:0.364578" /><rect
   x="-363.93866"
   y="180.65874"
   class="st4"
   width="14.947679"
   height="124.68552"
   id="rect296"
   transform="scale(-1,1)"
   style="fill:#4d4d4d;stroke-width:0.364578" /><path
   class="st5"
   d="m 335.24639,305.34425 v 14.94768 l -29.45787,0.14583 c 0,0 1.09374,-6.70823 8.34882,-7.98424 7.21864,-1.31248 13.34354,2.84371 13.34354,2.84371 l 0.76561,-9.95298 z"
   id="path298"
   style="fill:#754c24;stroke-width:0.364578" /><rect
   x="324.18765"
   y="-305.32501"
   transform="scale(1,-1)"
   class="st4"
   width="14.947679"
   height="124.68552"
   id="rect300"
   style="fill:#4d4d4d;stroke-width:0.364578" /><path
   class="st0"
   d="m 354.53252,104.97245 h -21.29131 c -9.40611,0 -17.06223,7.61967 -17.06223,17.06223 v 58.62407 h 55.41578 v -58.62407 c 0,-9.44256 -7.65613,-17.06223 -17.06224,-17.06223 z"
   id="path302"
   style="fill:#f69b76;stroke-width:0.364578" /><polygon
   class="st1"
   points="1034.1,183 1048.8,178.5 1064.1,228.4 1046.2,222.5 "
   id="polygon304"
   transform="matrix(-0.36457752,0,0,0.36457752,706.13106,-31.634755)"
   style="fill:#333333" /><circle
   transform="matrix(-0.95601869,-0.29330574,-0.29330574,0.95601869,0,0)"
   class="st3"
   cx="-326.10556"
   cy="-42.312443"
   id="ellipse306"
   style="fill:#f8c09d;stroke-width:0.36457"
   r="7.9840913" /><path
   class="st6"
   d="m 321.31952,55.499284 c 0.47396,-1.494779 2.04164,-2.3333 3.5364,-1.859354 0.40104,0.109423 0.76561,0.328117 1.05728,0.619789 -0.21874,-0.947905 -0.91145,-1.749981 -1.93227,-2.04164 -1.49476,-0.473947 -3.06244,0.364574 -3.53639,1.859353 -0.32813,1.093722 0.0364,2.223915 0.80206,2.916618 -0.0729,-0.473959 -0.0729,-0.984362 0.0729,-1.494766 z"
   id="path308"
   style="fill:#ef937e;stroke-width:0.364578" /><path
   class="st3"
   d="m 334.66306,105.37348 c 0,4.88534 3.97389,8.93215 8.85924,8.93215 v 0 h 0.0729 c 4.88533,0 8.93214,-4.04681 8.93214,-8.93215 v -7.838409 h -17.86429 z"
   id="path310"
   style="fill:#f8c09d;stroke-width:0.364578" /><path
   class="st7"
   d="m 337.94426,105.62868 c -1.09373,-0.32812 -2.18747,-0.7656 -3.2812,-1.27601 v -7.182179 h 17.86429 v 7.838419 c 0,0.29165 0,0.54686 -0.0364,0.83853 -4.9947,1.16665 -10.13525,1.13018 -14.54663,-0.21876 z"
   id="path312"
   style="fill:#f6ae8d;stroke-width:0.364578" /><path
   class="st3"
   d="m 337.94426,101.25375 c 12.14042,3.7187 30.04118,-2.406199 34.59839,-17.280961 L 386.28724,39.166211 332.58497,22.687297 318.84039,67.493874 c -4.55722,14.874764 6.96344,30.041197 19.10387,33.759876 z"
   id="path314"
   style="fill:#f8c09d;stroke-width:0.364578" /><rect
   x="-387.40594"
   y="-55.06583"
   transform="matrix(-0.95601869,-0.29330574,-0.29330574,0.95601869,0,0)"
   class="st1"
   width="13.233905"
   height="14.218246"
   id="rect316"
   style="fill:#333333;stroke-width:0.36457" /><circle
   transform="matrix(-0.95601869,-0.29330574,-0.29330574,0.95601869,0,0)"
   class="st3"
   cx="-380.94797"
   cy="-41.671284"
   id="ellipse318"
   style="fill:#f8c09d;stroke-width:0.36457"
   r="7.9840913" /><path
   class="st6"
   d="m 377.61028,73.436496 c 0.47396,-1.494767 -0.36457,-3.062448 -1.85934,-3.536407 -0.40104,-0.109423 -0.83853,-0.14583 -1.23956,-0.109423 0.72915,-0.656233 1.74997,-0.911448 2.73433,-0.619776 1.49476,0.473946 2.3333,2.041628 1.85934,3.536394 -0.32812,1.093736 -1.23957,1.822896 -2.29683,1.968726 0.36457,-0.291672 0.65623,-0.729161 0.80206,-1.239565 z"
   id="path320"
   style="fill:#ef937e;stroke-width:0.364578" /><path
   class="st1"
   d="m 382.31334,36.395422 -0.0364,0.14583 3.31765,1.020807 c 4.08327,1.239565 6.41657,5.50512 5.14054,9.551931 l 0.0364,-0.07286 -3.2083,10.426921 -2.62494,8.567568 -12.65085,-3.864524 1.20311,-3.900968 c 0.80207,-2.588502 -0.58332,-5.249918 -3.17182,-6.051994 L 329.19439,39.6037 c -4.9218,-1.494767 -7.69259,-6.781142 -6.19781,-11.702944 L 328.5017,10 376.0426,24.5831 c 4.95826,1.531225 7.76551,6.890521 6.27074,11.812322 z"
   id="path322"
   style="fill:#333333;stroke-width:0.364578" /><path
   class="st0"
   d="m 406.5942,143.18017 v 0 c -1.96872,3.13536 -6.1249,4.08327 -9.29672,2.0781 l -42.32747,-26.79645 c -3.13535,-1.96873 -4.08325,-6.12491 -2.07807,-9.29673 v 0 c 1.9687,-3.13536 6.12488,-4.08327 9.29672,-2.07809 l 42.32745,26.79644 c 3.13536,2.00519 4.08326,6.16137 2.07809,9.29673 z"
   id="path324"
   style="fill:#f69b76;stroke-width:0.364578" /><path
   class="st0"
   d="m 398.17245,145.62284 v 0 c -3.39056,-1.53122 -4.88533,-5.54157 -3.3541,-8.89569 L 415.5628,91.118511 c 1.53123,-3.390583 5.54158,-4.885349 8.8957,-3.354125 v 0 c 3.39057,1.531224 4.88533,5.541575 3.35411,8.895695 l -20.708,45.608639 c -1.56768,3.39058 -5.54158,4.88535 -8.93216,3.35412 z"
   id="path326"
   style="fill:#f69b76;stroke-width:0.364578" /><path
   class="st3"
   d="m 417.6409,79.524934 c -0.0729,3.244748 -0.54687,7.473846 -0.76562,9.260272 -0.0729,0.510404 0.21875,1.02082 0.69271,1.203107 l 9.47901,3.900978 c 0.51041,0.21875 1.05727,0.0364 1.3854,-0.40103 2.88016,-4.046809 5.39575,-7.291557 6.70822,-14.728932 1.8958,-10.682124 -0.76561,-12.978966 -2.7708,-12.906051 -1.20309,0.03643 -1.56768,1.677053 -1.67705,2.953076 -0.40103,-2.734332 -3.42702,-2.369745 -3.9739,0.437501 -0.47394,-0.14583 -3.0989,-0.656246 -3.3541,3.281193 -0.10943,1.822883 -0.87499,5.541577 -1.67706,7.328016 0,-0.437502 0.0364,-0.874991 0.0364,-1.348937 0.0364,-3.317663 -4.01036,-3.208291 -4.08327,1.020807 z"
   id="path328"
   style="fill:#f8c09d;stroke-width:0.364578" /><path
   class="st8"
   d="m 332.32976,81.056158 c -1.49477,-0.437489 -2.69788,-1.604139 -3.20828,-3.062448 -0.36457,-1.02082 -0.76562,-3.463479 0.72916,-3.828066 0.87498,-0.218745 5.46866,1.312479 6.59884,1.640609 0.54688,0.145829 1.09374,0.291659 1.5677,0.583318 1.82288,1.239565 -0.36459,3.354108 -1.60415,4.119726 -1.2031,0.802076 -2.73434,0.984363 -4.08327,0.546861 z"
   id="path330"
   style="fill:#e26c60;stroke-width:0.364578" /><path
   class="st6"
   d="m 340.20463,63.519978 -1.71351,5.54159 c -0.0729,0.255202 -0.43749,0.364574 -0.6927,0.255202 l -3.28119,-0.984363 c -0.87499,-0.255202 -1.05728,-1.458309 -0.29166,-1.968713 l 5.177,-3.390577 c 0.40103,-0.255202 0.91144,0.145829 0.80206,0.546861 z"
   id="path332"
   style="fill:#ef937e;stroke-width:0.364578" /><ellipse
   transform="matrix(-0.95601869,-0.29330574,-0.29330574,0.95601869,0,0)"
   class="st1"
   cx="-353.69348"
   cy="-42.38147"
   rx="1.822852"
   ry="3.2082198"
   id="ellipse334"
   style="fill:#333333;stroke-width:0.36457" /><ellipse
   transform="matrix(-0.95601869,-0.29330574,-0.29330574,0.95601869,0,0)"
   class="st1"
   cx="-330.54639"
   cy="-42.373722"
   rx="1.822852"
   ry="3.2082198"
   id="ellipse336"
   style="fill:#333333;stroke-width:0.36457" /></svg>
