<?xml version="1.0" encoding="UTF-8" standalone="no"?>
<!-- Created with Inkscape (http://www.inkscape.org/) -->

<svg
   width="39.999996mm"
   height="35.672226mm"
   viewBox="0 0 39.999996 35.672227"
   version="1.1"
   id="svg5"
   inkscape:version="1.2.2 (732a01da63, 2022-12-09)"
   xml:space="preserve"
   sodipodi:docname="eraser.svg"
   xmlns:inkscape="http://www.inkscape.org/namespaces/inkscape"
   xmlns:sodipodi="http://sodipodi.sourceforge.net/DTD/sodipodi-0.dtd"
   xmlns="http://www.w3.org/2000/svg"
   xmlns:svg="http://www.w3.org/2000/svg"><sodipodi:namedview
     id="namedview7"
     pagecolor="#f0f0f0"
     bordercolor="#ffffff"
     borderopacity="1"
     inkscape:showpageshadow="0"
     inkscape:pageopacity="0"
     inkscape:pagecheckerboard="0"
     inkscape:deskcolor="#505050"
     inkscape:document-units="mm"
     showgrid="true"
     inkscape:zoom="2.87211"
     inkscape:cx="80.602763"
     inkscape:cy="124.47295"
     inkscape:current-layer="layer1"><inkscape:grid
       type="xygrid"
       id="grid132"
       dotted="true"
       empspacing="10"
       units="mm"
       spacingx="1"
       spacingy="1"
       originx="-32.847126"
       originy="-88.257711" /></sodipodi:namedview><defs
     id="defs2" /><g
     inkscape:label="Layer 1"
     inkscape:groupmode="layer"
     id="layer1"
     transform="translate(-32.847129,-88.257693)"><path
       style="display:inline;fill:#ffffff;stroke-width:0.0852944"
       d="m 48.144454,123.80934 c -1.852176,-0.21777 -2.772069,-0.3928 -4.435306,-0.84393 -0.469117,-0.1272 -1.064048,-0.28707 -1.322061,-0.35516 -0.258016,-0.0681 -0.603459,-0.16268 -0.767651,-0.21019 -0.164192,-0.0475 -0.45206,-0.12413 -0.639708,-0.17048 -0.676707,-0.16692 -1.666545,-0.5212 -2.430888,-0.87005 -0.258016,-0.11773 -0.661032,-0.29659 -0.895591,-0.39739 -1.539485,-0.66148 -3.454421,-1.92004 -3.454421,-2.27037 0,-0.0667 -0.03651,-0.12133 -0.08112,-0.12133 -0.12252,0 -0.640542,-0.98402 -0.895495,-1.70106 -0.282092,-0.79336 -0.423309,-2.16614 -0.360237,-3.5019 0.04729,-1.00168 0.334661,-2.25392 0.727397,-3.16978 0.189952,-0.44296 1.092635,-1.90592 1.472604,-2.38662 0.169979,-0.21504 0.245676,-0.4076 0.245676,-0.62496 0,-0.23156 0.06383,-0.37796 0.242884,-0.557 0.133584,-0.1336 0.349747,-0.37054 0.480356,-0.52654 0.130614,-0.15601 0.552363,-0.62909 0.937227,-1.05129 0.384863,-0.42221 0.924443,-1.01713 1.199067,-1.32207 0.274624,-0.30493 0.520888,-0.5736 0.547253,-0.59706 0.02636,-0.0234 0.508459,-0.56081 1.071319,-1.19412 0.56286,-0.63331 1.064284,-1.18985 1.114273,-1.23677 0.04999,-0.0469 0.414627,-0.44755 0.810299,-0.890315 0.395672,-0.44276 0.776976,-0.866848 0.847344,-0.942424 0.07037,-0.0756 0.40228,-0.442576 0.737584,-0.815568 0.335304,-0.372992 0.699936,-0.776708 0.810296,-0.89714 0.11036,-0.120427 0.474992,-0.523448 0.810296,-0.895592 0.335303,-0.37214 0.699938,-0.775156 0.810296,-0.895588 0.11036,-0.120427 0.488523,-0.54006 0.840363,-0.932504 0.351839,-0.392448 0.730001,-0.812076 0.840361,-0.932508 0.11036,-0.120427 0.474994,-0.524143 0.810298,-0.897135 0.335301,-0.372995 0.667214,-0.739779 0.737582,-0.815076 0.07037,-0.07529 0.281471,-0.3086 0.469119,-0.518448 0.816841,-0.913492 1.910122,-2.115862 2.314731,-2.545699 l 0.438255,-0.46558 0.585277,0.10212 c 1.079023,0.18828 2.661179,0.492511 3.655875,0.702984 0.23456,0.04963 0.714339,0.145708 1.066179,0.213503 0.35184,0.0678 0.812429,0.161705 1.023533,0.208689 0.211103,0.04699 0.690885,0.142679 1.06618,0.212655 0.604269,0.112666 1.262368,0.242054 2.38824,0.469541 0.874084,0.176611 1.847152,0.366828 2.430888,0.475199 0.35184,0.06532 0.831624,0.160644 1.066181,0.21184 0.23456,0.0512 0.695148,0.144925 1.023536,0.208293 0.66988,0.129267 1.871508,0.365543 2.388238,0.469604 0.187648,0.03779 0.64824,0.12956 1.023532,0.203939 0.375297,0.07437 1.046989,0.211169 1.492653,0.303992 0.445664,0.09281 0.890708,0.170036 0.988988,0.171592 0.09828,0.0015 0.242216,0.07303 0.319856,0.158813 0.125226,0.138383 0.140012,0.443924 0.131,2.708099 -0.0056,1.40366 -0.03436,3.991455 -0.06397,5.750654 l -0.05381,3.19855 -0.298528,0.40834 c -0.164192,0.22459 -0.375604,0.51247 -0.4698,0.63971 -0.21184,0.28616 -1.936132,2.60833 -2.686092,3.61747 -0.304928,0.4103 -1.168531,1.57628 -1.919119,2.59104 -0.750592,1.01476 -1.924048,2.59908 -2.60768,3.52072 -0.683628,0.92164 -1.58362,2.13628 -1.99998,2.69922 -0.41636,0.56294 -0.78824,1.06192 -0.826408,1.10882 -0.03816,0.0469 -0.39164,0.5267 -0.7855,1.0662 -0.393859,0.53948 -0.834815,1.12896 -0.979899,1.30996 -0.145084,0.18098 -0.263792,0.35502 -0.263792,0.38676 0,0.14766 -0.539626,0.36608 -0.783791,0.31724 -0.214008,-0.0428 -0.376909,0.0273 -0.969028,0.4173 -0.391472,0.2578 -0.736768,0.46874 -0.767324,0.46874 -0.03055,0 -0.176501,0.0535 -0.324328,0.11893 -0.147827,0.0655 -0.479876,0.18204 -0.737893,0.25919 -0.258015,0.0771 -0.545882,0.17489 -0.639708,0.21728 -0.293806,0.13266 -1.532606,0.38813 -3.105811,0.64053 -0.967118,0.15515 -3.054263,0.15236 -4.400093,-0.005 z"
       id="path304"
       sodipodi:nodetypes="ssssssssssssssssssssssssssssssssscsssssssssssscssscsssssssssssssssssss" /><path
       style="display:inline;fill:#0000a0;stroke-width:0.0852944;fill-opacity:1"
       d="m 48.400338,123.8193 c -2.221713,-0.24428 -3.081986,-0.42292 -6.226487,-1.29289 -0.422208,-0.1168 -0.978755,-0.26436 -1.236768,-0.32791 -1.087992,-0.26792 -1.696928,-0.5098 -3.873163,-1.53853 -1.167044,-0.55171 -2.865092,-1.71299 -2.865092,-1.95944 0,-0.0637 -0.02948,-0.12867 -0.06551,-0.14428 -0.17214,-0.0747 -0.633799,-0.96311 -0.874924,-1.68368 -0.356107,-1.06419 -0.499268,-2.69763 -0.349419,-3.98675 0.200095,-1.72137 0.915835,-3.43421 2.063107,-4.93721 0.206088,-0.27 0.349528,-0.56628 0.386708,-0.7988 0.03537,-0.22119 0.148282,-0.46295 0.281192,-0.60207 0.122147,-0.12786 0.509956,-0.55305 0.861795,-0.94485 0.582671,-0.64885 1.067496,-1.186 1.607537,-1.78102 0.110094,-0.12131 0.474734,-0.52627 0.810298,-0.8999 0.335564,-0.37363 0.821586,-0.91099 1.080049,-1.19412 0.258464,-0.28313 0.623098,-0.68542 0.810296,-0.89396 0.575802,-0.64148 1.353111,-1.495028 1.402399,-1.539948 0.02573,-0.02344 0.315468,-0.349704 0.643851,-0.725 0.328382,-0.375296 0.637962,-0.720736 0.687953,-0.767648 0.04999,-0.04696 0.414625,-0.447556 0.810297,-0.890316 0.395672,-0.44276 0.776978,-0.866852 0.847344,-0.942424 0.07037,-0.07557 0.402282,-0.442581 0.737583,-0.815577 0.335304,-0.372992 0.699939,-0.776704 0.810299,-0.897136 0.11036,-0.120426 0.488521,-0.54006 0.840361,-0.932504 0.351839,-0.392445 0.730003,-0.812073 0.840363,-0.932505 0.11036,-0.120427 0.474992,-0.523448 0.810295,-0.895589 0.335301,-0.372143 0.700212,-0.775159 0.81091,-0.895591 0.110694,-0.120427 0.475331,-0.524151 0.810298,-0.897152 1.371803,-1.527571 1.29354,-1.476244 2.016384,-1.32242 0.548021,0.116626 1.642729,0.33271 2.388241,0.471422 0.351841,0.06547 0.81243,0.158052 1.023533,0.20575 0.211104,0.04769 0.690884,0.143737 1.066181,0.21342 0.375295,0.06968 0.855075,0.166256 1.066179,0.214605 0.211102,0.04835 0.671692,0.141468 1.023532,0.206932 0.585216,0.108893 1.567595,0.301035 2.430891,0.475467 1.180248,0.238472 1.785524,0.356894 2.38824,0.467258 0.375296,0.06872 0.951032,0.183922 1.279416,0.255998 0.328384,0.07208 0.808164,0.169276 1.06618,0.216 1.326288,0.240171 4.242119,0.830347 4.648539,0.940884 0.14074,0.03828 0.46606,0.09624 0.72294,0.1288 0.25688,0.03256 0.556584,0.117867 0.666008,0.18956 l 0.198952,0.13036 -0.05671,5.509742 c -0.0312,3.030352 -0.08612,5.650082 -0.122053,5.821612 -0.04013,0.19151 -0.374064,0.72993 -0.865184,1.39499 -1.597856,2.16377 -3.476208,4.69709 -3.698928,4.98874 -0.279064,0.36543 -1.835764,2.47844 -2.156432,2.92707 -0.128,0.17905 -0.347868,0.47561 -0.488604,0.659 -0.350693,0.45693 -0.641205,0.84533 -1.307487,1.74808 -3.732284,5.05669 -4.437881,5.98713 -4.582269,6.04256 -0.0756,0.0291 -0.28216,0.0528 -0.459033,0.0528 -0.205419,0 -0.426284,0.0755 -0.611411,0.20881 -0.534889,0.38536 -1.309485,0.79732 -1.78247,0.948 -0.258015,0.0821 -0.661031,0.22008 -0.89559,0.30644 -0.525173,0.19336 -1.094705,0.31716 -3.070597,0.6674 -0.824366,0.14612 -3.215971,0.17228 -4.350014,0.0476 z m 4.307366,-0.89936 c 0.633309,-0.0916 1.343385,-0.20465 1.577945,-0.25136 0.583787,-0.11626 1.577947,-0.45417 1.577947,-0.5364 0,-0.0371 -0.112413,-0.26816 -0.249799,-0.51373 -0.432752,-0.77352 -0.549777,-1.39359 -0.551109,-2.92004 -0.0012,-1.46679 0.06533,-1.91727 0.472049,-3.19215 0.430555,-1.34964 0.959675,-2.25109 1.893656,-3.22625 0.670012,-0.69955 0.791726,-0.30827 0.159952,0.51421 -0.894381,1.16435 -1.412016,2.28955 -1.741477,3.78551 -0.224168,1.01785 -0.266067,3.16309 -0.07803,3.99501 0.22771,1.00744 0.621622,1.6428 0.819755,1.3222 0.02899,-0.0469 0.113627,-0.0853 0.188065,-0.0853 0.164159,0 1.70094,-0.93968 2.019259,-1.23468 0.159745,-0.14804 0.215223,-0.26916 0.185588,-0.40516 -0.02325,-0.10667 -0.06053,-0.57784 -0.08285,-1.04696 -0.06387,-1.34224 -0.498604,-7.58732 -0.53086,-7.62592 -0.01596,-0.0191 -0.192518,-0.0635 -0.392343,-0.0987 -0.199825,-0.0352 -0.593615,-0.108 -0.875087,-0.16164 -0.480466,-0.0917 -0.794142,-0.14762 -2.665447,-0.4753 -0.410481,-0.0719 -0.93824,-0.16788 -1.1728,-0.21332 -0.391608,-0.0759 -0.778213,-0.145 -2.601476,-0.46524 -0.35184,-0.0617 -0.870001,-0.15648 -1.151473,-0.21042 -0.281474,-0.054 -0.818827,-0.15154 -1.194122,-0.21686 -0.375296,-0.0653 -0.893457,-0.16138 -1.151473,-0.21348 -0.445915,-0.09 -1.002303,-0.18952 -2.644126,-0.47276 -0.39875,-0.0688 -0.916914,-0.16312 -1.151473,-0.2096 -0.394165,-0.0781 -0.923743,-0.1734 -2.601479,-0.46806 -0.351837,-0.0617 -0.870001,-0.1561 -1.151472,-0.20956 -0.281472,-0.0535 -0.742061,-0.13516 -1.023533,-0.18156 -0.281471,-0.0464 -0.889598,-0.16274 -1.351392,-0.2585 -0.461796,-0.0957 -0.847524,-0.16176 -0.857175,-0.14662 -0.0096,0.0151 -0.22982,0.27702 -0.489264,0.58194 -0.929863,1.09288 -1.558779,2.28716 -1.901627,3.61112 -0.283515,1.0948 -0.339515,1.90032 -0.221039,3.17952 0.110654,1.19468 0.343251,2.03956 0.766507,2.78422 0.263744,0.464 0.619249,0.91636 0.720184,0.91636 0.03196,0 0.142646,0.0881 0.245958,0.19578 0.22085,0.2302 1.520865,1.03346 2.192257,1.35456 0.627052,0.29988 2.621815,1.10308 2.942656,1.18488 0.406846,0.10373 2.277392,0.59842 2.55883,0.67672 2.248868,0.62582 2.672264,0.7096 5.117661,1.01282 1.110714,0.13772 3.162175,0.10254 4.392659,-0.0753 z m 7.849322,-3.79508 c 0.343558,-0.46909 1.184082,-1.60616 1.867826,-2.52676 0.683748,-0.9206 1.857296,-2.50724 2.607888,-3.52584 0.750589,-1.01861 1.479857,-1.99864 1.620589,-2.17784 0.14074,-0.17921 0.416576,-0.55008 0.612976,-0.82417 0.384304,-0.53631 2.167826,-2.95043 2.54219,-3.44099 0.125294,-0.1642 0.655693,-0.87342 1.178657,-1.57606 l 0.950856,-1.27755 0.06295,-5.072588 c 0.03464,-2.78992 0.05025,-5.085289 0.03472,-5.100817 -0.02472,-0.02468 -0.340992,0.394384 -1.6869,2.235145 -0.17236,0.235732 -0.415508,0.56294 -0.540328,0.727132 -0.28238,0.371444 -1.045304,1.414196 -1.518664,2.075676 -0.196376,0.274424 -0.472195,0.645368 -0.612931,0.824328 -0.140736,0.178968 -0.428604,0.566644 -0.639708,0.861494 -0.211104,0.29486 -0.697676,0.96051 -1.081272,1.47923 -0.383592,0.51871 -0.810104,1.09664 -0.947804,1.28429 -0.1377,0.18765 -0.706648,0.96044 -1.264328,1.71731 -1.366736,1.85489 -3.318723,4.50972 -3.998451,5.43812 -0.305375,0.41709 -0.555047,0.83929 -0.554827,0.93824 2.44e-4,0.0989 0.13438,2.07981 0.298128,4.40196 0.163752,2.32213 0.297907,4.29689 0.298131,4.38837 4e-4,0.20399 -0.0052,0.21031 0.770292,-0.84868 z m -9.435472,-10.61913 c 0.154154,-0.16419 0.591622,-0.68235 0.972148,-1.15147 0.989076,-1.21934 2.108075,-2.57478 2.534971,-3.0706 0.201956,-0.23456 0.698612,-0.82949 1.10368,-1.32206 0.405067,-0.49258 1.117639,-1.35618 1.583496,-1.91912 1.498503,-1.810802 2.746828,-3.323386 3.705887,-4.490394 0.514836,-0.626468 0.978788,-1.177421 1.031,-1.224333 0.08464,-0.07605 0.877048,-1.035428 2.489292,-3.013825 0.293052,-0.359608 0.532944,-0.677564 0.533088,-0.706573 1.72e-4,-0.029 -0.143668,-0.07656 -0.319584,-0.105667 -0.623916,-0.103253 -1.55692,-0.282636 -3.390452,-0.65188 -0.92251,-0.18578 -1.852948,-0.367712 -2.430889,-0.475324 -0.351838,-0.06551 -0.735663,-0.139491 -0.852943,-0.1644 -0.187635,-0.03985 -0.295164,0.05825 -0.895592,0.817107 -0.375295,0.474316 -0.761256,0.9451 -0.857692,1.046184 -0.09644,0.10108 -0.517639,0.605996 -0.936007,1.122028 -0.418368,0.516028 -0.863853,1.053384 -0.989968,1.19412 -0.2413,0.269276 -1.365516,1.630412 -2.49058,3.015451 -0.367592,0.452536 -0.771712,0.937944 -0.898041,1.07868 -0.126334,0.140736 -0.650795,0.768168 -1.165478,1.394288 -1.980428,2.409248 -2.373193,2.883888 -2.728184,3.296898 -0.348565,0.40553 -0.744208,0.88444 -2.67764,3.24118 -0.461828,0.56295 -0.923699,1.11863 -1.026379,1.23484 l -0.186695,0.21135 0.240079,0.0691 c 0.242848,0.0699 0.589299,0.13666 1.903318,0.36672 1.440398,0.25218 2.182814,0.38529 2.601477,0.4664 0.23456,0.0455 0.771913,0.14362 1.194121,0.21817 1.560698,0.27559 1.437637,0.2728 1.561646,0.0355 0.0614,-0.1176 0.237768,-0.34808 0.391921,-0.51227 z"
       id="path302"
       inkscape:label="colorable302"
       class="colorable" /><path
       style="display:inline;fill:#000000;stroke-width:0.0852944"
       d="m 48.613574,123.80218 c -1.97808,-0.19368 -3.360796,-0.47477 -6.269135,-1.27448 -0.422208,-0.11613 -0.983931,-0.26564 -1.248272,-0.33233 -0.574209,-0.14488 -1.462443,-0.43744 -1.835215,-0.60447 -0.147825,-0.0663 -0.290919,-0.1204 -0.317984,-0.1204 -0.04496,0 -0.597489,-0.24944 -1.844132,-0.83253 -0.432193,-0.20215 -1.692299,-0.93455 -1.791183,-1.04107 -0.02345,-0.0253 -0.263344,-0.21365 -0.533088,-0.41861 -0.269744,-0.20496 -0.490444,-0.42147 -0.490444,-0.48111 0,-0.0596 -0.05083,-0.128 -0.112947,-0.15177 -0.179824,-0.0689 -0.72926,-1.18871 -0.960461,-1.95735 -0.260019,-0.86441 -0.375876,-3.03892 -0.216043,-4.05484 0.251566,-1.599 1.09968,-3.4552 2.203674,-4.82297 0.115053,-0.14255 0.194603,-0.35679 0.194603,-0.52408 0,-0.19668 0.07804,-0.36651 0.255964,-0.55699 0.14078,-0.15069 0.35694,-0.39464 0.480356,-0.54209 0.123413,-0.14745 0.539281,-0.61355 0.924145,-1.03575 0.384863,-0.42221 0.925175,-1.01713 1.200692,-1.32206 0.275517,-0.30493 0.640857,-0.70795 0.811864,-0.8956 0.171008,-0.18764 0.89786,-0.99367 1.615227,-1.79118 0.717368,-0.7975 1.44422,-1.603534 1.615228,-1.791174 0.171008,-0.187648 0.536347,-0.590672 0.811864,-0.895592 0.275519,-0.304928 0.830483,-0.917926 1.233256,-1.362214 0.402772,-0.444288 0.885843,-0.979496 1.07349,-1.189344 0.187648,-0.209852 0.398752,-0.443156 0.46912,-0.518452 0.07037,-0.07529 0.40228,-0.44208 0.737582,-0.815072 0.335304,-0.372996 0.699938,-0.776704 0.810298,-0.89714 0.11036,-0.120427 0.488522,-0.54006 0.84036,-0.932504 0.35184,-0.392444 0.730001,-0.812072 0.840361,-0.932504 0.11036,-0.120427 0.474996,-0.524144 0.810297,-0.897136 0.335304,-0.372994 0.667217,-0.739631 0.737585,-0.814751 0.07037,-0.07512 0.429013,-0.470423 0.796989,-0.878453 0.727929,-0.807162 0.848176,-0.857207 1.581357,-0.658124 0.169635,0.04605 0.749826,0.162946 1.289312,0.259746 0.539486,0.0968 1.326326,0.249748 1.748534,0.339883 0.422207,0.09013 0.959561,0.198817 1.19412,0.241516 0.377488,0.06872 1.338912,0.260853 2.644127,0.528419 0.8722,0.178798 2.255887,0.450516 4.094127,0.803974 0.860004,0.165362 3.522992,0.694106 4.520599,0.897581 0.46912,0.09568 1.236772,0.252313 1.705892,0.348072 0.469116,0.09576 1.149172,0.227556 1.511232,0.292884 1.117464,0.201632 1.006516,-0.186319 0.99482,3.478521 -0.0056,1.745816 -0.0344,4.344882 -0.06405,5.775694 l -0.05392,2.60148 -0.214008,0.29853 c -0.117707,0.16419 -0.65502,0.89255 -1.19404,1.61858 -0.539016,0.72602 -1.236077,1.66638 -1.549015,2.0897 -0.312944,0.42332 -0.671016,0.904 -0.795724,1.0682 -0.219924,0.28956 -0.411208,0.54779 -2.213224,2.98784 -0.46668,0.63192 -1.39016,1.8782 -2.052177,2.76952 -0.66202,0.89132 -1.543898,2.0812 -1.959734,2.64412 -0.415836,0.56296 -0.78776,1.03635 -0.826504,1.05196 -0.03876,0.0156 -0.07044,0.0625 -0.07044,0.1044 0,0.07 -1.08848,1.56131 -1.699665,2.32867 -0.14416,0.18097 -0.262108,0.36033 -0.262108,0.39853 0,0.11027 -0.577273,0.27104 -0.762421,0.21228 -0.16734,-0.0531 -0.431312,0.0757 -0.862457,0.42116 -0.382268,0.3062 -1.385327,0.76776 -1.872188,0.86148 -0.164192,0.0316 -0.336914,0.0845 -0.383826,0.1176 -0.217318,0.15308 -1.500908,0.452 -2.942655,0.68527 -0.815033,0.13187 -1.417782,0.16937 -2.55883,0.1592 -0.820959,-0.007 -1.626991,-0.0265 -1.791182,-0.0425 z m 3.155891,-0.7106 c 1.591705,-0.13293 2.359119,-0.27857 3.689668,-0.70012 0.559551,-0.17725 0.572575,-0.1878 0.444907,-0.35988 -0.59832,-0.80652 -0.848127,-2.02068 -0.782295,-3.80229 0.05871,-1.58884 0.282495,-2.50767 0.976383,-4.00883 0.423909,-0.91709 1.5894,-2.31292 1.814891,-2.17356 0.111973,0.0692 -0.01067,0.28591 -0.517762,0.91527 -1.149469,1.42648 -1.804929,3.52057 -1.808832,5.77889 -0.0024,1.34687 0.13288,2.17851 0.468296,2.88052 0.163491,0.34216 0.22502,0.39896 0.405935,0.3746 0.11728,-0.0159 0.249699,-0.0637 0.294263,-0.10666 0.04457,-0.0429 0.143378,-0.0779 0.21958,-0.0779 0.162616,0 1.678042,-0.97739 1.895721,-1.22264 0.09591,-0.10813 0.149435,-0.30835 0.149739,-0.56028 4.8e-4,-0.47955 -0.502052,-7.963 -0.55982,-8.33495 -0.03549,-0.22857 -0.08645,-0.27497 -0.359394,-0.32729 -0.174914,-0.0335 -0.490749,-0.0959 -0.701854,-0.1384 -0.35433,-0.0715 -0.865326,-0.16359 -2.55883,-0.461 -0.35184,-0.0619 -0.870001,-0.15651 -1.151473,-0.21044 -0.28147,-0.054 -0.838016,-0.1552 -1.236768,-0.22503 -1.857808,-0.32525 -2.203046,-0.38684 -2.601479,-0.46404 -0.234559,-0.0455 -0.752722,-0.14033 -1.151474,-0.21085 -0.398749,-0.0705 -0.916913,-0.16628 -1.151472,-0.21279 -0.473321,-0.0939 -1.601457,-0.29437 -2.644125,-0.47012 -0.375296,-0.0632 -0.893459,-0.15876 -1.151475,-0.21221 -0.258015,-0.0535 -0.776179,-0.14899 -1.151472,-0.21224 -1.042671,-0.17575 -2.170805,-0.37632 -2.644126,-0.47012 -0.23456,-0.0465 -0.752722,-0.14224 -1.151474,-0.21279 -0.760534,-0.13453 -1.2938,-0.23357 -2.004351,-0.37225 -0.234523,-0.0457 -0.432572,-0.0768 -0.440115,-0.0689 -0.199197,0.20752 -1.325844,1.68177 -1.406177,1.84001 -0.06179,0.12173 -0.200523,0.35923 -0.308299,0.52775 -0.383096,0.59905 -0.838051,2.08428 -0.957192,3.12481 -0.121227,1.05875 0.04072,2.80803 0.343967,3.71544 0.299332,0.89571 0.924693,1.93719 1.163193,1.93719 0.03897,0 0.11296,0.0673 0.164404,0.14976 0.14222,0.22773 2.159931,1.43245 2.954127,1.76384 0.17592,0.0733 0.450399,0.19104 0.609952,0.2614 0.159553,0.0704 0.343788,0.128 0.409412,0.128 0.06563,0 0.15578,0.0331 0.200345,0.0736 0.09853,0.0895 1.214939,0.48024 1.744271,0.61041 0.903192,0.22212 1.342771,0.3344 1.663239,0.42476 0.187648,0.0529 0.552281,0.14888 0.810296,0.21324 0.258016,0.0644 0.622649,0.16088 0.810297,0.21447 2.015698,0.57564 5.045714,0.86221 7.207373,0.68164 z m 8.766445,-3.84664 c 0.198032,-0.26236 0.36005,-0.51824 0.36005,-0.56864 0,-0.0504 0.03556,-0.1044 0.07899,-0.12 0.04344,-0.0156 0.404732,-0.46981 0.802872,-1.00929 0.811064,-1.09903 1.091728,-1.47415 1.46374,-1.95635 0.140736,-0.1824 0.601328,-0.80365 1.023532,-1.38053 0.422208,-0.57688 1.017136,-1.38524 1.322064,-1.79635 0.304924,-0.41108 1.226104,-1.65452 2.047064,-2.7632 0.820955,-1.10864 2.068387,-2.78972 2.772067,-3.73568 0.703676,-0.94597 1.346692,-1.82353 1.42892,-1.95013 0.136216,-0.20973 0.1556,-0.68703 0.218144,-5.371804 0.03776,-2.82789 0.06099,-5.153458 0.05164,-5.16793 -0.01796,-0.0278 -0.737684,0.9336 -2.764884,3.693336 -0.680224,0.926026 -1.693055,2.302938 -2.250731,3.059808 -0.55768,0.75687 -1.126328,1.52966 -1.263664,1.71731 -0.137336,0.18764 -0.506276,0.68707 -0.819864,1.10983 -0.764072,1.03006 -1.474892,1.99825 -1.658656,2.25918 -0.08264,0.11734 -0.255356,0.35302 -0.383824,0.52372 -0.128467,0.17072 -0.521444,0.70272 -0.873284,1.18228 -0.35184,0.47955 -0.74432,1.01156 -0.872184,1.18228 -0.127867,0.17071 -0.327704,0.44471 -0.444092,0.60891 -0.116387,0.16417 -0.483487,0.66316 -0.815783,1.10881 -0.332295,0.44568 -0.658427,0.8872 -0.724739,0.98119 -0.104533,0.14816 -0.09297,0.56225 0.08684,3.11325 0.11408,1.61828 0.250148,3.63324 0.302379,4.47764 0.05223,0.84443 0.110587,1.58628 0.12968,1.6486 0.0368,0.12014 0.131733,0.0176 0.78372,-0.84617 z m -1.332581,-9.38397 c 0.34455,-0.47435 0.731068,-1.00211 0.858932,-1.1728 0.127854,-0.17071 0.327701,-0.44472 0.444089,-0.60891 0.116386,-0.1642 0.483626,-0.66316 0.816082,-1.10884 0.33246,-0.44565 0.699696,-0.94462 0.816084,-1.10881 0.116387,-0.16419 0.316228,-0.43883 0.444092,-0.61029 0.127854,-0.17147 0.480624,-0.65126 0.783916,-1.06618 0.303292,-0.41494 0.752624,-1.0231 0.998512,-1.35148 0.245888,-0.32839 0.558592,-0.75059 0.694896,-0.93824 0.136304,-0.18765 0.704109,-0.96044 1.261793,-1.71731 0.557676,-0.756872 1.570508,-2.133288 2.250728,-3.058708 0.680222,-0.92542 1.648566,-2.239861 2.151879,-2.920981 0.503308,-0.68112 0.897664,-1.266618 0.876348,-1.301113 -0.02132,-0.03449 -0.183636,-0.08692 -0.360696,-0.116507 -0.177068,-0.02957 -0.494656,-0.08871 -0.70576,-0.131386 -1.171345,-0.23682 -1.802395,-0.358248 -2.260299,-0.434936 -0.281472,-0.04713 -0.674892,-0.123987 -0.874268,-0.170784 -0.646768,-0.151787 -1.082032,-0.248044 -1.353076,-0.29924 -0.254348,-0.04804 -0.30198,-0.0059 -1.126753,0.99892 -1.677524,2.04355 -2.340764,2.845278 -2.702464,3.266731 -0.201308,0.23456 -0.724904,0.862288 -1.16356,1.394952 -0.438654,0.53266 -1.123799,1.364116 -1.522552,1.847676 -0.398752,0.48356 -1.143848,1.391126 -1.655769,2.016826 -0.511926,0.62569 -0.97349,1.176 -1.025702,1.22292 -0.05221,0.0469 -0.516161,0.59785 -1.031001,1.22432 -0.51484,0.62648 -1.358279,1.65037 -1.874307,2.2753 -2.842759,3.44272 -2.781417,3.3618 -2.577892,3.40072 0.104307,0.02 0.400751,0.0787 0.658768,0.13054 0.258015,0.0519 0.718605,0.13528 1.023532,0.18544 0.304927,0.0501 0.727135,0.12506 0.938236,0.16636 0.448547,0.0879 2.456448,0.44412 3.785916,0.67184 0.276143,0.0473 0.522432,0.1064 0.547303,0.1312 0.13324,0.1332 0.314369,-0.0344 0.882993,-0.8172 z m -8.030924,-1.32079 c 0.304927,-0.39816 0.66594,-0.84637 0.802251,-0.99604 0.229018,-0.25148 0.996246,-1.17604 2.747529,-3.31092 0.380828,-0.46426 0.866744,-1.04584 1.079811,-1.29242 0.213068,-0.24657 0.68832,-0.81686 1.056117,-1.26728 1.665995,-2.040306 2.27798,-2.781458 2.493091,-3.019282 0.127293,-0.140744 0.651681,-0.768312 1.165306,-1.394612 0.513626,-0.626296 1.290002,-1.566669 1.725278,-2.089709 0.435276,-0.523044 1.16944,-1.41158 1.631468,-1.974518 0.462028,-0.562948 0.940664,-1.138684 1.063632,-1.279419 0.122974,-0.140736 0.223632,-0.280196 0.223688,-0.309909 8.4e-5,-0.06121 -0.197388,-0.111254 -1.108724,-0.280948 -0.861708,-0.160447 -1.920196,-0.371083 -2.388244,-0.475251 -0.2111,-0.04699 -0.690884,-0.142796 -1.066178,-0.212916 -0.375293,-0.07012 -0.970223,-0.184702 -1.322061,-0.254628 -1.422169,-0.282656 -1.370124,-0.28803 -1.748784,0.180548 -0.184393,0.228176 -0.439268,0.530015 -0.56639,0.670748 -0.12712,0.140736 -0.56161,0.6589 -0.965531,1.151475 -0.40392,0.492576 -1.222368,1.48467 -1.818771,2.204654 -1.195796,1.443585 -2.12352,2.566857 -3.33192,4.034237 -0.438653,0.532664 -0.962256,1.160392 -1.163559,1.39495 -0.360588,0.42016 -0.883664,1.05261 -2.726737,3.2969 -0.514192,0.62613 -0.986134,1.19089 -1.048759,1.25502 -0.06263,0.0641 -0.427967,0.50554 -0.811871,0.9809 -0.383904,0.47534 -0.976755,1.1889 -1.317444,1.5857 -0.340695,0.3968 -0.590976,0.7496 -0.556184,0.78404 0.03479,0.0344 0.312744,0.1068 0.617672,0.16099 0.304927,0.0541 0.84228,0.14904 1.19412,0.21092 1.679388,0.29536 2.204195,0.38937 2.558831,0.45841 0.211104,0.0411 0.748459,0.13888 1.19412,0.21727 0.445664,0.0784 0.963828,0.17452 1.151475,0.2136 0.632451,0.13173 0.651344,0.12187 1.236768,-0.64251 z m -7.83905,-1.71337 c 0.441245,-0.54811 0.862441,-1.05668 0.935991,-1.13015 0.07355,-0.0735 0.475561,-0.55578 0.893361,-1.07182 0.417798,-0.51603 0.862818,-1.05339 0.988932,-1.19412 0.12612,-0.14074 0.587708,-0.69219 1.025763,-1.22545 0.438056,-0.53326 1.19948,-1.45866 1.692056,-2.05645 0.492573,-0.59779 1.253997,-1.524062 1.692054,-2.058382 0.438054,-0.534328 0.900124,-1.086648 1.02682,-1.227384 0.126693,-0.140736 0.571377,-0.678092 0.988177,-1.194125 0.416804,-0.516028 0.799929,-0.976616 0.851391,-1.023532 0.05147,-0.04691 0.513292,-0.603456 1.026297,-1.236768 0.513003,-0.633306 0.97654,-1.189854 1.030087,-1.236766 0.05355,-0.04691 0.404425,-0.469155 0.779736,-0.938319 0.375309,-0.469164 0.745809,-0.905668 0.823332,-0.970006 0.226743,-0.18818 0.171556,-0.23587 -0.392136,-0.338866 -0.472248,-0.08629 -1.143383,-0.217983 -2.238979,-0.439351 -0.187648,-0.03792 -0.648237,-0.12724 -1.023531,-0.198492 -0.375294,-0.07125 -0.743854,-0.153683 -0.819018,-0.183172 -0.09216,-0.03616 -0.227986,0.05195 -0.417096,0.270528 -0.154238,0.178279 -0.495756,0.5555 -0.758928,0.838269 -0.263172,0.282768 -0.747174,0.818778 -1.075555,1.19113 -0.328386,0.372355 -0.693018,0.775003 -0.810298,0.894772 -0.11728,0.119773 -0.481912,0.522188 -0.810296,0.894259 -0.328382,0.37207 -0.654633,0.737646 -0.725001,0.812394 -0.07037,0.07475 -0.415809,0.455072 -0.767649,0.845176 -0.351839,0.390096 -0.716472,0.7938 -0.810296,0.897109 -0.09383,0.103306 -0.458458,0.506328 -0.810298,0.895592 -0.351839,0.389264 -0.716472,0.79228 -0.810296,0.895588 -0.09383,0.103306 -0.458457,0.508156 -0.810297,0.899668 -0.351839,0.391504 -0.730278,0.811384 -0.840975,0.93308 -0.110693,0.121693 -0.475332,0.524704 -0.810296,0.895588 -0.334967,0.37088 -0.699599,0.7739 -0.810296,0.89559 -0.110693,0.12169 -0.475332,0.5247 -0.810299,0.89559 -0.334964,0.37089 -0.699108,0.7739 -0.809207,0.89559 -0.110093,0.12169 -0.474733,0.52548 -0.810297,0.8973 -0.335563,0.37184 -0.700196,0.77485 -0.810296,0.8956 -0.110093,0.1208 -0.474733,0.52448 -0.810296,0.89716 -0.335564,0.37269 -0.677285,0.7469 -0.759381,0.83162 -0.08209,0.0847 -0.149266,0.16924 -0.149266,0.18788 0,0.0187 0.259082,0.0813 0.575738,0.13944 0.316654,0.058 0.748457,0.1386 0.959561,0.17896 0.358777,0.0687 1.015613,0.18591 2.558831,0.45695 1.369464,0.24052 1.645448,0.29601 1.689093,0.33965 0.09893,0.0989 0.189916,0.009 0.963063,-0.95133 z"
       id="path300" /></g></svg>
