<?xml version="1.0" encoding="UTF-8" standalone="no"?>
<!-- Created with Inkscape (http://www.inkscape.org/) -->

<svg
   width="100mm"
   height="12.588529mm"
   viewBox="0 0 100 12.588529"
   version="1.1"
   id="svg5"
   inkscape:version="1.2.2 (732a01da63, 2022-12-09)"
   xml:space="preserve"
   sodipodi:docname="marker.svg"
   xmlns:inkscape="http://www.inkscape.org/namespaces/inkscape"
   xmlns:sodipodi="http://sodipodi.sourceforge.net/DTD/sodipodi-0.dtd"
   xmlns="http://www.w3.org/2000/svg"
   xmlns:svg="http://www.w3.org/2000/svg"><sodipodi:namedview
     id="namedview7"
     pagecolor="#f0f0f0"
     bordercolor="#ffffff"
     borderopacity="1"
     inkscape:showpageshadow="0"
     inkscape:pageopacity="0"
     inkscape:pagecheckerboard="0"
     inkscape:deskcolor="#505050"
     inkscape:document-units="mm"
     showgrid="true"
     inkscape:zoom="0.7180275"
     inkscape:cx="304.30589"
     inkscape:cy="-114.89811"
     inkscape:current-layer="layer1"><inkscape:grid
       type="xygrid"
       id="grid132"
       dotted="true"
       empspacing="10"
       units="mm"
       spacingx="1"
       spacingy="1"
       originx="-14.34933"
       originy="-151.36745" /></sodipodi:namedview><defs
     id="defs2" /><g
     inkscape:label="Layer 1"
     inkscape:groupmode="layer"
     id="layer1"
     transform="translate(-14.349331,-151.36744)"><path
       style="display:inline;fill:#ffeeaa;stroke-width:0.169347"
       d="m 16.87675,158.0129 c -0.355886,-0.91672 -0.722118,-1.76246 -0.813851,-1.87942 -0.09159,-0.11706 -0.139613,-0.40776 -0.106408,-0.64625 0.04963,-0.3564 0.134349,-0.44903 0.475799,-0.5202 0.507099,-0.10569 7.398443,-0.21672 7.5807,-0.12213 0.07158,0.0371 0.290027,-0.0663 0.485455,-0.22985 0.206171,-0.17256 0.804612,-0.32584 1.425732,-0.36517 0.588727,-0.0373 2.199732,-0.16828 3.580003,-0.29112 6.560568,-0.58389 8.496978,-0.70523 10.661795,-0.6681 1.181123,0.0202 1.477902,-0.0389 1.722357,-0.34337 0.254401,-0.31684 0.746271,-0.37404 3.548171,-0.4126 4.875259,-0.0671 6.685708,-0.0807 7.43928,-0.056 0.374663,0.0123 1.518488,0.0135 2.541834,0.002 1.023346,-0.0108 1.972587,-0.004 2.109427,0.0137 0.136845,0.0184 1.028226,0.0148 1.980842,-0.008 0.952615,-0.0228 1.792182,-0.0289 1.865691,-0.0136 0.07353,0.0153 1.717953,0.021 3.654323,0.0126 1.936365,-0.008 3.823349,-0.007 4.193302,0.002 0.369962,0.01 1.274363,0.0109 2.009786,0.002 1.721499,-0.0193 5.174999,-0.0225 6.604399,-0.006 1.4668,0.0168 3.592177,0.0159 5.410698,-0.002 0.807727,-0.008 2.328291,-0.007 3.37903,0.001 1.641637,0.0138 1.930468,-0.0337 2.052867,-0.33797 0.07835,-0.19473 0.233955,-0.43064 0.345789,-0.52424 0.111839,-0.0936 1.791418,-0.18263 3.732402,-0.19784 1.940974,-0.0152 4.248217,-0.0333 5.127206,-0.0403 0.878984,-0.007 2.775771,-0.004 4.215091,0.005 1.43932,0.01 3.45314,0.006 4.47513,-0.009 1.022,-0.015 2.03168,-0.0118 2.24373,0.007 0.21204,0.0188 0.75348,0.0175 1.20317,-0.003 0.88516,-0.0401 2.05047,0.44828 2.58041,1.08145 0.92796,1.10871 1.54797,3.67892 1.42314,5.8995 -0.16242,2.88906 -1.75702,5.48665 -3.33202,5.42783 -0.24138,-0.009 -0.97711,-0.006 -1.63496,0.006 -0.65785,0.0121 -1.30713,0.008 -1.44286,-0.009 -0.13572,-0.017 -1.08502,-0.0233 -2.10956,-0.0139 -1.02454,0.009 -1.97482,0.002 -2.11174,-0.0165 -0.13691,-0.0185 -1.02841,-0.015 -1.9811,0.008 -0.95269,0.0227 -2.040559,0.029 -2.417491,0.014 -0.376933,-0.015 -1.145214,-0.0214 -1.707289,-0.0142 -3.044547,0.039 -7.843314,-0.0217 -8.072659,-0.10204 -0.145373,-0.0509 -0.387836,-0.30402 -0.538803,-0.5624 -0.249826,-0.42757 -0.383002,-0.46821 -1.482543,-0.45242 -2.176497,0.0313 -4.328938,0.0369 -8.999368,0.0238 -2.531048,-0.007 -5.263203,-0.006 -6.071464,0.002 -0.808257,0.008 -2.648536,0.008 -4.089501,-1.5e-4 -1.440966,-0.009 -3.221603,-0.009 -3.956967,-4.9e-4 -0.735364,0.008 -1.641915,0.004 -2.014547,-0.009 -0.372637,-0.0129 -1.323141,-0.0123 -2.112235,9.8e-4 -0.789085,0.0135 -2.614541,0.0183 -4.056561,0.0107 -1.442027,-0.008 -3.220474,-0.006 -3.952117,0.003 -0.731642,0.01 -1.442723,0.002 -1.580186,-0.0172 -0.13746,-0.0191 -0.786067,-0.0223 -1.441337,-0.007 -0.65527,0.0152 -1.601662,0.0189 -2.103095,0.008 -0.501425,-0.0107 -1.502516,-0.0217 -2.224638,-0.0246 -1.956757,-0.008 -2.871577,-0.1421 -3.138045,-0.46047 -0.166452,-0.19888 -0.904572,-0.30004 -2.432136,-0.33335 -2.778801,-0.0606 -8.205759,-0.50341 -8.35502,-0.68174 -0.06225,-0.0744 -0.186694,-0.0746 -0.276538,-4.9e-4 -0.08985,0.074 -1.285486,0.0345 -2.657003,-0.0879 -1.371512,-0.12239 -2.496223,-0.19367 -2.499352,-0.15839 0.06892,-0.22119 -7.049151,-0.68622 -7.049151,-0.68622 -0.325603,0.047 -0.622652,-0.45768 -1.307014,-2.22054 z"
       id="path304"
       sodipodi:nodetypes="scssssssssssssssssssssssssssssssssssssscsscsssssssssssssssssccs" /><path
       style="display:inline;fill:#000000;stroke-width:0.172803"
       d="m 15.25783,158.08847 c -0.413671,-1.01709 -0.799705,-2.03759 -0.857852,-2.26778 -0.224984,-0.89069 0.02598,-0.92655 6.655446,-0.9509 0.929576,-0.003 1.809332,-0.10597 1.955016,-0.2279 0.145684,-0.12194 1.040554,-0.28784 1.988601,-0.36868 2.942766,-0.25094 3.638943,-0.31057 4.723505,-0.40455 0.577783,-0.0501 1.717642,-0.14206 2.533018,-0.20441 0.815379,-0.0624 1.9503,-0.16023 2.52205,-0.21751 0.571748,-0.0573 2.090141,-0.11451 3.374208,-0.12718 1.717661,-0.017 2.391628,-0.10112 2.550199,-0.31849 0.256487,-0.3516 1.508432,-0.53708 3.331576,-0.4936 1.191985,0.0284 4.116289,0.0268 7.648021,-0.004 0.823102,-0.007 2.700302,-0.007 4.171562,0.001 2.466,0.0134 3.510812,0.0124 8.086263,-0.008 0.89316,-0.004 2.827168,-1.7e-4 4.297789,0.008 1.470625,0.009 3.34866,0.008 4.173414,-2.3e-4 0.824754,-0.009 3.61324,-0.0102 6.196633,-0.003 2.583387,0.007 5.307087,0.003 6.052655,-0.009 0.745572,-0.0115 1.865598,-0.006 2.488952,0.0116 0.653875,0.0187 1.187941,-0.0657 1.262337,-0.1995 0.444418,-0.79917 0.609164,-0.87664 1.912285,-0.89922 0.723442,-0.0125 1.430807,-0.006 1.571918,0.0145 0.141112,0.0205 1.596346,0.0225 3.233853,0.004 4.454085,-0.0492 5.968641,-0.0558 8.907821,-0.039 1.47076,0.008 3.31847,0.005 4.10603,-0.007 2.67298,-0.0411 3.16179,0.0243 3.98688,0.53384 0.73405,0.45333 0.82837,0.56405 1.28719,1.51108 0.81456,1.6813 1.05506,3.12636 0.87647,5.2664 -0.20765,2.4884 -1.14634,4.39109 -2.45842,4.98317 -0.38834,0.17524 -1.00906,0.29946 -1.37937,0.27606 -0.3703,-0.0234 -1.47114,-0.0266 -2.44631,-0.007 -0.97518,0.0195 -1.88755,0.0198 -2.02748,4.9e-4 -0.28546,-0.039 -7.505859,-0.0372 -9.77369,0.002 -0.807733,0.0141 -1.532173,0.0106 -1.609876,-0.008 -0.07771,-0.0184 -0.692268,-0.0254 -1.365707,-0.0155 -1.449039,0.0211 -2.519709,9.8e-4 -3.584467,-0.0677 -0.659675,-0.0425 -0.823873,-0.12697 -1.083735,-0.55767 -0.329027,-0.5453 -0.411578,-0.55135 -6.369764,-0.46696 -0.80448,0.0114 -1.527373,0.004 -1.606442,-0.0156 -0.07907,-0.02 -0.939061,-0.0173 -1.911123,0.006 -0.972062,0.0232 -1.881695,0.0268 -2.021405,0.008 -0.139716,-0.0189 -1.108888,-0.0258 -2.15371,-0.0155 -1.044827,0.0103 -1.959303,0.008 -2.032166,-0.005 -0.07286,-0.013 -1.033728,-0.0101 -2.135243,0.007 -1.10152,0.0166 -2.064246,0.0173 -2.139391,0.001 -0.07514,-0.0157 -0.989055,-0.0173 -2.030913,-0.003 -1.041859,0.0139 -1.952931,0.0157 -2.024609,0.004 -0.07167,-0.0116 -0.982044,-0.009 -2.023046,0.006 -1.040996,0.0149 -2.007062,0.0117 -2.146812,-0.007 -0.13976,-0.0189 -1.052522,-0.019 -2.028375,-3.5e-4 -0.975849,0.0187 -1.838961,0.0176 -1.918023,-0.002 -0.07907,-0.02 -0.8031,-0.0261 -1.608984,-0.0135 -0.805884,0.0126 -2.668026,0.0155 -4.1381,0.007 -1.47007,-0.009 -3.099178,-0.0144 -3.620241,-0.0121 -5.003003,0.0224 -6.026411,-0.066 -6.436222,-0.55562 -0.166949,-0.19946 -0.610089,-0.2755 -1.379293,-0.23666 -1.000912,0.0505 -3.407898,-0.11322 -12.646942,-0.86037 -1.3282,-0.10742 -2.420635,-0.13078 -2.42763,-0.0519 0.0179,-0.0459 -6.707223,-0.67705 -6.707223,-0.67705 -0.448923,-0.0921 -0.8686,-0.23648 -0.932608,-0.32078 -0.06399,-0.0843 -0.454845,-0.98545 -0.86852,-2.00253 z m 10.660225,1.66749 c 7.871483,0.61849 9.747841,0.74045 10.677815,0.694 0.587994,-0.0294 1.431101,-0.0449 1.873568,-0.0345 0.442462,0.0104 1.17249,0.0125 1.622275,0.005 l 0.817795,-0.0142 0.0435,-0.88821 c 0.08555,-1.74702 0.06977,-2.28044 -0.101856,-3.44385 -0.17307,-1.17315 -0.176478,-1.17953 -0.623994,-1.1678 -0.912856,0.024 -3.139341,-0.006 -4.276991,-0.0583 -0.644292,-0.0294 -2.245185,0.0398 -3.557538,0.15373 -1.312353,0.11395 -2.825116,0.24502 -3.361693,0.29125 -0.536582,0.0462 -1.44406,0.13014 -2.016626,0.18644 -0.572564,0.0563 -1.375537,0.12 -1.78438,0.14154 -0.408848,0.0216 -0.779665,0.0696 -0.824039,0.1067 -0.04438,0.0371 -0.03445,0.62566 0.02207,1.30783 0.05652,0.68216 0.04242,1.53055 -0.03134,1.8853 -0.07375,0.35475 -0.127932,0.65907 -0.120395,0.67627 0.0075,0.0172 0.746361,0.0888 1.641832,0.1592 z m 22.881551,1.4563 c 2.154811,4.9e-4 4.593194,-0.007 5.418635,-0.0158 0.82544,-0.009 2.703833,-0.01 4.174213,-9.8e-4 1.470371,0.009 3.332198,0.004 4.137393,-0.009 0.805194,-0.0138 1.776086,-0.0157 2.157539,-0.004 0.381459,0.0115 1.546124,0.01 2.588149,-0.004 1.042025,-0.0137 1.956208,-0.0118 2.03152,0.004 0.0753,0.0159 0.989353,0.0176 2.031207,0.004 1.041858,-0.0139 1.958035,-0.01 2.035948,0.009 0.07793,0.0186 0.801976,0.0228 1.609018,0.009 0.807051,-0.0136 3.580382,-0.0186 6.162966,-0.0112 2.582589,0.007 5.355919,0.002 6.162965,-0.0112 0.807042,-0.0135 1.558531,0.006 1.669974,0.0426 0.382595,0.12693 0.673449,-1.94939 0.576888,-4.11828 -0.01739,-0.39099 -0.02998,-0.83029 -0.02797,-0.9762 0.002,-0.14592 -0.04433,-0.66239 -0.103066,-1.14772 l -0.106755,-0.88241 -0.508727,0.0129 c -1.149402,0.0291 -2.480488,0.0341 -5.014789,0.0188 -1.470135,-0.009 -3.286912,-0.009 -4.037289,-9.8e-4 -0.750368,0.008 -1.675421,0.004 -2.055655,-0.009 -0.380243,-0.0131 -1.350145,-0.0126 -2.155335,9.8e-4 -0.805195,0.0138 -2.667027,0.018 -4.137397,0.009 -1.470376,-0.009 -3.34821,-0.009 -4.172964,-1.5e-4 -0.824754,0.009 -3.612461,0.01 -6.194913,0.002 -2.582452,-0.007 -5.35567,-0.002 -6.16272,0.011 -0.807045,0.0135 -1.531101,0.009 -1.609016,-0.009 -0.07793,-0.0186 -0.994093,-0.0225 -2.03595,-0.009 -1.041857,0.0139 -1.954165,0.0142 -2.027348,9.8e-4 -0.136983,-0.0251 -3.504824,-0.037 -4.963921,-0.0176 -0.451418,0.006 -1.012366,-0.006 -1.246553,-0.027 -0.234186,-0.0209 -0.463329,-4.9e-4 -0.50921,0.0451 -0.04587,0.0456 0.0021,0.73038 0.10657,1.52158 0.104486,0.7912 0.112428,2.37571 0.01764,3.52114 l -0.172337,2.08259 1.221718,-0.0211 c 0.67195,-0.0116 2.984749,-0.0207 5.139552,-0.0201 z"
       id="path302"
       inkscape:label="colorable302"
       class="colorable"
       sodipodi:nodetypes="ssssssssssssssssssscsscsssssssssssssssssssssssssssssssssscccssssscssssssssssscssssssssscssssssscssssssssscssssssscss" /><path
       style="fill:#000000;stroke-width:0.172803"
       d="m 15.762283,159.13098 c -0.02698,-0.16333 -0.3367,-0.96884 -0.68828,-1.79002 -0.684172,-1.59802 -0.762179,-1.95351 -0.480404,-2.18934 0.148042,-0.12391 3.531961,-0.28821 3.985032,-0.1935 0.07511,0.0157 1.022203,0.0186 2.104653,0.006 1.419275,-0.016 2.073426,-0.11029 2.34584,-0.3383 0.207764,-0.17389 0.435061,-0.28808 0.505107,-0.25375 0.07005,0.0343 0.328537,0.0461 0.574421,0.0263 3.638087,-0.29435 4.108598,-0.33389 8.19632,-0.68885 1.468166,-0.12749 3.924818,-0.26102 5.459226,-0.29674 2.20205,-0.0513 2.858772,-0.13596 3.117065,-0.40204 0.322783,-0.33251 3.108324,-0.44835 10.299199,-0.42833 2.392936,0.007 5.809214,0.003 8.089379,-0.009 0.893904,-0.004 2.82852,-0.001 4.299145,0.007 1.470621,0.009 3.348656,0.008 4.173415,-2.2e-4 0.824754,-0.009 3.612353,-0.01 6.194668,-0.002 2.582314,0.008 5.369914,0.007 6.194668,-0.002 1.258468,-0.0132 5.234964,-0.001 7.435301,0.0221 0.484348,0.005 0.683412,-0.0954 1.12297,-0.56712 0.461669,-0.49548 0.624044,-0.56887 1.195025,-0.53998 0.363413,0.0184 2.042908,0.0167 3.732211,-0.004 1.689302,-0.0204 4.276059,-0.0313 5.748345,-0.0242 1.472281,0.007 3.350321,0.007 4.173401,-2.2e-4 1.77123,-0.0156 3.73197,-0.0169 6.11866,-0.004 1.5416,0.008 1.81698,0.0685 2.44621,0.53555 0.79256,0.58821 1.57605,1.83375 1.85651,2.95135 0.75215,2.99727 0.0286,6.92547 -1.51315,8.21498 -0.73156,0.61185 -1.36944,0.75282 -3.29179,0.7274 -0.80177,-0.0106 -2.41349,-0.0173 -3.5816,-0.0148 -1.16812,0.002 -2.43283,-0.004 -2.81047,-0.0138 -0.37764,-0.01 -1.30144,-0.0107 -2.05289,-0.001 -1.820662,0.0224 -5.345012,0.0187 -5.506746,-0.006 -0.07095,-0.0107 -0.734369,-0.0176 -1.474254,-0.0153 -0.739886,0.002 -1.60994,-0.007 -1.933451,-0.0215 -0.323511,-0.0142 -1.057264,-0.007 -1.630556,0.0168 -0.979032,0.0401 -1.069211,0.007 -1.484493,-0.54483 -0.243173,-0.32313 -0.484128,-0.58454 -0.535124,-0.5812 -0.423183,0.0285 -2.675785,0.0457 -3.232335,0.0247 -0.383981,-0.0145 -1.356004,-0.014 -2.160043,9.8e-4 -0.804044,0.0152 -2.66493,0.0205 -4.1353,0.0118 -1.470376,-0.009 -3.348137,-0.009 -4.172798,-3e-4 -2.017947,0.021 -5.479539,0.0167 -5.63899,-0.007 -0.07074,-0.0105 -0.98348,-0.0106 -2.028306,-2.8e-4 -1.044827,0.0103 -2.013994,0.003 -2.15371,-0.0155 -0.139715,-0.0189 -1.049348,-0.0153 -2.021405,0.008 -0.972057,0.0232 -1.829801,0.0282 -1.906093,0.0111 -0.07628,-0.0171 -1.039953,-0.0175 -2.141468,-9.8e-4 -1.101521,0.0166 -2.063614,0.0181 -2.137986,0.003 -0.151872,-0.0303 -3.364057,-0.0386 -5.645802,-0.0146 -2.559782,0.0268 -5.880338,0.0108 -7.919053,-0.0384 -0.69569,-0.0168 -1.444803,-0.0334 -1.664696,-0.037 -0.219888,-0.003 -0.553085,-0.18525 -0.740435,-0.4037 -0.25454,-0.29649 -0.531204,-0.38794 -1.093284,-0.36072 -2.549151,0.12346 -16.199654,-0.92555 -16.485319,-1.26685 -0.09676,-0.11561 -0.552923,-0.19522 -1.0137,-0.17691 -1.470677,0.0584 -3.477422,0.0169 -4.445348,-0.0921 -0.953689,-0.10735 -1.534508,-0.53834 -1.647503,-1.22249 z m 3.915754,-0.23426 c 1.280291,0.0119 2.605847,0.0264 2.945675,0.0322 l 0.617869,0.0106 0.01278,-1.26326 0.01279,-1.26326 -0.992005,0.006 c -0.545605,0.003 -2.095775,-0.008 -3.444818,-0.0252 -1.34905,-0.0173 -2.474925,-0.013 -2.501951,0.01 -0.02701,0.0226 0.135085,0.47001 0.360241,0.9942 0.225161,0.52419 0.439335,1.0294 0.475937,1.12271 0.03662,0.0933 0.09336,0.21122 0.126117,0.26205 0.03277,0.0508 1.10707,0.10213 2.387366,0.11399 z m 5.277182,0.87999 c 2.725467,0.29234 10.915824,0.84689 11.828996,0.80092 0.63023,-0.0317 1.830219,-0.0446 2.666649,-0.0286 l 1.520781,0.029 0.09316,-1.44627 c 0.05124,-0.79544 0.0098,-2.09942 -0.09198,-2.89772 l -0.185139,-1.45146 -0.971592,0.007 c -0.534377,0.004 -1.956047,-0.0161 -3.159266,-0.0445 -1.203215,-0.0285 -2.655234,-0.004 -3.226703,0.053 -1.035467,0.10439 -1.510757,0.1454 -4.621386,0.39874 -0.902232,0.0735 -1.975892,0.17105 -2.385914,0.21681 -0.41002,0.0457 -1.031358,0.0841 -1.380746,0.0853 -0.349389,9.8e-4 -0.680399,0.0398 -0.735575,0.086 -0.05518,0.0462 -0.05378,0.57889 0.0031,1.18382 0.05688,0.60492 0.06357,1.48114 0.01487,1.94716 -0.04871,0.46602 -0.06041,0.88094 -0.026,0.92205 0.03441,0.0411 0.329943,0.10342 0.656748,0.13848 z m 20.978919,1.59303 c 4.02018,-0.068 5.349112,-0.0747 11.646979,-0.0585 2.583421,0.007 5.371932,0.005 6.196686,-0.003 0.824759,-0.009 2.702588,-0.009 4.172964,1.5e-4 1.47037,0.009 3.287348,0.009 4.037725,4.9e-4 0.750368,-0.008 1.675416,-0.004 2.055655,0.009 0.380243,0.0131 1.350145,0.0126 2.155335,-9.8e-4 0.805195,-0.0138 2.667135,-0.0181 4.137647,-0.009 1.470508,0.009 3.289783,0.007 4.042835,-0.003 0.753052,-0.0106 1.624702,-0.004 1.937001,0.0134 0.312304,0.018 1.130744,0.0152 1.818756,-0.006 l 1.250944,-0.0387 0.16577,-1.65492 c 0.09118,-0.91022 0.147117,-1.97764 0.12431,-2.37206 -0.02283,-0.39441 -0.03982,-0.8365 -0.03777,-0.98242 0.0087,-0.62154 -0.217516,-2.0086 -0.352142,-2.15972 -0.08056,-0.0901 -0.80686,-0.14042 -1.614328,-0.11145 -0.807463,0.029 -1.731257,0.0412 -2.052877,0.0271 -0.32162,-0.0141 -1.440329,-0.018 -2.486028,-0.009 -1.045694,0.009 -2.015576,0.001 -2.155291,-0.0174 -0.139711,-0.0189 -1.049343,-0.0153 -2.021405,0.008 -0.972062,0.0232 -1.829802,0.0282 -1.906093,0.0111 -0.07629,-0.0171 -1.039953,-0.0175 -2.141474,-9.8e-4 -1.101515,0.0166 -2.064373,0.0172 -2.13968,10e-4 -0.07531,-0.0159 -0.989858,-0.0182 -2.032319,-0.005 -1.042461,0.0131 -2.009634,0.009 -2.149261,-0.0102 -0.139633,-0.0188 -1.04977,-0.0158 -2.022517,0.007 -0.972753,0.0224 -1.883135,0.0251 -2.023076,0.006 -0.252127,-0.0344 -6.917173,-0.0391 -9.805391,-0.007 -0.825442,0.009 -2.703968,0.01 -4.174499,9.8e-4 -7.484384,-0.0437 -8.316846,-0.0247 -8.232983,0.18832 0.226968,0.57638 0.32313,3.7712 0.158154,5.25423 -0.103976,0.93467 -0.143935,1.76304 -0.08879,1.84083 0.05514,0.0778 1.645966,0.11526 3.535165,0.0833 z m 47.130949,1.00565 c 1.162275,-0.0181 2.62471,-0.0275 3.249861,-0.021 0.625157,0.007 2.752988,0.004 4.728512,-0.004 1.97554,-0.009 3.65325,-0.003 3.72827,0.0121 0.075,0.0156 0.93395,0.012 1.90874,-0.008 0.9748,-0.0199 2.3365,-0.0225 3.026,-0.006 1.52352,0.0372 2.02157,-0.29571 2.53776,-1.69621 0.84733,-2.29889 0.55392,-5.64364 -0.61912,-7.05771 l -0.55307,-0.66675 -1.59307,0.0486 c -0.87618,0.0267 -1.85798,0.0349 -2.18176,0.0183 -0.32378,-0.0167 -1.44228,-0.0203 -2.48557,-0.008 -1.04329,0.0121 -1.96063,0.007 -2.03856,-0.0118 -0.0779,-0.0186 -0.80189,-0.0228 -1.60884,-0.009 -1.724427,0.0288 -5.421874,0.03 -5.607678,0.002 -0.07095,-0.0107 -0.733885,-0.0153 -1.473167,-0.0101 -0.739288,0.005 -1.784766,-0.005 -2.32329,-0.0222 -0.538525,-0.0174 -1.026537,0.008 -1.084475,0.0565 -0.05794,0.0485 -0.03982,0.40601 0.04022,0.79448 0.08007,0.38848 0.160729,1.02732 0.179255,1.41965 0.01852,0.39233 0.06049,1.29056 0.09326,1.99608 0.03277,0.70552 -0.03228,2.15775 -0.144609,3.22719 -0.112309,1.06945 -0.13393,1.95228 -0.04805,1.96187 0.08589,0.01 1.107109,0.002 2.269383,-0.0155 z"
       id="path300" /></g></svg>
