<?xml version="1.0" encoding="UTF-8" standalone="no"?>
<!-- Created with Inkscape (http://www.inkscape.org/) -->

<svg
   width="100mm"
   height="131.35202mm"
   id="svg5495"
   version="1.1"
   inkscape:version="1.2.2 (732a01da63, 2022-12-09)"
   sodipodi:docname="notebook.svg"
   viewBox="0 0 100 131.35202"
   xmlns:inkscape="http://www.inkscape.org/namespaces/inkscape"
   xmlns:sodipodi="http://sodipodi.sourceforge.net/DTD/sodipodi-0.dtd"
   xmlns="http://www.w3.org/2000/svg"
   xmlns:svg="http://www.w3.org/2000/svg"
   xmlns:rdf="http://www.w3.org/1999/02/22-rdf-syntax-ns#"
   xmlns:cc="http://creativecommons.org/ns#"
   xmlns:dc="http://purl.org/dc/elements/1.1/">
  <defs
     id="defs5497">
    <inkscape:perspective
       sodipodi:type="inkscape:persp3d"
       inkscape:vp_x="0 : -94.734442 : 1"
       inkscape:vp_y="0 : 264.58333 : 0"
       inkscape:vp_z="0.26458333 : -94.734442 : 1"
       inkscape:persp3d-origin="0.13229167 : -94.778532 : 1"
       id="perspective8110" />
    <inkscape:perspective
       id="perspective8160"
       inkscape:persp3d-origin="98.437498 : -2.054235 : 1"
       inkscape:vp_z="196.87499 : 44.352014 : 1"
       inkscape:vp_y="0 : 264.58333 : 0"
       inkscape:vp_x="0 : 44.352014 : 1"
       sodipodi:type="inkscape:persp3d" />
  </defs>
  <sodipodi:namedview
     id="base"
     pagecolor="#ffffff"
     bordercolor="#666666"
     borderopacity="1.0"
     inkscape:pageopacity="0.0"
     inkscape:pageshadow="2"
     inkscape:zoom="0.9576955"
     inkscape:cx="3.6546063"
     inkscape:cy="277.22799"
     inkscape:document-units="px"
     inkscape:current-layer="layer1"
     showgrid="false"
     inkscape:window-width="1270"
     inkscape:window-height="797"
     inkscape:window-x="175"
     inkscape:window-y="23"
     inkscape:window-maximized="0"
     inkscape:showpageshadow="0"
     inkscape:pagecheckerboard="0"
     inkscape:deskcolor="#d1d1d1" />
  <metadata
     id="metadata5500">
    <rdf:RDF>
      <cc:Work
         rdf:about="">
        <dc:format>image/svg+xml</dc:format>
        <dc:type
           rdf:resource="http://purl.org/dc/dcmitype/StillImage" />
      </cc:Work>
    </rdf:RDF>
  </metadata>
  <g
     inkscape:label="Layer 1"
     inkscape:groupmode="layer"
     id="layer1"
     transform="translate(-5.0318691,-223.63424)">
    <path
       inkscape:connector-curvature="0"
       id="path8098"
       d="m 7.5690198,223.8672 v 6.45365 115.6746 6.45363 H 14.022725 86.367466 98.35851 c 3.57428,0 6.4404,-2.87935 6.4404,-6.45363 v -115.6746 c 0,-3.57428 -2.86612,-6.45365 -6.4404,-6.45365 H 86.367466 14.022725 Z"
       style="display:inline;fill:#ffffff;stroke:#030000;stroke-width:0.465913;stroke-miterlimit:4;stroke-dasharray:none;stroke-opacity:1" />
    <path
       style="display:inline;fill:none;stroke:#030000;stroke-width:0.155304;stroke-miterlimit:4;stroke-dasharray:none;stroke-opacity:1"
       d="m 7.2221791,224.55834 v 6.45366 115.6746 6.45363 h 6.4537049 72.344744 11.991041 c 3.574281,0 6.440401,-2.87934 6.440401,-6.45363 V 231.012 c 0,-3.57429 -2.86612,-6.45366 -6.440401,-6.45366 H 86.020628 13.675884 Z"
       id="path6790"
       inkscape:connector-curvature="0" />
    <path
       inkscape:connector-curvature="0"
       id="path6792"
       d="m 6.8655692,224.87037 v 6.45366 115.67462 6.45361 h 6.4537058 72.34474 11.991044 c 3.574281,0 6.440401,-2.87933 6.440401,-6.45361 V 231.32403 c 0,-3.57429 -2.86612,-6.45366 -6.440401,-6.45366 H 85.664015 13.319275 Z"
       style="display:inline;fill:none;stroke:#030000;stroke-width:0.155304;stroke-miterlimit:4;stroke-dasharray:none;stroke-opacity:1" />
    <path
       style="display:inline;fill:none;stroke:#030000;stroke-width:0.155304;stroke-miterlimit:4;stroke-dasharray:none;stroke-opacity:1"
       d="m 6.5089581,225.18241 v 6.45366 115.67459 6.45363 h 6.4537049 72.344743 11.991042 c 3.574282,0 6.440402,-2.87935 6.440402,-6.45363 V 231.63607 c 0,-3.57429 -2.86612,-6.45366 -6.440402,-6.45366 H 85.307406 12.962663 Z"
       id="path6794"
       inkscape:connector-curvature="0" />
    <path
       inkscape:connector-curvature="0"
       id="path6796"
       d="m 6.1523483,225.49444 v 6.45366 115.6746 6.45362 h 6.4537057 72.344743 11.991041 c 3.574282,0 6.440402,-2.87933 6.440402,-6.45362 V 231.9481 c 0,-3.57429 -2.86612,-6.45366 -6.440402,-6.45366 H 84.950797 12.606054 Z"
       style="display:inline;fill:none;stroke:#030000;stroke-width:0.155304;stroke-miterlimit:4;stroke-dasharray:none;stroke-opacity:1" />
    <path
       inkscape:connector-curvature="0"
       style="fill:#0000a0;stroke:#030000;stroke-width:0.465913;stroke-linejoin:round;stroke-miterlimit:4;stroke-dasharray:none;stroke-opacity:1;fill-opacity:1"
       d="m 5.2648256,226.1714 v 6.45366 115.67462 6.45363 h 6.4537014 72.344747 11.991041 c 3.574275,0 6.440405,-2.87934 6.440405,-6.45363 V 232.62506 c 0,-3.57429 -2.86613,-6.45366 -6.440405,-6.45366 H 84.063274 11.718527 Z"
       id="rect8093"
       class="colorable"
       inkscape:label="colorable8093" />
    <path
       id="rect8100"
       style="fill:#ffffff;stroke:#030000;stroke-width:1.40228;stroke-linejoin:round"
       d="m 39.364872,259.35748 h 29.954709 c 3.574287,0 6.451783,2.8775 6.451783,6.45179 v 11.52104 c 0,3.57429 -2.877496,6.45179 -6.451783,6.45179 H 39.364872 c -3.574288,0 -6.451786,-2.8775 -6.451786,-6.45179 v -11.52104 c 0,-3.57429 2.877498,-6.45179 6.451786,-6.45179 z" />
    <path
       style="fill:#000000;fill-opacity:1;stroke:#000000;stroke-width:0.472625;stroke-linecap:round;stroke-linejoin:bevel;stroke-miterlimit:1.5;stroke-dasharray:none;paint-order:markers fill stroke"
       d="m 7.5055171,223.80373 -2.3041939,2.3042 h 2.3041939 z"
       id="path984" />
  </g>
</svg>
