<?xml version="1.0" encoding="UTF-8" standalone="no"?>
<!-- Created with Inkscape (http://www.inkscape.org/) -->

<svg
   width="100mm"
   height="91.672203mm"
   viewBox="0 0 100 91.6722"
   version="1.1"
   id="svg5"
   inkscape:version="1.2.2 (732a01da63, 2022-12-09)"
   xml:space="preserve"
   sodipodi:docname="pencilcase.svg"
   xmlns:inkscape="http://www.inkscape.org/namespaces/inkscape"
   xmlns:sodipodi="http://sodipodi.sourceforge.net/DTD/sodipodi-0.dtd"
   xmlns="http://www.w3.org/2000/svg"
   xmlns:svg="http://www.w3.org/2000/svg"><sodipodi:namedview
     id="namedview7"
     pagecolor="#f0f0f0"
     bordercolor="#ffffff"
     borderopacity="1"
     inkscape:showpageshadow="0"
     inkscape:pageopacity="0"
     inkscape:pagecheckerboard="0"
     inkscape:deskcolor="#505050"
     inkscape:document-units="mm"
     showgrid="true"
     inkscape:zoom="0.7180275"
     inkscape:cx="56.404525"
     inkscape:cy="174.78439"
     inkscape:current-layer="layer1"><inkscape:grid
       type="xygrid"
       id="grid132"
       dotted="true"
       empspacing="10"
       units="mm"
       spacingx="1"
       spacingy="1"
       originx="-10.395626"
       originy="-62.860729" /></sodipodi:namedview><defs
     id="defs2" /><g
     inkscape:label="Layer 1"
     inkscape:groupmode="layer"
     id="layer1"
     transform="translate(-10.395626,-62.860733)"><path
       style="display:inline;fill:#b3b3b3;stroke-width:0.198036"
       d="m 26.585056,113.10387 c 0.894144,-0.40865 0.491397,-0.67531 -1.188215,-0.78673 -0.898587,-0.0596 -2.346724,-0.28938 -3.218082,-0.5106 -0.871358,-0.22122 -2.475448,-0.59678 -3.564645,-0.83459 -1.089197,-0.2378 -2.515056,-0.59244 -3.168574,-0.78809 -0.653518,-0.19564 -1.716193,-0.51389 -2.3615,-0.70721 -1.695035,-0.5078 -2.688414,-1.63716 -2.688414,-3.0564 0,-1.73668 2.093003,-5.33305 3.822591,-6.568297 0.491681,-0.351148 0.65656,-0.370796 1.44523,-0.172208 1.065504,0.268297 4.195088,1.789855 6.11924,2.975095 2.791618,1.71956 6.77823,5.24215 7.107776,6.28046 0.102458,0.32281 0.357589,0.44428 1.155523,0.55013 0.56322,0.0747 1.26155,0.27614 1.551847,0.44763 0.511396,0.30209 0.56099,0.28696 1.594464,-0.48623 1.159988,-0.86784 4.714292,-3.09614 6.611652,-4.14504 2.269348,-1.25455 8.031595,-4.0221 8.374306,-4.0221 0.107239,0 0.450235,-0.13313 0.762214,-0.29584 0.31198,-0.16271 0.705366,-0.29638 0.874192,-0.29705 0.168826,-5.6e-4 0.391616,-0.0822 0.49509,-0.18115 0.196119,-0.18757 1.199879,-0.550602 6.591185,-2.383874 l 3.234476,-1.099859 1.134631,-2.178397 c 0.624044,-1.198114 1.808106,-3.470578 2.631236,-5.049912 0.823136,-1.579334 2.258094,-4.341934 3.188792,-6.139111 0.930698,-1.797175 2.459223,-4.738008 3.396719,-6.535183 0.937502,-1.797175 2.024764,-3.900948 2.416145,-4.675052 0.598866,-1.184506 1.347952,-2.05504 4.728797,-5.495494 3.6892,-3.754238 4.073059,-4.088035 4.701211,-4.088035 0.712003,0 1.7366,0.728638 1.727163,1.228268 -0.0028,0.14135 -0.437469,2.690083 -0.966226,5.663849 -0.888422,4.996535 -1.021263,5.522533 -1.75046,6.931255 -3.682054,7.113253 -4.803823,9.316552 -4.803823,9.43533 0,0.0758 0.120682,0.02004 0.268179,-0.12387 0.319707,-0.311982 7.784967,-7.488085 9.513129,-9.144661 0.665326,-0.637763 2.947446,-2.829736 5.071379,-4.871052 5.899112,-5.669638 6.82336,-6.54107 6.9395,-6.542934 0.059,-0.001 1.707646,1.660949 3.663666,3.693098 1.95602,2.032148 3.77984,3.925866 4.05293,4.208261 0.27309,0.282395 1.01991,1.068376 1.6596,1.746625 l 1.16308,1.233177 -0.66942,0.622361 c -0.36819,0.342299 -2.54087,2.424608 -4.82818,4.627353 -2.28732,2.202743 -4.960801,4.774778 -5.941078,5.715631 l -1.782323,1.710642 0.693124,0.01078 c 1.283413,0.01993 2.970405,0.509604 4.895517,1.421047 3.19567,1.512992 5.73523,5.638348 7.35209,11.943017 -6.41019,1.46333 -77.799343,23.22755 -82.005734,10.73496 z"
       id="path1347"
       sodipodi:nodetypes="csssssssssssssssscsscssssssscssscsscssscssscsscc" /><path
       style="display:inline;fill:#00a000;stroke-width:0.198036;fill-opacity:1"
       d="m 39.113418,154.41127 c -0.270874,-0.0538 -0.716454,-0.25632 -0.990179,-0.45004 -0.273727,-0.19372 -0.987823,-0.41215 -1.586881,-0.48541 -3.393974,-0.41501 -8.755928,-2.09031 -11.249429,-3.51478 -0.976043,-0.55759 -1.112232,-0.58465 -1.919525,-0.38137 -1.830685,0.46097 -3.290002,0.1021 -4.123273,-1.01398 -0.2051,-0.2747 -0.586711,-1.32263 -0.848025,-2.32872 -0.388883,-1.49725 -0.475118,-2.31972 -0.475118,-4.53157 0,-3.94446 0.722076,-9.57126 1.807154,-14.0823 0.685304,-2.84904 2.688038,-8.72532 3.612509,-10.59957 0.953152,-1.93238 1.487794,-2.59422 2.763315,-3.42071 1.498533,-0.971 1.437122,-1.1319 -0.504695,-1.32228 -0.792083,-0.0777 -1.930293,-0.27098 -2.529351,-0.42961 -1.040399,-0.27548 -2.912919,-0.68156 -5.049914,-1.09515 -0.544599,-0.10539 -1.480318,-0.35742 -2.079376,-0.56005 -0.599059,-0.20264 -1.401104,-0.43031 -1.782323,-0.50594 -1.242561,-0.24653 -2.7847,-1.09335 -3.184198,-1.74852 -0.459022,-0.75278 -0.487927,-1.94969 -0.07538,-3.12155 0.478467,-1.35911 1.821283,-3.44162 2.80221,-4.3458 0.793051,-0.731011 0.979044,-0.813823 1.631287,-0.72634 0.872657,0.117049 4.297651,1.71357 6.252429,2.9145 2.833915,1.74104 6.39496,4.8527 7.142872,6.24149 0.332059,0.61659 0.462333,0.69362 1.173091,0.69362 0.439755,0 1.136692,0.1807 1.548751,0.40155 l 0.749199,0.40155 0.832155,-0.68066 c 1.728187,-1.41356 7.080411,-4.57366 10.733947,-6.33762 2.799203,-1.35148 3.386294,-1.60142 6.337147,-2.6979 1.524876,-0.56662 3.307199,-1.22928 3.960717,-1.472586 0.653518,-0.243305 1.722912,-0.597238 2.37643,-0.786518 0.653519,-0.18928 1.366448,-0.422082 1.584287,-0.517339 0.217839,-0.09525 0.797094,-0.301794 1.287233,-0.458992 0.810402,-0.25991 0.954984,-0.408845 1.595448,-1.643515 2.383394,-4.594664 4.116497,-7.920653 4.938358,-9.477179 0.517598,-0.980277 1.722358,-3.297297 2.677234,-5.148932 0.954881,-1.851635 2.248685,-4.346887 2.875114,-5.545004 0.626434,-1.198117 1.424308,-2.740356 1.77306,-3.427202 0.506786,-0.998097 1.442536,-2.061615 4.661023,-5.297459 4.356042,-4.379531 4.518752,-4.483712 5.533711,-3.543083 0.659757,0.611441 0.667509,0.5122 -0.56615,7.245973 l -0.847454,4.625699 -2.239433,4.356789 c -1.231689,2.396234 -2.302632,4.445907 -2.37987,4.554822 -0.07724,0.108921 -0.379957,0.729585 -0.672719,1.379254 l -0.532288,1.181223 0.553104,-0.482047 c 0.304207,-0.26512 0.78503,-0.707551 1.068484,-0.98318 0.421116,-0.409479 5.104617,-4.90269 8.985702,-8.620609 0.454798,-0.43568 2.736126,-2.629713 5.069616,-4.875629 5.687579,-5.474129 6.372238,-6.115361 6.529515,-6.115361 0.07403,0 1.684001,1.617919 3.577731,3.595376 1.89373,1.97746 4.17835,4.344636 5.07694,5.260393 0.89859,0.91576 1.63379,1.710073 1.63379,1.765141 0,0.05507 -0.4233,0.504873 -0.94066,0.99956 -0.51738,0.49469 -2.67844,2.572464 -4.80237,4.617279 -2.12394,2.044816 -4.663744,4.48543 -5.644021,5.4236 -0.980278,0.938164 -1.737768,1.706129 -1.683304,1.706589 0.728658,0.0061 3.649764,0.693231 4.690145,1.10321 3.07872,1.21322 5.29108,3.81997 6.99756,8.245025 1.14833,2.977712 2.45093,8.918942 2.95281,13.467882 0.26405,2.39331 0.27389,7.38978 0.0176,8.95465 -0.24963,1.52439 -1.28452,3.1257 -2.32438,3.59656 -1.42021,0.6431 -3.32425,1.49584 -3.71922,1.66567 -0.21784,0.0937 -1.01988,0.45014 -1.78232,0.79214 -0.76244,0.34201 -1.56449,0.69847 -1.78232,0.79214 -0.39357,0.16924 -2.173343,0.96977 -4.257774,1.91512 -0.599057,0.27169 -1.267425,0.56951 -1.485267,0.66182 -0.217836,0.0923 -1.019881,0.44767 -1.782322,0.78968 -0.762436,0.342 -1.564481,0.69846 -1.782323,0.79214 -0.393565,0.16923 -2.173345,0.96976 -4.25777,1.91512 -0.599056,0.27168 -1.26743,0.5695 -1.485267,0.66182 -0.217842,0.0923 -0.975326,0.42801 -1.683304,0.746 -0.707983,0.31799 -1.6437,0.73054 -2.079378,0.91677 -0.435678,0.18624 -1.134753,0.51155 -1.553495,0.72293 -0.418742,0.21138 -0.925898,0.38433 -1.127017,0.38433 -0.201119,0 -0.420892,0.0893 -0.488385,0.19855 -0.06749,0.10921 -0.540613,0.38142 -1.051374,0.60492 -0.510765,0.2235 -1.106892,0.48438 -1.324734,0.57973 -0.217836,0.0953 -0.975326,0.43353 -1.683304,0.75152 -1.911913,0.85875 -2.551079,1.14371 -3.861701,1.72164 -0.653515,0.28818 -1.544676,0.69181 -1.980354,0.89696 -0.435684,0.20516 -1.237729,0.56775 -1.782323,0.80577 -0.544599,0.23801 -1.642779,0.73324 -2.440406,1.10049 -0.797611,0.36726 -1.481753,0.66774 -1.520308,0.66774 -0.03856,0 -0.722691,0.30048 -1.520312,0.66774 -1.951247,0.89843 -2.604409,1.19299 -7.094245,3.19931 -14.739795,6.58661 -14.08235,6.32388 -15.246165,6.09272 z m -5.739532,-39.23403 c 0.814232,-0.4164 1.92572,-0.91596 2.469974,-1.11014 0.544254,-0.19418 1.167784,-0.42517 1.385623,-0.51332 0.21784,-0.0881 0.886211,-0.31991 1.485269,-0.51501 0.599058,-0.1951 1.178313,-0.41516 1.287233,-0.48903 0.10892,-0.0739 0.507017,-0.20049 0.884662,-0.28137 0.377642,-0.0809 0.823223,-0.22449 0.990179,-0.31911 0.166954,-0.0946 0.971924,-0.35692 1.788822,-0.58291 0.816898,-0.22598 2.242756,-0.63477 3.168573,-0.9084 1.988259,-0.58765 3.456073,-0.98873 4.950896,-1.35282 0.599059,-0.14591 1.579336,-0.40409 2.178395,-0.57374 0.599059,-0.16965 2.114033,-0.58171 3.366609,-0.9157 2.858956,-0.7623 4.214395,-1.1496 5.346969,-1.52782 0.490136,-0.16369 1.336742,-0.41269 1.881342,-0.55334 2.097151,-0.54162 6.774229,-1.68572 7.624377,-1.86507 2.263634,-0.47753 4.722167,-1.07622 8.614558,-2.09775 3.171288,-0.83228 3.967966,-1.07219 4.950899,-1.49088 0.217836,-0.0928 0.707978,-0.254138 1.089199,-0.358534 0.93511,-0.256088 4.932728,-1.691315 5.766383,-2.070251 0.368382,-0.167448 1.115358,-0.500846 1.659957,-0.740885 0.923962,-0.40725 5.424644,-3.245803 5.644024,-3.559649 0.05445,-0.07791 0.437341,-0.322042 0.850851,-0.542516 l 0.75183,-0.400852 -0.55379,-0.388619 c -0.30459,-0.213738 -0.89343,-0.498809 -1.308521,-0.633485 -0.733307,-0.237928 -0.800726,-0.21714 -2.376428,0.732565 -1.391301,0.838568 -2.722631,1.515676 -4.394214,2.234876 -0.217842,0.09372 -0.911135,0.39828 -1.540651,0.676788 -0.629511,0.278509 -1.208769,0.506927 -1.28723,0.5076 -0.07846,5.62e-4 -0.381799,0.125987 -0.674083,0.278475 -0.292284,0.152488 -1.361678,0.560508 -2.376428,0.906705 -1.014757,0.346197 -2.135105,0.759983 -2.489666,0.919527 -0.764485,0.343991 -1.99486,0.738297 -3.959676,1.268969 -3.412174,0.921593 -4.540926,1.226276 -5.099424,1.376486 -1.362189,0.36637 -5.192785,1.42323 -5.743037,1.5845 -0.326757,0.0958 -1.975408,0.52756 -3.663663,0.95953 -1.688256,0.43198 -3.96072,1.02375 -5.049913,1.31506 -2.788552,0.74581 -7.760486,2.02698 -10.09983,2.60255 -1.089197,0.26797 -2.203148,0.56357 -2.475448,0.65688 -0.272299,0.0933 -1.029786,0.3197 -1.683304,0.5031 -0.653518,0.1834 -1.633796,0.49772 -2.178395,0.69847 -0.544598,0.20075 -1.65855,0.55697 -2.475447,0.79159 -0.816899,0.23462 -1.797176,0.54334 -2.178395,0.68604 -0.381219,0.1427 -1.406054,0.49806 -2.277412,0.78968 -2.245505,0.75153 -4.306995,1.83946 -5.516207,2.91114 -0.572049,0.50699 -1.258128,0.95419 -1.524621,0.99379 -0.46058,0.0684 -0.445375,0.0982 0.307609,0.60133 0.435679,0.29114 0.839165,0.53459 0.896635,0.541 0.05747,0.006 0.77068,-0.32904 1.584915,-0.74545 z m -2.397765,-2.03064 c 1.109662,-1.10966 0.681021,-2.14404 -1.020778,-2.4633 -0.599878,-0.11254 -0.770745,-0.0523 -1.217166,0.42915 -0.755946,0.81526 -0.660691,1.74162 0.234891,2.2843 0.804989,0.48779 1.330781,0.42212 2.003053,-0.25015 z m 3.97595,-2.79047 c 0.490139,-0.26725 1.470416,-0.68971 2.178394,-0.93882 1.359142,-0.47822 2.081391,-0.75981 2.580965,-1.00626 0.166957,-0.0824 0.612537,-0.21592 0.99018,-0.29682 0.377644,-0.0809 0.775742,-0.21126 0.884662,-0.28973 0.108919,-0.0785 0.732732,-0.30256 1.386251,-0.49798 0.653518,-0.19542 1.99026,-0.62253 2.970537,-0.94913 0.980278,-0.32661 2.31702,-0.72269 2.970538,-0.88019 3.15687,-0.76083 6.659344,-1.70376 7.428607,-1.99994 0.355164,-0.13674 0.795717,-0.76419 1.540963,-2.19471 1.065433,-2.045112 1.06553,-2.250705 7.86e-4,-1.818591 -0.250194,0.10155 -0.989595,0.338961 -1.643113,0.527581 -0.653519,0.18863 -1.277331,0.40716 -1.386251,0.48563 -0.10892,0.0785 -0.509943,0.20781 -0.891162,0.28743 -0.381218,0.0796 -0.782241,0.21329 -0.891161,0.29705 -0.10892,0.0838 -0.507017,0.21848 -0.884662,0.29937 -0.377642,0.0809 -0.823223,0.21445 -0.990179,0.29681 -0.572927,0.28264 -1.294235,0.56729 -1.788822,0.70591 -0.933816,0.26173 -6.13598,2.73689 -8.317505,3.95742 -0.816898,0.45704 -1.841734,1.03037 -2.277412,1.27406 -1.900828,1.06322 -4.610081,2.80547 -5.24795,3.37485 -0.623766,0.55678 -0.633676,0.58033 -0.09902,0.23532 0.326759,-0.21085 0.99513,-0.60202 1.485268,-0.86926 z M 70.664046,99.784938 c 0.563023,-0.144848 1.825721,-0.485796 2.805999,-0.757669 2.599485,-0.72094 5.625841,-1.527252 6.535179,-1.741164 1.479973,-0.348145 5.876135,-1.929601 6.931253,-2.49341 0.326763,-0.174606 1.485273,-1.185001 2.574471,-2.245323 1.089193,-1.060322 2.425935,-2.348753 2.970534,-2.863185 1.203515,-1.136846 8.629878,-8.273802 11.734958,-11.27764 l 2.25181,-2.178394 -3.03266,-3.120045 -3.03267,-3.120047 -2.079377,2.004359 c -2.087456,2.012143 -9.248301,8.893138 -10.796794,10.374844 -0.455315,0.435679 -2.512154,2.412348 -4.570757,4.392589 -2.058602,1.980248 -4.376205,4.208151 -5.150238,4.9509 -7.198658,6.907715 -8.593484,8.27559 -8.593484,8.427447 0,0.0961 0.09632,0.11516 0.214052,0.0424 0.117729,-0.0728 0.674706,-0.250809 1.237724,-0.395657 z m 2.508943,-5.332591 c 0,-0.113676 -0.163906,-0.309035 -0.364234,-0.43414 -0.323535,-0.202057 -0.445227,-0.0775 -1.089192,1.114757 -0.398736,0.738218 -0.724971,1.417634 -0.724971,1.509804 0,0.09217 0.490142,-0.316468 1.089199,-0.908086 0.599057,-0.591614 1.089198,-1.168671 1.089198,-1.282335 z m 2.766019,-2.466797 1.802099,-1.669752 -0.937782,-0.952097 -0.937782,-0.952098 -0.764232,0.81956 c -0.736378,0.78969 -1.928322,2.870331 -1.928322,3.366047 0,0.230686 0.804476,1.207219 0.911814,1.106825 0.02869,-0.02678 0.863048,-0.80012 1.854205,-1.718485 z m 18.720871,-0.482153 1.584286,-0.818628 -1.09548,-0.0581 -1.09548,-0.0581 -1.27346,1.204256 c -1.262985,1.194358 -1.26701,1.201566 -0.488805,0.876734 0.431557,-0.180141 1.497583,-0.695914 2.368939,-1.14616 z m -14.283275,-3.789678 1.757634,-1.680076 -0.903287,-0.929301 -0.903292,-0.929294 -1.600324,1.561938 c -0.880181,0.859068 -1.709884,1.629649 -1.843786,1.712405 -0.170278,0.105238 0.02167,0.420628 0.638689,1.049302 0.485185,0.494363 0.930429,0.898004 0.989445,0.896971 0.05901,-0.0011 0.898228,-0.757905 1.864921,-1.681945 z m 4.38544,-4.223719 1.718378,-1.649767 -0.465094,-0.51239 c -0.967624,-1.066015 -1.18788,-1.260999 -1.356502,-1.20086 -0.09543,0.03404 -0.925696,0.792219 -1.845026,1.684846 l -1.67151,1.622961 0.817718,0.885555 c 0.449746,0.487054 0.877554,0.870672 0.950688,0.852483 0.07313,-0.01819 0.90624,-0.775459 1.851348,-1.682828 z m 6.010149,-5.883872 c 0.01431,-0.113473 -0.35276,-0.575978 -0.815664,-1.027791 l -0.841655,-0.821476 -1.732816,1.66852 c -0.953046,0.917686 -1.73281,1.733282 -1.73281,1.812437 0,0.07915 0.374315,0.525314 0.831808,0.991467 l 0.831809,0.847552 1.716665,-1.632198 c 0.944171,-0.89771 1.728365,-1.725041 1.742663,-1.838511 z m 2.812157,-2.590447 1.744987,-1.707565 -0.812526,-0.866901 c -0.446889,-0.476798 -0.864867,-0.864914 -0.92884,-0.862482 -0.06397,0.0024 -0.910534,0.764089 -1.881257,1.692572 l -1.764954,1.688149 0.865512,0.881893 c 0.476035,0.485043 0.902995,0.881895 0.948802,0.881895 0.04581,0 0.868528,-0.768403 1.828276,-1.707561 z m -12.372917,-3.39428 c 0.774504,-4.288056 0.802196,-3.836839 -0.270936,-4.414557 l -0.935273,-0.503504 -2.334337,2.34337 c -1.452046,1.457658 -2.279706,2.431783 -2.189776,2.577286 0.07951,0.128654 0.194242,0.532033 0.254965,0.896397 l 0.110397,0.662482 0.465863,-0.434824 c 0.271856,-0.25374 0.820227,-0.474763 1.31678,-0.530732 0.733222,-0.08265 0.893367,-0.03103 1.15792,0.373174 0.168857,0.257998 0.365182,0.833579 0.436284,1.279069 l 0.129271,0.809982 0.719497,-0.366819 0.719491,-0.366819 z m 16.829785,-0.86522 1.641667,-1.610271 -0.810903,-0.865177 c -0.446002,-0.475847 -0.86325,-0.86516 -0.927218,-0.865139 -0.06397,1.9e-5 -0.896443,0.739176 -1.849933,1.64257 l -1.733624,1.642535 0.800305,0.832878 c 0.440169,0.458082 0.89879,0.832877 1.019168,0.832877 0.120379,0 0.957621,-0.724623 1.860538,-1.610273 z"
       id="path302"
       inkscape:label="colorable302"
       class="colorable" /><path
       style="display:inline;fill:#ffffff;fill-opacity:0.20202;stroke-width:0.198036"
       d="m 38.861401,154.27473 c -0.40948,-0.14967 -0.855061,-0.36143 -0.990179,-0.47058 -0.135116,-0.10916 -0.914038,-0.29504 -1.730936,-0.41308 -0.816898,-0.11803 -2.019966,-0.3452 -2.673484,-0.50481 -0.653518,-0.1596 -1.589238,-0.38654 -2.079376,-0.50431 -0.490139,-0.11778 -1.069394,-0.29253 -1.287234,-0.38835 -0.217839,-0.0958 -1.150322,-0.46415 -2.072185,-0.81852 -0.921863,-0.35436 -2.14698,-0.90272 -2.722482,-1.21856 -1.011575,-0.55516 -1.085914,-0.56647 -2.235502,-0.34031 -1.48539,0.29224 -2.421851,0.14772 -3.278947,-0.50602 -1.527813,-1.16532 -2.21711,-5.85831 -1.68762,-11.48994 0.288838,-3.07206 1.058516,-7.67364 1.720015,-10.28324 0.478872,-1.88914 2.138545,-7.10043 2.6539,-8.33312 1.428974,-3.41797 2.262623,-4.60628 3.918209,-5.58509 0.467616,-0.27647 0.816852,-0.60334 0.776082,-0.72638 -0.04077,-0.12304 -0.824387,-0.32527 -1.74137,-0.44939 -0.916986,-0.12414 -2.424733,-0.403 -3.350551,-0.61971 -0.925817,-0.2167 -2.396234,-0.54765 -3.267592,-0.73543 -1.606258,-0.34616 -2.022902,-0.45727 -3.720093,-0.99209 -0.521175,-0.16424 -1.083668,-0.29861 -1.249986,-0.29861 -0.166319,0 -0.764738,-0.22057 -1.329822,-0.49016 -1.272309,-0.60699 -1.918586,-1.49799 -1.918586,-2.64509 0,-1.61999 1.602622,-4.65431 3.195873,-6.05089 0.744569,-0.652659 0.959561,-0.741685 1.587702,-0.65743 1.084758,0.145493 6.490794,2.86969 7.759805,3.9103 0.126462,0.1037 0.942861,0.75406 1.814218,1.44525 1.749968,1.38812 3.761691,3.46488 3.959209,4.0872 0.101101,0.31854 0.297855,0.40082 0.958457,0.40082 0.457182,0 1.163387,0.17802 1.569347,0.39561 l 0.738107,0.3956 1.140301,-0.86248 c 1.662675,-1.25758 3.850201,-2.60366 7.378429,-4.54024 2.670054,-1.46555 6.747339,-3.40455 7.619129,-3.62335 0.315128,-0.0791 0.80169,-0.26317 1.081249,-0.40906 0.27956,-0.14588 0.620894,-0.2658 0.758521,-0.26647 0.137627,-5.6e-4 0.404975,-0.0799 0.594108,-0.17615 0.749441,-0.38124 3.442829,-1.36773 5.492807,-2.011813 0.762438,-0.239545 1.965506,-0.632329 2.673484,-0.872844 l 1.287233,-0.437307 1.344154,-2.558831 c 0.73928,-1.407361 2.288536,-4.385715 3.442785,-6.61857 3.844355,-7.436774 5.060062,-9.77434 7.003552,-13.466437 l 1.928523,-3.663663 3.974989,-4.010226 c 2.186245,-2.205624 4.116672,-4.010226 4.289841,-4.010226 0.54996,0 1.450428,0.574316 1.590017,1.0141 0.07518,0.236887 -0.284156,2.79671 -0.813436,5.794721 l -0.948117,5.370383 -1.228129,2.376431 c -2.984074,5.774158 -4.642291,9.037858 -4.642291,9.136944 0,0.205941 1.321203,-1.001817 5.445981,-4.978352 2.287317,-2.205107 4.47066,-4.298639 4.85188,-4.652294 0.381221,-0.353652 2.58338,-2.469089 4.893686,-4.700968 5.174905,-4.999224 6.858815,-6.585209 6.993766,-6.587045 0.05738,-7.86e-4 1.661467,1.616765 3.564648,3.594544 1.90318,1.977781 3.68376,3.82694 3.95685,4.109244 0.27309,0.282305 1.01991,1.068212 1.6596,1.746461 l 1.16308,1.233177 -0.66942,0.621235 c -0.36819,0.341678 -2.54086,2.424305 -4.82818,4.628058 -2.28731,2.203754 -4.940886,4.750813 -5.896829,5.660135 -1.162209,1.105528 -1.65431,1.697529 -1.485267,1.786774 0.139044,0.07341 0.742945,0.195292 1.342002,0.270857 5.679034,0.716314 8.943734,4.398997 11.159884,12.588652 1.53309,5.66547 2.1893,10.64996 2.07266,15.74386 -0.0718,3.13656 -0.11249,3.44103 -0.59517,4.4558 -0.5811,1.22171 -1.20915,1.96961 -1.94344,2.31432 -0.56898,0.26711 -3.0748,1.39319 -3.66366,1.6464 -0.21784,0.0937 -1.01988,0.45014 -1.78232,0.79214 -0.76244,0.34201 -1.56449,0.69847 -1.78233,0.79214 -0.39356,0.16924 -2.173342,0.96977 -4.257767,1.91512 -0.599057,0.27169 -1.26743,0.56951 -1.485267,0.66182 -0.217842,0.0923 -1.019887,0.44767 -1.782322,0.78968 -0.762441,0.342 -1.564487,0.69846 -1.782323,0.79214 -0.393565,0.16923 -2.173344,0.96976 -4.257775,1.91512 -0.599057,0.27168 -1.267425,0.5695 -1.485267,0.66182 -0.217842,0.0923 -0.975326,0.42801 -1.683304,0.746 -0.707978,0.31799 -1.6437,0.73054 -2.079378,0.91677 -0.435679,0.18624 -1.134748,0.51155 -1.55349,0.72293 -0.418742,0.21138 -0.925904,0.38433 -1.127017,0.38433 -0.201119,0 -0.420892,0.0893 -0.48839,0.19855 -0.06749,0.10921 -0.540608,0.38142 -1.051374,0.60492 -0.51076,0.2235 -1.106892,0.48438 -1.324729,0.57973 -0.217842,0.0953 -1.019887,0.45318 -1.782322,0.79519 -0.762442,0.34201 -1.564487,0.69736 -1.782323,0.78967 -0.217842,0.0923 -0.886216,0.39013 -1.485273,0.66182 -2.084425,0.94535 -3.864204,1.74589 -4.257769,1.91512 -0.217842,0.0937 -1.019887,0.45013 -1.782323,0.79214 -0.762435,0.34201 -1.56448,0.69847 -1.782322,0.79215 -0.393565,0.16922 -2.173345,0.96976 -4.257771,1.91512 -0.599059,0.27168 -1.26743,0.5695 -1.485269,0.66181 -0.217839,0.0923 -1.019885,0.44767 -1.782322,0.78968 -0.762439,0.342 -1.564484,0.69847 -1.782323,0.79214 -0.393565,0.16923 -2.173345,0.96977 -4.257771,1.91512 -0.599058,0.27169 -1.267429,0.56951 -1.485269,0.66182 -0.217839,0.0923 -0.975326,0.42801 -1.683304,0.746 -0.707978,0.31799 -1.59914,0.71699 -1.980359,0.88666 -0.381219,0.16967 -1.380012,0.62392 -2.219542,1.00944 -1.875693,0.86134 -2.614851,0.99439 -3.574884,0.64347 z m -2.013511,-2.43057 c -0.376896,-0.98217 -0.405617,-1.19614 -2.39959,-17.8761 -0.72244,-6.04334 -2.14261,-14.42389 -2.63161,-15.52936 -0.223784,-0.5059 -0.656986,-1.13672 -0.96267,-1.40183 -0.751942,-0.65212 -2.164035,-1.34407 -2.579601,-1.26403 -0.588822,0.11339 -1.142259,1.21164 -2.290778,4.54581 -2.684647,7.79358 -3.905294,14.47614 -3.901726,21.36035 0.0016,3.02632 0.03638,3.3407 0.4715,4.25777 0.52732,1.1114 0.821746,1.39263 2.563055,2.44815 1.452332,0.88037 2.562867,1.41355 2.944177,1.41355 0.152365,0 0.361687,0.0711 0.465161,0.15808 0.318815,0.26789 3.349059,1.17957 5.436084,1.63551 0.599058,0.13087 1.311987,0.30851 1.584286,0.39476 0.900372,0.28518 1.443066,0.22571 1.301712,-0.14266 z m 10.302468,-1.92133 c 0.316263,-0.14944 1.114435,-0.51975 1.773714,-0.82291 l 1.198691,-0.55119 -0.448086,-3.18732 c -0.246447,-1.75303 -0.451672,-3.42821 -0.456054,-3.72263 -0.0086,-0.57822 0.0635,-0.62462 2.566494,-1.65123 1.901044,-0.77973 3.02644,-1.26902 3.413432,-1.48407 0.189132,-0.1051 0.45648,-0.19164 0.594107,-0.19231 0.137627,-5.6e-4 0.504578,-0.13387 0.815442,-0.296 0.310865,-0.16213 0.633689,-0.25246 0.717385,-0.20073 0.0837,0.0517 0.312424,1.69116 0.508281,3.64318 0.312372,3.11327 0.394511,3.52805 0.668864,3.37747 0.17202,-0.0944 0.713785,-0.34037 1.203923,-0.54657 2.348568,-0.98803 2.177134,-0.85446 2.07395,-1.61595 -0.05193,-0.38308 -0.229182,-1.9887 -0.393941,-3.56803 -0.279822,-2.68236 -0.277307,-2.88783 0.03823,-3.11907 0.185794,-0.13615 0.418804,-0.24755 0.517806,-0.24755 0.099,0 0.949127,-0.3654 1.889166,-0.81202 0.940034,-0.44661 2.067354,-0.95015 2.505138,-1.11898 0.437789,-0.16882 0.880641,-0.38267 0.984117,-0.47521 0.10347,-0.0925 0.312796,-0.16825 0.465161,-0.16825 0.152364,0 0.583305,-0.14534 0.957649,-0.32298 0.374349,-0.17764 0.735046,-0.26856 0.801562,-0.20205 0.13329,0.13329 0.758181,3.27318 1.044727,5.24943 0.100389,0.69233 0.223776,1.30004 0.274209,1.35047 0.05041,0.0504 0.256317,-4e-4 0.457532,-0.11313 0.37591,-0.21044 1.87795,-0.85736 2.494735,-1.07446 0.444615,-0.1565 0.439888,-0.27689 -0.145174,-3.69907 -0.270003,-1.57933 -0.492611,-2.96116 -0.494683,-3.07072 -0.0045,-0.23713 0.399134,-0.40629 3.263829,-1.36792 2.568363,-0.86214 4.047365,-1.31652 4.449457,-1.36695 0.224556,-0.0282 0.391359,0.57182 0.733105,2.63702 0.243322,1.47042 0.446698,2.74032 0.451935,2.82201 0.01628,0.25398 0.334515,0.16864 1.661535,-0.44558 0.705968,-0.32676 1.383351,-0.59411 1.505302,-0.59411 0.416956,0 0.420285,-0.51992 0.01937,-3.01919 -0.393487,-2.45274 -0.381895,-3.11992 0.05423,-3.11992 0.286833,0 4.24949,-1.49964 5.219831,-1.97542 0.489254,-0.23988 0.828165,-0.30399 0.955993,-0.18084 0.108921,0.10493 0.421229,1.2521 0.694022,2.54926 l 0.49598,2.35848 0.593213,-0.27811 c 0.326269,-0.15296 1.136459,-0.52697 1.800421,-0.83114 l 1.207208,-0.55303 -0.455972,-2.17839 c -0.636595,-3.04133 -0.646239,-2.97131 0.467497,-3.3928 0.517373,-0.19581 1.630002,-0.69129 2.47251,-1.10107 1.599009,-0.77773 2.527899,-1.09234 2.527899,-0.85617 0,0.19597 0.78754,4.09136 0.9092,4.49715 0.0938,0.31296 0.15605,0.31151 0.93241,-0.0216 2.09129,-0.89737 2.71276,-1.23198 2.70677,-1.45737 -0.003,-0.13343 -0.2114,-1.24177 -0.46191,-2.46299 -0.2505,-1.22122 -0.40224,-2.30651 -0.3372,-2.41174 0.065,-0.10525 0.95273,-0.61471 1.97262,-1.13215 l 1.85437,-0.94081 -0.1001,-1.75551 c -0.0551,-0.96553 -0.14528,-1.80069 -0.2005,-1.85591 -0.094,-0.094 -0.8723,0.29539 -3.18775,1.59474 -0.5291,0.29691 -1.02908,0.46478 -1.11106,0.37304 -0.082,-0.0917 -0.38807,-1.40682 -0.68022,-2.92241 -0.4261,-2.21049 -0.48053,-2.78918 -0.27519,-2.92534 0.34686,-0.23 3.73068,-1.86171 4.18083,-2.01603 0.22689,-0.0778 0.32357,-0.25212 0.26119,-0.47102 -0.0544,-0.19115 -0.19955,-0.88224 -0.32241,-1.53576 -0.12285,-0.65352 -0.25876,-1.29675 -0.30203,-1.4294 -0.0675,-0.20687 -2.41637,0.78423 -4.10352,1.73143 -0.70042,0.39323 -0.8784,0.20109 -1.42625,-1.53975 -0.29993,-0.95305 -0.58582,-1.83544 -0.63532,-1.96087 -0.083,-0.2102 0.94458,-0.86114 1.35937,-0.86114 0.0992,0 0.64245,-0.2099 1.20729,-0.46644 0.56485,-0.25654 1.35546,-0.573472 1.75691,-0.704286 l 0.72991,-0.237849 -0.26087,-0.73147 c -0.59442,-1.666705 -0.93026,-2.171874 -1.37223,-2.064115 -0.23145,0.05644 -0.50994,0.165927 -0.61886,0.243311 -0.10892,0.07738 -0.46538,0.234312 -0.79215,0.348729 -0.32675,0.114416 -1.19382,0.437805 -1.92681,0.718638 l -1.332724,0.510614 -0.704121,-1.100712 -0.704116,-1.100717 -0.933707,0.548489 c -0.513533,0.30167 -1.174721,0.669272 -1.469301,0.816893 l -0.535595,0.268404 0.386329,0.633603 c 0.612248,1.004119 0.509446,1.276457 -0.688696,1.824498 -0.592079,0.27082 -1.172543,0.49241 -1.289918,0.49241 -0.223377,0 -0.268994,0.0196 -1.936417,0.83332 -1.150779,0.56157 -1.238167,0.52481 -1.627785,-0.6848 -0.131561,-0.40845 -0.282382,-0.74263 -0.335155,-0.74263 -0.189112,0 -2.161057,0.63909 -2.671772,0.86589 l -0.521028,0.23138 0.345602,1.117 c 0.190083,0.61434 0.290875,1.19598 0.223978,1.29252 -0.102858,0.14845 -1.244235,0.7221 -2.894133,1.45458 -1.215426,0.5396 -3.383426,1.32432 -3.486661,1.26202 -0.06603,-0.0399 -0.377931,-0.75005 -0.693124,-1.57823 -0.530739,-1.39454 -0.609644,-1.49843 -1.068164,-1.40654 -0.746942,0.14971 -2.445437,0.5403 -2.69993,0.62088 -0.149861,0.0474 -0.03464,0.6075 0.346562,1.68479 0.314076,0.88754 0.571045,1.72406 0.571045,1.85893 0,0.25573 -0.755356,0.50541 -4.554825,1.50558 -1.252577,0.32973 -2.573707,0.69622 -2.935853,0.81443 -0.36214,0.1182 -0.706591,0.16677 -0.765439,0.10792 -0.05885,-0.0588 -0.28141,-0.97948 -0.494582,-2.04586 -0.213171,-1.06637 -0.419028,-1.97031 -0.457459,-2.00874 -0.03845,-0.0384 -0.36617,0.0274 -0.728316,0.14624 -0.362145,0.11886 -1.020437,0.30419 -1.462874,0.41186 l -0.804437,0.19576 0.328245,2.03225 c 0.338136,2.09356 0.27166,2.52735 -0.387322,2.52735 -0.182718,0 -0.416878,0.0731 -0.520349,0.16237 -0.103475,0.0893 -1.346644,0.52624 -2.7626,0.97098 -4.056755,1.2742 -4.256371,1.32497 -4.435849,1.12821 -0.0914,-0.1002 -0.367731,-1.02879 -0.614066,-2.06352 -0.246335,-1.03475 -0.503647,-1.94431 -0.571803,-2.02127 -0.128465,-0.14506 -2.524214,0.34002 -2.920854,0.59139 -0.164576,0.1043 -0.120214,0.69145 0.165059,2.18464 0.214565,1.12311 0.34663,2.15534 0.293473,2.29387 -0.05316,0.13852 -0.617573,0.40704 -1.254256,0.59671 -0.636683,0.18966 -1.592791,0.51644 -2.124683,0.72617 -0.531895,0.20974 -1.11115,0.38638 -1.287233,0.39254 -0.176086,0.006 -1.076604,0.26256 -2.001152,0.56978 -0.924548,0.30722 -1.771912,0.5237 -1.883032,0.48106 -0.111118,-0.0427 -0.459103,-1.07881 -0.773296,-2.3026 -0.314194,-1.22379 -0.589064,-2.2482 -0.610822,-2.27647 -0.03647,-0.0474 -3.116591,0.92084 -3.202428,1.00668 -0.02093,0.0209 0.163514,0.97306 0.409871,2.11585 0.461332,2.14002 0.465721,2.5729 0.02608,2.5729 -0.140399,0 -0.912739,0.20981 -1.716311,0.46625 -0.80357,0.25645 -2.263083,0.71672 -3.24336,1.02282 -0.980277,0.3061 -1.843549,0.6087 -1.918383,0.67245 -0.123212,0.10494 0.343454,2.76572 0.515193,2.93746 0.03975,0.0397 0.505407,-0.0577 1.034788,-0.21662 2.726552,-0.81841 4.617049,-1.39526 5.411975,-1.65137 0.810208,-0.26103 0.906228,-0.25579 1.138706,0.0621 0.139637,0.19096 0.258067,0.61979 0.263176,0.95297 0.0051,0.33317 0.165287,1.55109 0.35595,2.70649 0.35987,2.18078 0.354541,2.55312 -0.03654,2.55312 -0.220382,0 -3.34559,1.17357 -4.190397,1.57357 -0.217839,0.10314 -0.88621,0.3851 -1.485269,0.62658 -0.599059,0.24148 -1.15787,0.49762 -1.241806,0.56919 -0.128709,0.10976 0.197395,3.14415 0.358366,3.3346 0.02968,0.0351 0.555146,-0.16539 1.167699,-0.44558 0.61255,-0.28019 1.160536,-0.50943 1.217744,-0.50943 0.05721,0 0.481683,-0.17205 0.943276,-0.38233 1.37691,-0.62725 3.518899,-1.39999 3.880701,-1.39999 0.287653,0 0.40872,0.52139 0.816229,3.51513 0.263164,1.93333 0.47931,3.59697 0.480326,3.69698 0.0018,0.18038 -1.398712,0.95047 -2.691739,1.48006 -1.12624,0.46128 -2.391681,1.02659 -3.711873,1.65819 -1.159885,0.5549 -1.248311,0.64222 -1.149705,1.13524 0.05875,0.29376 0.168621,1.21609 0.244154,2.04962 0.07553,0.83352 0.17812,1.5155 0.227971,1.5155 0.04985,0 0.327189,-0.16756 0.616302,-0.37234 0.47886,-0.3392 3.862047,-2.00409 4.072452,-2.00409 0.04908,0 0.684404,-0.27548 1.411831,-0.61217 0.727429,-0.33669 1.39317,-0.53721 1.479427,-0.44558 0.08626,0.0916 0.348715,1.59245 0.583239,3.33516 0.402817,2.99327 0.556868,3.8617 0.685028,3.8617 0.03039,0 0.314008,-0.12227 0.630271,-0.27171 z m 1.408672,-12.94718 c -0.158983,-0.29192 -1.013434,-6.76797 -0.907009,-6.8744 0.115995,-0.11599 2.339163,-0.75439 4.133096,-1.18685 0.599059,-0.14441 1.657782,-0.45052 2.35272,-0.68024 2.011915,-0.66506 1.911301,-0.74697 2.308256,1.879 0.190948,1.26317 0.356574,2.61667 0.368058,3.00777 l 0.02088,0.71108 -1.683306,0.65492 c -0.925817,0.3602 -1.861536,0.73961 -2.079376,0.84312 -0.5789,0.27509 -2.073558,0.89996 -2.87152,1.20049 -0.381218,0.14357 -0.777785,0.33588 -0.881259,0.42734 -0.233516,0.20641 -0.652474,0.2162 -0.760541,0.0178 z m 11.645964,-7.32733 c -0.198187,-1.38873 -0.369135,-2.69169 -0.379883,-2.89549 -0.02173,-0.41209 0.694396,-0.72177 3.743141,-1.61866 0.980277,-0.28838 2.303608,-0.70294 2.940742,-0.92126 0.637129,-0.21831 1.221657,-0.32114 1.298957,-0.2285 0.272833,0.32696 1.081704,5.0263 0.894855,5.19888 -0.101011,0.0933 -1.074822,0.49965 -2.16402,0.90302 -1.089193,0.40337 -2.716608,1.03795 -3.61647,1.41018 -0.899863,0.37223 -1.798311,0.67679 -1.996544,0.67679 -0.31087,0 -0.409991,-0.34724 -0.720778,-2.52496 z m 12.191076,-2.47545 c -0.09588,-0.24507 -0.349155,-1.2757 -0.562837,-2.29029 -0.447018,-2.12248 -0.394862,-2.25859 1.002103,-2.61512 0.458009,-0.11689 1.055533,-0.28973 1.327833,-0.38407 0.2723,-0.0944 1.430809,-0.45254 2.574465,-0.79599 1.143656,-0.34345 2.245834,-0.71498 2.449288,-0.82564 0.561086,-0.30516 0.711576,-0.0134 1.037486,2.01125 0.437222,2.7162 0.422828,2.75782 -1.110345,3.2112 -0.707978,0.20936 -1.465462,0.46017 -1.683304,0.55736 -0.898027,0.40063 -4.431539,1.55813 -4.806613,1.57454 -0.02958,10e-4 -0.132201,-0.19817 -0.228076,-0.44324 z m -25.486707,-0.83246 c -0.177645,-0.46294 -1.027589,-5.5395 -0.949811,-5.67304 0.0688,-0.11813 1.399286,-0.54612 4.241279,-1.36434 1.738777,-0.50061 2.514857,-0.75949 3.093035,-1.03178 0.966335,-0.45508 1.111024,-0.22774 1.600884,2.51542 0.627684,3.51496 0.638836,3.46699 -0.931238,4.00656 -0.707978,0.24331 -2.000162,0.63 -2.87152,0.85933 -1.414209,0.37219 -2.004269,0.51621 -3.618503,0.88317 -0.290023,0.0659 -0.490515,-0.003 -0.564126,-0.19532 z m 37.414258,-3.00837 c -0.192738,-0.50227 -0.796662,-4.32159 -0.717628,-4.53839 0.04216,-0.11564 0.407739,-0.32712 0.812408,-0.46996 0.842906,-0.29754 1.927996,-0.7749 3.901086,-1.71623 0.76065,-0.36289 1.442615,-0.59596 1.515462,-0.51794 0.122069,0.13075 0.963229,4.2717 0.963229,4.74189 0,0.18272 -0.32514,0.3636 -1.881341,1.04659 -0.217836,0.0956 -0.837967,0.36762 -1.378058,0.60448 -0.540091,0.23686 -1.460096,0.58839 -2.044445,0.78117 -0.901883,0.29753 -1.078819,0.30787 -1.170713,0.0684 z m -25.158192,-0.51351 c -0.238061,-0.30117 -1.255084,-5.5133 -1.118814,-5.73378 0.05269,-0.0853 0.60369,-0.29576 1.224436,-0.46776 0.620743,-0.17201 1.351416,-0.38756 1.623717,-0.479 2.530348,-0.84974 5.191684,-1.61316 5.287957,-1.51689 0.108528,0.10853 0.865766,4.48683 0.924776,5.34703 0.01398,0.20357 -0.108281,0.43831 -0.27166,0.52165 -0.709909,0.36211 -1.363109,0.59853 -2.475447,0.896 -0.65352,0.17477 -1.411004,0.39386 -1.683304,0.48687 -0.272299,0.093 -1.029789,0.32454 -1.683304,0.51451 -0.65352,0.18996 -1.287787,0.42098 -1.409486,0.51337 -0.129707,0.0985 -0.303038,0.0645 -0.418871,-0.082 z m 11.536761,-3.74935 c -0.116634,-0.3266 -1.093846,-5.19471 -1.093846,-5.44916 0,-0.10186 0.556977,-0.34666 1.237723,-0.54401 2.463428,-0.71417 3.231927,-0.93164 4.010226,-1.13485 0.435678,-0.11375 0.981041,-0.27945 1.211918,-0.36823 0.601072,-0.23112 2.253709,-0.45966 2.253709,-0.31167 0,0.0686 0.22089,1.23491 0.490871,2.59175 0.4947,2.48624 0.490956,3.07151 -0.01965,3.07151 -0.153202,0 -0.433299,0.0844 -0.622427,0.18762 -0.189134,0.10319 -1.012247,0.38037 -1.829146,0.61595 -0.816898,0.23558 -2.10908,0.63119 -2.871521,0.87913 -2.070913,0.67346 -2.657356,0.77134 -2.767848,0.46196 z m 23.779676,0.0661 c -0.151169,-0.2446 -0.909832,-4.17826 -0.910584,-4.72141 -5.62e-4,-0.47196 0.901714,-1.08194 4.014694,-2.71384 1.733681,-0.90884 1.738329,-0.90997 1.923039,-0.46727 0.286547,0.68676 1.048355,5.06358 0.933465,5.36299 -0.09,0.23452 -0.52517,0.4759 -2.019918,1.12041 -0.217842,0.0939 -0.975332,0.4346 -1.68331,0.75704 -1.643285,0.74843 -2.117978,0.88765 -2.257386,0.66208 z m -11.689168,-4.41939 c -0.183633,-0.84286 -0.909973,-4.33651 -0.93172,-4.48152 -0.07099,-0.47334 0.215322,-0.66921 1.956435,-1.33849 1.061972,-0.40821 2.444347,-0.9985 3.071955,-1.31176 l 1.141102,-0.56954 0.190919,0.44964 c 0.286704,0.67522 1.011736,4.71411 0.883493,4.92161 -0.06139,0.0993 -0.596385,0.40233 -1.188885,0.67335 -0.592506,0.27102 -1.723655,0.79907 -2.513664,1.17345 -2.075679,0.98367 -2.484131,1.0593 -2.609635,0.48326 z m 9.880119,-4.57784 c -0.22459,-0.60549 -1.036071,-4.61453 -0.959215,-4.73889 0.111907,-0.18108 2.20798,-1.24459 2.847259,-1.44466 0.272299,-0.0852 0.973384,-0.37284 1.557969,-0.63916 0.584585,-0.26632 1.13441,-0.41 1.221831,-0.31928 0.198043,0.20551 1.180914,3.58612 1.180914,4.06178 0,0.22663 -0.36516,0.52287 -1.039687,0.84345 -0.571825,0.27177 -1.867447,0.94108 -2.879161,1.48736 -1.243954,0.67167 -1.86875,0.91429 -1.92991,0.7494 z M 20.69349,142.74671 v -1.64121 l -0.594107,0.2071 c -0.654992,0.22833 -0.705769,0.49752 -0.467674,2.47933 0.119065,0.99105 0.137981,1.01691 0.592387,0.80987 0.438871,-0.19997 0.469394,-0.3206 0.469394,-1.85509 z m 0.936811,-11.08276 c 0.134026,-0.75461 0.291677,-1.57252 0.350335,-1.81759 0.122006,-0.50973 -0.200359,-0.58141 -0.747583,-0.16622 -0.232782,0.17661 -0.450189,0.82698 -0.643345,1.92455 -0.160461,0.91178 -0.29187,1.67236 -0.292018,1.69017 -1.49e-4,0.0178 0.244798,-0.0332 0.544327,-0.11326 0.493175,-0.13188 0.567608,-0.27518 0.788284,-1.51765 z m 1.83844,-8.46269 c 0.295505,-0.088 1.31286,-2.84875 1.120635,-3.04097 -0.054,-0.054 -0.339848,0.0284 -0.63521,0.18318 -0.41849,0.21927 -0.640319,0.60515 -1.005036,1.74831 -0.257407,0.80682 -0.469208,1.48997 -0.470666,1.51812 -0.0014,0.0281 0.153302,-0.0322 0.343911,-0.13407 0.19061,-0.10189 0.481473,-0.22544 0.646366,-0.27457 z m 10.691187,-8.38943 c 0.381219,-0.16582 0.960473,-0.4225 1.287232,-0.57041 0.32676,-0.14792 1.173363,-0.4577 1.881341,-0.68841 0.707978,-0.23072 1.465465,-0.499 1.683305,-0.59619 0.671282,-0.29949 4.468593,-1.51995 6.139111,-1.97312 0.871357,-0.23638 1.985309,-0.56461 2.475448,-0.7294 0.490139,-0.1648 1.915997,-0.56574 3.168573,-0.891 1.252577,-0.32526 2.589319,-0.67874 2.970538,-0.78552 0.381219,-0.10678 1.183264,-0.31642 1.782323,-0.46586 0.599058,-0.14944 1.401103,-0.36074 1.782322,-0.46955 0.95604,-0.27289 2.909163,-0.79541 3.861697,-1.03313 0.435684,-0.10872 1.282284,-0.36823 1.881341,-0.57667 0.941841,-0.32772 1.896442,-0.59505 5.743042,-1.6083 0.381221,-0.10042 1.361498,-0.31423 2.178391,-0.47514 0.816899,-0.1609 1.841737,-0.37707 2.277416,-0.48038 0.435678,-0.10331 1.371394,-0.32027 2.079378,-0.48215 1.583129,-0.36198 3.434207,-0.82393 4.356788,-1.08727 0.381215,-0.10882 1.227821,-0.34127 1.881336,-0.51656 0.65352,-0.1753 1.455565,-0.39076 1.782322,-0.47881 1.024547,-0.27606 6.703021,-2.213256 7.35726,-2.509896 0.343216,-0.155621 0.723174,-0.282949 0.844338,-0.282949 0.121164,0 0.375045,-0.0879 0.564179,-0.195342 0.189134,-0.107433 0.872524,-0.421616 1.518651,-0.698177 1.009317,-0.432023 4.369071,-2.416021 4.964333,-2.931541 0.108921,-0.09433 0.810763,-0.555075 1.559647,-1.023884 l 1.36161,-0.852383 -0.55546,-0.367422 c -0.30549,-0.202079 -0.91522,-0.502525 -1.354953,-0.667655 l -0.799508,-0.300239 -1.194864,0.799081 c -1.325279,0.8863 -5.288406,2.870949 -5.732954,2.870949 -0.05721,0 -0.574514,0.210589 -1.149573,0.467973 -0.575053,0.257384 -1.713926,0.71202 -2.530825,1.010305 -0.816899,0.298285 -1.640012,0.622392 -1.829146,0.720243 -0.189128,0.09785 -0.443009,0.177913 -0.564174,0.177913 -0.12117,0 -0.545682,0.142759 -0.943362,0.317242 -0.39768,0.174488 -0.901283,0.390988 -1.119125,0.48112 -0.353478,0.146252 -2.333703,0.729276 -3.663663,1.078668 -0.2723,0.07153 -0.806997,0.218869 -1.188212,0.327408 -0.38122,0.108534 -1.183266,0.320403 -1.782322,0.470808 -0.599063,0.150417 -1.935805,0.511268 -2.97054,0.801908 -1.034741,0.29064 -2.326922,0.64523 -2.871521,0.78799 -0.544599,0.14275 -1.302084,0.36352 -1.683304,0.49059 -0.381221,0.12707 -1.227821,0.36129 -1.881341,0.52049 -2.74142,0.6678 -6.002807,1.51356 -8.020452,2.07992 -0.68596,0.19255 -1.756474,0.4661 -4.059734,1.03737 -0.653519,0.16209 -1.54468,0.39524 -1.980359,0.5181 -0.86041,0.24263 -2.415447,0.63587 -4.208261,1.06419 -0.626289,0.14962 -1.539729,0.40664 -2.029868,0.57116 -0.490139,0.16451 -1.826881,0.58793 -2.970537,0.94092 -3.413394,1.05353 -6.809091,2.18132 -7.176113,2.38336 -0.189132,0.10412 -0.459417,0.1893 -0.600634,0.1893 -0.538701,0 -3.619325,1.76407 -4.617557,2.64416 -0.710202,0.62616 -1.222661,0.92155 -1.602682,0.92382 l -0.558649,0.003 0.693125,0.43717 c 0.381219,0.24045 0.811672,0.55164 0.956563,0.69154 0.215441,0.20802 0.413887,0.16121 1.089197,-0.25692 0.454168,-0.28121 1.137666,-0.64695 1.518886,-0.81277 z m -3.13673,-1.68566 c 1.052172,-1.17851 0.52757,-2.2503 -1.215907,-2.48414 -0.624759,-0.0838 -0.796424,-0.018 -1.160812,0.44529 -0.707648,0.89963 -0.516898,1.90369 0.463535,2.43995 0.709102,0.38784 1.323885,0.25895 1.913184,-0.4011 z m 4.721016,-3.12668 c 0.381219,-0.14502 0.960474,-0.37203 1.287233,-0.50446 1.251498,-0.50721 3.443743,-1.28032 5.346968,-1.88563 1.089197,-0.34643 2.158591,-0.70041 2.37643,-0.78666 0.743928,-0.29449 3.563295,-1.14495 4.257771,-1.28435 0.381219,-0.0765 1.094148,-0.2561 1.584287,-0.39906 0.490138,-0.14297 1.782322,-0.4931 2.871519,-0.77806 3.641284,-0.95267 3.228349,-0.66698 4.488215,-3.10518 0.980636,-1.897815 1.067752,-2.154598 0.693126,-2.043056 -0.235665,0.07017 -0.874061,0.259939 -1.41866,0.421718 -0.544598,0.161784 -1.168411,0.371098 -1.38625,0.465138 -0.21784,0.094 -1.242676,0.4459 -2.277413,0.78188 -3.490572,1.13342 -4.791647,1.65003 -8.062544,3.20138 -1.112348,0.52757 -2.055909,0.95922 -2.096802,0.95922 -0.502515,0 -9.550465,5.48571 -10.145631,6.15122 -0.28598,0.31979 -0.09974,0.25394 0.699429,-0.24729 0.599058,-0.37573 1.401103,-0.80179 1.782322,-0.94681 z M 70.796561,99.793999 c 1.573956,-0.468367 2.014973,-0.590311 4.653838,-1.286815 1.30704,-0.344979 2.643782,-0.702881 2.970539,-0.795337 0.326758,-0.09246 0.816899,-0.226633 1.089199,-0.298167 1.329961,-0.349391 3.310186,-0.932416 3.663664,-1.078667 0.217836,-0.09013 0.721445,-0.306633 1.119124,-0.481121 0.39768,-0.174482 0.860281,-0.317242 1.027999,-0.317242 0.167724,0 0.352911,-0.07761 0.411534,-0.172461 0.05862,-0.09485 0.378835,-0.226908 0.711593,-0.293458 0.398904,-0.07978 1.215847,-0.712536 2.398097,-1.85741 0.986194,-0.955022 2.400398,-2.315661 3.14267,-3.023639 3.743922,-3.570949 9.284212,-8.905316 11.723812,-11.288045 l 2.73728,-2.673484 -0.9076,-0.99018 c -0.49918,-0.544598 -1.85022,-1.953667 -3.00231,-3.131263 l -2.09471,-2.141084 -0.996265,0.952869 c -0.54795,0.524078 -1.322298,1.264776 -1.720775,1.645995 -1.719697,1.645212 -5.36657,5.142893 -9.394984,9.010631 -2.382334,2.287316 -4.70403,4.515219 -5.159333,4.950897 -10.555762,10.100863 -14.309401,13.809902 -13.858645,13.693962 0.217842,-0.056 0.88621,-0.247716 1.485273,-0.425981 z m 2.376428,-5.341652 c 0,-0.113676 -0.177093,-0.317271 -0.393537,-0.452446 -0.362954,-0.226667 -0.44759,-0.138415 -1.089193,1.135639 -0.382618,0.75977 -0.695667,1.447415 -0.695667,1.528105 0,0.08069 0.490142,-0.337345 1.089199,-0.928963 0.599057,-0.591614 1.089198,-1.168671 1.089198,-1.282335 z m 2.76127,-2.430836 1.799595,-1.732816 -0.910354,-0.963835 -0.91036,-0.963846 -0.695218,0.66679 c -0.382371,0.366732 -1.037351,1.343299 -1.455509,2.170145 l -0.760285,1.503354 0.526512,0.526512 c 0.289578,0.289579 0.544397,0.526512 0.566262,0.526512 0.02184,0 0.849575,-0.77977 1.839357,-1.732816 z m 16.20335,0.752084 c 0.189134,-0.103722 1.012247,-0.497832 1.829146,-0.875797 0.816893,-0.37797 1.663499,-0.824965 1.881336,-0.993334 0.37088,-0.286643 0.32326,-0.306515 -0.748683,-0.312415 -1.132546,-0.0062 -1.157892,0.0063 -2.376428,1.178893 -1.174172,1.129852 -1.342238,1.41773 -0.585371,1.002653 z m -11.73278,-5.057204 1.766481,-1.681143 -0.878772,-0.8954 c -0.483321,-0.492471 -0.942952,-0.872187 -1.021391,-0.843816 -0.07845,0.02841 -0.912286,0.798868 -1.852976,1.712209 l -1.710351,1.660619 0.848285,0.86434 c 0.466553,0.475383 0.900923,0.864334 0.965261,0.864334 0.06434,0 0.911898,-0.756513 1.883463,-1.681143 z m 4.328877,-4.161722 c 1.935451,-1.850049 1.895291,-1.67328 0.667044,-2.936226 -0.300054,-0.30853 -0.624094,-0.531399 -0.720098,-0.495268 -0.096,0.03613 -0.950351,0.79893 -1.898552,1.695106 l -1.724003,1.629411 0.859815,0.885491 c 0.472896,0.487021 0.904375,0.889174 0.958833,0.893677 0.05445,0.0045 0.890095,-0.747987 1.856961,-1.672191 z m 5.501438,-5.303477 c 0.309669,-0.303284 0.563034,-0.618915 0.563034,-0.701401 0,-0.08249 -0.378745,-0.520431 -0.841649,-0.973206 l -0.841655,-0.823231 -1.732816,1.651841 c -0.953046,0.908511 -1.73281,1.724898 -1.73281,1.81419 0,0.08929 0.375578,0.545038 0.834621,1.012769 l 0.834626,0.850422 1.176805,-1.13998 c 0.647244,-0.626987 1.430175,-1.38812 1.739844,-1.691404 z m 3.417226,-3.279696 1.686948,-1.652729 -0.817517,-0.872227 c -0.449633,-0.479726 -0.869857,-0.871893 -0.93383,-0.871479 -0.06397,3.96e-4 -0.918174,0.754289 -1.898227,1.67528 l -1.781924,1.67453 0.884526,0.901265 c 0.486487,0.495696 0.949447,0.87805 1.028801,0.849677 0.07935,-0.02838 0.903399,-0.795316 1.831223,-1.704317 z M 81.364948,70.871121 C 81.662773,69.16303 81.8797,67.743505 81.847,67.71662 81.81433,67.68974 81.37695,67.441623 80.87511,67.16526 l -0.912437,-0.502476 -2.318271,2.34617 c -2.036401,2.06091 -2.292657,2.394031 -2.10761,2.739798 0.115865,0.216495 0.210663,0.625489 0.210663,0.908876 v 0.515248 l 0.739094,-0.502229 c 1.462498,-0.993792 2.436651,-0.561927 2.72079,1.206194 l 0.131336,0.817261 0.742383,-0.358681 0.742384,-0.35868 z m 16.701014,-0.112081 1.623761,-1.605835 -0.814328,-0.868823 c -0.447877,-0.477854 -0.878901,-0.868824 -0.957829,-0.868824 -0.07893,0 -0.91695,0.741074 -1.862277,1.64683 l -1.718776,1.646831 0.755789,0.828146 c 0.415688,0.455478 0.889466,0.828002 1.052844,0.827829 0.163379,-1.74e-4 1.027746,-0.722943 1.920816,-1.606154 z"
       id="path1068" /><path
       style="display:inline;fill:#ffffff;fill-opacity:0.204545;stroke-width:0.198036"
       d="m 38.861401,154.27473 c -0.40948,-0.14967 -0.855061,-0.36143 -0.990179,-0.47058 -0.135116,-0.10916 -0.914038,-0.29504 -1.730936,-0.41308 -0.816898,-0.11803 -2.019966,-0.3452 -2.673484,-0.50481 -0.653518,-0.1596 -1.589238,-0.38654 -2.079376,-0.50431 -0.490139,-0.11778 -1.069394,-0.29253 -1.287234,-0.38835 -0.217839,-0.0958 -1.153558,-0.46145 -2.079376,-0.81253 -0.925817,-0.35108 -2.154055,-0.90309 -2.729419,-1.22671 -1.001002,-0.56301 -1.089272,-0.57803 -2.04689,-0.3483 -1.369361,0.3285 -2.598244,0.15641 -3.433758,-0.48087 -0.554049,-0.42259 -0.789351,-0.83991 -1.214164,-2.15335 -1.595535,-4.93311 -0.269356,-16.04788 3.065308,-25.69053 1.736046,-5.02002 2.944344,-6.97157 4.962656,-8.01528 0.346162,-0.179 0.594553,-0.42996 0.551979,-0.55768 -0.04257,-0.12772 -0.828024,-0.33452 -1.745444,-0.45955 -0.917421,-0.12503 -2.425525,-0.40557 -3.351343,-0.62341 -0.925817,-0.21784 -2.396234,-0.54894 -3.267592,-0.73576 -0.871357,-0.18683 -2.289308,-0.55405 -3.151001,-0.81606 -0.861694,-0.26201 -1.691537,-0.47638 -1.844096,-0.47638 -0.152559,0 -0.769364,-0.23274 -1.370678,-0.51721 -1.296535,-0.61336 -1.850911,-1.39339 -1.851972,-2.60579 -0.0014,-1.63039 1.595718,-4.66116 3.195133,-6.06314 0.744569,-0.652659 0.959561,-0.741685 1.587702,-0.65743 1.084758,0.145493 6.490794,2.86969 7.759805,3.9103 0.126462,0.1037 0.942861,0.75406 1.814218,1.44525 1.749968,1.38812 3.761691,3.46488 3.959209,4.0872 0.101101,0.31854 0.297855,0.40082 0.958457,0.40082 0.457182,0 1.163387,0.17802 1.569347,0.39561 l 0.738107,0.3956 1.140301,-0.86248 c 1.662675,-1.25758 3.850201,-2.60366 7.378429,-4.54024 2.670054,-1.46555 6.747339,-3.40455 7.619129,-3.62335 0.315128,-0.0791 0.80169,-0.26317 1.081249,-0.40906 0.27956,-0.14588 0.620894,-0.2658 0.758521,-0.26647 0.137627,-5.6e-4 0.404975,-0.0799 0.594108,-0.17615 0.749441,-0.38124 3.442829,-1.36773 5.492807,-2.011813 4.070322,-1.278849 3.892805,-1.179595 4.618276,-2.582117 0.361657,-0.699181 1.130565,-2.162393 1.708689,-3.251591 0.578123,-1.089198 1.740832,-3.317102 2.583801,-4.950899 3.714332,-7.19892 5.029091,-9.731246 6.83741,-13.169382 l 1.926941,-3.663663 3.978239,-4.010226 c 2.962294,-2.986111 4.099084,-4.010226 4.451434,-4.010226 0.576423,0 1.521211,0.832965 1.521211,1.34116 0,0.203442 -0.431592,2.769785 -0.959092,5.702987 l -0.959091,5.333093 -1.544817,2.970538 c -0.849648,1.633796 -2.027166,3.898847 -2.616702,5.033447 -0.589536,1.134602 -1.198636,2.366262 -1.353549,2.73703 l -0.281663,0.674117 0.639374,-0.534427 c 0.351659,-0.293935 2.510812,-2.336993 4.798125,-4.540121 2.287317,-2.203131 4.604337,-4.429468 5.148936,-4.947417 0.544599,-0.517949 2.760164,-2.647389 4.923488,-4.732091 5.012475,-4.830313 6.536818,-6.262626 6.666908,-6.264396 0.05738,-7.86e-4 1.661467,1.616674 3.564648,3.594341 1.90318,1.977667 3.81679,3.966105 4.25247,4.41875 0.43568,0.452645 1.18507,1.236241 1.66532,1.741321 l 0.87318,0.91833 -0.67514,0.627704 c -0.37133,0.345236 -2.54658,2.430779 -4.8339,4.634538 -2.28731,2.203757 -4.940886,4.750311 -5.896829,5.659009 -1.162097,1.104664 -1.654298,1.696401 -1.485267,1.785635 0.139044,0.07341 0.742945,0.195292 1.342002,0.270857 5.792774,0.730668 9.060284,4.512454 11.276384,13.051202 0.92441,3.56177 1.28704,5.479 1.69153,8.94295 0.34963,2.99407 0.39412,7.83852 0.0872,9.4986 -0.29333,1.58678 -1.28692,3.10585 -2.36121,3.60997 -0.57061,0.26777 -3.07709,1.39408 -3.66366,1.64631 -0.21784,0.0937 -1.01988,0.45014 -1.78232,0.79214 -0.76244,0.34201 -1.56449,0.69847 -1.78233,0.79214 -0.39356,0.16924 -2.173342,0.96977 -4.257767,1.91512 -0.599057,0.27169 -1.26743,0.56951 -1.485267,0.66182 -0.217842,0.0923 -1.019887,0.44767 -1.782322,0.78968 -0.762441,0.342 -1.564487,0.69846 -1.782323,0.79214 -0.393565,0.16923 -2.173344,0.96976 -4.257775,1.91512 -0.599057,0.27168 -1.267425,0.5695 -1.485267,0.66182 -0.217842,0.0923 -0.975326,0.42801 -1.683304,0.746 -0.707978,0.31799 -1.6437,0.73054 -2.079378,0.91677 -0.435679,0.18624 -1.134748,0.51155 -1.55349,0.72293 -0.418742,0.21138 -0.925904,0.38433 -1.127017,0.38433 -0.201119,0 -0.420892,0.0893 -0.48839,0.19855 -0.06749,0.10921 -0.540608,0.38142 -1.051374,0.60492 -0.51076,0.2235 -1.106892,0.48438 -1.324729,0.57973 -0.217842,0.0953 -1.019887,0.45318 -1.782322,0.79519 -0.762442,0.34201 -1.564487,0.69736 -1.782323,0.78967 -0.217842,0.0923 -0.886216,0.39013 -1.485273,0.66182 -2.084425,0.94535 -3.864204,1.74589 -4.257769,1.91512 -0.217842,0.0937 -1.019887,0.45013 -1.782323,0.79214 -0.762435,0.34201 -1.56448,0.69847 -1.782322,0.79215 -0.393565,0.16922 -2.173345,0.96976 -4.257771,1.91512 -0.599059,0.27168 -1.26743,0.5695 -1.485269,0.66181 -0.217839,0.0923 -0.975327,0.42802 -1.683304,0.74601 -1.911916,0.85875 -2.551078,1.1437 -3.8617,1.72164 -0.653518,0.28818 -1.544679,0.6916 -1.980358,0.89649 -0.435679,0.20489 -1.32684,0.60831 -1.980358,0.89649 -0.653519,0.28818 -1.455564,0.6435 -1.782323,0.7896 -0.326759,0.1461 -1.039688,0.46174 -1.584287,0.70141 -0.544598,0.23968 -1.632508,0.73151 -2.417578,1.09297 -1.774845,0.81717 -2.526274,0.94682 -3.475866,0.59972 z m -2.022011,-2.44639 c -0.295917,-0.75734 -0.721147,-3.56139 -1.298877,-8.56505 -1.265262,-10.9583 -1.629137,-13.71448 -2.478918,-18.77668 -0.911666,-5.43083 -1.268624,-6.63543 -2.207575,-7.44974 -0.751942,-0.65212 -2.164035,-1.34407 -2.579601,-1.26403 -0.588822,0.11339 -1.142259,1.21164 -2.290778,4.54581 -2.67124,7.75466 -3.905276,14.51052 -3.901726,21.36035 0.0016,3.02632 0.03638,3.3407 0.4715,4.25777 0.258393,0.5446 0.666052,1.15169 0.905909,1.34909 0.811648,0.66797 2.872803,1.84853 3.868367,2.21566 0.544598,0.20084 1.079295,0.4243 1.188215,0.49659 0.10892,0.0723 0.732733,0.28687 1.386251,0.47684 0.653518,0.18996 1.411005,0.42409 1.683305,0.52028 0.272299,0.0962 1.16346,0.32209 1.980358,0.50198 0.816898,0.17989 1.708059,0.39892 1.980358,0.48675 0.2723,0.0878 0.705135,0.16671 0.961858,0.17531 0.366713,0.0123 0.437741,-0.0587 0.331354,-0.33093 z m 9.536004,-2.66111 c -0.06322,-0.15798 -0.110143,-0.11105 -0.119645,0.11965 -0.0086,0.20876 0.03821,0.32573 0.104012,0.25992 0.06581,-0.0658 0.07284,-0.23661 0.01562,-0.37957 z m 1.949336,0.0754 c -0.06097,-0.061 -0.220768,-1.3e-4 -0.355104,0.13521 -0.194127,0.19559 -0.17138,0.21833 0.110861,0.11086 0.195307,-0.0744 0.305217,-0.1851 0.244243,-0.24607 z m 1.577645,-0.63009 c 0.06938,-0.11226 -0.01012,-0.14546 -0.186348,-0.0778 -0.343081,0.13166 -0.405852,0.2736 -0.120992,0.2736 0.102492,0 0.240796,-0.0881 0.30734,-0.19577 z m -3.725017,-1.02958 c -0.06322,-0.15798 -0.110143,-0.11105 -0.119645,0.11965 -0.0086,0.20876 0.03821,0.32573 0.104013,0.25992 0.0658,-0.0658 0.07284,-0.23661 0.01562,-0.37957 z m 3.758556,-0.21041 c -0.05493,-0.13615 -0.09989,-0.0248 -0.09989,0.24755 0,0.27229 0.04495,0.38369 0.09989,0.24754 0.05494,-0.13615 0.05494,-0.35894 0,-0.49509 z m -0.19391,-1.17584 c -0.06322,-0.15798 -0.110144,-0.11105 -0.119646,0.11965 -0.0086,0.20876 0.03821,0.32573 0.104013,0.25992 0.0658,-0.0658 0.07284,-0.23661 0.01562,-0.37957 z m -11.973909,-0.54826 c -0.120127,-0.81847 -0.264859,-0.76458 -0.208148,0.0775 0.0252,0.37418 0.10225,0.64545 0.17122,0.60282 0.06897,-0.0426 0.08559,-0.34877 0.03693,-0.68033 z m 11.775873,-1.03602 c -0.06322,-0.15798 -0.110144,-0.11106 -0.119645,0.11964 -0.0086,0.20876 0.03821,0.32573 0.104012,0.25993 0.06581,-0.0658 0.07284,-0.23662 0.01562,-0.37957 z m -29.709502,-0.60649 c -0.05494,-0.13615 -0.09989,-0.0248 -0.09989,0.24755 0,0.2723 0.04495,0.38369 0.09989,0.24754 0.05494,-0.13615 0.05494,-0.35894 0,-0.49509 z m 0.805699,-2.18437 c -0.04153,-0.45962 -0.07502,-0.0336 -0.07442,0.94664 6.17e-4,0.98028 0.03458,1.35634 0.07551,0.83569 0.04093,-0.52066 0.04043,-1.32271 -0.0012,-1.78233 z m 16.825573,1.89108 c -0.05021,-0.19268 -0.09459,-0.083 -0.09863,0.24378 -0.004,0.32676 0.03704,0.48441 0.09129,0.35034 0.05424,-0.13409 0.05755,-0.40143 0.0073,-0.59412 z m 20.791807,0.30567 c -0.06322,-0.15798 -0.110144,-0.11106 -0.119645,0.11964 -0.0086,0.20877 0.03821,0.32573 0.104012,0.25993 0.0658,-0.0658 0.07284,-0.23662 0.01562,-0.37957 z m 1.553265,0.0754 c -0.06097,-0.061 -0.220769,-1.3e-4 -0.355105,0.13521 -0.194126,0.19558 -0.17138,0.21833 0.110861,0.11086 0.195307,-0.0744 0.305216,-0.1851 0.244244,-0.24607 z m 1.386251,-0.59411 c -0.06097,-0.061 -0.220767,-1.3e-4 -0.355106,0.13521 -0.194125,0.19559 -0.171379,0.21834 0.110863,0.11086 0.195303,-0.0744 0.305218,-0.1851 0.244243,-0.24607 z m 0.687887,-0.23628 c 0,-0.10892 -0.0393,-0.19804 -0.08733,-0.19804 -0.04805,0 -0.142407,0.0891 -0.209725,0.19804 -0.06732,0.10892 -0.02801,0.19803 0.08733,0.19803 0.115349,0 0.209725,-0.0891 0.209725,-0.19803 z m -42.23961,-1.43346 c -0.04737,-0.24633 -0.08792,-0.0914 -0.09012,0.34426 -0.0022,0.43568 0.03656,0.63723 0.08612,0.44789 0.04957,-0.18934 0.05137,-0.5458 0.004,-0.79215 z m 17.620407,0.60418 c -0.06322,-0.15798 -0.110143,-0.11105 -0.119645,0.11965 -0.0086,0.20876 0.03821,0.32572 0.104012,0.25992 0.06581,-0.0658 0.07284,-0.23661 0.01562,-0.37957 z m 8.927547,0.24524 c 0.189132,-0.10337 0.94194,-0.46273 1.672908,-0.79857 0.730968,-0.33584 1.365503,-0.67456 1.410077,-0.75272 0.04457,-0.0781 -0.05289,-1.01097 -0.216574,-2.07294 l -0.297619,-1.93084 h -0.694555 c -0.382005,0 -0.793494,0.11754 -0.914422,0.2612 -0.120927,0.14366 -0.62089,0.42773 -1.111029,0.63127 -1.405434,0.58361 -1.554286,0.77085 -1.381659,1.73796 0.08199,0.45936 0.210032,1.34761 0.28453,1.9739 0.142733,1.19993 0.4142,1.40668 1.248343,0.95074 z m 15.430864,-0.64131 c -0.06322,-0.15798 -0.110145,-0.11105 -0.119649,0.11964 -0.0086,0.20877 0.03823,0.32573 0.104015,0.25993 0.0658,-0.0658 0.07284,-0.23661 0.01561,-0.37957 z m -3.762682,-1.78232 c -0.06322,-0.15798 -0.110144,-0.11106 -0.119646,0.11964 -0.0086,0.20877 0.03821,0.32573 0.104012,0.25992 0.06581,-0.0658 0.07284,-0.2366 0.01562,-0.37956 z m 3.564645,-0.59411 c -0.06321,-0.15798 -0.110145,-0.11106 -0.119643,0.11965 -0.0086,0.20876 0.03823,0.32573 0.104009,0.25992 0.06581,-0.0658 0.07284,-0.23662 0.01561,-0.37957 z m 9.964547,-0.67718 c 0,-0.0428 -0.133677,-0.0778 -0.297055,-0.0778 -0.163379,0 -0.29705,0.0863 -0.29705,0.19182 0,0.1055 0.133671,0.14052 0.29705,0.0778 0.163378,-0.0627 0.297055,-0.14901 0.297055,-0.19182 z M 57.663438,138.2753 c -0.06322,-0.15798 -0.110144,-0.11105 -0.119646,0.11965 -0.0086,0.20876 0.03821,0.32572 0.104012,0.25992 0.06581,-0.0658 0.07284,-0.23661 0.01562,-0.37957 z m 15.019701,0.0754 c -0.06097,-0.061 -0.220766,-1.3e-4 -0.355106,0.13521 -0.194124,0.19559 -0.171378,0.21833 0.110864,0.11086 0.195303,-0.0744 0.305218,-0.1851 0.244242,-0.24607 z m -27.892031,-0.66949 c -0.06322,-0.15798 -0.110144,-0.11106 -0.119646,0.11965 -0.0086,0.20876 0.03821,0.32573 0.104012,0.25992 0.06581,-0.0658 0.07284,-0.23662 0.01562,-0.37957 z m 12.049164,0.0754 c -0.06097,-0.061 -0.220769,-1.3e-4 -0.355104,0.13521 -0.194127,0.19559 -0.17138,0.21833 0.11086,0.11087 0.195307,-0.0744 0.305217,-0.18511 0.244244,-0.24608 z m 17.307263,-0.30698 c -0.01067,-0.28968 -0.05052,-0.3301 -0.12561,-0.12734 -0.06049,0.16338 -0.199727,0.41049 -0.309428,0.54913 -0.149216,0.18858 -0.117572,0.22066 0.125604,0.12734 0.178788,-0.0686 0.318028,-0.31571 0.309434,-0.54913 z m -15.706385,-0.0483 c 0.120928,-0.15238 0.407845,-0.27705 0.637594,-0.27705 0.390859,0 1.697627,-0.62288 2.091035,-0.99671 0.167875,-0.15951 -0.185379,-3.73254 -0.389175,-3.93633 -0.08658,-0.0866 -1.015414,0.1803 -1.965214,0.56468 -0.217839,0.0882 -0.647818,0.26163 -0.955511,0.3855 -0.30769,0.12386 -0.631744,0.18052 -0.72012,0.1259 -0.317107,-0.19598 -0.395441,0.81695 -0.191069,2.4707 0.114416,0.92582 0.246605,1.80085 0.293753,1.94451 0.102759,0.31309 0.869904,0.13313 1.198707,-0.2812 z m 15.461227,-1.5024 c -0.06321,-0.15798 -0.110144,-0.11106 -0.119648,0.11964 -0.0086,0.20877 0.03823,0.32573 0.104014,0.25992 0.06581,-0.0658 0.07284,-0.23661 0.01561,-0.37956 z m -29.507341,-0.99017 c -0.06322,-0.15798 -0.110144,-0.11105 -0.119645,0.11964 -0.0086,0.20877 0.03821,0.32573 0.104012,0.25993 0.0658,-0.0658 0.07284,-0.23661 0.01562,-0.37957 z m 3.762681,0 c -0.06322,-0.15798 -0.110144,-0.11105 -0.119646,0.11964 -0.0086,0.20877 0.03821,0.32573 0.104013,0.25993 0.06581,-0.0658 0.07284,-0.23661 0.01563,-0.37957 z m -11.880194,-1.49388 c -0.05021,-0.19268 -0.09459,-0.083 -0.09863,0.24378 -0.004,0.32676 0.03704,0.4844 0.09129,0.35033 0.05425,-0.13408 0.05755,-0.40143 0.0073,-0.59411 z m 47.891695,-0.21307 c -0.06097,-0.061 -0.220767,-1.2e-4 -0.355106,0.13522 -0.194124,0.19558 -0.171378,0.21833 0.110863,0.11086 0.195309,-0.0744 0.305218,-0.1851 0.244243,-0.24608 z m -62.750465,-0.87989 c -0.05494,-0.13615 -0.09989,-0.0248 -0.09989,0.24754 0,0.2723 0.04495,0.3837 0.09989,0.24754 0.05493,-0.13614 0.05493,-0.35894 0,-0.49508 z m 64.230495,0.2021 c 0,-0.11591 -0.125835,-0.0967 -0.297056,0.0454 -0.163379,0.13559 -0.29705,0.27738 -0.29705,0.31509 0,0.0377 0.133671,0.0172 0.29705,-0.0454 0.163379,-0.0627 0.297056,-0.20448 0.297056,-0.31509 z m -49.569761,-0.49539 c -0.05021,-0.19268 -0.09459,-0.083 -0.09863,0.24378 -0.004,0.32676 0.03704,0.48441 0.09129,0.35033 0.05424,-0.13408 0.05755,-0.40142 0.0073,-0.59411 z m 34.420018,0.34431 c 0.108921,-0.0743 0.74875,-0.33631 1.421839,-0.58231 0.673095,-0.24599 1.263771,-0.55141 1.312615,-0.6787 0.04884,-0.12729 -0.03772,-0.84682 -0.192413,-1.59895 -0.154672,-0.75212 -0.235727,-1.48606 -0.180124,-1.63095 0.05586,-0.14556 -0.02908,-0.26347 -0.189734,-0.26347 -0.159966,0 -0.290842,-0.0955 -0.290842,-0.21218 0,-0.1167 -0.140037,-0.0721 -0.311202,0.099 -0.171159,0.17116 -0.40276,0.3112 -0.514667,0.3112 -0.185929,0 -0.831399,0.25929 -2.14467,0.86153 -0.2723,0.12487 -0.55032,0.30277 -0.617823,0.39534 -0.125858,0.17259 0.458228,3.07754 0.696217,3.46262 0.125795,0.20354 0.580723,0.13012 1.010804,-0.16315 z M 20.632691,131.8306 c -0.05021,-0.19269 -0.09459,-0.083 -0.09863,0.24377 -0.004,0.32676 0.03704,0.48441 0.09129,0.35033 0.05424,-0.13407 0.05755,-0.40142 0.0073,-0.5941 z m 27.128954,0.30566 c -0.06322,-0.15798 -0.110144,-0.11106 -0.119645,0.11965 -0.0086,0.20876 0.03821,0.32572 0.104012,0.25992 0.0658,-0.0658 0.07284,-0.23662 0.01562,-0.37957 z m -3.762681,-0.19804 c -0.06322,-0.15798 -0.110143,-0.11105 -0.119645,0.11965 -0.0086,0.20876 0.03821,0.32572 0.104012,0.25992 0.06581,-0.0658 0.07284,-0.23661 0.01562,-0.37957 z m 37.824847,-0.39607 c -0.06321,-0.15798 -0.110145,-0.11106 -0.119643,0.11965 -0.0086,0.20876 0.03823,0.32573 0.104009,0.25992 0.06581,-0.0658 0.07284,-0.23662 0.01561,-0.37957 z m -60.202898,-0.39607 c -0.06322,-0.15798 -0.110143,-0.11106 -0.119645,0.11965 -0.0086,0.20876 0.03821,0.32572 0.104013,0.25992 0.0658,-0.0658 0.07284,-0.23661 0.01562,-0.37957 z m 14.258582,-0.19804 c -0.06322,-0.15798 -0.110144,-0.11105 -0.119646,0.11965 -0.0086,0.20876 0.03821,0.32572 0.104013,0.25992 0.06581,-0.0658 0.07284,-0.23661 0.01562,-0.37957 z m 9.822934,-0.0943 c 0.894785,-0.29012 1.721866,-0.59931 1.837957,-0.68711 0.228674,-0.17294 -0.202478,-3.29797 -0.496874,-3.6014 -0.08653,-0.0892 -0.83926,0.0668 -1.672744,0.34656 -0.833483,0.27979 -1.641216,0.50871 -1.794963,0.50871 -0.45633,0 -0.54159,0.68508 -0.295073,2.37102 0.165524,1.13202 0.313398,1.58969 0.51363,1.58969 0.15465,0 1.01328,-0.23736 1.908067,-0.52747 z m 18.465171,0.16965 c -0.06097,-0.061 -0.220772,-1.3e-4 -0.355106,0.13522 -0.194124,0.19558 -0.171378,0.21833 0.110858,0.11085 0.195309,-0.0744 0.305218,-0.18509 0.244248,-0.24607 z m -43.33883,-0.27342 c -0.06322,-0.15797 -0.110143,-0.11105 -0.119645,0.11965 -0.0086,0.20877 0.03821,0.32573 0.104012,0.25992 0.06581,-0.0658 0.07284,-0.23661 0.01562,-0.37957 z m 1.158579,-1.30948 c -0.221321,-0.22132 -0.435633,0.21592 -0.342255,0.69827 l 0.106341,0.54933 0.157605,-0.58415 c 0.08668,-0.32129 0.121923,-0.61984 0.07831,-0.66345 z m 59.638424,0.71538 c -0.06321,-0.15798 -0.110144,-0.11106 -0.119642,0.11965 -0.0086,0.20876 0.03823,0.32572 0.104009,0.25992 0.06581,-0.0658 0.07284,-0.23661 0.0156,-0.37957 z m -25.150551,-0.99018 c -0.06322,-0.15798 -0.110143,-0.11106 -0.119645,0.11965 -0.0086,0.20876 0.03821,0.32572 0.104012,0.25992 0.06581,-0.0658 0.07284,-0.23661 0.01562,-0.37957 z m 24.952514,-0.19804 c -0.06321,-0.15798 -0.110139,-0.11105 -0.119643,0.11965 -0.0086,0.20877 0.03823,0.32573 0.104015,0.25992 0.0658,-0.0658 0.07284,-0.23661 0.01561,-0.37957 z m 12.049169,0.0754 c -0.06097,-0.061 -0.220772,-1.2e-4 -0.355106,0.13522 -0.194124,0.19558 -0.171378,0.21833 0.110858,0.11086 0.195309,-0.0744 0.305218,-0.1851 0.244248,-0.24608 z m -10.996234,-0.90198 c 0.707983,-0.25626 1.443187,-0.52322 1.633797,-0.59324 0.190611,-0.07 0.48024,-0.16907 0.643618,-0.22011 0.348022,-0.10873 0.350958,-0.30798 0.03363,-2.28363 -0.236277,-1.47106 -0.243996,-1.48469 -0.807064,-1.42398 -0.603205,0.065 -3.063529,0.9766 -3.367753,1.24778 -0.254465,0.22682 0.252511,3.74651 0.538716,3.73998 0.02077,-4e-4 0.617071,-0.21053 1.325049,-0.4668 z m 13.174626,-0.0882 c -0.06097,-0.061 -0.220767,-1.2e-4 -0.355106,0.13522 -0.194125,0.19558 -0.171378,0.21833 0.110863,0.11086 0.195309,-0.0744 0.305218,-0.1851 0.244243,-0.24608 z m -38.768069,-0.42271 c 0.189132,-0.10253 0.855228,-0.33719 1.480213,-0.52145 0.624987,-0.18426 1.230519,-0.44851 1.34563,-0.5872 0.207714,-0.25029 -0.189823,-3.31103 -0.465903,-3.5871 -0.133083,-0.13309 -3.496501,0.87655 -3.778035,1.13409 -0.104403,0.0955 -0.06813,0.90194 0.08795,1.95532 0.279555,1.88676 0.4448,2.08632 1.330149,1.60634 z m 18.266121,-0.60571 c 0.163378,-0.10559 0.207934,-0.19197 0.09902,-0.19197 -0.108921,0 -0.331714,0.0864 -0.495092,0.19197 -0.163379,0.10558 -0.207934,0.19197 -0.09902,0.19197 0.108921,0 0.331714,-0.0864 0.495092,-0.19197 z m 27.631241,-2.14015 c -0.061,-0.061 -0.22077,-1.3e-4 -0.35511,0.13522 -0.19412,0.19558 -0.17138,0.21833 0.11086,0.11085 0.19531,-0.0744 0.30522,-0.1851 0.24425,-0.24607 z m -59.973841,-0.47145 c -0.06322,-0.15798 -0.110143,-0.11106 -0.119645,0.11965 -0.0086,0.20876 0.03821,0.32573 0.104012,0.25992 0.0658,-0.0658 0.07284,-0.23662 0.01562,-0.37957 z m 49.967789,-0.30851 c 0.490136,-0.21595 1.269906,-0.55557 1.732811,-0.75473 0.657635,-0.28293 0.841655,-0.46659 0.841655,-0.84 0,-0.58947 -0.570754,-2.85546 -0.771721,-3.06387 -0.248616,-0.25783 -3.693719,1.11905 -3.85561,1.54094 -0.09759,0.25432 0.509873,3.04948 0.745645,3.43097 0.08051,0.13025 0.207053,0.20139 0.281214,0.15808 0.07416,-0.0433 0.535865,-0.25544 1.026006,-0.47139 z m 12.184442,-0.21022 c -0.061,-0.061 -0.22077,-1.3e-4 -0.3551,0.13522 -0.19413,0.19558 -0.17138,0.21833 0.11086,0.11085 0.1953,-0.0744 0.30521,-0.18509 0.24424,-0.24607 z M 70.491708,123.2371 c 1.095845,-0.27134 1.301668,-0.48324 1.094032,-1.12632 -0.09455,-0.29283 -0.272233,-1.04328 -0.394851,-1.66767 -0.252388,-1.28521 -0.374714,-1.42321 -1.023104,-1.15423 -0.253235,0.10504 -1.015194,0.34806 -1.693245,0.54004 -0.678052,0.19197 -1.281353,0.47551 -1.340666,0.63009 -0.117235,0.30551 0.211375,2.35605 0.498674,3.11171 0.1767,0.46475 0.186265,0.46616 1.126512,0.16467 0.521567,-0.16724 1.301258,-0.39146 1.732648,-0.49829 z m -47.718842,0.2226 c 0.06732,-0.10892 0.02802,-0.19804 -0.08733,-0.19804 -0.115348,0 -0.209724,0.0891 -0.209724,0.19804 0,0.10892 0.0393,0.19804 0.08733,0.19804 0.04803,0 0.142408,-0.0891 0.209724,-0.19804 z m 12.179205,0.11071 c 0,-0.0481 -0.08912,-0.14241 -0.198036,-0.20973 -0.10892,-0.0673 -0.198036,-0.028 -0.198036,0.0873 0,0.11535 0.08912,0.20973 0.198036,0.20973 0.10892,0 0.198036,-0.0393 0.198036,-0.0873 z m -11.180882,-0.51995 c 0.203196,-0.32879 0.02081,-0.37438 -0.263497,-0.0659 -0.140443,0.15239 -0.167982,0.27707 -0.06119,0.27707 0.106785,0 0.252896,-0.095 0.324692,-0.2112 z m 10.717929,-0.63045 c -0.05493,-0.13615 -0.09989,-0.0248 -0.09989,0.24755 0,0.2723 0.04495,0.38369 0.09989,0.24754 0.05494,-0.13615 0.05494,-0.35894 0,-0.49509 z m -0.19391,-0.77976 c -0.06322,-0.15798 -0.110144,-0.11106 -0.119646,0.11964 -0.0086,0.20877 0.03821,0.32573 0.104013,0.25992 0.0658,-0.0658 0.07284,-0.2366 0.01563,-0.37956 z m 10.505487,-0.4913 c 0.569814,-0.15933 1.08446,-0.36805 1.143656,-0.46384 0.142299,-0.23024 -0.474165,-2.66433 -0.781079,-3.08406 -0.222947,-0.3049 -0.32016,-0.30544 -1.34503,-0.008 -0.607593,0.17663 -1.313789,0.32251 -1.569325,0.32418 -0.968504,0.006 -1.036599,0.20769 -0.643832,1.90391 0.198505,0.85728 0.45371,1.62405 0.567123,1.70394 0.237853,0.16754 1.14946,0.0369 2.628487,-0.37664 z m -20.174326,-0.85782 c 0,-0.18724 -0.06292,-0.15064 -0.170198,0.099 -0.09361,0.21783 -0.170198,0.52974 -0.170198,0.69312 0,0.18724 0.06292,0.15064 0.170198,-0.099 0.09361,-0.21784 0.170198,-0.52974 0.170198,-0.69312 z m 77.823931,-0.42699 c 0.50773,-0.23151 1.3019,-0.58344 1.76481,-0.78208 0.95256,-0.40873 0.96046,-0.44292 0.57241,-2.47763 -0.35067,-1.83872 -0.41743,-1.93619 -1.08113,-1.57817 -1.73444,0.93562 -2.85111,1.35741 -2.99165,1.13002 -0.23347,-0.37777 -0.23793,1.35314 -0.007,2.55056 0.22879,1.18408 0.62887,2.14851 0.74579,1.79777 0.0403,-0.12074 0.4886,-0.40896 0.99634,-0.64047 z m -47.559364,0.19182 c -0.06322,-0.15798 -0.110144,-0.11106 -0.119646,0.11965 -0.0086,0.20876 0.03821,0.32573 0.104013,0.25992 0.0658,-0.0658 0.07284,-0.23661 0.01562,-0.37957 z m 26.995629,-0.44528 1.683304,-0.65524 -0.02812,-0.76791 c -0.07127,-1.94457 -0.180977,-2.99656 -0.304735,-2.92203 -0.07417,0.0447 -0.18969,-0.008 -0.256727,-0.11602 -0.0778,-0.12589 -0.243895,-0.12975 -0.459267,-0.0107 -0.750933,0.41522 -2.644377,1.19161 -2.906028,1.19161 -0.153723,0 -0.335537,0.0907 -0.404034,0.2015 -0.108388,0.17538 0.200546,2.82444 0.409524,3.51167 0.107574,0.35373 0.377875,0.3021 2.266104,-0.43291 z m -26.098143,-1.77694 c 0.466715,-0.15345 1.144223,-0.34009 1.505572,-0.41475 0.361348,-0.0747 0.698117,-0.24291 0.748377,-0.37388 0.135544,-0.35322 -0.491651,-3.15283 -0.740826,-3.30683 -0.118022,-0.0729 -0.672292,-0.002 -1.23171,0.15692 -1.76529,0.50251 -1.941395,0.52174 -2.146069,0.23442 -0.156684,-0.21995 -0.175291,-0.21044 -0.09343,0.0478 0.05622,0.17734 0.02643,0.40013 -0.06621,0.4951 -0.09264,0.095 -0.08781,0.61823 0.01073,1.16283 0.09854,0.5446 0.229896,1.27981 0.291897,1.6338 0.129537,0.73954 0.404312,0.79774 1.72166,0.36462 z m 10.984665,-0.94635 c -0.06321,-0.15798 -0.110145,-0.11106 -0.119643,0.11965 -0.0086,0.20876 0.03823,0.32572 0.104009,0.25992 0.06581,-0.0658 0.07284,-0.23662 0.01561,-0.37957 z m 41.991843,-1.98919 c -0.0441,-0.35594 -0.0811,-0.11247 -0.0822,0.54105 -0.001,0.65352 0.035,0.94474 0.0801,0.64716 0.0452,-0.29757 0.0461,-0.83227 0.002,-1.18821 z m -74.605002,-0.0864 c 0.381219,-0.16582 0.960473,-0.4225 1.287232,-0.57041 0.32676,-0.14792 1.173363,-0.4577 1.881341,-0.68841 0.707978,-0.23072 1.465465,-0.499 1.683305,-0.59619 0.513103,-0.22892 4.238704,-1.44436 5.644021,-1.8413 0.599058,-0.16921 1.71301,-0.49753 2.475448,-0.7296 0.762438,-0.23207 2.411087,-0.69016 3.663663,-1.01797 1.252577,-0.32781 2.589319,-0.68339 2.970538,-0.79017 0.381219,-0.10678 1.183264,-0.31642 1.782323,-0.46586 0.599058,-0.14944 1.401103,-0.36074 1.782322,-0.46955 0.95604,-0.27289 2.909163,-0.79541 3.861697,-1.03313 0.435684,-0.10872 1.282284,-0.36576 1.881341,-0.57119 1.312856,-0.4502 2.312119,-0.74196 3.762682,-1.09861 0.599057,-0.14729 1.445663,-0.36454 1.881342,-0.48277 0.435678,-0.11824 1.460516,-0.34663 2.277409,-0.50754 0.816899,-0.1609 1.841737,-0.37707 2.277416,-0.48038 0.435678,-0.10331 1.371394,-0.31698 2.079378,-0.47485 0.707978,-0.15785 2.133836,-0.51364 3.168571,-0.79064 1.034735,-0.277 2.104129,-0.56152 2.376428,-0.63226 2.681933,-0.6968 9.410512,-2.904833 11.189029,-3.671765 0.217836,-0.09394 0.924719,-0.398875 1.570846,-0.677642 1.011725,-0.436492 4.375471,-2.425564 4.964333,-2.935538 0.108921,-0.09433 0.810763,-0.555075 1.559647,-1.023884 l 1.36161,-0.852383 -0.55546,-0.367422 c -0.30549,-0.202079 -0.91522,-0.502525 -1.354953,-0.667655 l -0.799508,-0.300239 -1.194864,0.799081 c -1.325279,0.8863 -5.288406,2.870949 -5.732954,2.870949 -0.05721,0 -0.574514,0.210589 -1.149573,0.467973 -0.575053,0.257384 -1.713926,0.71202 -2.530825,1.010305 -0.816899,0.298285 -1.640012,0.622392 -1.829146,0.720243 -0.189128,0.09785 -0.443009,0.177913 -0.564174,0.177913 -0.12117,0 -0.545682,0.142759 -0.943362,0.317242 -1.479204,0.649012 -1.192152,0.556242 -5.079844,1.641729 -1.585139,0.442589 -2.349955,0.650517 -4.455801,1.211403 -3.214625,0.8562 -4.31376,1.16208 -5.445987,1.51561 -0.544599,0.17005 -1.524876,0.43754 -2.178396,0.59443 -1.768536,0.42457 -3.269325,0.80592 -4.158751,1.05673 -0.435679,0.12286 -1.282285,0.34565 -1.881341,0.49509 -0.599057,0.14944 -1.445663,0.37223 -1.881342,0.49509 -0.77596,0.21882 -1.775769,0.47515 -4.158752,1.06619 -0.653519,0.16209 -1.54468,0.39524 -1.980359,0.5181 -0.86041,0.24263 -2.415447,0.63587 -4.208261,1.06419 -0.626289,0.14962 -1.539729,0.40664 -2.029868,0.57116 -0.490139,0.16451 -1.826881,0.58769 -2.970537,0.94039 -3.340386,1.03016 -5.027134,1.58783 -5.372097,1.77613 -0.177201,0.0967 -0.646045,0.23661 -1.041876,0.31087 -0.395831,0.0743 -0.768526,0.21403 -0.82821,0.3106 -0.05969,0.0966 -0.26215,0.17559 -0.449922,0.17559 -0.608938,0 -3.629894,1.69876 -4.702199,2.64416 -0.71357,0.62913 -1.22014,0.92048 -1.600416,0.92048 -0.523631,0 -0.498229,0.0389 0.431529,0.661 l 0.987914,0.661 0.792143,-0.47741 c 0.435679,-0.26258 1.10405,-0.61307 1.48527,-0.77888 z m 57.615328,0.3719 c 1.923005,-1.00603 1.882166,-0.93796 1.586503,-2.64477 -0.138774,-0.80107 -0.32459,-1.6571 -0.412938,-1.90228 l -0.160627,-0.44577 -1.143539,0.62656 c -0.628938,0.34461 -1.37922,0.74757 -1.667288,0.89547 -0.960327,0.49304 -1.013061,0.67977 -0.670485,2.37391 0.172434,0.85274 0.352356,1.66033 0.399824,1.79464 0.102101,0.28892 0.32865,0.2125 2.06855,-0.69776 z M 69.24059,113.76435 c 0.178962,-0.004 0.375562,-0.13919 0.436902,-0.29903 0.118493,-0.30879 -0.313587,-2.86846 -0.548321,-3.24827 -0.141334,-0.22868 -0.860236,-0.14748 -1.600205,0.18075 -0.217837,0.0966 -0.707978,0.25309 -1.089193,0.34769 l -0.69313,0.17202 0.03654,1.37225 c 0.0201,0.75474 0.12538,1.60588 0.233941,1.89142 l 0.197386,0.51917 1.35035,-0.4638 c 0.742686,-0.25508 1.496763,-0.46757 1.675714,-0.4722 z m 13.375363,0.1525 c -0.06321,-0.15798 -0.110144,-0.11106 -0.119643,0.11965 -0.0086,0.20876 0.03823,0.32573 0.104009,0.25992 0.06581,-0.0658 0.07284,-0.23662 0.01561,-0.37957 z m -51.592755,-0.79068 c 1.053741,-1.18027 0.577344,-2.17534 -1.175665,-2.45565 -0.683731,-0.10933 -0.82617,-0.0598 -1.202157,0.41821 -0.706578,0.89826 -0.515212,1.9026 0.464638,2.43854 0.709102,0.38784 1.323885,0.25895 1.913184,-0.4011 z m 10.662092,0.43174 c 0.163379,-0.10558 0.207937,-0.19197 0.09902,-0.19197 -0.10892,0 -0.331711,0.0864 -0.49509,0.19197 -0.16338,0.10558 -0.207938,0.19197 -0.09902,0.19197 0.108919,0 0.33171,-0.0864 0.49509,-0.19197 z m 2.178394,-0.63625 c 0,-0.20665 -0.229524,-0.19252 -0.59161,0.0364 -0.231498,0.14637 -0.1997,0.17909 0.148526,0.15286 0.243695,-0.0183 0.443084,-0.10353 0.443084,-0.18927 z m 64.757716,0.0422 c 0,-0.10892 -0.0944,-0.19804 -0.20972,-0.19804 -0.11535,0 -0.15464,0.0891 -0.0873,0.19804 0.0673,0.10892 0.16169,0.19804 0.20972,0.19804 0.0481,0 0.0873,-0.0891 0.0873,-0.19804 z m -72.877186,-2.96433 c 0.381219,-0.14502 0.960474,-0.37203 1.287233,-0.50446 2.483328,-1.00645 10.542288,-3.66782 11.981169,-3.95664 0.381219,-0.0765 1.094148,-0.2561 1.584287,-0.39906 0.490138,-0.14297 1.782322,-0.4931 2.871519,-0.77806 3.641284,-0.95267 3.228349,-0.66698 4.488215,-3.10518 0.980636,-1.897815 1.067752,-2.154598 0.693126,-2.043056 -0.235665,0.07017 -0.874061,0.259939 -1.41866,0.421718 -0.544598,0.161784 -1.168411,0.371688 -1.38625,0.466458 -0.21784,0.0948 -1.331792,0.48245 -2.475448,0.86151 -4.515339,1.49658 -5.6886,1.99234 -10.611138,4.4838 -3.230316,1.63497 -8.874078,5.05174 -9.499301,5.75094 -0.279558,0.31263 -0.08536,0.24325 0.702926,-0.25116 0.599058,-0.37573 1.401103,-0.80179 1.782322,-0.94681 z m 43.256959,1.0064 c 0.05968,-0.0966 0.412438,-0.2326 0.783896,-0.30229 0.879575,-0.165 1.904857,-0.68158 2.037175,-1.0264 0.122085,-0.31814 -0.649253,-2.97861 -0.910354,-3.13998 -0.09748,-0.0603 -0.920616,0.17418 -1.829185,0.52096 -1.610153,0.61454 -2.334882,1.05403 -1.95635,1.18636 0.102931,0.036 0.347207,0.71119 0.542831,1.50047 0.306346,1.236 0.415862,1.43514 0.789571,1.43576 0.238646,3.9e-4 0.482726,-0.0783 0.542416,-0.17488 z m 22.834067,-1.11722 c 0.67885,-0.3201 1.27598,-0.69068 1.32696,-0.82352 0.12899,-0.33617 -0.69791,-3.47387 -0.99359,-3.77015 -0.19084,-0.19123 -0.263,-0.18761 -0.34158,0.0172 -0.0548,0.14278 -0.62042,0.50431 -1.25695,0.80339 -0.636541,0.29908 -1.357851,0.64061 -1.602925,0.75894 -0.245068,0.11834 -0.44672,0.35606 -0.448118,0.52827 -0.0045,0.58401 0.678248,3.28289 0.863234,3.41116 0.188151,0.13046 0.317669,0.0816 2.452969,-0.92524 z m -36.052333,0.0675 c -0.06321,-0.15797 -0.110145,-0.11105 -0.119643,0.11965 -0.0086,0.20876 0.03823,0.32573 0.104009,0.25992 0.06581,-0.0658 0.07284,-0.23661 0.01561,-0.37957 z m -11.522342,0.0371 c 0.261159,-0.11222 0.294888,-0.1739 0.09902,-0.18108 -0.163379,-0.006 -0.430727,0.0755 -0.594107,0.18108 -0.362003,0.23395 -0.04933,0.23395 0.495089,0 z m 34.888294,-3.15025 c 0.199149,-0.11136 0.770817,-0.37941 1.270372,-0.59568 1.424674,-0.61677 1.476802,-0.75208 0.960153,-2.49241 -0.244933,-0.82505 -0.514589,-1.5429 -0.599237,-1.59522 -0.08465,-0.0523 -0.672196,0.16791 -1.305659,0.48939 -0.633468,0.32148 -1.396824,0.67737 -1.696356,0.79086 -0.63367,0.24012 -0.64588,0.33821 -0.237282,1.90693 0.169026,0.64894 0.268528,1.32823 0.221115,1.50954 -0.06811,0.26044 0.03043,0.3149 0.469298,0.25935 0.305532,-0.0387 0.718448,-0.16141 0.917596,-0.27276 z m -23.402216,-0.0183 c 0.261162,-0.11223 0.294889,-0.17391 0.09902,-0.18109 -0.163378,-0.006 -0.430727,0.0755 -0.594105,0.18109 -0.362005,0.23394 -0.04934,0.23394 0.495087,0 z m 42.082617,-0.24348 c 0,-0.11591 -0.12583,-0.0967 -0.29705,0.0454 -0.16338,0.13559 -0.29705,0.27738 -0.29705,0.31508 0,0.0377 0.13367,0.0172 0.29705,-0.0454 0.16337,-0.0627 0.29705,-0.20448 0.29705,-0.31509 z m -39.607165,-0.39383 c 0,-0.19003 -0.177306,-0.17875 -0.693129,0.0441 -0.341774,0.14767 -0.321414,0.16699 0.14853,0.14092 0.299526,-0.0166 0.544599,-0.0999 0.544599,-0.18506 z m 39.346375,-0.58804 c -0.0632,-0.15798 -0.11014,-0.11105 -0.11964,0.11964 -0.009,0.20877 0.0382,0.32573 0.10401,0.25993 0.0658,-0.0658 0.0728,-0.23661 0.0156,-0.37957 z m -0.19804,-0.99018 c -0.0632,-0.15798 -0.11014,-0.11105 -0.11964,0.11965 -0.009,0.20876 0.0382,0.32572 0.10401,0.25992 0.0658,-0.0658 0.0728,-0.23661 0.0156,-0.37957 z m -30.632796,-0.35894 c 0.163379,-0.10559 0.20794,-0.19197 0.09902,-0.19197 -0.108921,0 -0.331709,0.0864 -0.495093,0.19197 -0.163378,0.10558 -0.207934,0.19197 -0.09901,0.19197 0.108916,0 0.331709,-0.0864 0.495087,-0.19197 z m 1.134579,-0.31769 c -0.0658,-0.0658 -0.236614,-0.0728 -0.37957,-0.0156 -0.157978,0.0632 -0.111054,0.11014 0.119649,0.11964 0.208764,0.009 0.32573,-0.0382 0.259921,-0.10401 z m 1.24185,-0.27642 c 0.362005,-0.23394 0.04934,-0.23394 -0.495087,0 -0.261157,0.11223 -0.294889,0.17391 -0.09902,0.18108 0.163379,0.006 0.430727,-0.0755 0.594107,-0.18108 z m 19.662566,-1.08044 c 0.567699,-0.19862 1.11684,-0.4378 1.220316,-0.53151 0.103475,-0.0937 0.339005,-0.17037 0.523405,-0.17037 0.61413,0 0.58091,-0.60878 -0.11548,-2.116016 -0.568003,-1.229376 -0.751478,-1.468039 -1.039013,-1.351551 -0.192053,0.0778 -0.616538,0.233633 -0.943295,0.346276 -0.326763,0.112643 -0.678771,0.281759 -0.782246,0.375815 -0.10347,0.09406 -0.326264,0.173842 -0.495087,0.177306 -0.168824,0.0034 -0.471999,0.13133 -0.673718,0.28415 -0.352575,0.267095 -0.35354,0.318595 -0.02504,1.33044 0.427202,1.31582 1.164668,2.68387 1.240946,2.30202 0.03138,-0.15698 0.521499,-0.44793 1.089198,-0.64656 z m -10.94899,-1.49403 c 0.163384,-0.10558 0.207939,-0.19196 0.09902,-0.19196 -0.108915,0 -0.331708,0.0864 -0.495087,0.19196 -0.163378,0.10559 -0.207939,0.19198 -0.09902,0.19198 0.108921,0 0.331708,-0.0864 0.495087,-0.19198 z m 1.881341,-0.5941 c 0.261162,-0.11222 0.294889,-0.17391 0.09902,-0.18109 -0.163378,-0.006 -0.430727,0.0755 -0.594105,0.18109 -0.362005,0.23394 -0.04934,0.23394 0.495087,0 z M 70.796561,99.793993 c 1.573956,-0.468366 2.014973,-0.590311 4.653838,-1.286815 1.30704,-0.344979 2.643782,-0.70288 2.970539,-0.795336 0.326758,-0.09246 0.816899,-0.226633 1.089199,-0.298168 1.329961,-0.349391 3.310186,-0.932415 3.663664,-1.078667 0.217836,-0.09013 0.721445,-0.306632 1.119124,-0.48112 0.39768,-0.174483 0.860281,-0.317243 1.027999,-0.317243 0.167724,0 0.352911,-0.07761 0.411534,-0.172461 0.05862,-0.09485 0.353506,-0.224455 0.6553,-0.288007 0.670327,-0.141159 0.711514,-0.177081 5.6418,-4.920249 2.188434,-2.105374 5.09481,-4.897345 6.458627,-6.20438 1.363811,-1.307038 3.712935,-3.5795 5.220285,-5.049916 l 2.74063,-2.673484 -0.92106,-0.990179 c -0.50657,-0.544599 -1.85833,-1.953667 -3.0039,-3.131264 l -2.08285,-2.141084 -0.910348,0.870237 c -0.50069,0.478631 -1.979742,1.899385 -3.286777,3.157234 -1.307035,1.257848 -2.822009,2.708326 -3.366608,3.223287 -0.5446,0.514958 -2.766126,2.642059 -4.93672,4.72689 -2.170599,2.084832 -4.318284,4.147066 -4.772633,4.582745 -11.393639,10.925452 -14.314083,13.811547 -13.856916,13.693967 0.217842,-0.056 0.88621,-0.247721 1.485273,-0.425987 z M 105.1792,97.385982 c -0.16754,-0.309158 -0.30818,-0.49946 -0.31255,-0.422896 -0.0134,0.235396 0.44732,1.154861 0.53483,1.067351 0.0453,-0.0453 -0.0547,-0.335296 -0.22228,-0.644455 z M 73.172989,94.452341 c 0,-0.113676 -0.177093,-0.31727 -0.393537,-0.452446 -0.362954,-0.226667 -0.44759,-0.138415 -1.089193,1.13564 -0.382618,0.759769 -0.695667,1.447414 -0.695667,1.528104 0,0.08069 0.490142,-0.337344 1.089199,-0.928963 0.599057,-0.591613 1.089198,-1.16867 1.089198,-1.282335 z m 3.206592,-2.876416 1.338668,-1.287236 -0.885874,-0.945927 -0.885873,-0.945934 -0.715141,0.648878 c -0.393323,0.35688 -1.055808,1.325391 -1.472187,2.152237 l -0.757046,1.503355 0.522509,0.522509 0.522504,0.52251 0.496889,-0.441578 c 0.273282,-0.242868 1.099281,-1.020836 1.835551,-1.728814 z m 15.758028,1.197665 c 0.189134,-0.103723 1.012247,-0.497833 1.829146,-0.875797 0.816893,-0.37797 1.663499,-0.824966 1.881336,-0.993335 0.37088,-0.286642 0.32326,-0.306515 -0.748683,-0.312414 -1.132546,-0.0062 -1.157892,0.0063 -2.376428,1.178892 -1.174172,1.129853 -1.342238,1.41773 -0.585371,1.002654 z m -11.73278,-5.057205 1.766481,-1.681143 -0.878772,-0.895399 c -0.483321,-0.492471 -0.942952,-0.872187 -1.021391,-0.843816 -0.07845,0.02841 -0.912286,0.798868 -1.852976,1.712208 l -1.710351,1.66062 0.848285,0.864339 c 0.466553,0.475384 0.900923,0.864334 0.965261,0.864334 0.06434,0 0.911898,-0.756513 1.883463,-1.681143 z m 4.328877,-4.161721 c 1.935451,-1.85005 1.895291,-1.673281 0.667044,-2.936227 -0.300054,-0.30853 -0.624094,-0.531399 -0.720098,-0.495268 -0.096,0.03613 -0.941504,0.790592 -1.878894,1.676578 l -1.704344,1.610881 0.840156,0.909756 c 0.462085,0.50037 0.884717,0.91086 0.939175,0.912207 0.05445,0.0011 0.890095,-0.753723 1.856961,-1.677927 z m 5.501438,-5.303478 c 0.309669,-0.303284 0.563034,-0.618915 0.563034,-0.701401 0,-0.08249 -0.378745,-0.520466 -0.841649,-0.973289 l -0.841655,-0.823314 -1.732816,1.662959 c -0.953046,0.914624 -1.73281,1.731049 -1.73281,1.814271 0,0.08322 0.375578,0.534006 0.834621,1.001737 l 0.834626,0.850421 1.176805,-1.139979 c 0.647244,-0.626988 1.430175,-1.388121 1.739844,-1.691405 z m 3.417226,-3.279695 1.686948,-1.65273 -0.817517,-0.872227 c -0.449633,-0.479726 -0.872501,-0.872229 -0.939702,-0.872229 -0.0672,0 -0.917124,0.75824 -1.888718,1.684976 l -1.766531,1.684976 0.875011,0.891569 c 0.481255,0.490363 0.939932,0.868354 1.019286,0.839981 0.07935,-0.02838 0.903399,-0.795315 1.831223,-1.704316 z m -12.2934,-4.102113 c 0.297684,-1.710564 0.515896,-3.127833 0.484909,-3.149484 -0.03099,-0.02165 -0.471594,-0.266454 -0.979143,-0.544005 l -0.922811,-0.504637 -2.302823,2.351418 c -1.996409,2.038534 -2.275467,2.402531 -2.097235,2.735561 0.113075,0.211278 0.205588,0.616004 0.205588,0.899391 v 0.515248 l 0.739094,-0.502229 c 1.462498,-0.993791 2.436651,-0.561926 2.72079,1.206195 l 0.131336,0.81726 0.73952,-0.3573 0.739527,-0.357298 z M 98.065962,70.759035 99.689723,69.1532 98.875395,68.284377 c -0.447877,-0.477855 -0.878901,-0.868825 -0.957829,-0.868825 -0.07893,0 -0.91695,0.741074 -1.862277,1.646831 l -1.718776,1.64683 0.755789,0.828146 c 0.415688,0.455479 0.889466,0.828002 1.052844,0.82783 0.163379,-1.75e-4 1.027746,-0.722944 1.920816,-1.606154 z"
       id="path996" /><path
       style="display:inline;fill:#000000;stroke-width:0.198036"
       d="m 39.209842,154.3817 c -0.21784,-0.0716 -0.752537,-0.31748 -1.188216,-0.54645 -0.435679,-0.22897 -1.371398,-0.47145 -2.079376,-0.53886 -2.649021,-0.25219 -7.376247,-1.73056 -10.376026,-3.24495 -1.339852,-0.6764 -1.387347,-0.68498 -2.538814,-0.45844 -1.300803,0.25592 -2.066724,0.15172 -3.020211,-0.41085 -0.711965,-0.42006 -0.967168,-0.8787 -1.53039,-2.75029 -1.290316,-4.28775 0.0022,-15.54617 2.717551,-23.67144 2.100986,-6.28684 3.329625,-8.39224 5.588732,-9.5769 0.852123,-0.44684 0.533129,-0.77373 -0.891161,-0.91321 -0.735208,-0.072 -2.317019,-0.35093 -3.515136,-0.61985 -1.198117,-0.26892 -2.802207,-0.62646 -3.564646,-0.79454 -1.461948,-0.32229 -4.034184,-1.0335 -5.817405,-1.60849 -1.809115,-0.58335 -2.631255,-1.82685 -2.316631,-3.50393 0.24431,-1.30229 1.651484,-3.77099 2.822079,-4.95097 1.073083,-1.08168 1.163673,-1.130244 1.891417,-1.013873 0.420397,0.06722 0.916417,0.206491 1.102267,0.309483 0.185853,0.10299 1.050844,0.52969 1.922202,0.94822 1.388971,0.66717 5.173989,2.89149 5.445986,3.20042 0.05446,0.0619 0.544598,0.4683 1.089196,0.90322 1.474649,1.17764 3.362986,3.08341 3.778697,3.81358 0.302888,0.532 0.485558,0.64361 1.053355,0.64361 0.377806,0 1.071159,0.18601 1.540786,0.41335 l 0.853865,0.41335 0.743436,-0.57814 c 1.519113,-1.18135 7.061386,-4.47437 10.188154,-6.05344 3.424999,-1.72968 7.690693,-3.42599 13.527443,-5.379379 l 3.564645,-1.192977 0.949675,-1.782322 c 0.85685,-1.60811 2.018728,-3.830624 5.487027,-10.495905 1.707156,-3.280772 4.467764,-8.600012 5.937498,-11.440577 l 1.308505,-2.528967 3.852585,-3.873588 c 2.11892,-2.130471 4.002698,-3.955559 4.186179,-4.055752 0.414206,-0.226182 1.12293,0.02666 1.61923,0.577679 0.360664,0.400422 0.348359,0.524739 -0.575642,5.815274 l -0.944188,5.406106 -2.382306,4.653842 c -3.223528,6.297153 -3.675744,7.214272 -3.596373,7.293643 0.08793,0.08793 1.191821,-0.952221 9.317,-8.778912 2.374548,-2.287313 4.690018,-4.515217 5.14549,-4.950896 1.210784,-1.158169 7.634398,-7.313311 7.731323,-7.408196 0.04541,-0.04448 1.308696,1.197558 2.807246,2.760079 1.49855,1.562523 3.81525,3.960491 5.14822,5.32882 l 2.42357,2.487871 -2.23683,2.178394 c -1.23026,1.198117 -4.17003,4.039783 -6.532822,6.314812 -2.362793,2.27503 -4.295987,4.200421 -4.295987,4.278641 0,0.07823 0.556977,0.19578 1.237723,0.261241 3.875046,0.372592 6.883146,2.380397 8.843086,5.902463 1.31025,2.354546 2.01691,4.249108 2.87215,7.700266 1.40251,5.65951 2.01281,10.69879 1.84677,15.24876 -0.14294,3.91704 -0.83542,5.43093 -2.91758,6.37846 -0.49014,0.22304 -1.54376,0.70601 -2.34138,1.07327 -0.79763,0.36726 -1.48206,0.66774 -1.52096,0.66774 -0.0389,0 -0.63394,0.25868 -1.32228,0.57484 -1.84741,0.84852 -7.035155,3.18027 -9.866106,4.43453 -1.361492,0.60322 -4.876648,2.17357 -7.811451,3.48968 -2.934804,1.31611 -5.496897,2.39293 -5.69353,2.39293 -0.19664,0 -0.357526,0.0781 -0.357526,0.17364 0,0.0955 -0.467861,0.37432 -1.039686,0.61958 -1.540432,0.66069 -18.505617,8.26126 -21.501354,9.63282 -0.797623,0.36518 -1.482055,0.66396 -1.520961,0.66396 -0.03891,0 -0.633933,0.25896 -1.322279,0.57545 -0.688347,0.3165 -1.948699,0.89576 -2.800782,1.28724 -0.852083,0.39147 -1.580781,0.71178 -1.619333,0.71178 -0.03855,0 -0.76725,0.32017 -1.619333,0.71149 -0.852083,0.39131 -1.816589,0.82968 -2.143348,0.97414 -0.326759,0.14446 -1.190322,0.53188 -1.919031,0.86094 -1.388166,0.62683 -3.045039,1.23001 -3.286331,1.19637 -0.07788,-0.0108 -0.319838,-0.0783 -0.537677,-0.14989 z m 2.049447,-1.74152 c 1.508678,-0.68199 3.312541,-1.48966 3.693592,-1.65377 1.338859,-0.57663 4.323071,-1.89744 5.24795,-2.32273 1.558102,-0.71647 3.597119,-1.63724 4.059734,-1.83328 0.21784,-0.0923 0.886211,-0.39071 1.48527,-0.66311 2.871713,-1.30582 3.796806,-1.71579 3.871683,-1.71579 0.04475,0 0.862858,-0.36252 1.818015,-0.80561 0.955156,-0.44308 1.914877,-0.88131 2.132719,-0.97384 0.217836,-0.0925 0.88621,-0.39053 1.485267,-0.66222 1.791282,-0.8124 3.835339,-1.73327 4.257769,-1.91817 0.217842,-0.0953 0.841655,-0.36835 1.386254,-0.60666 1.249192,-0.54664 2.976024,-1.31298 3.812189,-1.69177 0.353989,-0.16036 0.643618,-0.3765 0.643618,-0.48031 0,-0.10381 0.175588,-0.18874 0.390202,-0.18874 0.214614,0 0.905263,-0.22944 1.534774,-0.50987 0.629516,-0.28044 1.411925,-0.6292 1.738688,-0.77505 0.8165,-0.36444 2.884522,-1.27512 3.366608,-1.48254 0.65553,-0.28204 2.4699,-1.11045 4.31111,-1.96836 0.955156,-0.44505 1.774205,-0.80919 1.820108,-0.80919 0.04592,0 0.851501,-0.35646 1.790215,-0.79214 0.938714,-0.43568 1.755574,-0.79214 1.815241,-0.79214 0.09865,0 0.81741,-0.32488 3.729764,-1.68581 0.544599,-0.25449 2.326922,-1.05262 3.960714,-1.77362 1.633797,-0.721 3.148767,-1.38977 3.366607,-1.48616 3.94501,-1.74558 4.97509,-2.43853 5.45399,-3.66898 0.35166,-0.90353 0.54213,-5.05246 0.35713,-7.77943 -0.4463,-6.57886 -2.2296,-14.031043 -4.22799,-17.668171 -1.0405,-1.893748 -1.71627,-2.694002 -2.11051,-2.499283 -0.63275,0.312516 -1.88358,1.104429 -3.681376,2.330706 -1.773139,1.209459 -5.233629,3.139116 -5.629434,3.139116 -0.09181,0 -0.544705,0.170009 -1.006425,0.377802 -1.787448,0.80443 -8.753068,3.02296 -12.526967,3.98982 -2.176549,0.55762 -4.269266,1.09713 -4.650486,1.19891 -0.381221,0.10177 -1.361498,0.31579 -2.178397,0.47559 -4.575523,0.89508 -7.213484,1.56899 -10.495899,2.68135 -0.599057,0.20301 -1.445663,0.45701 -1.881339,0.56443 -0.435679,0.10743 -1.148608,0.29648 -1.584287,0.42012 -0.435679,0.12363 -1.32684,0.34712 -1.980358,0.49664 -2.240396,0.51256 -3.565313,0.84968 -4.257771,1.08338 -0.381219,0.12866 -1.183264,0.35266 -1.782323,0.49778 -0.599058,0.14512 -1.579335,0.41058 -2.178394,0.58991 -1.575637,0.47166 -2.074122,0.61408 -4.059735,1.15994 -0.980277,0.26948 -2.584367,0.76987 -3.564645,1.11198 -0.980277,0.34211 -2.584368,0.89328 -3.564645,1.22482 -1.662972,0.56243 -4.653843,1.86592 -4.653843,2.02826 0,0.0397 0.13676,0.39947 0.303912,0.79952 0.864219,2.06837 2.579492,12.56028 3.757919,22.98629 1.041207,9.21198 1.550569,11.8602 2.342651,12.17963 0.66158,0.26681 1.291558,0.22769 2.081131,-0.12925 z m -4.601864,-1.88033 c -0.295058,-1.43445 -1.187887,-8.51652 -1.806416,-14.3288 -0.661424,-6.21534 -2.281973,-16.20752 -2.893749,-17.84265 -0.425678,-1.13772 -1.152224,-1.87148 -2.546537,-2.5718 -1.102632,-0.55382 -1.139229,-0.55958 -1.466749,-0.23079 -0.869108,0.87249 -2.629204,5.71327 -3.981585,10.95055 -1.360654,5.2693 -2.227718,12.23175 -2.033518,16.32896 0.155387,3.27834 0.72756,4.10876 4.111587,5.96733 0.490139,0.2692 1.336742,0.64767 1.88134,0.84105 0.544599,0.19338 1.168412,0.42582 1.386251,0.51653 0.638886,0.26602 2.27165,0.73607 3.762681,1.08322 2.585322,0.60191 2.969993,0.68847 3.36661,0.75758 0.217839,0.0379 0.423881,0.0502 0.457872,0.0272 0.03399,-0.023 -0.07301,-0.69727 -0.237787,-1.49833 z m -14.772694,-3.36506 c -0.798678,-1.10255 -0.982878,-1.84647 -1.121049,-4.52758 -0.1973,-3.82841 0.678914,-10.78434 2.031327,-16.12591 0.600535,-2.37192 3.038713,-9.62536 3.615542,-10.75604 0.227195,-0.44534 0.689315,-1.00641 1.026933,-1.24681 0.430466,-0.30652 0.551449,-0.49949 0.404973,-0.64597 -0.298745,-0.29874 -2.378466,1.36228 -2.93917,2.34744 -0.63531,1.11625 -2.672425,7.40307 -3.493838,10.78246 -1.789317,7.36148 -2.428868,15.32048 -1.48618,18.49501 0.666868,2.24568 0.844554,2.49679 1.766727,2.49679 h 0.7883 z M 33.56582,115.11161 c 0.812343,-0.41725 2.626824,-1.16247 3.113791,-1.27885 0.30243,-0.0723 0.638988,-0.19796 0.747908,-0.27929 0.10892,-0.0813 0.507017,-0.21404 0.884662,-0.29492 0.377642,-0.0809 0.823223,-0.21446 0.990179,-0.29682 0.807166,-0.3982 2.951107,-1.10484 6.046593,-1.99296 0.326759,-0.0937 1.21792,-0.35818 1.980358,-0.58762 0.762438,-0.22944 2.411087,-0.68539 3.663663,-1.0132 1.252577,-0.32781 2.589319,-0.68339 2.970538,-0.79017 0.381219,-0.10678 1.183264,-0.31642 1.782323,-0.46586 0.599058,-0.14944 1.401103,-0.36074 1.782322,-0.46955 0.95604,-0.27289 2.909162,-0.79541 3.861698,-1.03313 0.435678,-0.10872 1.282284,-0.36576 1.881341,-0.57119 1.339285,-0.45926 2.318052,-0.74366 3.861701,-1.12212 0.653515,-0.16021 1.544676,-0.3802 1.98036,-0.48885 0.435678,-0.10865 1.371395,-0.31701 2.079372,-0.46301 2.895166,-0.59705 6.856003,-1.53536 8.713576,-2.06423 0.381221,-0.10854 0.915918,-0.25587 1.188217,-0.32741 1.975089,-0.51887 6.855897,-2.055969 7.822415,-2.463483 0.217842,-0.09185 0.975326,-0.369348 1.683304,-0.616667 2.853462,-0.996798 6.262813,-2.70547 7.255019,-3.636017 0.123612,-0.115927 0.988984,-0.700916 1.923056,-1.299973 0.934064,-0.599057 1.701814,-1.161625 1.706104,-1.250146 0.004,-0.08852 -0.57591,-0.425607 -1.28932,-0.749086 l -1.297117,-0.588139 -0.831769,0.584804 c -0.700029,0.492185 -4.024552,2.221184 -5.386594,2.801435 -0.217842,0.0928 -0.911129,0.396602 -1.540646,0.67511 -0.629516,0.278509 -1.195307,0.506382 -1.257303,0.506382 -0.062,0 -0.438104,0.14276 -0.835783,0.317242 -1.075513,0.471886 -1.392407,0.59277 -2.802435,1.069007 -0.707978,0.239123 -1.510023,0.527095 -1.782322,0.639946 -0.2723,0.112856 -0.67332,0.276094 -0.891162,0.362757 -0.369628,0.147049 -2.334595,0.717359 -4.158751,1.207023 -0.435678,0.116954 -1.014936,0.285851 -1.287235,0.375326 -0.2723,0.08948 -0.806997,0.218387 -1.188212,0.286469 -0.38122,0.06808 -0.915917,0.198183 -1.188216,0.28911 -0.47768,0.15952 -1.671331,0.49657 -3.960714,1.11839 -0.599063,0.16271 -1.534779,0.43496 -2.079379,0.605 -0.544599,0.17005 -1.502596,0.43289 -2.128884,0.5841 -0.626289,0.1512 -1.651127,0.39794 -2.277416,0.54829 -0.975051,0.23409 -3.108769,0.80185 -5.792547,1.54135 -0.696846,0.19201 -1.859047,0.48796 -4.059734,1.03379 -0.653519,0.16209 -1.500122,0.38352 -1.881341,0.49205 -1.080565,0.30765 -1.365334,0.38013 -3.267591,0.83165 -0.980278,0.23268 -2.272462,0.58278 -2.87152,0.77801 -0.599058,0.19523 -2.024916,0.64261 -3.168573,0.99418 -3.22342,0.99091 -5.021599,1.5829 -5.353468,1.76244 -0.166956,0.0903 -0.59626,0.22852 -0.954009,0.3071 -0.357753,0.0786 -0.889524,0.26758 -1.181716,0.42003 -0.292192,0.15244 -0.634093,0.27771 -0.759779,0.27838 -0.530845,0.003 -3.893154,2.09559 -4.594635,2.85978 -0.308194,0.33574 -0.674494,0.50805 -1.08002,0.50805 -0.595967,0 -0.58258,0.0196 0.464529,0.67982 l 1.078184,0.67981 0.694961,-0.42078 c 0.382231,-0.23143 0.828638,-0.48944 0.992017,-0.57336 z m -2.40163,-2.0807 c 0.728508,-0.85288 0.75152,-1.03383 0.217762,-1.71239 -0.280254,-0.35629 -0.672417,-0.55111 -1.298282,-0.64496 -0.768409,-0.11523 -0.965513,-0.0699 -1.377372,0.31706 -0.860177,0.8081 -0.799774,1.62124 0.179348,2.41436 0.726529,0.58851 1.575362,0.44916 2.278544,-0.37407 z m 4.77806,-3.02838 c 0.381219,-0.14669 0.960474,-0.37799 1.287233,-0.514 0.326759,-0.13601 1.084246,-0.40838 1.683305,-0.60526 0.599058,-0.19689 1.178313,-0.41841 1.287233,-0.49228 0.108919,-0.0739 0.509942,-0.19945 0.891161,-0.27907 0.381219,-0.0796 0.782242,-0.20895 0.891162,-0.28742 0.108919,-0.0785 0.732732,-0.30193 1.38625,-0.49658 0.653519,-0.19464 1.722912,-0.53269 2.37643,-0.75121 0.653519,-0.21853 1.455564,-0.47095 1.782323,-0.56096 1.526308,-0.4204 3.064743,-0.82743 4.059735,-1.07409 0.599058,-0.14851 1.445661,-0.37054 1.88134,-0.4934 0.435679,-0.12286 1.322731,-0.3441 1.971228,-0.49164 0.65694,-0.14947 1.300063,-0.42887 1.452278,-0.63094 0.264393,-0.351 2.220516,-4.136049 2.220516,-4.296643 0,-0.04367 -0.378744,0.05445 -0.841653,0.218139 -0.462908,0.163676 -1.242674,0.413853 -1.732813,0.555956 -0.961939,0.278888 -3.218922,1.025628 -3.861699,1.277678 -0.217839,0.0854 -1.198117,0.44369 -2.178394,0.79614 -0.980278,0.35246 -2.094229,0.77614 -2.475448,0.9415 -1.270878,0.55125 -7.013887,3.39884 -8.218488,4.075 -1.338851,0.75153 -5.387613,3.24005 -5.722424,3.51722 -0.120257,0.0996 -0.46372,0.36474 -0.76325,0.5893 -1.015908,0.76164 -0.551039,0.77526 0.693125,0.0203 0.680749,-0.41308 1.549631,-0.87106 1.93085,-1.01775 z m -8.14327,0.56103 0.47129,-0.59601 -0.47129,-0.32363 c -0.259209,-0.17799 -1.047041,-0.86286 -1.750737,-1.52192 -1.308118,-1.22514 -1.385087,-1.29465 -2.220939,-2.00567 -1.723122,-1.46577 -7.443827,-4.76179 -8.471538,-4.88093 -0.364385,-0.0423 -0.644473,0.17098 -1.227578,0.93451 -0.803929,1.05268 -1.819883,3.01132 -2.029248,3.91215 l -0.126573,0.54459 h 1.191899 c 2.112965,0 4.91625,0.54042 7.880441,1.51917 1.590186,0.52507 5.245621,2.32383 5.606735,2.75894 0.338916,0.40837 0.621183,0.32444 1.147538,-0.3412 z M 61.720076,98.685832 c 1.084797,-2.113268 2.692525,-5.223609 3.572723,-6.911864 0.880198,-1.688256 2.177285,-4.183507 2.882417,-5.545005 0.705132,-1.361498 1.795004,-3.455726 2.421938,-4.653842 3.459609,-6.611589 4.179516,-8.069201 4.123172,-8.348362 -0.03413,-0.169152 -0.764473,1.060775 -1.622969,2.733174 -0.858496,1.672397 -2.071845,4.020999 -2.696326,5.219116 -0.624486,1.198117 -1.872359,3.604251 -2.773047,5.346969 -2.231479,4.317622 -3.847841,7.417449 -4.853357,9.307682 -2.60162,4.89069 -3.652313,7.04443 -3.355582,6.87837 0.180765,-0.10116 1.216227,-1.91296 2.301031,-4.026238 z m 0.857996,3.176308 c 0.326757,-0.0902 0.935352,-0.2504 1.352432,-0.35593 0.417075,-0.10554 0.78196,-0.22196 0.810847,-0.25872 0.02891,-0.0368 1.059508,-2.027377 2.290265,-4.42361 2.112106,-4.112197 2.854012,-5.54487 5.845474,-11.288042 4.974173,-9.549693 5.246793,-10.135974 5.246793,-11.283327 0,-0.980259 -0.04334,-1.093914 -0.417081,-1.093914 -0.747626,0 -1.870473,1.111334 -2.646224,2.619096 -0.407672,0.792351 -1.366954,2.643707 -2.131747,4.114123 -2.176101,4.183876 -3.921756,7.552517 -5.695602,10.99099 -2.857577,5.539207 -4.59329,8.874227 -5.297063,10.177864 -0.55229,1.02303 -0.613355,1.23737 -0.317899,1.11588 0.20113,-0.0827 0.633048,-0.22419 0.959805,-0.31441 z m 6.017211,-4.450071 c 2.320707,-4.524102 5.607288,-10.880364 6.755132,-13.064447 0.515184,-0.980277 1.67421,-3.20818 2.575616,-4.950896 0.901406,-1.742715 1.737981,-3.294461 1.859061,-3.448323 0.170468,-0.216639 0.15511,-0.258256 -0.06809,-0.184478 -0.320756,0.106029 -1.216156,1.706095 -4.304738,7.692536 -1.151998,2.232854 -2.516354,4.861782 -3.031897,5.84206 -0.515543,0.980277 -1.807488,3.475529 -2.870988,5.544999 -1.063504,2.069476 -1.999648,3.851799 -2.080327,3.96072 -0.343935,0.464335 -0.962072,2.10331 -0.768986,2.03895 0.116213,-0.0387 0.987059,-1.582743 1.935215,-3.431121 z m 2.399309,2.384966 c 1.529469,-0.459395 1.969043,-0.581222 4.653844,-1.289851 1.30704,-0.344979 2.688338,-0.713956 3.069558,-0.819953 0.381215,-0.105996 1.049589,-0.281539 1.485267,-0.390095 1.615958,-0.402642 5.662279,-1.853734 6.775072,-2.429679 0.369982,-0.191492 2.746882,-2.413782 8.074505,-7.549296 0.564971,-0.544599 2.973363,-2.861619 5.351982,-5.148933 2.37862,-2.287314 4.71029,-4.529547 5.18148,-4.98274 0.47119,-0.453195 0.85671,-0.889177 0.85671,-0.968853 0,-0.07967 -0.70782,-0.867389 -1.57293,-1.750478 -0.86512,-0.883088 -2.18086,-2.251706 -2.92388,-3.041373 -0.74302,-0.789668 -1.41308,-1.43576 -1.48902,-1.43576 -0.0759,0 -0.530344,0.378743 -1.00978,0.841652 -2.085261,2.013381 -8.605688,8.279954 -9.839274,9.456211 -0.742479,0.707979 -3.028646,2.900249 -5.080361,4.87171 -2.05172,1.971462 -4.175979,4.008677 -4.720578,4.527139 -0.911707,0.86796 -7.802745,7.501541 -9.4067,9.055266 -0.381221,0.36928 -0.871357,0.8815 -1.089199,1.138272 l -0.396068,0.466846 0.495087,-0.11146 c 0.272299,-0.0613 0.985228,-0.258691 1.584285,-0.438625 z m 1.924437,-4.876631 0.436779,-0.517227 -0.445744,-0.418753 -0.445743,-0.418753 -0.83388,1.587457 c -0.458638,0.873102 -0.83388,1.640062 -0.83388,1.704349 0,0.15268 1.560186,-1.271225 2.122468,-1.937073 z m 3.097862,-2.922874 1.754709,-1.747597 -0.924034,-0.950755 -0.924029,-0.950761 -0.795214,0.772102 c -0.437362,0.424658 -1.104911,1.386748 -1.483437,2.137973 l -0.688229,1.365865 0.541287,0.564983 c 0.297707,0.310741 0.591456,0.562916 0.652768,0.560384 0.06131,-0.0028 0.901092,-0.79102 1.866179,-1.752194 z m 16.326929,0.753566 c 1.584347,-0.697121 3.822967,-1.842108 3.92528,-2.007659 0.05361,-0.08673 -0.464779,-0.155222 -1.151953,-0.152202 l -1.24941,0.0056 -1.335311,1.281751 c -0.734424,0.704958 -1.286506,1.281745 -1.226861,1.281745 0.05965,0 0.526866,-0.184104 1.038255,-0.40912 z m -11.853658,-5.02949 1.673154,-1.661181 -0.781993,-0.887254 c -0.430093,-0.487992 -0.871104,-0.895635 -0.980025,-0.90588 -0.108921,-0.01022 -0.9884,0.730219 -1.954397,1.645462 -1.226591,1.162148 -1.708318,1.744538 -1.597084,1.930814 0.337277,0.56482 1.573502,1.700415 1.76551,1.621802 0.110925,-0.04541 0.9546,-0.830114 1.874835,-1.743763 z m 4.364563,-4.215636 1.778415,-1.732813 -0.941077,-0.942489 -0.941072,-0.942488 -1.877794,1.771971 -1.877793,1.771974 0.882887,0.903326 c 0.485583,0.496833 0.953787,0.903332 1.04045,0.903332 0.08666,0 0.957856,-0.779765 1.935984,-1.732813 z m 4.340424,-4.159208 1.828147,-1.733269 -0.885077,-0.964031 c -0.48679,-0.530217 -0.980182,-0.905253 -1.096428,-0.83341 -0.116241,0.07184 -0.971262,0.853909 -1.900046,1.737929 l -1.688705,1.60731 0.84074,0.939221 c 0.462405,0.516571 0.893042,0.948287 0.956976,0.959369 0.06393,0.01109 0.938905,-0.75982 1.944393,-1.713119 z m 5.037355,-4.856534 1.192932,-1.143816 -0.869594,-0.886052 c -0.478274,-0.487326 -0.939792,-0.88605 -1.02559,-0.88605 -0.222075,0 -3.524216,3.198863 -3.524216,3.413992 0,0.09814 0.378745,0.56443 0.841654,1.036191 l 0.84165,0.857746 0.675115,-0.624098 c 0.371313,-0.343251 1.211935,-1.138813 1.868049,-1.767913 z m -14.639162,0.0802 c 0.05862,-0.09485 0.35963,-0.223066 0.668907,-0.284921 0.556612,-0.111324 0.567716,-0.142322 1.093319,-3.052296 0.292048,-1.616908 0.530907,-3.070504 0.530795,-3.230215 -1.12e-4,-0.159711 -0.42902,-0.531225 -0.953136,-0.825585 l -0.952939,-0.5352 -2.304113,2.317522 -2.304114,2.317525 0.228699,0.891161 c 0.291576,1.136154 0.2455,1.098055 0.754469,0.623878 0.496491,-0.46255 1.385912,-0.709194 1.93219,-0.535811 0.471369,0.149607 0.826644,0.924322 0.826644,1.802591 0,0.642216 0.240094,0.89837 0.479279,0.511351 z m 18.417624,-3.698498 1.766795,-1.68882 -0.867359,-0.883775 c -0.477051,-0.486077 -0.960204,-0.881622 -1.073677,-0.87899 -0.113468,0.0026 -0.953686,0.74891 -1.86715,1.658392 l -1.660839,1.653601 0.844412,0.916076 c 0.464425,0.503843 0.899896,0.915235 0.967714,0.914205 0.06782,-0.001 0.918359,-0.76184 1.890104,-1.690689 z"
       id="path300" /></g></svg>
