<?xml version="1.0" encoding="UTF-8" standalone="no"?>
<!-- Created with Inkscape (http://www.inkscape.org/) -->

<svg
   inkscape:version="1.2.2 (732a01da63, 2022-12-09)"
   id="svg5"
   version="1.1"
   viewBox="0 0 99.999999 12.971749"
   height="12.971748mm"
   width="100mm"
   xml:space="preserve"
   sodipodi:docname="pencil.svg"
   xmlns:inkscape="http://www.inkscape.org/namespaces/inkscape"
   xmlns:sodipodi="http://sodipodi.sourceforge.net/DTD/sodipodi-0.dtd"
   xmlns="http://www.w3.org/2000/svg"
   xmlns:svg="http://www.w3.org/2000/svg"><sodipodi:namedview
     id="namedview7"
     pagecolor="#f0f0f0"
     bordercolor="#ffffff"
     borderopacity="1"
     inkscape:showpageshadow="0"
     inkscape:pageopacity="0"
     inkscape:pagecheckerboard="0"
     inkscape:deskcolor="#505050"
     inkscape:document-units="mm"
     showgrid="true"
     inkscape:zoom="1.436055"
     inkscape:cx="358.96954"
     inkscape:cy="1.0445282"
     inkscape:current-layer="layer1"><inkscape:grid
       type="xygrid"
       id="grid132"
       dotted="true"
       empspacing="10"
       units="mm"
       spacingx="1"
       spacingy="1"
       originx="17.179387"
       originy="-129.00944" /></sodipodi:namedview><defs
     id="defs2" /><g
     inkscape:label="Layer 1"
     inkscape:groupmode="layer"
     id="layer1"
     transform="translate(17.179386,-129.00945)"><path
       style="display:inline;fill:#e9ddaf;stroke-width:0.171473"
       d="m -10.051349,137.92789 c 0.9846798,0.32053 2.77833,0.91534 3.9858898,1.32181 6.07922446,2.04629 5.34735519,1.9754 6.64966091,0.64412 0.57716149,-0.59 1.29470099,-1.20021 1.59453219,-1.35603 0.6904338,-0.3588 0.6847358,-0.40631 -0.088627,-0.73898 -2.1593116,-0.92888 -2.1130583,-2.90706 0.09159,-3.91706 0.6904957,-0.31633 0.5231962,-0.56691 -0.4937563,-0.73956 -0.4021358,-0.0683 -1.99116101,-1.54797 -2.32891885,-2.16869 -0.37901325,-0.69655 -0.3249688,-0.70136 -3.13804515,0.2789 -1.07947,0.37616 -3.3052069,1.12472 -4.9460832,1.66347 -2.9834094,0.97955 -2.9834094,0.97955 -2.7700964,1.52756 0.314272,0.8074 0.265835,1.78315 -0.115204,2.32076 -0.414046,0.58419 -0.563145,0.4729 1.559058,1.1637 z"
       id="path1722"
       sodipodi:nodetypes="scsssssssssss" /><path
       style="display:inline;fill:#00a000;stroke-width:0.160387;fill-opacity:1"
       d="m -17.095861,135.74466 c -0.07343,-0.71561 0.344932,-1.29861 1.12026,-1.56109 0.342105,-0.11583 2.184995,-0.72285 4.095313,-1.34894 6.3197622,-2.07128 8.5326187,-2.81202 9.6080866,-3.21626 0.5850295,-0.21989 1.51632495,-0.40258 2.06954554,-0.40596 0.55322012,-0.003 1.0689215,-0.0672 1.14599897,-0.14172 0.077077,-0.0746 0.19186369,-0.0821 0.25508329,-0.0167 0.063219,0.0654 0.6051937,0.1185 1.2043884,0.11808 25.9783992,-0.0568 50.2785292,0.0584 76.4281652,0.0331 1.842381,-0.003 1.817416,-0.0251 3.520159,3.14485 0.424193,0.7897 0.431803,0.84601 0.464165,3.43669 0.02723,2.17943 -0.01191,2.3361 -1.073024,4.28717 -1.120548,2.06047 -0.506397,1.88695 -6.7004,1.89314 -18.774787,0.0605 -36.586826,-0.0963 -55.915889,-0.031 -16.9625484,0.0648 -20.00375928,-0.0142 -21.5606905,-0.56033 -0.7449129,-0.26129 -2.1308702,-0.72812 -3.0799001,-1.03742 -0.9490299,-0.30929 -2.49796,-0.81931 -3.4420657,-1.13337 -1.8137927,-0.60337 -4.1049337,-1.35685 -6.3349487,-2.08336 -1.529224,-0.4982 -1.729802,-0.65126 -1.804247,-1.37673 z m 7.306434,2.10617 c 1.0115307,0.33197 2.6510827,0.87256 3.6434471,1.2013 0.9923647,0.32875 2.1608497,0.7047 2.5966312,0.83545 0.4357819,0.13075 1.1432448,0.35016 1.572138,0.48757 1.09590623,0.35112 1.01126809,0.38425 2.49668434,-0.97743 0.74034516,-0.67867 1.49869726,-1.30754 1.68522296,-1.39748 0.3376565,-0.16283 0.3366517,-0.16442 -0.2303049,-0.36273 -2.28185173,-0.79814 -2.36693815,-2.74341 -0.1636001,-3.74041 0.6292265,-0.28473 0.7288555,-0.45337 0.2889522,-0.48914 -0.8723968,-0.0709 -2.97300386,-1.82108 -3.2798452,-2.73264 -0.09438,-0.28039 -0.3563245,-0.22472 -2.4640439,0.52366 -0.6851486,0.24328 -2.752456,0.93409 -4.5940173,1.53515 -3.8196854,1.24667 -3.5485244,1.12002 -3.1904344,1.49021 0.379404,0.39224 0.410162,1.66604 0.05308,2.19842 -0.540427,0.80572 -0.672469,0.68684 1.586087,1.42807 z"
       id="path1303"
       inkscape:label="colorable1303"
       class="colorable"
       sodipodi:nodetypes="sccssssccsscccscssssscscsscssssscss" /><path
       style="display:inline;fill:#000000;stroke-width:0.160387"
       d="m -17.032936,135.97963 c -0.410587,-1.32584 -0.595122,-1.23497 8.6496101,-4.2589 4.1362169,-1.35295 4.5757796,-1.50044 6.48588,-2.17631 0.8175477,-0.28928 1.62639484,-0.37962 3.3228575,-0.37114 3.406458,0.017 13.2967024,0.0287 19.4447644,0.0229 1.834184,-0.002 4.998557,5e-5 7.031943,0.004 2.033386,0.004 5.197781,0.005 7.031993,0.003 1.834212,-0.002 4.892897,-0.002 6.797072,-4.5e-4 4.140388,0.004 8.692557,0.006 13.393521,0.004 1.901024,-4.6e-4 5.168439,0.002 7.260926,0.006 2.092492,0.004 5.355219,0.003 7.25051,-0.002 8.163401,-0.02 10.758602,0.054 11.010405,0.31436 0.259627,0.2684 1.653155,2.66908 1.94773,3.35541 0.09241,0.2153 0.171872,0.84907 0.176578,1.40836 0.0047,0.55929 0.01882,1.52554 0.03132,2.14721 0.03083,1.53347 -0.03082,1.73647 -1.10835,3.64751 -0.992261,1.75985 -1.09732,1.8523 -2.114955,1.86112 -0.91881,0.008 -6.423756,0.005 -9.803439,-0.005 -2.219773,-0.006 -5.384611,-0.008 -7.032969,-0.004 -1.648363,0.005 -4.812938,0.003 -7.032383,-0.004 -2.21945,-0.006 -5.384021,-0.008 -7.032383,-0.004 -1.648363,0.005 -4.812929,0.003 -7.032374,-0.004 -2.219455,-0.006 -5.384025,-0.008 -7.032384,-0.004 -1.648364,0.005 -4.812308,0.002 -7.030989,-0.005 -2.218681,-0.007 -6.836979,-0.0126 -10.262882,-0.0124 -18.22680772,9.1e-4 -18.20506863,0.001 -19.3935997,-0.43102 -0.5531874,-0.20128 -2.0060014,-0.68999 -3.2284694,-1.08602 -1.2224672,-0.39604 -3.503045,-1.15227 -5.0679459,-1.68053 -1.5649,-0.52826 -2.934572,-0.97451 -3.043714,-0.99167 -0.345681,-0.0543 -3.297278,-1.10933 -3.394362,-1.21325 -0.05108,-0.0548 -0.15188,-0.28978 -0.223901,-0.52234 z m 6.388278,1.62232 c 4.6647843,1.56894 7.196545,2.37779 7.8141772,2.49646 0.2710898,0.0521 0.647774,0.18979 0.837079,0.30601 0.8135677,0.49948 1.04945652,0.42512 2.10272475,-0.66283 0.58033989,-0.59945 1.27879355,-1.17543 1.73284205,-1.42898 0.8158195,-0.45558 0.8295142,-0.56938 0.088647,-0.73659 -2.12638608,-0.47993 -2.24082363,-2.64492 -0.1894773,-3.58469 0.7482881,-0.34281 0.8297324,-0.5149 0.3054001,-0.64532 -1.14371982,-0.28446 -2.65749699,-1.5429 -3.1631499,-2.62958 -0.1677564,-0.36052 0.38809289,-0.50873 -6.173132,1.64601 -4.5406649,1.49118 -4.5101229,1.47828 -4.2168089,1.78151 0.427429,0.44189 0.461075,1.61081 0.06534,2.26999 -0.447863,0.746 -0.427497,0.77639 0.796362,1.18801 z m 17.8279516,2.91647 c 3.8390054,0.008 12.5816534,0.009 15.1740424,9.1e-4 0.810264,-0.002 4.126116,-1.4e-4 7.368562,0.005 3.242446,0.005 6.444179,0.006 7.11496,0.001 0.670781,-0.005 2.735598,-0.003 4.588485,0.003 4.035071,0.0128 14.579265,0.0182 16.65964,0.009 0.815343,-0.004 4.019695,-9.1e-4 7.120792,0.006 3.101094,0.007 6.300035,0.0104 7.108758,0.007 0.808728,-0.003 2.845827,0.004 4.526892,0.0168 3.301799,0.0245 3.088127,0.13205 4.297088,-2.16232 0.08036,-0.15251 -2.279644,-0.22104 -7.050868,-0.20473 -0.445648,0.002 -3.611578,10e-4 -7.035397,-4.6e-4 -3.423816,-0.002 -6.692371,-0.003 -7.26345,-0.003 -2.383566,4.5e-4 -12.648783,-0.004 -13.604374,-0.006 -0.569733,-9.1e-4 -3.579007,-0.002 -6.68727,-0.003 -8.110129,-4.5e-4 -17.463048,-0.01 -22.43571,-0.022 -5.734259,-0.014 -7.0915092,-0.0395 -7.1836007,-0.13472 -0.055328,-0.0572 -0.1661915,-0.042 -0.2463583,0.0337 -0.080142,0.0757 -1.4218257,0.11608 -2.9814606,0.0897 -3.2186456,-0.0545 -3.9860692,0.17656 -5.505257,1.65724 -0.76318628,0.74385 -0.76318628,0.74385 0.7770946,0.7214 0.8471606,-0.0124 3.2130004,-0.0189 5.2574307,-0.0146 z M 2.573511,136.95059 c 0.4638328,0.117 5.88317,0.24229 6.0004818,0.13873 0.018472,-0.0163 1.6588712,-0.0215 3.6453362,-0.0116 1.986466,0.01 6.05504,0.0144 9.041273,0.01 2.986233,-0.005 6.790868,-0.005 8.454745,-9.1e-4 1.663875,0.004 3.841913,0.006 4.840089,0.004 0.998171,-0.002 4.161395,-0.001 7.029395,4.2e-4 2.867999,0.002 6.032173,0.004 7.031505,0.005 0.999331,2.3e-4 4.164074,0.002 7.032751,0.004 2.868681,0.002 6.033642,0.003 7.033256,0.003 0.999609,-2.7e-4 4.203678,9.1e-4 7.120151,0.003 2.916469,0.002 5.913867,10e-4 6.660887,-9.1e-4 0.74702,-0.002 2.196923,0.001 3.222005,0.007 1.86379,0.0112 1.86379,0.0112 1.83161,-1.51978 -0.03214,-1.53088 -0.03214,-1.53088 -3.003309,-1.53518 -7.27231,-0.0105 -14.040584,-0.0151 -15.47306,-0.0104 -0.856402,0.003 -4.020949,10e-4 -7.032315,-0.004 -3.01137,-0.005 -6.175531,-0.006 -7.031483,-0.003 -0.855937,0.003 -3.071168,0.002 -4.922719,-0.004 -4.742386,-0.0132 -14.988415,-0.0205 -16.178722,-0.0115 -1.390827,0.0105 -7.235942,9e-4 -14.957506,-0.0252 -3.6035804,-0.0119 -6.6156588,0.006 -6.6935037,0.0406 -0.077846,0.0344 -0.2126281,-0.011 -0.2995117,-0.10079 -0.086886,-0.0898 -0.2139438,-0.10917 -0.2823544,-0.043 -0.068408,0.0662 -0.5868317,0.11263 -1.1520494,0.10323 -3.2951066,-0.0548 -4.77863471,2.22833 -1.9169514,2.95014 z m -0.4480205,-4.27313 c 0.4818048,0.17362 1.1761285,0.32662 1.5429424,0.33999 0.5842684,0.0213 8.4685451,0.0318 11.8668251,0.0158 0.671945,-0.003 3.684366,-0.003 6.694264,-4e-5 3.0099,0.003 6.172888,0.003 7.028866,-1.4e-4 0.855977,-0.003 4.019201,-0.003 7.029381,4.1e-4 3.010188,0.004 6.174404,0.005 7.031601,0.003 0.857188,-0.002 4.022113,-4e-5 7.03316,0.004 3.011048,0.005 6.175554,0.006 7.032247,0.003 0.856679,-0.002 2.972885,-0.003 4.702669,-9e-4 17.139944,0.0188 18.930464,0.0117 19.025338,-0.0757 0.04333,-0.04 -0.156078,-0.47303 -0.443201,-0.96234 -0.287133,-0.48932 -0.590651,-1.02465 -0.674487,-1.18962 -0.132677,-0.26109 -7.224786,-0.44747 -11.990773,-0.31512 -0.312911,0.009 -3.437832,0.008 -6.94426,-4.5e-4 -3.506437,-0.009 -6.636109,-0.009 -6.95483,4.5e-4 -0.318721,0.009 -3.381907,0.009 -6.807086,-0.001 -3.425175,-0.0101 -6.619015,-0.0113 -7.097424,-0.003 -0.478404,0.008 -3.749988,0.004 -7.270186,-0.0104 -3.520201,-0.0143 -6.791785,-0.0188 -7.270192,-0.0104 -0.478404,0.008 -3.63696,0.009 -7.019006,0.002 -3.382047,-0.007 -7.490971,-0.011 -9.1309374,-0.008 -1.6399708,0.003 -4.5527148,4.5e-4 -6.4727705,-0.005 -2.35821449,-0.007 -3.47909504,0.0638 -3.45429531,0.21732 0.0714067,0.44209 1.63357401,1.66873 2.54215471,1.99618 z"
       id="path1305" /></g></svg>
