<?xml version="1.0" encoding="UTF-8" standalone="no"?>
<!-- Created with Inkscape (http://www.inkscape.org/) -->

<svg
   width="100mm"
   height="24.836174mm"
   viewBox="0 0 100 24.836174"
   version="1.1"
   id="svg5"
   inkscape:version="1.2.2 (732a01da63, 2022-12-09)"
   xml:space="preserve"
   sodipodi:docname="ruler.svg"
   xmlns:inkscape="http://www.inkscape.org/namespaces/inkscape"
   xmlns:sodipodi="http://sodipodi.sourceforge.net/DTD/sodipodi-0.dtd"
   xmlns="http://www.w3.org/2000/svg"
   xmlns:svg="http://www.w3.org/2000/svg"><sodipodi:namedview
     id="namedview7"
     pagecolor="#f0f0f0"
     bordercolor="#ffffff"
     borderopacity="1"
     inkscape:showpageshadow="0"
     inkscape:pageopacity="0"
     inkscape:pagecheckerboard="0"
     inkscape:deskcolor="#505050"
     inkscape:document-units="mm"
     showgrid="true"
     inkscape:zoom="5.74422"
     inkscape:cx="24.807546"
     inkscape:cy="43.260878"
     inkscape:current-layer="layer1"><inkscape:grid
       type="xygrid"
       id="grid132"
       dotted="true"
       empspacing="10"
       units="mm"
       spacingx="1"
       spacingy="1"
       originx="-2.3199145"
       originy="-117.96532" /></sodipodi:namedview><defs
     id="defs2" /><g
     inkscape:label="Layer 1"
     inkscape:groupmode="layer"
     id="layer1"
     transform="translate(-2.3199144,-117.96531)"><path
       style="display:inline;fill:#ffff00;stroke-width:0.168149;fill-opacity:1"
       d="m 2.362508,118.31461 c 0.1160077,-0.10418 1.4717549,-0.18118 2.9551956,-0.16785 2.2729651,0.0204 3.9401018,-0.0353 4.051646,-0.1355 0.076894,-0.0691 0.2073425,-0.0591 0.2898835,0.0222 0.082544,0.0812 1.3003519,0.13174 2.7062479,0.11221 1.405895,-0.0195 2.890473,-0.0281 3.299061,-0.0189 0.408587,0.009 1.54304,0.007 2.521005,-0.004 0.977965,-0.0113 1.945521,-0.0183 2.150124,-0.0156 1.595886,0.0212 2.644363,0.0219 4.288033,0.003 1.044142,-0.012 2.062244,-0.0163 2.262446,-0.01 0.200203,0.007 1.215168,0.0105 2.255479,0.009 1.040311,-0.002 2.116852,-0.002 2.392313,-0.001 0.27546,0.001 0.942455,2.4e-4 1.482209,-0.002 2.102389,-0.009 4.587804,-0.009 4.936441,9.5e-4 0.201182,0.006 1.781081,0.004 3.510886,-0.003 1.729806,-0.008 3.201811,-0.008 3.271123,4.4e-4 0.06931,0.008 0.583617,0.0103 1.142903,0.005 1.521465,-0.0138 4.754288,-0.023 5.175491,-0.0147 0.203207,0.004 1.169012,9.5e-4 2.146237,-0.006 0.977226,-0.007 1.941701,-0.009 2.143282,-0.004 0.352057,0.009 2.88375,0.01 4.93717,4e-4 0.539754,-0.002 1.206748,-0.003 1.482209,-0.002 0.27546,0.001 1.351999,4.8e-4 2.392312,-10e-4 1.040309,-0.002 2.056076,9.5e-4 2.257257,0.007 0.201181,0.006 1.781082,0.004 3.510886,-0.003 1.729805,-0.008 3.202261,-0.007 3.272118,0.001 0.06986,0.009 0.927997,0.007 1.906977,-0.003 0.978979,-0.0102 1.946223,-0.0152 2.14943,-0.0112 0.203207,0.004 1.222024,0.004 2.264039,9.5e-4 3.508289,-0.0118 3.913134,-0.0122 4.282851,-0.004 0.202692,0.004 1.218544,0.007 2.257452,0.007 1.038912,-9.5e-4 2.15362,-3.3e-4 2.477131,9.5e-4 2.348214,0.009 4.159672,0.005 5.210229,-0.01 2.630014,-0.0382 2.595576,-0.0484 3.848687,1.14282 l 1.124913,1.06937 0.321208,1.64328 c 0.176663,0.90381 0.34262,1.66713 0.368788,1.69627 0.08022,0.0893 2.920899,15.87209 2.913729,16.18863 -0.009,0.38037 -1.69806,2.57525 -2.16626,2.81435 -0.195785,0.1 -0.827879,0.17231 -1.404653,0.16073 -0.576775,-0.0116 -1.900448,-0.0189 -2.941495,-0.0163 -1.041048,0.003 -2.058259,9.6e-4 -2.260469,-0.004 -0.202215,-0.005 -1.222653,-0.004 -2.267647,0.002 -1.945891,0.0115 -3.620119,0.0111 -4.277031,-9.5e-4 -0.203421,-0.004 -1.169403,-9.5e-4 -2.146623,0.007 -0.977226,0.007 -1.943688,0.011 -2.147701,0.008 -1.114045,-0.0177 -3.050688,-0.0218 -4.393679,-0.009 -0.839166,0.008 -1.750905,0.013 -2.02609,0.0115 -0.752527,-0.004 -3.951346,-0.002 -5.066445,0.003 -0.539754,0.002 -1.206752,0.003 -1.482213,0.002 -0.275461,-0.001 -1.351999,-4.8e-4 -2.392313,10e-4 -1.040309,0.002 -2.056723,-4.8e-4 -2.258696,-0.006 -0.201972,-0.005 -1.729523,-0.006 -3.394552,-0.002 -1.665029,0.004 -3.192575,0.002 -3.394548,-0.002 -0.201972,-0.005 -1.218387,-0.008 -2.2587,-0.006 -1.040309,0.002 -2.116623,0.002 -2.391803,9.6e-4 -0.27518,-10e-4 -1.186919,0.004 -2.02609,0.0115 -1.342991,0.0125 -3.279633,0.008 -4.393678,-0.009 -0.204012,-0.003 -1.170475,2.2e-4 -2.1477,0.008 -0.977223,0.007 -1.941699,0.009 -2.14328,0.004 -0.201582,-0.005 -1.217929,-0.008 -2.25855,-0.006 -1.040622,0.002 -2.309204,-3.3e-4 -2.81907,-0.006 -0.509868,-0.005 -2.050125,0.005 -3.422794,0.0228 -1.37267,0.018 -2.563297,-0.0339 -2.645838,-0.11509 -0.08254,-0.0813 -0.212606,-0.0916 -0.289036,-0.0229 -0.108513,0.0975 -4.237998,0.17403 -6.424201,0.11913 -0.201973,-0.005 -1.219409,-0.007 -2.260968,-0.004 -1.041559,0.003 -2.058673,0.001 -2.260256,-0.004 -0.20158,-0.005 -1.166057,-0.004 -2.14328,0.004 -0.977224,0.007 -1.942306,0.01 -2.144628,0.005 -0.202322,-0.005 -1.217876,-0.008 -2.256786,-0.007 -1.03891,9.6e-4 -2.153618,3.4e-4 -2.47713,-9.5e-4 -0.323512,-0.001 -1.394986,-0.005 -2.3810536,-0.009 -2.2620991,-0.008 -2.4106002,-0.0158 -2.4958761,-0.12586 C 5.7905616,135.78512 3.3004706,123.02593 2.362508,118.31461 Z"
       id="path302"
       inkscape:label="colorable302"
       class="colorable"
       sodipodi:nodetypes="cccccccccccscccccscccscccccscccccscsccscccccccsccsccscsccccsscccccsscsccccc" /><path
       style="display:inline;fill:#000000;stroke-width:0.168149"
       d="m 5.3743406,135.27181 c -0.6821252,-3.86221 -1.4453089,-8.05843 -1.6959613,-9.32493 -0.8277796,-4.18261 -1.3326531,-7.05141 -1.2908608,-7.33493 0.059935,-0.40662 0.2316948,-0.42042 4.721116,-0.37942 0.5639735,0.005 1.3543062,-0.012 1.7562939,-0.0381 0.4019883,-0.0261 1.1111446,-0.033 1.5759036,-0.0153 0.853254,0.0325 3.403373,0.0339 5.662587,0.003 0.675403,-0.009 1.286056,-0.009 1.357005,9.5e-4 0.07095,0.01 1.49553,0.0107 3.165732,0.002 1.670202,-0.009 3.09353,-0.009 3.16295,-9.5e-4 0.06942,0.008 1.54277,0.007 3.274112,-0.003 1.731342,-0.01 3.258304,-0.008 3.393248,0.004 0.134945,0.0119 1.043531,0.0101 2.019082,-0.004 0.97555,-0.014 1.941129,-0.0232 2.145733,-0.0205 1.595886,0.0212 2.644363,0.0219 4.288032,0.003 1.044143,-0.012 2.062245,-0.0162 2.262447,-0.01 0.200202,0.007 1.21619,0.01 2.257748,0.006 1.041559,-0.003 2.05919,-0.001 2.261403,0.003 0.202211,0.005 1.222651,0.004 2.267644,-0.002 1.908584,-0.0113 3.588213,-0.0111 4.277746,4.6e-4 0.203813,0.003 1.735067,0.001 3.402794,-0.005 1.667722,-0.006 3.142333,-0.002 3.276908,0.01 0.134579,0.0114 1.042863,0.009 2.018416,-0.005 0.975547,-0.014 1.939264,-0.0215 2.141585,-0.0167 0.202324,0.005 1.218954,0.007 2.259182,0.005 1.040227,-0.002 2.05822,-9.5e-4 2.262208,0.002 0.203984,0.003 1.225875,9.6e-4 2.270865,-0.005 1.885347,-0.0112 3.565505,-0.0112 4.278179,7e-5 0.204051,0.003 1.225995,9.5e-4 2.270989,-0.005 1.908583,-0.0113 3.588212,-0.0111 4.277746,4.5e-4 0.203807,0.003 1.734976,9.6e-4 3.402593,-0.005 1.667617,-0.006 3.088858,-0.005 3.158319,0.003 0.06946,0.008 1.18863,0.009 2.487045,9.5e-4 1.298416,-0.007 3.296131,-0.004 4.439371,0.007 l 2.078611,0.021 1.167796,1.04065 1.167801,1.04065 0.313792,1.30393 c 0.172588,0.71717 0.936082,4.76685 1.696659,8.9993 0.76057,4.23244 1.46545,7.97347 1.56638,8.31339 0.10094,0.33992 0.13286,0.79369 0.0709,1.00838 -0.14902,0.51663 -1.64535,2.39772 -2.08008,2.61495 -0.298341,0.14907 -1.480585,0.21233 -3.543123,0.18958 -0.689858,-0.008 -1.889342,-0.007 -4.497354,0.001 -1.042015,0.003 -2.060832,0.003 -2.264039,-9.6e-4 -0.203207,-0.004 -1.170451,9.6e-4 -2.149431,0.0113 -0.978979,0.0102 -1.83712,0.0114 -1.906977,0.003 -0.06986,-0.009 -1.542313,-0.009 -3.272117,-0.001 -1.729805,0.008 -3.311212,0.0107 -3.514232,0.007 -0.629063,-0.0128 -2.293505,-0.0135 -4.276302,-0.002 -1.044994,0.006 -2.065432,0.007 -2.267642,0.002 -0.202216,-0.005 -1.219846,-0.006 -2.261404,-0.003 -1.041557,0.003 -2.058673,10e-4 -2.260254,-0.004 -0.201581,-0.005 -1.166061,-0.004 -2.143282,0.004 -0.977225,0.007 -1.944174,0.0114 -2.148777,0.009 -1.595888,-0.0212 -2.644362,-0.0219 -4.288032,-0.003 -1.044141,0.012 -2.062243,0.0163 -2.262447,0.01 -0.200199,-0.007 -1.21619,-0.01 -2.257748,-0.006 -1.041557,0.003 -2.058349,9.5e-4 -2.259525,-0.005 -0.201186,-0.006 -1.781082,-0.004 -3.510886,0.003 -1.729809,0.008 -3.201903,0.007 -3.271322,-4.7e-4 -0.06942,-0.008 -1.490631,-0.01 -3.158247,-0.003 -1.667616,0.006 -3.197279,0.007 -3.399253,0.002 -0.201973,-0.005 -1.218388,-0.008 -2.258699,-0.006 -1.040311,0.002 -2.154908,9.5e-4 -2.47688,-0.002 -0.321974,-0.003 -1.226923,-0.004 -2.010997,-0.002 -0.784075,0.002 -1.652679,0.004 -1.930233,0.005 -0.974096,0.002 -4.284172,-2.3e-4 -4.867424,-0.004 -0.562893,-0.003 -2.37506,0.001 -4.832039,0.0131 -0.626138,0.003 -1.303807,0.001 -1.505931,-0.004 -0.202124,-0.005 -1.731998,-0.004 -3.399723,0.002 -1.667724,0.006 -3.1424,0.001 -3.277056,-0.01 -0.253215,-0.0217 -3.7583085,-0.0275 -5.0359898,-0.008 -0.3986093,0.006 -0.7962306,-0.0803 -0.8836038,-0.19166 -0.087373,-0.11138 -0.7169636,-3.3625 -1.3990898,-7.22471 z m 2.7131555,4.76667 c 0.1103621,-0.16724 0.1202339,-0.60429 0.021935,-0.97123 -0.098296,-0.36693 -0.15335,-0.72384 -0.1223406,-0.79312 0.03101,-0.0693 -0.015243,-0.20571 -0.1027807,-0.30319 -0.087539,-0.0975 -0.1028636,-0.22779 -0.034056,-0.28959 0.068808,-0.0618 0.06968,-0.17407 0.00195,-0.2495 -0.067744,-0.0754 -0.6084161,-2.82922 -1.2014944,-6.11951 -0.5930792,-3.29029 -1.1363737,-6.04699 -1.2073209,-6.12599 -0.070947,-0.079 -0.072698,-0.1942 -0.00389,-0.25599 0.068809,-0.0618 0.049271,-0.1968 -0.043417,-0.30001 -0.092688,-0.10322 -0.1122255,-0.23822 -0.043417,-0.30001 0.068809,-0.0618 0.068787,-0.17507 -4.79e-5,-0.25172 -0.068835,-0.0767 -0.2368331,-0.77334 -0.3733286,-1.5482 -0.1364966,-0.77486 -0.3666686,-1.54078 -0.5114932,-1.70205 -0.1710075,-0.19043 -0.064301,0.75036 0.3043839,2.68361 0.3122368,1.63726 1.0046335,5.40935 1.5386599,8.38242 0.5340266,2.97308 1.0159439,5.45569 1.0709274,5.51692 0.054984,0.0612 0.074598,0.168 0.043589,0.23728 -0.03101,0.0693 0.046659,0.52383 0.1725982,1.0101 0.1259392,0.48628 0.2225574,1.06056 0.2147052,1.27618 -0.017431,0.47884 0.018332,0.49232 0.2748464,0.1036 z m 2.2888839,1.2127 c 0.0761,0.0145 0.939387,0.0124 1.918423,-0.005 0.979036,-0.0171 1.890174,-0.0217 2.024752,-0.0103 0.134576,0.0114 1.102115,0.0135 2.150086,0.005 1.047969,-0.009 2.01704,-0.0147 2.153489,-0.0129 0.136449,0.002 0.986179,0.001 1.888288,-9.5e-4 1.925051,-0.005 2.519576,-0.005 3.744849,-4.8e-4 0.499427,0.002 1.763041,-0.002 2.808033,-0.008 1.044993,-0.006 2.068782,-0.0103 2.275088,-0.009 0.206305,9.5e-4 1.057634,-4.8e-4 1.89184,-0.004 0.834208,-0.003 1.743018,-0.006 2.019579,-0.006 0.27656,2.5e-4 1.354001,-9.5e-4 2.394313,-0.003 1.040311,-0.002 2.05692,3.7e-4 2.259133,0.005 0.202211,0.005 1.222651,0.004 2.267644,-0.002 1.982798,-0.0117 3.647241,-0.0111 4.276303,0.002 0.203021,0.004 1.784424,9.6e-4 3.514229,-0.007 1.729806,-0.008 3.202258,-0.007 3.272119,0.001 0.06986,0.009 0.927998,0.007 1.906977,-0.003 0.97898,-0.0102 1.946224,-0.0152 2.149431,-0.0112 0.601098,0.0117 3.855732,9.6e-4 5.181678,-0.0169 0.675401,-0.009 1.286785,-0.008 1.358629,0.003 0.07184,0.0108 1.54666,0.011 3.277365,4.3e-4 1.730706,-0.0106 3.204268,-0.0118 3.274582,-0.003 0.07032,0.009 1.543881,0.008 3.274586,-0.003 1.730706,-0.0106 3.203891,-0.0122 3.273752,-0.004 0.06986,0.009 0.928875,0.006 1.908932,-0.005 0.980056,-0.0111 2.051028,-0.008 2.379939,0.008 0.328911,0.0154 1.453081,0.0175 2.498146,0.005 1.644934,-0.0201 2.681082,-0.0197 4.289715,0.001 0.204603,0.003 1.170184,-0.007 2.145731,-0.0205 0.975553,-0.014 1.884137,-0.0157 2.019084,-0.004 0.134942,0.0119 1.662912,0.0146 3.395486,0.006 1.732574,-0.008 3.56305,-0.009 4.067733,-2.8e-4 1.541088,0.0254 2.036476,-0.0487 2.378486,-0.35579 0.30498,-0.27389 0.23614,-0.29571 -0.976478,-0.3096 -0.717527,-0.008 -1.471507,-0.0176 -1.675519,-0.0208 -0.204013,-0.003 -1.170475,2.1e-4 -2.147701,0.008 -0.97722,0.007 -1.9417,0.009 -2.143277,0.004 -0.201586,-0.005 -1.218697,-0.007 -2.260259,-0.004 -1.041558,0.003 -2.059188,0.001 -2.261403,-0.003 -0.202211,-0.005 -1.222648,-0.004 -2.267643,0.002 -1.885347,0.0112 -3.5655,0.0112 -4.278179,-7e-5 -0.204051,-0.003 -1.225994,-9.5e-4 -2.270984,0.005 -2.068039,0.0122 -3.697525,0.011 -4.274528,-0.003 -0.202039,-0.005 -1.221648,4.7e-4 -2.265789,0.0126 -1.64367,0.0188 -2.692144,0.0181 -4.288031,-0.003 -0.204604,-0.003 -1.171553,9.5e-4 -2.148778,0.009 -0.97722,0.007 -1.941696,0.009 -2.143277,0.004 -0.201581,-0.005 -1.218697,-0.007 -2.260254,-0.004 -1.041563,0.003 -2.059193,0.001 -2.261404,-0.003 -0.202215,-0.005 -1.222653,-0.004 -2.267647,0.002 -1.885347,0.0112 -3.5655,0.0111 -4.278179,-6e-5 -0.204051,-0.003 -1.225995,-9.6e-4 -2.270984,0.005 -1.945895,0.0115 -3.620119,0.0111 -4.277033,-9.5e-4 -0.20342,-0.004 -1.1694,-9.6e-4 -2.146623,0.007 -0.977224,0.007 -1.943031,0.0103 -2.146237,0.006 -0.203207,-0.004 -1.222058,-0.004 -2.264114,-9.5e-4 -2.096094,0.007 -4.798448,-0.007 -4.991354,-0.0266 -0.0683,-0.007 -0.925627,9.5e-4 -1.905167,0.0176 -0.979542,0.0165 -2.296419,0.004 -2.926396,-0.0275 -0.629979,-0.0316 -1.171827,-0.0339 -1.204109,-0.005 -0.04893,0.044 -4.173899,0.0807 -4.563074,0.0406 -0.06848,-0.007 -1.488917,-0.008 -3.156532,-0.001 -1.667616,0.006 -3.197279,0.007 -3.399253,0.002 -0.201973,-0.005 -1.21941,-0.007 -2.260969,-0.004 -1.041558,0.003 -2.058673,10e-4 -2.260255,-0.004 -0.201581,-0.005 -1.16888,-0.001 -2.149553,0.009 -0.980672,0.0106 -1.9126616,-0.003 -2.0710863,-0.0313 -0.1994718,-0.035 -0.3870665,0.0873 -0.6100577,0.39776 l -0.322012,0.44833 0.8086804,-0.0488 c 0.444775,-0.0268 0.8709416,-0.0369 0.9470386,-0.0224 z m 0.217968,-1.83536 c 0.668042,0.0172 2.014951,0.0223 2.993133,0.0112 0.97818,-0.0111 1.945912,-0.0179 2.150516,-0.0152 1.595886,0.0212 2.644363,0.0219 4.288032,0.003 1.044143,-0.012 2.063749,-0.0176 2.26579,-0.0126 2.535349,0.0629 6.047752,-0.007 6.176857,-0.12301 0.07689,-0.0691 0.211432,-0.0458 0.29897,0.0517 0.08754,0.0975 0.22799,0.14932 0.312116,0.11521 0.08413,-0.0341 0.599086,-0.0559 1.144358,-0.0483 0.545272,0.008 1.846398,0.009 2.891389,0.002 1.044993,-0.006 2.065433,-0.007 2.267644,-0.002 0.202213,0.005 1.219845,0.006 2.261403,0.003 1.041559,-0.003 2.057547,-1.9e-4 2.257748,0.006 0.200202,0.007 1.218305,0.002 2.262447,-0.01 1.64367,-0.0188 2.692146,-0.0181 4.288033,0.003 0.204603,0.003 1.172988,-0.003 2.151967,-0.0135 0.978982,-0.0102 1.837118,-0.0114 1.906979,-0.003 0.06986,0.009 1.542308,0.009 3.272118,0.001 1.729804,-0.008 3.311207,-0.0107 3.514227,-0.007 0.629063,0.0128 2.293505,0.0135 4.276307,0.002 1.044989,-0.006 2.065432,-0.007 2.267642,-0.002 0.202211,0.005 1.219846,0.006 2.261403,0.003 1.041558,-0.003 2.058673,-0.001 2.260255,0.004 0.201581,0.005 1.166056,0.004 2.143282,-0.004 0.97722,-0.007 1.94303,-0.0103 2.146237,-0.006 0.421198,0.008 3.654026,-9.6e-4 5.175491,-0.0147 0.559286,-0.005 1.073592,-0.003 1.142901,0.005 0.06931,0.008 1.541317,0.008 3.271126,4.3e-4 1.729805,-0.008 3.311207,-0.0107 3.514227,-0.007 0.629063,0.0128 2.293506,0.0135 4.276302,0.002 1.044994,-0.006 2.065437,-0.007 2.267647,-0.002 0.202211,0.005 1.219841,0.006 2.261403,0.003 1.041558,-0.003 2.058674,-0.001 2.260255,0.004 1.147343,0.0309 3.789697,-0.0132 3.846467,-0.0642 0.0746,-0.067 -0.40261,-2.89963 -0.5083,-3.01733 -0.037,-0.0412 -0.421748,-2.05511 -0.854982,-4.47534 -0.433234,-2.42022 -0.825449,-4.44244 -0.871583,-4.49381 -0.09289,-0.10344 -1.918783,-0.10336 -2.033973,8e-5 -0.0399,0.0358 0.01606,0.49517 0.124332,1.02079 l 0.196838,0.95569 -0.585707,-0.0315 -0.585707,-0.0315 -0.230289,-0.96915 -0.230285,-0.96915 -1.132944,-0.0201 c -1.555621,-0.0276 -2.651716,-0.0306 -6.306619,-0.0172 -1.731035,0.006 -3.313447,0.008 -3.516468,0.004 -0.629062,-0.0128 -2.293505,-0.0135 -4.276302,-0.002 -1.044994,0.006 -2.065432,0.007 -2.267642,0.002 -0.202215,-0.005 -1.219846,-0.006 -2.261403,-0.003 -1.041558,0.003 -2.058673,10e-4 -2.26026,-0.004 -0.201576,-0.005 -1.165022,-0.005 -2.140989,0.002 -0.975962,0.006 -2.027005,0.009 -2.335649,0.007 -0.308645,-0.002 -0.595583,0.0263 -0.637647,0.0641 -0.04204,0.0378 -0.0019,0.45943 0.08905,0.93703 0.09103,0.47759 0.11765,0.91134 0.05914,0.96388 -0.05851,0.0525 -0.361357,0.0738 -0.67299,0.0473 l -0.566608,-0.0482 -0.145232,-0.92944 c -0.07987,-0.51119 -0.228021,-0.9665 -0.329217,-1.0118 -0.101196,-0.0453 -0.643481,-0.0649 -1.205089,-0.0435 -0.561603,0.0213 -1.878907,0.0348 -2.927348,0.0298 -1.04844,-0.005 -2.019069,-0.009 -2.156961,-0.01 -0.137893,-4.6e-4 -1.105742,0.004 -2.15078,0.0105 -1.045032,0.006 -2.065512,0.007 -2.267723,0.002 -0.202211,-0.005 -1.219841,-0.006 -2.261403,-0.003 -1.041558,0.003 -2.059188,0.001 -2.261403,-0.003 -0.202211,-0.005 -1.222649,-0.004 -2.267643,0.002 -1.945891,0.0115 -3.620117,0.0111 -4.277031,-9.5e-4 -0.203419,-0.004 -1.168175,-0.002 -2.143902,0.004 -0.975725,0.006 -2.084521,0.0103 -2.463991,0.009 -0.379471,-9.6e-4 -0.728348,0.0326 -0.775282,0.0747 -0.04693,0.0421 -0.0063,0.4633 0.09031,0.9359 0.0966,0.47259 0.13153,0.89888 0.07762,0.94729 -0.05391,0.0484 -0.33702,0.0677 -0.629124,0.0428 l -0.531099,-0.0452 -0.155948,-0.92767 c -0.08577,-0.51021 -0.195696,-0.96471 -0.244281,-1.00999 -0.04859,-0.0453 -0.547927,-0.0634 -1.109652,-0.0403 -0.561723,0.0231 -1.539982,0.0372 -2.173909,0.0312 -0.633926,-0.006 -2.004333,-0.009 -3.045347,-0.006 -1.041016,0.002 -2.058202,9.6e-4 -2.260415,-0.004 -0.202211,-0.005 -1.222687,-0.004 -2.267723,0.002 -1.045035,0.006 -2.012034,0.0101 -2.148885,0.009 -1.311657,-0.0135 -4.177637,-0.0288 -4.546601,-0.0243 -0.545595,0.007 -3.519088,0.0137 -4.245796,0.0101 -0.275323,-10e-4 -1.350731,-0.002 -2.389793,-9.5e-4 -1.039063,9.5e-4 -2.141635,-4.8e-4 -2.450159,-0.003 -0.308524,-0.002 -0.594904,0.0258 -0.636399,0.0632 -0.0415,0.0374 0.01958,0.493 0.135735,1.01246 l 0.21118,0.94448 -0.614778,0.0392 c -0.3381268,0.0216 -0.6559583,-3.6e-4 -0.7062912,-0.0487 -0.050329,-0.0484 -0.16498,-0.50479 -0.2547712,-1.01421 l -0.1632555,-0.92622 -0.998709,-0.0636 c -0.5492887,-0.035 -1.0337708,-0.0321 -1.0766261,0.006 -0.042855,0.0385 -0.019685,0.29551 0.051489,0.57117 0.071174,0.27567 0.5733457,2.94908 1.1159371,5.94093 0.5425914,2.99185 1.0161107,5.47266 1.0522645,5.51293 0.036153,0.0403 0.6123146,0.0873 1.2803574,0.10451 z m -1.0625791,-5.42055 c -0.130913,-0.27131 -0.2158958,-0.83346 -0.1888498,-1.24923 0.1691421,-2.60023 3.0763659,-2.60759 3.2772999,-0.008 0.09661,1.24969 -0.08122,1.9534 -0.614654,2.43244 -0.799418,0.71789 -1.786744,0.24898 -2.4737961,-1.1749 z m 1.8345041,0.30261 c 0.353893,-0.31781 0.35788,-1.86589 0.0058,-2.25793 -0.409526,-0.45603 -0.971552,-0.32545 -1.078092,0.25048 -0.187709,1.01471 0.579118,2.45032 1.072277,2.00745 z m 26.224395,-0.85002 c -0.04185,-0.41567 0.02693,-0.43953 1.504223,-0.52168 0.313294,-0.0174 0.621858,-0.12348 0.685698,-0.23568 0.07542,-0.13254 -0.284549,-0.22838 -1.027768,-0.27362 -1.255565,-0.0764 -1.486976,-0.27927 -1.615967,-1.41646 -0.08307,-0.73235 0.06722,-0.85809 1.024033,-0.8567 0.426918,4.8e-4 1.087642,-9.5e-4 1.468277,-0.003 0.887062,-0.006 1.082381,0.0566 1.207805,0.38447 0.172784,0.45175 -0.262697,0.63694 -1.373152,0.58395 -1.367502,-0.0653 -1.773702,0.24081 -0.449163,0.33844 1.177742,0.0868 1.767228,0.43749 1.870442,1.11271 0.101848,0.6663 -0.513347,1.17354 -1.656353,1.36569 -1.116804,0.18774 -1.584803,0.0512 -1.638075,-0.47785 z m 27.559118,0.0108 c -0.382653,-1.4963 -0.420908,-2.56 -0.102359,-2.84606 0.38149,-0.34259 0.697027,0.23417 0.967211,1.76794 0.252139,1.43134 0.193946,1.72062 -0.34036,1.69191 -0.354636,-0.0191 -0.379984,-0.0487 -0.524492,-0.61379 z m 1.728146,-0.42192 c -0.282949,-0.65626 -0.319846,-1.10795 -0.137611,-1.68472 0.279536,-0.88475 0.471966,-0.99963 1.534186,-0.91592 1.167644,0.092 1.652484,0.55373 1.690629,1.60997 0.02064,0.57165 -0.08173,0.84549 -0.486046,1.30018 -0.428405,0.48176 -0.608962,0.57566 -1.10363,0.57389 -0.589678,-0.002 -1.297615,-0.41972 -1.497528,-0.8834 z m 1.426265,-0.14527 c 0.48046,-0.0187 0.779304,-0.76056 0.452848,-1.12408 -0.245747,-0.27366 -0.980214,-0.44188 -1.173082,-0.26868 -0.115872,0.10406 0.08066,1.04019 0.264579,1.26022 0.06692,0.0801 0.271962,0.1397 0.455655,0.13254 z m 25.439207,0.55716 c 0.03041,-0.10363 -0.03708,-0.82093 -0.149971,-1.59401 -0.160666,-1.10016 -0.140018,-1.44922 0.09502,-1.60639 0.500197,-0.33447 0.706669,0.0421 0.941148,1.71662 0.176486,1.26035 0.159909,1.65745 -0.07812,1.87121 -0.214136,0.1923 -0.383897,0.20283 -0.582766,0.0362 -0.154342,-0.12935 -0.255728,-0.31997 -0.225309,-0.4236 z m 1.723689,-0.0393 c -0.131167,-0.36135 0.262568,-0.55019 0.94673,-0.45408 0.359393,0.0505 0.675254,0.0175 0.701912,-0.0734 0.06473,-0.22052 -0.625354,-0.56454 -1.243091,-0.6197 -0.665039,-0.0594 -0.749634,-0.18881 -0.768294,-1.1755 -0.01911,-1.01027 0.205671,-1.16558 1.558447,-1.07673 0.783141,0.0514 0.928627,0.11306 0.939747,0.3981 0.01754,0.44965 -0.05754,0.49713 -0.811735,0.51331 -1.104265,0.0237 -1.052507,0.36168 0.08853,0.57813 0.867074,0.16448 1.24751,0.59143 1.235041,1.38606 -0.01254,0.79919 -0.504735,1.10609 -1.623661,1.01239 -0.80379,-0.0673 -0.884714,-0.10594 -1.023626,-0.48863 z m -87.5560635,-7.16679 1.056458,-0.016 -0.4424619,-2.42955 c -0.4861694,-2.66956 -0.4449408,-2.6118 -1.8369298,-2.5732 -0.624294,0.0173 -0.7537217,0.0718 -0.7105704,0.29911 0.02902,0.15287 0.2176313,1.24858 0.4191349,2.43492 0.2015037,1.18634 0.3869669,2.18933 0.4121417,2.22887 0.025176,0.0395 0.5211768,0.0647 1.1022275,0.0559 z m 4.4015275,-0.007 c 1.024363,0.002 2.319321,-1e-5 2.877685,-0.004 0.558363,-0.004 1.071887,0.0177 1.141167,0.0487 0.06928,0.031 0.169929,0.0169 0.223664,-0.0314 0.05373,-0.0483 0.613649,-0.0665 1.244254,-0.0405 0.630607,0.026 2.000864,0.0359 3.04502,0.0221 1.643289,-0.0217 2.664738,-0.0218 4.288054,-2.7e-4 0.204604,0.003 1.170183,-0.006 2.145733,-0.0205 0.97555,-0.014 1.883836,-0.016 2.018414,-0.005 0.134576,0.0114 1.608789,0.0162 3.276026,0.0106 1.667237,-0.006 3.495936,-0.004 4.063772,0.004 0.920028,0.0131 1.027641,-0.022 0.988431,-0.32264 -0.130312,-0.99906 -0.816997,-4.53787 -0.894217,-4.60832 -0.04967,-0.0453 -0.418617,-0.0696 -0.819885,-0.0539 l -0.729581,0.0285 0.218942,1.16459 c 0.120418,0.64052 0.166719,1.21148 0.102894,1.26879 -0.06383,0.0573 -0.336161,0.0924 -0.605187,0.0779 l -0.489137,-0.0263 -0.185583,-0.89329 c -0.102071,-0.49131 -0.213185,-1.04305 -0.246919,-1.22608 -0.04875,-0.26448 -0.205925,-0.34366 -0.765806,-0.38578 -0.387458,-0.0291 -0.745158,-0.0165 -0.794889,0.0282 -0.04973,0.0447 0.07486,0.97519 0.276874,2.06785 0.202012,1.09266 0.370214,2.02747 0.373783,2.07735 0.0036,0.0499 -0.297936,0.0809 -0.67001,0.0689 l -0.676495,-0.0218 -0.363546,-2.01975 c -0.199948,-1.11087 -0.391782,-2.0512 -0.426297,-2.08964 -0.09232,-0.10279 -1.259333,-0.10373 -1.373619,-9.5e-4 -0.05378,0.0483 -6.8e-5,0.60755 0.119356,1.24279 0.196627,1.04589 0.181079,1.1613 -0.164607,1.22188 -0.609631,0.10683 -0.925156,-0.19272 -1.045068,-0.99215 -0.227225,-1.51486 -0.23395,-1.52491 -1.043772,-1.55926 -0.405074,-0.0172 -0.75525,0.0327 -0.778175,0.11076 -0.02292,0.0781 0.117955,1.0158 0.313059,2.08378 0.195107,1.06798 0.332201,1.96202 0.304654,1.98676 -0.02754,0.0247 -0.324465,0.0407 -0.659819,0.0354 l -0.609738,-0.01 -0.38519,-2.0828 c -0.367007,-1.98449 -0.405215,-2.08489 -0.80946,-2.12688 -0.968058,-0.10056 -1.073499,0.0424 -0.883835,1.19834 0.09801,0.59736 0.131023,1.12848 0.07335,1.18027 -0.05767,0.0518 -0.33827,0.0743 -0.623554,0.05 l -0.5187,-0.0441 -0.200913,-1.20367 -0.200911,-1.20365 -0.662058,0.002 c -0.364132,0.001 -0.705288,0.0414 -0.758125,0.0889 -0.05284,0.0474 0.07607,1.00488 0.286454,2.12764 l 0.382521,2.04136 -0.688581,-0.037 -0.688578,-0.037 -0.372899,-2.07171 c -0.357951,-1.98868 -0.389806,-2.07241 -0.794837,-2.08923 -1.141383,-0.0474 -1.130354,-0.062 -0.895147,1.18906 0.120787,0.64248 0.196183,1.18919 0.167547,1.21491 -0.141736,0.12728 -0.962153,0.0457 -1.101552,-0.10951 -0.08757,-0.0975 -0.23682,-0.60345 -0.331667,-1.12431 -0.09485,-0.52086 -0.212791,-0.99194 -0.262094,-1.04684 -0.184381,-0.20532 -1.489206,-0.14296 -1.492639,0.0713 -0.0081,0.50661 0.601144,3.46585 0.746998,3.62827 0.238845,0.26597 -0.01581,0.40409 -0.750296,0.40696 l -0.65754,0.002 -0.173263,-0.95147 c -0.09529,-0.52331 -0.121794,-0.99769 -0.05889,-1.05419 0.06291,-0.0565 0.03586,-0.19014 -0.06011,-0.29701 -0.09597,-0.10686 -0.219742,-0.52781 -0.275059,-0.93544 -0.05532,-0.40764 -0.161004,-0.80845 -0.234863,-0.89069 -0.138375,-0.15409 -1.182756,-0.14479 -1.357445,0.0121 -0.054,0.0485 -0.01178,0.56154 0.09382,1.1401 l 0.191997,1.05194 -0.619465,0.0347 -0.619465,0.0347 -0.218355,-1.20869 -0.218355,-1.20869 -0.754672,0.0298 c -0.4150692,0.0164 -0.8011271,0.0688 -0.857908,0.11643 -0.05678,0.0477 -0.018761,0.34129 0.084489,0.65255 0.1032483,0.31125 0.3097619,1.32076 0.4589179,2.24337 0.1491561,0.92259 0.3223151,1.74178 0.3848001,1.82041 0.06248,0.0786 0.951724,0.14451 1.976088,0.14642 z m -6.0500099,-5.98772 c 0.4015846,-0.003 1.6664966,-0.003 2.8109155,-9.5e-4 1.1444184,0.002 2.1045664,-0.0175 2.1336594,-0.0436 0.02909,-0.0261 0.568849,-0.0263 1.199454,-3.1e-4 0.630607,0.026 2.000865,0.0359 3.04502,0.0221 1.643289,-0.0217 2.664738,-0.0218 4.288054,-2.6e-4 0.204604,0.003 1.170183,-0.007 2.145733,-0.0205 0.97555,-0.014 1.883836,-0.0161 2.018414,-0.005 0.134577,0.0114 1.611303,0.0138 3.281615,0.005 1.670311,-0.009 3.093727,-0.009 3.163147,-9.5e-4 0.06942,0.008 1.54277,0.007 3.274112,-0.003 1.731342,-0.01 3.258304,-0.008 3.393248,0.004 0.134945,0.0119 1.043532,0.0101 2.019082,-0.004 0.97555,-0.014 1.939265,-0.0215 2.141586,-0.0167 0.202322,0.005 1.218954,0.007 2.259183,0.005 1.040229,-0.002 2.058221,-9.5e-4 2.262206,0.002 0.203984,0.003 1.225874,9.6e-4 2.270867,-0.005 1.908582,-0.0113 3.588211,-0.0111 4.277744,4.6e-4 0.203812,0.003 1.734981,9.5e-4 3.402598,-0.005 1.667613,-0.006 3.088825,-0.005 3.158243,0.003 0.06942,0.008 1.54054,0.009 3.269153,0.002 1.728613,-0.007 3.405701,-0.008 3.726872,-0.002 0.321166,0.005 1.173387,0.003 1.893822,-0.006 0.720439,-0.009 1.535029,-0.0142 1.810195,-0.0128 0.27517,10e-4 1.350397,0.002 2.3894,10e-4 1.039003,-9.5e-4 2.05599,0.001 2.259978,0.004 0.203984,0.003 1.225871,9.5e-4 2.270865,-0.005 1.908583,-0.0113 3.588212,-0.0111 4.277746,4.6e-4 0.203812,0.003 1.732864,0.003 3.397893,-4.1e-4 1.665029,-0.004 3.194077,-0.004 3.397889,-4.1e-4 0.689534,0.0116 2.369162,0.0118 4.277746,4.5e-4 1.044994,-0.006 2.066938,-0.009 2.270988,-0.005 3.059373,0.0481 3.029326,0.055 2.312919,-0.53494 -0.634453,-0.52248 -0.391547,-0.49878 -4.939349,-0.48178 -1.728389,0.006 -3.199324,0.005 -3.268742,-0.003 -0.06942,-0.008 -1.490631,-0.01 -3.158243,-0.003 -1.667617,0.006 -3.198786,0.008 -3.402598,0.005 -0.689534,-0.0116 -2.369163,-0.0118 -4.277746,-4.6e-4 -1.04499,0.006 -2.065432,0.007 -2.267642,0.002 -0.202211,-0.005 -1.219846,-0.006 -2.261404,-0.003 -1.041557,0.003 -2.057548,1.9e-4 -2.257747,-0.006 -0.200204,-0.007 -1.218306,-0.002 -2.262447,0.01 -1.643671,0.0188 -2.692144,0.0181 -4.288032,-0.003 -0.204603,-0.003 -1.170184,0.006 -2.145736,0.0205 -0.975548,0.014 -1.883832,0.0161 -2.018412,0.005 -0.134575,-0.0114 -1.609185,-0.0158 -3.276912,-0.01 -1.667722,0.006 -3.197475,0.007 -3.399447,0.002 -0.201977,-0.005 -1.219412,-0.007 -2.26097,-0.004 -1.041557,0.003 -2.059191,0.001 -2.261404,-0.003 -0.202211,-0.005 -1.222651,-0.004 -2.267644,0.002 -2.068036,0.0122 -3.697524,0.011 -4.274524,-0.003 -0.202041,-0.005 -1.221647,4.8e-4 -2.26579,0.0126 -1.643669,0.0188 -2.692146,0.0181 -4.288032,-0.003 -0.204604,-0.003 -1.171552,9.5e-4 -2.148776,0.009 -0.977222,0.007 -1.9417,0.009 -2.14328,0.004 -0.201582,-0.005 -1.218697,-0.007 -2.260256,-0.004 -1.041558,0.003 -2.058346,9.5e-4 -2.259527,-0.005 -0.201181,-0.006 -1.782088,-0.005 -3.513124,9.5e-4 -1.731038,0.006 -3.556536,0.009 -4.056663,0.006 -0.500128,-0.003 -1.522382,-0.005 -2.271677,-0.004 -1.652018,0.002 -5.141541,-0.008 -5.996944,-0.0172 -0.632627,-0.007 -3.9365909,-0.008 -4.4020993,-0.002 -0.1405951,0.002 -0.6376303,-0.004 -1.1045207,-0.0129 l -0.8488898,-0.0165 0.5090386,0.56685 c 0.4330289,0.4822 0.6180627,0.56612 1.2391923,0.562 z m 36.1309299,5.96216 c 1.104465,0.002 2.120938,0.005 2.25883,0.005 0.137892,4.6e-4 1.105742,-0.004 2.150777,-0.0105 1.045035,-0.006 2.066962,-0.009 2.270947,-0.005 0.203984,0.003 1.221976,0.004 2.262204,0.002 1.040228,-0.002 2.056862,4.3e-4 2.259182,0.005 0.202325,0.005 1.166037,-0.003 2.14159,-0.0167 0.975547,-0.014 1.883831,-0.0161 2.018411,-0.005 0.134575,0.0114 1.60879,0.0162 3.276026,0.0106 1.667236,-0.006 3.501296,-0.002 4.075688,0.009 0.574391,0.0103 1.081962,-0.0133 1.127934,-0.0524 0.0931,-0.0793 -0.571455,-3.86946 -0.704433,-4.01755 -0.04633,-0.0516 -0.08355,-0.2696 -0.08272,-0.48448 0.0014,-0.35842 -0.0615,-0.39204 -0.760925,-0.40692 -0.419331,-0.009 -0.795253,0.0128 -0.835382,0.0483 -0.04018,0.0354 0.04185,0.44445 0.182178,0.90885 0.140328,0.4644 0.274417,1.08131 0.297972,1.37091 l 0.04285,0.52653 -0.603557,-0.0301 -0.603552,-0.0301 -0.253007,-1.39647 -0.253006,-1.39648 -0.778766,0.009 c -0.428324,0.005 -0.800458,0.0826 -0.826964,0.17292 -0.0265,0.0903 0.102035,0.98985 0.285647,1.99897 l 0.33384,1.83478 -0.641512,-0.0207 c -0.622475,-0.0201 -0.643815,-0.0358 -0.718991,-0.53135 -0.04261,-0.28086 -0.205475,-1.1076 -0.361923,-1.8372 -0.156448,-0.7296 -0.251906,-1.39359 -0.212125,-1.47553 0.0398,-0.0819 -0.312129,-0.1472 -0.782021,-0.14501 l -0.854352,0.004 0.08003,0.54942 c 0.04399,0.30218 0.177592,0.89302 0.296833,1.31297 0.178917,0.63012 0.160228,0.77741 -0.106963,0.84289 -0.783775,0.19208 -0.980643,0.0334 -1.164741,-0.93881 -0.357796,-1.8895 -0.276047,-1.7704 -1.221614,-1.77979 l -0.849294,-0.008 0.09257,0.68221 c 0.05092,0.37522 0.126563,0.72005 0.168102,0.76631 0.143083,0.15933 0.5029,2.35842 0.400884,2.45004 -0.0562,0.0505 -0.329512,0.10339 -0.607346,0.11759 l -0.505159,0.0258 -0.365742,-1.98752 -0.365737,-1.98753 -0.663943,-0.0499 c -0.365169,-0.0275 -0.723242,0.004 -0.79571,0.0708 -0.07246,0.0664 -0.02812,0.69789 0.09852,1.40327 l 0.230285,1.28251 -0.632933,0.0135 -0.632938,0.0135 -0.220718,-1.29811 c -0.121401,-0.71397 -0.269951,-1.35294 -0.330113,-1.41993 -0.06016,-0.067 -0.448977,-0.0945 -0.864032,-0.0612 -0.822174,0.066 -0.81787,0.0564 -0.533658,1.18633 0.07652,0.30419 0.234951,1.04907 0.352076,1.65531 0.19263,0.99706 0.176525,1.10861 -0.168793,1.16913 -0.710215,0.12445 -0.90213,-0.18776 -1.227004,-1.99608 -0.172994,-0.96293 -0.368055,-1.81037 -0.433472,-1.88321 -0.123015,-0.13699 -1.28297,-0.17565 -1.439214,-0.048 -0.04858,0.0397 0.0098,0.59423 0.129783,1.2323 0.119958,0.63808 0.168075,1.20506 0.106929,1.25997 -0.06115,0.0549 -0.335559,0.0798 -0.609809,0.0553 l -0.498634,-0.0445 -0.181343,-0.87033 c -0.09974,-0.47868 -0.210916,-1.05346 -0.247063,-1.27729 -0.05892,-0.36484 -0.145214,-0.40999 -0.83378,-0.4362 l -0.76806,-0.0293 0.341372,1.83624 c 0.187752,1.00994 0.315632,1.92394 0.284173,2.03112 -0.03146,0.10718 -0.30937,0.17997 -0.617581,0.16175 l -0.560383,-0.0331 -0.324012,-1.96901 -0.324014,-1.96902 -0.827376,-0.0223 -0.827377,-0.0223 0.224846,1.31409 0.224845,1.3141 -0.610486,0.0131 -0.610485,0.0131 -0.24379,-1.32115 -0.243791,-1.32114 -0.846147,0.004 -0.846146,0.004 0.203118,0.88107 c 0.111714,0.48458 0.318881,1.5907 0.46037,2.45804 l 0.257251,1.57697 0.739236,0.0142 c 0.406581,0.008 1.64289,0.0162 2.747356,0.0188 z m 26.057044,-0.005 c 0.322744,-0.0213 1.107187,-0.0318 1.743217,-0.0235 0.636027,0.008 2.00713,0.0139 3.046895,0.0123 1.03977,-0.001 2.115637,-0.001 2.390816,-2e-5 0.27518,0.001 1.186338,-0.003 2.024798,-0.0104 0.838456,-0.007 1.787626,-0.0107 2.109274,-0.008 1.400402,0.0125 4.076932,0.01 5.207845,-0.006 0.675402,-0.009 1.286056,-0.009 1.357004,9.5e-4 0.07095,0.01 1.495531,0.0107 3.165731,0.002 1.670201,-0.009 3.092858,-0.01 3.161451,-0.003 0.0686,0.007 0.599506,0.0163 1.179798,0.0203 l 1.055075,0.007 -0.442085,-2.40982 c -0.243144,-1.32539 -0.543181,-2.45696 -0.666741,-2.51457 -0.123564,-0.0576 -0.506355,-0.0875 -0.850658,-0.0665 l -0.625997,0.0383 0.16436,0.48929 c 0.0904,0.26911 0.246801,0.96099 0.347572,1.53751 l 0.183217,1.04821 -0.562362,-0.0126 c -0.309292,-0.007 -0.603581,-0.0585 -0.653971,-0.11465 -0.05039,-0.0561 -0.194813,-0.7346 -0.320942,-1.50775 l -0.229327,-1.40573 -0.668504,-0.0503 c -0.367682,-0.0276 -0.73472,0.009 -0.815644,0.0819 -0.08093,0.0727 0.0033,0.93776 0.187158,1.92241 0.18386,0.98466 0.353487,1.9109 0.376943,2.05832 0.03518,0.22101 -0.04891,0.28204 -0.479154,0.3478 -0.286986,0.0438 -0.572428,0.0234 -0.634305,-0.0455 -0.06188,-0.0689 -0.275065,-1.04241 -0.473749,-2.16334 -0.198683,-1.12094 -0.397009,-2.0779 -0.440722,-2.12658 -0.08484,-0.0945 -1.488676,-0.11045 -1.474325,-0.0168 0.0048,0.0305 0.119418,0.66789 0.254966,1.41626 0.135547,0.74837 0.247539,1.39325 0.248869,1.43306 0.0043,0.13549 -1.025157,0.23011 -1.137902,0.10456 -0.06173,-0.0687 -0.227167,-0.77746 -0.367652,-1.57494 l -0.255418,-1.44997 -0.859919,0.004 -0.85992,0.004 0.404536,2.21866 0.40454,2.21866 -0.631674,-0.0204 -0.631679,-0.0204 -0.390403,-2.16487 -0.390403,-2.16486 -0.758147,-0.0537 c -0.804342,-0.0569 -1.047363,0.0274 -0.820029,0.28441 0.07662,0.0866 0.232668,0.71371 0.346853,1.39358 l 0.207606,1.23614 -0.510107,0.0525 c -0.280561,0.0289 -0.574558,-0.0157 -0.653328,-0.0991 -0.07877,-0.0834 -0.243755,-0.76786 -0.366638,-1.5211 l -0.223421,-1.36952 -0.780463,0.009 c -0.429259,0.005 -0.819295,0.0465 -0.866754,0.0926 -0.08915,0.0867 0.504568,3.3703 0.708366,3.91771 0.148922,0.4 0.09002,0.43985 -0.633152,0.42832 l -0.603938,-0.01 -0.209308,-1.15861 c -0.115123,-0.63724 -0.260675,-1.2158 -0.323449,-1.28571 -0.06278,-0.0699 -0.08877,-0.18379 -0.05776,-0.25307 0.03103,-0.0693 -0.03198,-0.48927 -0.140027,-0.93332 l -0.196405,-0.80735 -0.733176,0.0239 -0.733175,0.0239 0.218088,1.30941 c 0.119951,0.72018 0.247548,1.38466 0.283554,1.47663 0.03599,0.092 -0.200676,0.16417 -0.525965,0.16044 l -0.591431,-0.007 -0.298545,-1.228 c -0.164198,-0.6754 -0.304288,-1.3444 -0.311309,-1.48667 -0.0089,-0.1809 -0.240094,-0.26008 -0.768899,-0.26337 -0.415875,-0.002 -0.786431,0.0195 -0.823466,0.0491 -0.03704,0.0296 0.105996,1.01578 0.317839,2.19149 l 0.38517,2.13765 -0.486528,0.0744 c -0.267591,0.0409 -0.559282,-0.007 -0.648204,-0.10566 -0.176753,-0.19683 -0.550087,-1.72267 -0.811883,-3.31823 l -0.166567,-1.01518 -0.639949,-0.0206 c -0.351967,-0.0113 -0.694939,0.0287 -0.762155,0.0891 -0.06722,0.0604 -0.01711,0.67619 0.111315,1.3685 0.128436,0.69231 0.189065,1.2989 0.134732,1.348 -0.05437,0.049 -0.304011,0.0855 -0.554835,0.0809 -0.532242,-0.01 -0.629157,-0.19459 -0.874328,-1.66758 -0.09363,-0.56252 -0.206066,-1.06267 -0.249869,-1.11145 -0.0438,-0.0488 -0.398659,-0.0877 -0.788571,-0.0866 l -0.708938,0.002 0.252563,1.40461 c 0.138913,0.77254 0.306857,1.55926 0.373211,1.74827 0.06636,0.18901 0.156748,0.61633 0.200871,0.94961 0.105237,0.79488 0.228764,0.90957 0.929942,0.86341 z m 28.778884,-0.0181 c 0.510488,-0.008 0.947216,-0.079 0.970509,-0.1583 0.05762,-0.19632 -0.745043,-4.58292 -0.862531,-4.71376 -0.108536,-0.12086 -1.898907,-0.14294 -2.018258,-0.0249 -0.102569,0.10145 0.710939,4.58453 0.865729,4.77086 0.064,0.0771 0.534058,0.1338 1.044551,0.12608 z"
       id="path300" /></g></svg>
