<?xml version="1.0" encoding="UTF-8" standalone="no"?>
<!-- Created with Inkscape (http://www.inkscape.org/) -->

<svg
   width="100mm"
   height="92.844833mm"
   viewBox="0 0 100 92.844834"
   version="1.1"
   id="svg5"
   inkscape:version="1.2.2 (732a01da63, 2022-12-09)"
   xml:space="preserve"
   sodipodi:docname="sharpener.svg"
   xmlns:inkscape="http://www.inkscape.org/namespaces/inkscape"
   xmlns:sodipodi="http://sodipodi.sourceforge.net/DTD/sodipodi-0.dtd"
   xmlns="http://www.w3.org/2000/svg"
   xmlns:svg="http://www.w3.org/2000/svg"><sodipodi:namedview
     id="namedview7"
     pagecolor="#f0f0f0"
     bordercolor="#ffffff"
     borderopacity="1"
     inkscape:showpageshadow="0"
     inkscape:pageopacity="0"
     inkscape:pagecheckerboard="0"
     inkscape:deskcolor="#505050"
     inkscape:document-units="mm"
     showgrid="true"
     inkscape:zoom="0.7180275"
     inkscape:cx="41.084777"
     inkscape:cy="348.87243"
     inkscape:current-layer="layer1"><inkscape:grid
       type="xygrid"
       id="grid132"
       dotted="true"
       empspacing="10"
       units="mm"
       spacingx="1"
       spacingy="1"
       originx="-19.085807"
       originy="-85.525293" /></sodipodi:namedview><defs
     id="defs2" /><g
     inkscape:label="Layer 1"
     inkscape:groupmode="layer"
     id="layer1"
     transform="translate(-19.085807,-85.525292)"><path
       style="display:inline;fill:#999999;stroke-width:0.206527"
       d="m 57.189987,178.29995 c -0.227179,-0.0573 -0.598927,-0.18595 -0.826107,-0.2859 -1.321219,-0.5813 -5.853198,-2.71436 -10.532863,-4.9575 -1.363076,-0.65338 -3.40769,-1.63051 -4.543588,-2.1714 -1.135897,-0.54089 -3.412854,-1.63047 -5.059904,-2.42127 -1.647051,-0.79081 -3.738134,-1.79087 -4.646852,-2.22236 -1.805921,-0.85754 -5.669077,-2.70736 -8.830673,-4.22847 -2.093659,-1.00731 -2.735922,-1.59414 -3.348013,-3.05909 -0.277407,-0.66392 -0.31618,-3.55122 -0.31618,-23.54445 0,-22.38465 0.0075,-22.80979 0.420938,-24.03421 0.704267,-2.08544 2.537854,-3.52066 6.455891,-5.05325 0.931717,-0.36445 1.78232,-0.74055 1.89023,-0.83578 0.10791,-0.0952 0.340253,-0.17629 0.516317,-0.18015 0.176064,-0.004 0.691864,-0.18657 1.146224,-0.40604 0.454358,-0.21947 0.970158,-0.40219 1.146222,-0.40605 0.176064,-0.004 0.408407,-0.0882 0.516318,-0.18752 0.10791,-0.0993 2.7055,-1.13026 5.772421,-2.29106 3.066922,-1.1608 5.855033,-2.229966 6.195802,-2.375914 0.340769,-0.145954 1.084266,-0.428312 1.652214,-0.62747 0.567948,-0.199157 1.120924,-0.442819 1.228834,-0.54147 0.10791,-0.09866 0.340253,-0.179944 0.516317,-0.180646 0.176064,-5.86e-4 0.586317,-0.140105 0.911672,-0.309786 0.325357,-0.169687 0.683059,-0.308522 0.794895,-0.308522 0.111837,0 0.519429,-0.139403 0.905762,-0.309786 0.386333,-0.170384 1.018516,-0.449195 1.404849,-0.619584 0.386333,-0.170384 0.793926,-0.309786 0.905762,-0.309786 0.111836,0 0.469539,-0.138835 0.794894,-0.308522 0.325357,-0.169681 0.735609,-0.30909 0.911674,-0.309786 0.176064,-5.86e-4 0.408406,-0.08199 0.516316,-0.180646 0.10791,-0.09865 0.660886,-0.342313 1.228834,-0.541471 0.567949,-0.199157 1.311445,-0.481328 1.652214,-0.627042 0.991857,-0.424132 19.527726,-7.471763 20.550525,-7.813635 1.36952,-0.457766 2.928714,-0.746682 5.431334,-1.006421 2.517618,-0.261293 3.707136,-0.132424 7.062417,0.76512 1.135899,0.303855 2.669357,0.69496 3.407689,0.869122 3.547865,0.836888 6.870262,1.65094 7.848018,1.922913 0.39757,0.110587 1.3734,0.350294 2.16853,0.532682 0.79513,0.182387 1.7245,0.417002 2.06527,0.521368 0.34077,0.104364 1.40954,0.381988 2.37506,0.616941 0.9655,0.234955 2.31309,0.564175 2.99463,0.731602 1.14094,0.280282 2.80204,0.671615 4.33706,1.021754 1.41871,0.323607 2.692,1.651761 3.59358,3.748403 l 0.68129,1.584372 -0.03,20.23074 c -0.0328,22.1005 -0.0204,21.85586 -1.23475,24.40123 -0.32515,0.68154 -0.83338,1.49068 -1.12941,1.79809 -0.40902,0.42474 -0.53852,0.77183 -0.53939,1.44569 -0.002,1.22223 -0.35748,2.4131 -0.95958,3.21092 -1.38777,1.83887 -4.78452,2.98839 -7.48471,2.53295 l -1.39637,-0.23553 -1.73958,1.07874 c -0.95677,0.59331 -2.11133,1.28397 -2.56569,1.53482 -1.70172,0.93949 -2.165958,1.23666 -2.167229,1.38734 -5.85e-4,0.0852 -0.233651,0.1549 -0.517619,0.1549 -0.283975,0 -0.51632,0.0814 -0.51632,0.18081 0,0.0995 -5.25057,3.42195 -11.667932,7.38333 l -11.667926,7.20252 -5.85e-4,0.84025 c -0.0029,3.14943 -2.367684,5.34139 -6.196631,5.74431 -0.624742,0.0657 -1.739986,0.0417 -2.478325,-0.0535 -1.237991,-0.15958 -1.436502,-0.12769 -2.551827,0.40994 -0.665172,0.32064 -1.335625,0.68773 -1.489894,0.81577 -0.289691,0.24042 -4.813702,0.46607 -5.561769,0.27741 z"
       id="path996"
       sodipodi:nodetypes="cssssssssssscscssssscsssssscsssssssssssssscssscsscsscsssccscsscc" /><path
       style="display:inline;fill:#ff9f00;stroke-width:0.206527;fill-opacity:1"
       d="m 57.912831,178.23146 c -1.252791,-0.16604 -1.395443,-0.21767 -4.045212,-1.46388 -2.069345,-0.97325 -5.759031,-2.73518 -13.50956,-6.45121 -2.917128,-1.39863 -6.390032,-3.05967 -9.396966,-4.49443 -1.249487,-0.5962 -3.57525,-1.71222 -5.168362,-2.48007 -1.593112,-0.76783 -3.21951,-1.53136 -3.614218,-1.69673 -1.032625,-0.43263 -2.009251,-1.31899 -2.533814,-2.29962 L 19.18907,158.49376 19.129,135.87909 c -0.05436,-20.46508 -0.0278,-22.73115 0.279465,-23.84006 0.843475,-3.04411 2.347327,-4.09766 9.900413,-6.9359 1.590256,-0.59758 2.979664,-1.16654 3.087574,-1.26436 0.10791,-0.0978 0.326207,-0.17785 0.485105,-0.17785 0.158897,0 0.604995,-0.13941 0.991328,-0.30979 l 1.404848,-0.61958 c 0.386334,-0.17038 0.845533,-0.30979 1.020444,-0.30979 0.174912,0 0.37546,-0.0929 0.445663,-0.20652 0.0702,-0.1136 0.27075,-0.20653 0.445662,-0.20653 0.174911,0 0.634111,-0.13941 1.020444,-0.3098 l 1.404849,-0.61957 c 0.386332,-0.17039 0.845532,-0.3098 1.020444,-0.3098 0.174911,0 0.37104,-0.0858 0.435842,-0.19063 0.0648,-0.10486 0.3965,-0.25185 0.73711,-0.32666 0.34061,-0.0748 0.873932,-0.260988 1.185162,-0.413738 0.311227,-0.152739 3.539853,-1.407532 7.174724,-2.788427 3.63487,-1.380889 6.887666,-2.631251 7.228435,-2.778574 0.340769,-0.147329 1.456014,-0.569542 2.478321,-0.938252 1.022307,-0.368708 1.94703,-0.75159 2.054941,-0.850844 0.10791,-0.09926 0.340252,-0.181037 0.516316,-0.181737 0.176064,-6.44e-4 0.586317,-0.140106 0.911673,-0.309791 0.325356,-0.169684 0.683059,-0.308518 0.794895,-0.308518 0.202061,0 1.38409,-0.481628 2.070069,-0.843469 0.197241,-0.10404 0.462005,-0.189164 0.58837,-0.189164 0.126359,0 0.545837,-0.139405 0.932168,-0.30979 0.386337,-0.170385 1.01852,-0.449196 1.404851,-0.61958 0.386331,-0.170385 0.793925,-0.30979 0.90576,-0.30979 0.111841,0 0.469538,-0.138834 0.794897,-0.308519 0.325353,-0.169684 0.73561,-0.309089 0.911673,-0.309789 0.176062,-6.44e-4 0.408407,-0.08199 0.516314,-0.180644 0.107912,-0.09865 0.660886,-0.342315 1.228835,-0.541471 0.567949,-0.199156 1.32549,-0.490189 1.683428,-0.646736 0.357938,-0.15655 0.75418,-0.284636 0.880539,-0.284636 0.126365,0 0.391126,-0.08388 0.588369,-0.186398 0.197243,-0.102518 0.730365,-0.288995 1.184729,-0.41439 3.590279,-0.990868 7.481925,-1.15657 10.119809,-0.430891 0.908716,0.249986 1.977489,0.531792 2.375055,0.626232 0.397565,0.09444 1.141061,0.270185 1.652212,0.390542 0.511157,0.120358 1.254653,0.311007 1.652218,0.423667 0.39756,0.112659 2.488646,0.624979 4.646852,1.138491 2.158204,0.51351 4.202814,1.018768 4.543584,1.122791 0.34077,0.104023 1.31661,0.344565 2.16853,0.534537 0.85193,0.189971 1.7813,0.424148 2.06527,0.520391 0.28397,0.09624 1.21334,0.328587 2.06527,0.516317 0.85192,0.18773 1.78129,0.417676 2.06527,0.510989 0.28397,0.09331 1.25981,0.331806 2.16852,0.529988 0.90873,0.198184 1.93103,0.496011 2.2718,0.661844 0.98054,0.47717 2.01319,1.736331 2.68485,3.273781 l 0.61958,1.418234 0.0623,19.929834 c 0.0563,17.99959 0.0289,20.08984 -0.28364,21.58204 -0.47263,2.25706 -1.02346,3.66116 -1.87276,4.7738 -0.57359,0.75144 -0.7334,1.16891 -0.80057,2.09126 -0.12501,1.7167 -0.88984,3.10772 -2.16678,3.94077 -1.89928,1.23905 -2.33213,1.34948 -5.23767,1.3363 l -2.6576,-0.0121 -2.1201,1.3183 c -1.16606,0.72506 -2.18132,1.31829 -2.25614,1.31829 -0.0748,0 -0.24827,0.10149 -0.38547,0.22554 -0.13719,0.12404 -0.77933,0.51903 -1.426978,0.87774 -1.719671,0.95246 -23.758959,14.59399 -24.109169,14.92271 -0.164249,0.15416 -0.325938,0.76485 -0.361767,1.36639 -0.03565,0.5982 -0.158154,1.37054 -0.272266,1.7163 -0.418746,1.26882 -2.063582,2.60804 -4.010793,3.26557 -1.119044,0.37788 -4.096149,0.46996 -4.931084,0.15252 -0.409964,-0.15586 -0.822397,-0.026 -2.233607,0.70347 -1.465189,0.75735 -1.968501,0.91027 -3.27975,0.99648 -0.851923,0.056 -2.060104,0.0341 -2.684847,-0.0487 z M 59.788,176.00598 c 1.219411,-0.72033 1.222731,-0.75091 1.222731,-11.26109 v -9.58902 l -0.464685,-0.22746 c -0.512671,-0.25094 -1.151081,-0.52609 -3.459322,-1.49095 -1.771058,-0.7403 -1.87719,-0.78638 -3.783522,-1.64271 -0.774655,-0.34797 -1.445696,-0.63268 -1.491198,-0.63268 -0.08164,0 -0.646246,-0.24555 -4.535299,-1.97235 -0.681539,-0.30262 -1.657378,-0.71618 -2.168531,-0.91903 -0.511154,-0.20284 -1.486993,-0.61804 -2.168531,-0.92266 -2.203858,-0.98503 -2.458523,-1.09516 -3.820744,-1.65224 -0.738333,-0.30193 -1.853577,-0.78314 -2.478321,-1.06934 -1.338031,-0.61297 -1.489128,-0.67835 -3.510954,-1.51942 -0.851923,-0.3544 -1.920699,-0.81924 -2.375058,-1.03299 -1.296283,-0.60983 -2.754892,-1.23831 -2.873922,-1.23831 -0.05966,0 -0.645617,-0.23764 -1.302122,-0.52809 -0.656508,-0.29045 -1.379524,-0.60983 -1.606704,-0.70974 -0.227179,-0.0999 -1.017957,-0.45297 -1.757284,-0.7846 -0.739326,-0.33163 -1.552526,-0.66907 -1.807109,-0.74987 l -0.462878,-0.14691 v 10.04072 c 0,8.62176 0.04479,10.12733 0.316936,10.6536 0.248679,0.4809 0.882497,0.88489 2.943006,1.87587 3.009134,1.44722 6.531866,3.13607 9.957769,4.77391 1.306281,0.6245 3.676175,1.76074 5.266431,2.52498 14.711068,7.06976 17.016282,8.15859 17.864561,8.43805 0.681155,0.22441 1.930972,0.11536 2.49475,-0.21767 z m 5.995643,-2.17489 c 1.61576,-1.00566 2.865314,-1.92845 3.016853,-2.22794 0.196119,-0.38759 0.259427,-2.84663 0.261734,-10.16638 0.0018,-5.31032 -0.04525,-9.65513 -0.104324,-9.65513 -0.05905,0 -0.475422,0.23235 -0.925266,0.51632 -0.449845,0.28398 -0.879404,0.51632 -0.954579,0.51632 -0.07518,0 -0.725303,0.37175 -1.44473,0.8261 -0.719426,0.45436 -1.381689,0.82611 -1.471693,0.82611 -0.09001,0 -0.510502,0.2357 -0.934435,0.52377 l -0.770784,0.52376 v 9.50101 c 0,9.08191 -0.01815,9.53659 -0.411556,10.30772 l -0.411554,0.80672 0.696083,-0.29084 c 0.382845,-0.15996 1.937258,-1.06335 3.454251,-2.00754 z m -4.779237,-30.98173 c -0.0035,-5.82147 -0.08879,-11.71889 -0.189586,-13.10538 -0.162526,-2.2357 -0.256388,-2.65809 -0.829673,-3.73369 -1.005119,-1.88579 -1.802272,-2.57398 -3.87457,-3.34495 -1.77494,-0.66034 -2.441618,-0.92877 -3.856812,-1.55291 -0.386333,-0.17039 -0.83243,-0.30979 -0.991328,-0.30979 -0.158898,0 -0.377194,-0.0801 -0.485105,-0.17802 -0.10791,-0.0979 -1.869067,-0.80654 -3.913681,-1.57472 -3.606868,-1.35513 -4.28115,-1.62129 -5.762329,-2.27453 -0.386333,-0.17039 -0.832431,-0.3098 -0.991328,-0.3098 -0.158898,0 -0.377195,-0.0805 -0.485105,-0.17893 -0.10791,-0.0984 -2.23573,-0.94978 -4.728489,-1.89191 -2.492761,-0.94214 -4.769718,-1.83688 -5.059904,-1.98832 -0.290189,-0.15145 -0.671669,-0.27592 -0.847733,-0.27662 -0.176064,-5.9e-4 -0.408407,-0.083 -0.516317,-0.18285 -0.10791,-0.0999 -1.125409,-0.5259 -2.261108,-0.94676 -1.78512,-0.66151 -2.211886,-0.74682 -3.149656,-0.62966 -1.181476,0.14762 -1.619847,0.45606 -1.858667,1.30775 -0.08536,0.30443 -0.155205,5.93364 -0.155205,12.50934 0,10.41514 0.03992,11.97746 0.309791,12.12363 0.313175,0.16964 0.516263,0.25713 3.304427,1.42348 0.851923,0.35638 1.920699,0.82376 2.375057,1.03862 0.454359,0.21486 1.430198,0.63702 2.168531,0.93812 1.741397,0.71018 2.892866,1.20806 5.435736,2.35032 0.774655,0.34798 1.445696,0.63269 1.491198,0.63269 0.08164,0 0.646246,0.24554 4.535299,1.97235 0.681538,0.30261 1.657378,0.71618 2.168531,0.91902 0.868821,0.34479 2.162527,0.91121 4.311198,1.88758 0.49693,0.22581 1.379832,0.59477 1.962004,0.81991 0.582174,0.22514 1.56965,0.6451 2.194394,0.93323 1.221651,0.56344 1.196023,0.55221 3.510954,1.5386 0.851923,0.363 2.060104,0.88655 2.684847,1.16345 0.624744,0.27689 1.461177,0.64033 1.858741,0.80763 0.397564,0.1673 0.862249,0.38725 1.032633,0.48876 0.170385,0.10151 0.379493,0.19004 0.464686,0.19671 0.08519,0.007 0.152049,-4.75087 0.148569,-10.57235 z"
       id="path302"
       sodipodi:nodetypes="csssssscsssssssssssssssssssscsssssssscssssscssssssssssssscscsssscssssssssssscsscsssssssssssssssscssssssssscsssssscsscsscsssssssssssscsssssssssssssssssssssc"
       inkscape:label="colorable302"
       class="colorable" /><path
       style="display:inline;fill:#000000;stroke-width:0.206527"
       d="m 56.67367,177.97396 c -0.903223,-0.37639 -3.57089,-1.63198 -9.913283,-4.66591 -1.419871,-0.6792 -3.603891,-1.72199 -4.853377,-2.3173 -1.249487,-0.59532 -3.479976,-1.66566 -4.956642,-2.37855 -1.476665,-0.7129 -3.52128,-1.68831 -4.543587,-2.1676 -1.022308,-0.47929 -3.15986,-1.49941 -4.750115,-2.26695 -1.590256,-0.76753 -3.541933,-1.69311 -4.337061,-2.05684 -0.795128,-0.36372 -1.670492,-0.77099 -1.945253,-0.90502 -0.274759,-0.13404 -0.763595,-0.60743 -1.086299,-1.05198 -1.251883,-1.72456 -1.208981,-0.83648 -1.192883,-24.69262 0.0094,-13.9256 0.09101,-22.20007 0.226052,-22.91926 0.271435,-1.44552 0.833408,-2.53545 1.755983,-3.40564 0.9982,-0.94154 3.832498,-2.31939 7.921884,-3.85114 1.87423,-0.70202 3.495982,-1.35691 3.603892,-1.45532 0.10791,-0.0984 0.326206,-0.17891 0.485104,-0.17891 0.158898,0 0.604996,-0.13941 0.991329,-0.30979 0.386332,-0.17039 1.018515,-0.4492 1.404848,-0.61958 0.386333,-0.17038 0.845533,-0.30979 1.020444,-0.30979 0.174912,0 0.37104,-0.0858 0.435842,-0.19064 0.0648,-0.10485 0.396501,-0.25184 0.73711,-0.32665 0.34061,-0.0748 0.873933,-0.2602 1.185162,-0.41199 0.311228,-0.15178 3.911602,-1.546214 8.000831,-3.098745 4.089229,-1.552526 7.704818,-2.954215 8.034641,-3.114857 0.329823,-0.160648 0.687526,-0.292083 0.794895,-0.292083 0.185358,0 1.338227,-0.466424 2.019895,-0.817207 0.174115,-0.0896 0.6145,-0.228339 0.978636,-0.308316 0.364135,-0.07998 0.715082,-0.2312 0.779884,-0.336052 0.0648,-0.104849 0.260929,-0.190637 0.435841,-0.190637 0.174912,0 0.634111,-0.139405 1.020445,-0.30979 0.386333,-0.170385 1.018515,-0.449196 1.404848,-0.61958 0.386333,-0.170385 0.793926,-0.30979 0.905762,-0.30979 0.111837,0 0.469539,-0.138834 0.794895,-0.308518 0.325356,-0.169684 0.735609,-0.30909 0.911673,-0.30979 0.176064,-6.44e-4 0.408406,-0.08199 0.516317,-0.180643 0.10791,-0.09865 0.660885,-0.342316 1.228836,-0.541472 0.567944,-0.199155 1.31144,-0.482239 1.652213,-0.629072 1.305204,-0.562399 8.502154,-3.257189 9.190438,-3.441223 2.120135,-0.566882 4.872728,-0.974273 6.637876,-0.98242 1.908999,-0.0088 2.677353,0.13137 6.786358,1.238119 0.397565,0.107084 3.046273,0.755878 5.886013,1.441768 2.839746,0.685887 5.720793,1.397634 6.402323,1.581658 0.68155,0.184021 1.75032,0.452 2.37507,0.595507 0.62474,0.143507 1.69352,0.405305 2.37505,0.581773 0.68154,0.176469 2.54028,0.639641 4.13054,1.02927 1.59025,0.389629 3.12371,0.800665 3.40769,0.91341 0.67876,0.26949 2.27179,1.893176 2.27179,2.315511 0,0.182045 0.0815,0.419285 0.18102,0.527191 0.0996,0.107913 0.35607,0.707358 0.57001,1.3321 0.37367,1.091142 0.38484,1.949617 0.28367,21.788568 l -0.10533,20.65267 -0.58335,1.65222 c -0.3244,0.91881 -0.94321,2.11906 -1.39405,2.70392 -0.6607,0.85711 -0.81092,1.22015 -0.81186,1.962 -0.002,1.40133 -0.3536,2.36235 -1.19338,3.2598 -1.57923,1.68768 -4.2986,2.50207 -7.07163,2.11778 l -1.51769,-0.21032 -3.49124,2.15695 c -1.92018,1.18632 -3.588689,2.15695 -3.707801,2.15695 -0.119106,0 -0.319739,0.12951 -0.445852,0.2878 -0.280292,0.35183 -16.978087,10.65812 -17.267799,10.65812 -0.113561,0 -0.206475,0.0746 -0.206475,0.16588 0,0.0912 -0.463239,0.39328 -1.02942,0.67121 -0.566181,0.27793 -1.030866,0.57503 -1.032634,0.66022 -0.0018,0.0852 -0.142617,0.1549 -0.313001,0.1549 -0.170383,0 -0.309792,0.0929 -0.309792,0.20653 0,0.11358 -0.116172,0.20847 -0.258157,0.21086 -0.14199,0.002 -0.839015,0.37639 -1.548954,0.83111 -1.284147,0.82253 -1.290797,0.83181 -1.291945,1.80278 -0.0018,1.60466 -0.37341,2.54364 -1.416219,3.57942 -1.64284,1.63174 -4.814572,2.42423 -7.444751,1.86016 -0.949486,-0.20363 -1.155507,-0.18611 -1.636637,0.13917 -0.30273,0.20468 -1.078954,0.6236 -1.724945,0.93095 -1.069932,0.50906 -1.382595,0.55758 -3.510954,0.54485 -1.285034,-0.008 -2.56877,-0.1108 -2.852744,-0.22913 z m 3.259655,-1.93796 c 1.074722,-0.75277 1.077406,-0.78069 1.077406,-11.20763 0,-7.5146 -0.05799,-9.7343 -0.258158,-9.88127 -0.141987,-0.10425 -0.81578,-0.4097 -1.497319,-0.67877 -1.071659,-0.42308 -2.3882,-0.98022 -3.924007,-1.66058 -2.328327,-1.03143 -2.811626,-1.23916 -2.883087,-1.23916 -0.0455,0 -0.716542,-0.28471 -1.491197,-0.63268 -2.54287,-1.14227 -3.69434,-1.64014 -5.435735,-2.35032 -0.738334,-0.30111 -1.714173,-0.72365 -2.168531,-0.93898 -1.065963,-0.50518 -2.350427,-1.06202 -4.027271,-1.74587 -0.738333,-0.30111 -1.714172,-0.72365 -2.168531,-0.93898 -1.251474,-0.5931 -2.752088,-1.24118 -2.873923,-1.24118 -0.116204,0 -1.966161,-0.80651 -3.321879,-1.44821 -0.454358,-0.21505 -1.430197,-0.63738 -2.16853,-0.93848 -1.225216,-0.49967 -2.542687,-1.06006 -3.614218,-1.53732 -0.849029,-0.37816 -2.507278,-1.10322 -3.356059,-1.46743 l -0.877739,-0.37663 v 10.29115 c 0,9.98651 0.01225,10.30671 0.414031,10.81749 0.392322,0.49876 1.805425,1.24345 7.537248,3.97206 1.363077,0.64889 3.640034,1.73806 5.059905,2.42037 1.419871,0.68231 3.65036,1.75149 4.956641,2.37596 2.895959,1.3844 6.641427,3.18225 10.223073,4.90714 4.990194,2.40324 7.286067,3.46782 7.951279,3.68697 0.707224,0.233 2.405915,0.12102 2.846601,-0.18765 z m 2.588302,-0.11844 c 2.105993,-1.09355 6.107332,-3.77331 6.35477,-4.25589 0.236952,-0.46214 0.303674,-2.41326 0.353201,-10.32816 0.0336,-5.36712 0.0127,-9.75839 -0.04642,-9.75839 -0.177497,0 -2.852394,1.47007 -3.62514,1.9923 -0.395536,0.26731 -0.789123,0.48602 -0.874637,0.48602 -0.08552,0 -0.621563,0.28679 -1.19122,0.63729 l -1.035735,0.6373 -0.0046,9.43088 c -0.0043,8.9495 -0.02539,9.47684 -0.413054,10.33118 -0.224684,0.49516 -0.408518,0.93661 -0.408518,0.981 0,0.15522 0.443995,0.0787 0.891316,-0.15353 z m 8.991798,-1.68578 c 1.089187,-0.54075 1.888908,-1.4427 1.888908,-2.13036 0,-0.6048 0.17488,-0.68206 -3.097897,1.36882 l -2.37506,1.48832 1.342426,-0.14017 c 0.738333,-0.0771 1.747064,-0.34107 2.241623,-0.58661 z m 11.119097,-10.81002 c 4.111089,-2.54001 7.56525,-4.6182 7.675908,-4.6182 0.110663,0 0.232181,-0.0711 0.270047,-0.15787 0.0705,-0.16168 2.304698,-1.57252 3.318147,-2.09533 0.31046,-0.16016 0.748022,-0.4622 0.97237,-0.67121 0.224343,-0.20901 0.551194,-0.38002 0.726332,-0.38002 0.175131,0 0.318421,-0.0929 0.318421,-0.20653 0,-0.11359 0.139408,-0.20653 0.309792,-0.20653 0.170384,0 0.309786,-0.0929 0.309786,-0.20652 0,-0.11359 0.125464,-0.20653 0.278805,-0.20653 0.153342,0 0.663691,-0.27881 1.134107,-0.61958 0.470423,-0.34077 0.949053,-0.61958 1.063621,-0.61958 0.114575,0 0.20832,-0.0929 0.20832,-0.20653 0,-0.11359 0.101818,-0.20652 0.226268,-0.20652 0.357283,0 15.532724,-9.42405 16.033064,-9.95665 0.24703,-0.26295 0.66281,-0.94163 0.92392,-1.50816 l 0.47478,-1.03006 0.0554,-21.42804 c 0.0537,-20.772298 0.0433,-21.451789 -0.34066,-22.204324 -0.95617,-1.874272 -1.9284,-2.389081 -6.32357,-3.348482 -1.1359,-0.247948 -2.29761,-0.529815 -2.58158,-0.626371 -0.28397,-0.09656 -1.16688,-0.322962 -1.962,-0.503124 -0.79514,-0.180161 -1.77097,-0.417178 -2.16854,-0.526703 -0.39756,-0.109525 -1.3734,-0.348363 -2.16853,-0.530751 -0.79512,-0.182388 -1.724495,-0.417002 -2.065262,-0.521368 -0.587345,-0.179879 -2.486047,-0.649225 -5.472964,-1.352878 -2.325404,-0.547815 -3.655513,-0.876714 -6.608855,-1.634191 -2.749842,-0.705282 -7.128367,-0.536151 -8.92004,0.344559 -0.20551,0.101021 -0.539351,0.264794 -0.741857,0.363939 -0.202512,0.09915 -0.666132,0.245704 -1.030269,0.325681 -0.364138,0.07998 -0.715086,0.2312 -0.779887,0.336052 -0.0648,0.104849 -0.260926,0.190637 -0.435841,0.190637 -0.174909,0 -0.634109,0.139405 -1.020446,0.30979 -0.386331,0.170384 -1.018513,0.449195 -1.404844,0.61958 -0.386337,0.170385 -0.805816,0.30979 -0.932175,0.30979 -0.126359,0 -0.391126,0.08512 -0.588369,0.189164 -0.685978,0.361841 -1.868008,0.843469 -2.070069,0.843469 -0.111835,0 -0.469538,0.138834 -0.794891,0.308518 -0.325359,0.169685 -0.73561,0.30909 -0.911673,0.309791 -0.176068,6.44e-4 -0.408407,0.08248 -0.51632,0.181737 -0.107906,0.09925 -1.032632,0.482136 -2.054939,0.850844 -1.022308,0.36871 -2.137552,0.790302 -2.478321,0.936876 -0.340769,0.146568 -6.980508,2.693687 -14.754976,5.660266 -7.774467,2.966579 -14.177188,5.435579 -14.228272,5.486659 -0.05109,0.0511 0.08307,0.15148 0.298105,0.22311 0.21504,0.0716 0.683839,0.2597 1.041774,0.41792 0.357936,0.15822 0.793901,0.28768 0.968813,0.28768 0.174912,0 0.375459,0.0929 0.445662,0.20652 0.0702,0.1136 0.27075,0.20653 0.445662,0.20653 0.297861,0 1.371536,0.41452 2.184751,0.84347 0.197242,0.10404 0.462006,0.18917 0.588368,0.18917 0.223922,0 1.376645,0.46376 2.09648,0.84346 0.197241,0.10404 0.476052,0.18974 0.619579,0.19044 0.143529,5.9e-4 0.499498,0.12575 0.791044,0.2779 0.291545,0.15214 0.789721,0.34178 1.107055,0.42143 0.317337,0.0796 0.9617,0.31458 1.431922,0.52208 0.470222,0.20749 4.851241,1.89107 9.735597,3.74128 4.884358,1.85022 9.511325,3.619 10.282151,3.93063 1.604499,0.64868 2.716623,1.62934 3.75825,3.314 1.405354,2.27293 1.345839,1.09395 1.345839,26.6632 v 23.08898 l 2.220162,-1.37244 c 1.22109,-0.75485 5.583785,-3.45065 9.694874,-5.99066 z M 72.08669,119.04247 c -0.19921,-0.51913 0.512656,-1.02108 3.515315,-2.47874 2.743869,-1.33203 7.140642,-3.47799 16.490997,-8.04885 8.664978,-4.23582 13.683838,-6.68615 16.233668,-7.92569 2.74627,-1.335025 3.48964,-1.524248 3.48964,-0.888278 0,0.602528 -0.78693,1.206848 -3.30443,2.537658 -0.17039,0.0901 -2.0756,1.01511 -4.2338,2.05566 -2.15821,1.04055 -5.503939,2.66074 -7.434963,3.60044 -1.931023,0.9397 -4.719134,2.28925 -6.195799,2.99901 -2.479935,1.19198 -8.085428,3.92153 -14.672921,7.14488 -2.723913,1.33284 -3.667936,1.57662 -3.887707,1.00391 z m -11.116157,21.5351 -0.06307,-12.85629 -0.573553,-1.22473 c -0.769573,-1.64329 -1.77397,-2.82619 -2.863681,-3.37261 -0.494904,-0.24817 -2.619162,-1.10338 -4.720571,-1.90049 -2.10141,-0.7971 -3.982123,-1.54315 -4.179364,-1.65788 -0.197241,-0.11474 -0.462006,-0.20862 -0.588368,-0.20862 -0.126361,0 -0.54584,-0.1394 -0.932172,-0.30979 -0.386333,-0.17039 -1.018516,-0.4492 -1.404849,-0.61958 -0.386333,-0.17038 -0.805812,-0.30979 -0.932173,-0.30979 -0.126361,0 -0.391127,-0.0939 -0.588368,-0.20861 -0.197241,-0.11474 -2.077953,-0.86055 -4.179363,-1.65735 -2.101409,-0.79681 -4.006618,-1.52989 -4.233798,-1.62907 -0.22718,-0.0992 -0.752379,-0.32922 -1.167109,-0.51118 -0.414731,-0.18197 -0.845558,-0.33085 -0.957395,-0.33085 -0.111835,0 -0.469538,-0.13884 -0.794894,-0.30852 -0.325356,-0.16968 -0.735609,-0.30909 -0.911673,-0.30979 -0.176064,-5.9e-4 -0.408406,-0.0822 -0.516316,-0.18114 -0.272228,-0.24958 -7.355692,-2.91875 -7.735622,-2.91492 -0.86487,0.009 -1.962351,0.6075 -2.313498,1.26225 -0.34383,0.64111 -0.370154,1.55366 -0.370154,12.83197 v 12.14178 l 0.567948,0.20568 c 0.312372,0.11313 0.753823,0.2908 0.981003,0.39484 1.614752,0.73948 3.243287,1.45453 3.312715,1.45453 0.0708,0 0.742561,0.28884 2.883086,1.23965 1.114683,0.49514 2.397801,1.04075 3.614218,1.53683 0.738333,0.3011 1.714172,0.72364 2.16853,0.93898 1.042122,0.49388 2.313492,1.04605 4.027272,1.74909 0.738333,0.30289 1.853577,0.78486 2.47832,1.07106 1.338031,0.61297 1.489128,0.67836 3.510955,1.51943 0.851922,0.35439 1.920698,0.81924 2.375057,1.03298 1.296284,0.60983 2.754893,1.23832 2.873923,1.23832 0.05966,0 0.645617,0.23764 1.302122,0.52808 0.656507,0.29045 1.379524,0.60984 1.606703,0.70974 0.22718,0.0999 1.046863,0.46636 1.821518,0.81434 0.774656,0.34797 1.445696,0.63268 1.491198,0.63268 0.04551,0 0.619877,0.23928 1.276383,0.53173 0.656507,0.29245 1.518929,0.66862 1.916493,0.83592 0.397564,0.1673 0.862249,0.38725 1.032634,0.48876 0.87203,0.51955 0.852073,0.84069 0.785908,-12.64743 z m -21.804994,-5.24772 c -1.284937,-0.63334 -2.692952,-2.9586 -3.163993,-5.22516 -0.34476,-1.65892 -0.156071,-4.26684 0.389727,-5.38658 0.454948,-0.93335 1.377625,-1.64368 2.135039,-1.64368 0.223615,0 0.694828,0.14906 1.04714,0.33125 2.139239,1.10624 3.699028,4.91745 3.407195,8.32517 -0.144525,1.68762 -0.55875,2.69978 -1.391718,3.40068 -0.734741,0.61824 -1.452316,0.67696 -2.42339,0.19832 z m 1.623471,-1.3677 c 2.11463,-1.62356 0.881446,-8.73546 -1.654254,-9.54026 -0.53358,-0.16935 -1.384706,0.3938 -1.833522,1.21316 -0.556285,1.01556 -0.478417,4.41366 0.136583,5.96032 0.850752,2.13955 2.30731,3.16824 3.351193,2.36678 z m -1.618801,-1.02012 c -0.255753,-0.12333 -0.718615,-0.74261 -1.028578,-1.37615 -1.070761,-2.18856 -0.807394,-5.39766 0.49155,-5.98949 0.493506,-0.22486 0.598655,-0.17867 1.320249,0.57988 0.957241,1.00627 1.318737,2.38146 1.19618,4.55045 -0.0754,1.33436 -0.149695,1.56032 -0.656329,1.9961 -0.637614,0.54846 -0.669775,0.55427 -1.323072,0.23921 z m 1.333919,-3.51449 c -0.0494,-0.2569 -0.0917,-0.0953 -0.09399,0.35901 -0.0023,0.45436 0.03813,0.66455 0.08982,0.46709 0.05169,-0.19745 0.05357,-0.5692 0.0042,-0.8261 z m -2.271795,-1.03264 c -0.0494,-0.2569 -0.09169,-0.0953 -0.09399,0.35902 -0.0023,0.45435 0.03813,0.66455 0.08982,0.46709 0.05169,-0.19746 0.05357,-0.5692 0.0042,-0.82611 z m 1.919199,-0.754 c 0,-0.10101 -0.187216,-0.40305 -0.416035,-0.67121 l -0.416036,-0.48757 0.364404,0.66991 c 0.382157,0.70254 0.467667,0.79193 0.467667,0.48887 z m 23.669869,25.14693 c 0.66913,-0.35531 1.448944,-0.80487 1.732919,-0.99902 0.283974,-0.19415 0.66305,-0.40557 0.842391,-0.46983 0.179344,-0.0643 0.855738,-0.45564 1.503095,-0.86975 l 1.177018,-0.75293 -0.05743,-13.36257 -0.05743,-13.36256 -0.486615,-0.82611 c -0.833588,-1.41515 -1.840048,-2.51248 -2.549505,-2.77969 -1.009692,-0.3803 -1.670309,-0.65397 -2.072613,-0.85862 -0.197242,-0.10034 -0.476053,-0.183 -0.61958,-0.18371 -0.143528,-5.8e-4 -0.499498,-0.12575 -0.791043,-0.27789 -0.291546,-0.15214 -0.789721,-0.34179 -1.107056,-0.42144 -0.317336,-0.0796 -0.9617,-0.31884 -1.431922,-0.53155 -0.470222,-0.2127 -1.087291,-0.45283 -1.371265,-0.5336 -0.283974,-0.0808 -0.888065,-0.30852 -1.342424,-0.5061 -0.454359,-0.19758 -4.961804,-1.91689 -10.016546,-3.82068 -5.054741,-1.9038 -9.562187,-3.6231 -10.016545,-3.82068 -0.45436,-0.19758 -1.05845,-0.42367 -1.342424,-0.50242 -0.590126,-0.16365 -1.360892,-0.47778 -1.962004,-0.79962 -0.22718,-0.12163 -1.203019,-0.25816 -2.168531,-0.30339 -1.678038,-0.0786 -1.859844,-0.0417 -4.121371,0.83734 -1.301242,0.50576 -2.394609,1.00572 -2.429706,1.111 -0.0351,0.1053 0.28606,0.31424 0.71368,0.46432 0.804481,0.28235 1.477093,0.55672 2.770709,1.13021 0.41473,0.18386 0.845557,0.33429 0.957393,0.33429 0.111837,0 0.469539,0.13883 0.794895,0.30852 0.325356,0.16968 0.735609,0.30909 0.911673,0.30978 0.176064,5.9e-4 0.408407,0.0814 0.516317,0.1794 0.10791,0.098 1.497318,0.66783 3.087574,1.26635 2.841754,1.06954 3.535469,1.34544 4.936223,1.96322 0.386333,0.17038 0.793925,0.30979 0.905762,0.30979 0.111836,0 0.469538,0.13884 0.794894,0.30852 0.325356,0.16968 0.735609,0.30909 0.911673,0.30979 0.176064,5.8e-4 0.408407,0.0824 0.516317,0.18166 0.10791,0.0992 1.729661,0.75899 3.603891,1.46618 1.87423,0.70719 3.797574,1.46244 4.274099,1.67835 0.476524,0.21591 0.953819,0.39256 1.060658,0.39256 0.106838,0 0.460449,0.13883 0.785805,0.30852 0.325356,0.16968 0.735609,0.30909 0.911673,0.30979 0.176064,5.8e-4 0.408407,0.082 0.516317,0.18064 0.10791,0.0986 0.660885,0.347 1.228834,0.55188 0.567948,0.20488 1.12557,0.43954 1.23916,0.52146 0.11359,0.0819 0.753025,0.44309 1.420968,0.80259 2.164402,1.16491 3.573676,3.1675 4.152697,5.90098 0.24897,1.17536 0.305835,3.6563 0.308762,13.47087 0.002,6.6166 0.03697,12.03018 0.07778,12.03018 0.0408,0 0.621663,-0.29071 1.290792,-0.64603 z m 48.571129,-3.93868 c 1.14971,-0.65059 1.77605,-1.37261 1.66104,-1.91478 -0.0526,-0.24808 -0.62522,0.0202 -2.44379,1.1449 -1.30628,0.80788 -2.42153,1.51724 -2.47832,1.57634 -0.0568,0.0591 0.40789,0.0409 1.03263,-0.0404 0.64843,-0.0844 1.60475,-0.41316 2.22844,-0.76609 z"
       id="path300" /></g></svg>
