<?xml version="1.0" encoding="UTF-8" standalone="no"?>
<!-- Created with Inkscape (http://www.inkscape.org/) -->

<svg
   width="75mm"
   height="38.214703mm"
   viewBox="0 0 75 38.214703"
   version="1.1"
   id="svg5"
   inkscape:version="1.2.2 (732a01da63, 2022-12-09)"
   xml:space="preserve"
   sodipodi:docname="stapler.svg"
   xmlns:inkscape="http://www.inkscape.org/namespaces/inkscape"
   xmlns:sodipodi="http://sodipodi.sourceforge.net/DTD/sodipodi-0.dtd"
   xmlns="http://www.w3.org/2000/svg"
   xmlns:svg="http://www.w3.org/2000/svg"><sodipodi:namedview
     id="namedview7"
     pagecolor="#f0f0f0"
     bordercolor="#ffffff"
     borderopacity="1"
     inkscape:showpageshadow="0"
     inkscape:pageopacity="0"
     inkscape:pagecheckerboard="0"
     inkscape:deskcolor="#505050"
     inkscape:document-units="mm"
     showgrid="true"
     inkscape:zoom="1.436055"
     inkscape:cx="300.47596"
     inkscape:cy="163.29458"
     inkscape:current-layer="layer1"><inkscape:grid
       type="xygrid"
       id="grid132"
       dotted="true"
       empspacing="10"
       units="mm"
       spacingx="1"
       spacingy="1"
       originx="22.555871"
       originy="-106.57227" /></sodipodi:namedview><defs
     id="defs2" /><g
     inkscape:label="Layer 1"
     inkscape:groupmode="layer"
     id="layer1"
     transform="translate(22.55587,-106.57227)"><path
       style="display:inline;fill:#cccccc;stroke-width:0.150401"
       d="m -13.806855,144.65735 c -0.866948,-0.0711 -1.780637,-0.1923 -2.030421,-0.26936 -0.249783,-0.0771 -0.746881,-0.1855 -1.104663,-0.24096 -3.223831,-0.49976 -5.432821,-2.51462 -5.189068,-4.73303 0.16872,-1.53552 0.506879,-1.843 2.229943,-2.02762 0.942275,-0.10097 3.200193,-0.35002 6.768067,-0.74654 1.158092,-0.12871 2.647066,-0.30163 3.3088326,-0.38427 0.6617665,-0.0826 2.1169008,-0.25184 3.2336318,-0.37601 1.116731,-0.12415 2.5718653,-0.29336 3.2336317,-0.376 0.6617664,-0.0826 2.1507411,-0.25538 3.30883254,-0.38386 5.31307026,-0.58947 6.08969376,-0.67757 7.21927106,-0.81898 0.6617662,-0.0828 2.1169005,-0.25221 3.2336313,-0.37637 1.116731,-0.12416 2.571866,-0.28976 3.233632,-0.36797 0.661766,-0.0782 1.253972,-0.14587 1.316013,-0.15033 0.06204,-0.005 0.112801,-0.69525 0.112801,-1.5351 v -1.527 l -1.692017,0.10316 c -0.930609,0.0567 -4.5007638,0.20258 -7.9336773,0.3241 -11.0459494,0.39099 -13.9004611,0.51043 -14.4804994,0.60589 -0.8111814,0.13349 -2.7705893,-0.34578 -3.9887373,-0.97566 -0.531599,-0.27487 -0.976277,-0.60898 -2.097304,-1.57584 l -0.505873,-0.4363 0.09216,-2.57173 c 0.118904,-3.31816 0.102741,-3.24854 0.754123,-3.24854 h 0.52354 v -2.00629 -2.00629 l -1.01521,-0.17487 c -0.558365,-0.0962 -1.624336,-0.24982 -2.368823,-0.34143 -3.381962,-0.41617 -3.049807,-0.28034 -3.744946,-1.53139 -2.536387,-4.56473 -0.7872,-8.72223 3.820147,-9.07979 12.7957077,-0.99303 26.6800094,-1.13722 34.366737,-0.3569 2.459234,0.24965 5.502161,0.60415 6.467264,0.75344 3.565318,0.55149 5.704156,0.91983 6.918469,1.19146 0.330883,0.074 1.109208,0.2424 1.729615,0.37419 1.325458,0.28156 2.692292,0.6079 3.534435,0.84387 0.330883,0.0927 0.864676,0.23483 1.186205,0.31581 1.634206,0.41161 6.573978,2.17739 8.213887,2.93615 1.599276,0.73996 3.230579,1.62486 4.210928,2.28423 5.887279,3.95968 3.665683,13.96658 -3.329352,14.99665 l -0.547244,0.0806 -0.06886,1.01154 c -0.03786,0.55635 -0.113102,1.11306 -0.16717,1.23714 -0.06869,0.15765 0.08229,0.32853 0.501277,0.56733 1.184733,0.67523 0.984995,1.90791 -0.511151,3.15457 -0.503032,0.41915 -1.90674,0.8485 -3.397254,1.03911 -0.868567,0.11108 -2.391385,0.30321 -3.384033,0.42696 -0.992648,0.12375 -2.278581,0.29337 -2.857629,0.37692 -0.579044,0.0836 -1.831138,0.25274 -2.782428,0.37597 -0.951289,0.12322 -2.20338,0.29317 -2.782428,0.37764 -0.579044,0.0845 -1.848056,0.25403 -2.820025,0.37678 -0.97197,0.12276 -2.562466,0.32362 -3.534435,0.44637 -0.97197,0.12276 -2.240982,0.29304 -2.820028,0.37842 -0.579046,0.0854 -1.864979,0.25753 -2.857628,0.38256 -4.348695,0.54773 -5.32484,0.67429 -6.316862,0.81901 -0.579046,0.0845 -1.8311383,0.25442 -2.7824278,0.37765 -0.9512888,0.12323 -2.2033815,0.29317 -2.7824273,0.37765 -0.5790457,0.0845 -1.8311377,0.24996 -2.7824272,0.36774 -2.59988336,0.32191 -5.2129109,0.66345 -6.3920628,0.83547 -1.0786329,0.15735 -3.3291248,0.44783 -6.3920628,0.82503 -1.9211231,0.23659 -1.8546351,0.23569 -4.0578921,0.055 z m 10.8259581,-21.18326 c -1.2573129,-0.28075 -2.2560224,-0.31579 -2.2560224,-0.0792 0,0.18702 0.2445905,0.22425 1.3912135,0.21181 1.0435459,-0.0113 1.2596636,-0.0445 0.8648089,-0.13265 z"
       id="path1629" /><path
       style="display:inline;fill:#ff0000;stroke-width:0.150401"
       d="m -14.110607,144.52955 c -6.130791,-0.77281 -9.249803,-3.29256 -7.687968,-6.21087 0.345376,-0.64534 0.437307,-0.66541 5.657549,-1.23496 3.003859,-0.32772 5.883477,-0.65517 7.2944713,-0.82949 0.703127,-0.0869 2.1582609,-0.25607 3.2336319,-0.376 1.0753705,-0.11994 2.5305048,-0.28974 3.2336317,-0.37733 0.7031269,-0.0876 2.15826119,-0.25521 3.23363174,-0.37249 3.00164306,-0.32733 5.88282426,-0.65499 7.29447206,-0.82954 0.7031265,-0.0869 2.1244203,-0.2543 3.1584303,-0.37192 4.304142,-0.48955 3.910439,-0.27796 3.910439,-2.10157 0,-1.70405 0.359172,-1.52841 -2.882369,-1.40955 -9.6276326,0.35299 -16.2472465,0.6004 -18.9517088,0.70831 -1.7100016,0.0682 -3.4020182,0.0714 -3.7600372,0.007 -1.179134,-0.21209 -1.897839,-0.43209 -2.557247,-0.78279 -0.616731,-0.328 -0.814582,-0.47594 -2.040829,-1.52596 l -0.513316,-0.43955 0.0494,-2.65855 c 0.05374,-2.89156 0.151618,-3.25654 0.827852,-3.08682 l 0.349563,0.0877 v -2.18369 c 0,-1.20103 -0.05076,-2.1843 -0.112801,-2.18505 -0.06204,-7.5e-4 -0.891129,-0.10245 -1.842418,-0.22601 -0.95129,-0.12355 -2.304903,-0.29631 -3.00803,-0.3839 -1.442063,-0.17964 -1.559837,-0.26549 -2.255697,-1.64429 -1.228911,-2.43502 -1.187317,-3.7959 0.208369,-6.81747 0.804791,-1.74231 0.430371,-1.67859 14.0042457,-2.38372 5.5507726,-0.28835 18.7743023,-0.24446 21.9586153,0.0729 4.266807,0.42522 6.718329,0.69177 7.745676,0.84217 3.346854,0.48998 5.845404,0.91115 7.219272,1.21692 0.372243,0.0828 1.184411,0.2514 1.804818,0.37456 1.226454,0.24347 2.587281,0.56206 3.534435,0.82745 0.330883,0.0927 0.872329,0.23532 1.203212,0.3169 0.330883,0.0816 0.973846,0.27381 1.428814,0.42716 0.454963,0.15336 1.36865,0.44946 2.03042,0.65801 3.316404,1.04512 6.833479,2.62096 9.024086,4.04327 1.536984,0.99793 1.737989,1.21082 2.813235,2.97953 2.678492,4.40598 -1.097045,12.03081 -5.957212,12.03081 h -0.540857 v 0.96783 c 0,0.53229 -0.06678,1.14344 -0.148386,1.3581 -0.127819,0.33618 -0.101761,0.4085 0.188001,0.52175 2.873566,1.12306 0.37622,3.7389 -4.100455,4.29499 -2.960175,0.36772 -5.296495,0.6705 -6.392064,0.82841 -0.579045,0.0835 -1.628097,0.22036 -2.331221,0.30424 -0.703129,0.0839 -1.989061,0.25727 -2.85763,0.38532 -1.490265,0.21969 -3.665418,0.5008 -6.392062,0.82608 -0.661767,0.0789 -1.913859,0.24848 -2.782428,0.37674 -0.868568,0.12825 -2.391383,0.33447 -3.384033,0.45824 -2.590948,0.32305 -4.952644,0.63234 -6.16646,0.80757 -0.579046,0.0836 -1.6280966,0.2206 -2.3312238,0.30448 -0.7031265,0.0839 -1.9890593,0.25727 -2.8576275,0.38532 -1.4983448,0.22089 -3.7240264,0.50836 -6.39206313,0.82561 -0.66176637,0.0787 -2.11690077,0.27446 -3.23363167,0.43504 -1.116731,0.16058 -2.436504,0.33525 -2.9328286,0.38815 -0.496325,0.0529 -1.4696408,0.19143 -2.1629222,0.30783 -1.3008401,0.21841 -3.3830831,0.24563 -4.8307471,0.0632 z m 2.857629,-4.82815 c 0.785847,-0.0858 1.7672169,-0.20475 2.180821,-0.26428 l 0.7520075,-0.10826 -0.601606,-0.19351 c -0.3308832,-0.10643 -0.7369673,-0.25105 -0.9024089,-0.32138 -1.5816486,-0.67231 -2.5508496,-0.9335 -3.1337196,-0.84449 -0.344476,0.0526 -1.472326,0.19595 -2.506336,0.31856 -3.559311,0.42201 -4.078215,0.4916 -4.142021,0.5554 -0.08065,0.0807 2.460776,0.80523 3.239612,0.92364 0.797145,0.12119 3.7498,0.0833 5.113651,-0.0657 z m 7.5952744,-0.88482 c 0.982994,-0.1462 3.23492647,-0.43662 3.83389124,-0.49443 0.327603,-0.0316 0.3880389,-0.13016 0.48120975,-0.78463 0.0586043,-0.41166 0.2114898,-0.82521 0.33974925,-0.91899 0.31304706,-0.22891 0.29670906,-0.41951 -0.0253627,-0.29592 -0.14220908,0.0546 -1.24202017,0.20081 -2.44402404,0.32498 -1.2020039,0.12417 -3.0653113,0.32324 -4.1406818,0.44239 -4.9859731,0.5524 -5.0231241,0.55912 -4.1913886,0.75823 0.2372433,0.0568 0.4990322,0.14741 0.5817529,0.20137 0.082721,0.054 0.5564856,0.22874 1.0528101,0.38837 0.4963251,0.15963 1.0716108,0.37844 1.2784126,0.48624 0.3864568,0.20143 1.3776897,0.16845 3.2336313,-0.10761 z m 7.971278,-0.98871 c 1.1580915,-0.13006 2.579385,-0.297 3.1584315,-0.37098 1.0254518,-0.13099 2.8475611,-0.34417 6.9936681,-0.81823 1.116731,-0.12768 2.538025,-0.30008 3.158431,-0.38309 0.620407,-0.083 2.0417,-0.25565 3.158431,-0.38363 1.116731,-0.12799 2.504184,-0.29391 3.083231,-0.36872 1.019044,-0.13167 2.74888,-0.33443 6.99367,-0.81978 1.116729,-0.12768 2.538022,-0.30025 3.158429,-0.38348 1.59451,-0.2139 4.66609,-0.56382 7.21927,-0.82242 1.199454,-0.12149 2.191122,-0.22294 2.203708,-0.22545 0.123151,-0.0245 0.35312,-1.1008 0.35312,-1.65267 0,-0.88276 -0.204265,-1.14204 -1.052812,-1.33635 -0.372242,-0.0852 -0.913688,-0.22254 -1.203212,-0.3051 -0.289524,-0.0826 -0.932487,-0.25905 -1.428814,-0.39218 -0.496326,-0.13313 -1.139291,-0.31106 -1.428815,-0.3954 -0.289524,-0.0843 -0.915567,-0.25053 -1.391211,-0.36932 -0.475645,-0.11879 -1.253975,-0.31316 -1.72962,-0.43196 -0.475644,-0.11878 -1.101687,-0.28497 -1.391211,-0.36931 -0.289524,-0.0843 -0.915572,-0.25787 -1.391217,-0.38564 -0.475644,-0.12775 -1.25397,-0.33681 -1.729614,-0.46457 -0.475645,-0.12775 -1.06785,-0.29143 -1.316016,-0.36373 -0.24816,-0.0723 -1.094169,-0.30105 -1.880016,-0.50833 -0.785848,-0.20729 -1.648776,-0.44495 -1.917619,-0.52817 -0.603942,-0.18693 -0.541641,-0.62443 -0.553732,3.88854 -0.01457,5.43985 0.448421,4.92104 -4.898322,5.48885 -1.11673,0.1186 -2.639545,0.28816 -3.384033,0.37681 -0.744487,0.0887 -2.267302,0.25785 -3.384034,0.376 -1.11673,0.11816 -2.639545,0.28736 -3.384033,0.37601 -0.7444871,0.0887 -2.2673021,0.25785 -3.3840326,0.376 -1.1167305,0.11816 -2.6395455,0.28373 -3.384033,0.36794 -0.7444875,0.0842 -1.472055,0.15432 -1.6168162,0.1558 -0.200983,0.002 -0.2632027,0.1295 -0.2632027,0.53921 0,0.44247 0.046144,0.52193 0.2632027,0.45319 0.1447612,-0.0458 1.2107325,-0.18977 2.3688232,-0.31984 z m 11.9569176,-3.16158 c 1.199452,-0.12304 2.722267,-0.2893 3.384033,-0.36945 0.661766,-0.0802 1.876019,-0.21612 2.69834,-0.30213 1.960104,-0.20502 1.888905,-0.11874 1.888905,-2.28928 v -1.80608 l -0.564005,0.0963 c -0.310204,0.0529 -2.103741,0.14026 -3.985639,0.19399 l -3.421634,0.0977 v 1.35741 c 0,1.42311 -0.384324,2.6556 -0.828091,2.6556 -0.109809,0 -0.222624,0.0689 -0.2507,0.15315 -0.02808,0.0842 -0.422881,0.19485 -0.877343,0.24584 -0.45446,0.051 -0.927814,0.15578 -1.051895,0.23287 -0.152112,0.0945 -0.05413,0.11047 0.300802,0.049 0.289523,-0.0502 1.507775,-0.19187 2.707227,-0.31491 z M 1.3807458,129.95007 c 5.2278751,-0.22013 15.5750462,-0.6023 18.8753852,-0.69714 1.488975,-0.0428 2.99487,-0.11318 3.346433,-0.15643 l 0.639206,-0.0786 v -1.85087 -1.85087 l -0.789607,-0.17682 c -0.434285,-0.0973 -1.026491,-0.23919 -1.316014,-0.31543 -2.284241,-0.60148 -1.945229,-0.59397 -16.4490148,-0.36412 -7.5993447,0.12044 -13.8767262,0.2559 -13.9497374,0.30102 -0.1283929,0.0794 -0.196242,5.36469 -0.070492,5.49127 0.066327,0.0668 3.4679889,-0.039 9.7138407,-0.30197 z m -10.678505,-2.54595 v -2.8354 l -0.9400088,-0.17096 c -0.517006,-0.094 -1.127655,-0.21374 -1.356999,-0.26602 l -0.41699,-0.0951 0.04099,2.82198 c 0.03384,2.33012 0.08031,2.84139 0.266588,2.93342 0.524641,0.25918 1.168809,0.41644 1.7672176,0.43142 l 0.6392062,0.016 z m -3.6245098,-1.69045 0.01487,-1.74341 -0.581455,-0.17421 c -1.119757,-0.33548 -1.072961,-0.42269 -1.072961,1.99972 v 2.17394 l 0.714407,0.54656 0.714407,0.54656 0.09793,-0.80287 c 0.05386,-0.44159 0.10462,-1.58741 0.112801,-2.54629 z m 4.8277215,-4.11937 c 0,-2.13765 -0.00627,-2.17926 -0.3384033,-2.24788 -0.4582311,-0.0947 -1.174664,-0.20645 -2.5192242,-0.39309 -0.620407,-0.0861 -1.415654,-0.21212 -1.767218,-0.27999 l -0.639206,-0.12341 v 2.14041 2.14041 l 0.639206,0.16956 c 0.351564,0.0932 1.04529,0.23811 1.541615,0.32191 0.496325,0.0838 1.173132,0.21156 1.5040151,0.2839 0.3308833,0.0724 0.8215681,0.13932 1.0904109,0.14883 l 0.4888045,0.0173 z m 1.9218632,0.12729 0.041845,-1.97544 -0.3979951,-0.0999 c -0.5340728,-0.13405 -0.5000853,-0.24968 -0.611898,2.08175 l -0.099124,2.06685 0.5126631,-0.0489 0.5126643,-0.0489 z m 3.7181924,1.91652 0.6016059,-0.1168 -0.6768067,-0.10017 c -2.5389757,-0.37577 -2.7072266,-0.37572 -2.7072266,7.5e-4 0,0.38351 1.3716012,0.49007 2.7824274,0.21616 z m 13.3105309,-0.26453 c 2.39291,-0.06 4.053903,-0.15463 3.760037,-0.21421 -0.289523,-0.0587 -0.864808,-0.18274 -1.278413,-0.27561 -0.413604,-0.0929 -1.327293,-0.26892 -2.03042,-0.3912 -1.3469141,-0.23425 -3.0806838,-0.54681 -4.5872448,-0.82697 -0.9592365,-0.17838 -2.8036493,-0.47192 -5.2640517,-0.83779 -0.82720819,-0.123 -1.91009883,-0.28641 -2.40642393,-0.36312 -0.80171467,-0.12393 -1.96883037,-0.28991 -3.72243617,-0.5294 l -0.5640057,-0.077 v 1.11275 1.11276 l 0.9400092,0.16761 c 0.5170052,0.0922 1.5152948,0.24294 2.2184217,0.33501 0.7031269,0.0921 1.61681589,0.21979 2.03042004,0.2838 0.41360407,0.0641 1.63185606,0.23166 2.70722676,0.37256 1.0753703,0.1409 1.9890593,0.28977 2.0304195,0.33082 0.041355,0.041 0.4812848,0.037 0.97761,-0.009 0.4963245,-0.046 2.8313078,-0.13193 5.1888511,-0.19104 z"
       id="path1625"
       sodipodi:nodetypes="sssssssssssscsscsscscsssssssssssssssscssssssssssssssssssssscsssssssscsssssssssssssssssssscsssssssssssssssssssscssssssscsscsssssssssscccssssssccsscsscccscsscccsssssscccsssccsccssccccccssccsssssssscccssssssss"
       inkscape:label="colorable1625"
       class="colorable" /><path
       style="display:inline;fill:#000000;stroke-width:0.150401"
       d="m -13.659402,144.57605 c -5.879478,-0.60157 -8.716992,-2.41843 -8.330247,-5.33385 0.210468,-1.58659 -0.16221,-1.46937 7.352637,-2.31258 1.075371,-0.12067 3.444194,-0.3925 5.2640521,-0.60406 8.0834823,-0.93976 9.60214606,-1.11487 11.6561148,-1.344 2.805264,-0.31294 7.9321661,-0.90937 10.5281031,-1.22478 2.525879,-0.3069 2.406424,-0.20614 2.406424,-2.02975 v -1.48368 l -1.090411,0.0718 c -1.036352,0.0682 -3.822201,0.17721 -13.72413509,0.5369 -2.39890331,0.0871 -5.67068441,0.21391 -7.27062381,0.2817 -1.5999394,0.0678 -3.0550736,0.0932 -3.2336321,0.0565 -2.333056,-0.47994 -3.132187,-0.87501 -4.96524,-2.45468 l -0.436317,-0.376 0.08045,-2.67497 c 0.08617,-2.86522 0.170068,-3.18124 0.802428,-3.02253 l 0.358795,0.0901 v -2.18159 -2.18159 l -1.240812,-0.16751 c -0.682447,-0.0921 -2.111769,-0.28608 -3.176272,-0.43098 l -1.93546,-0.26345 -0.562206,-0.92979 c -1.431087,-2.36676 -1.522376,-3.96716 -0.378214,-6.63049 1.032271,-2.40288 0.59891,-2.24657 7.368165,-2.65767 19.7236282,-1.19784 32.26156,-0.70635 43.76683,1.7157 0.413601,0.0871 1.124251,0.23161 1.579214,0.32121 0.750656,0.14783 3.269946,0.76044 5.188854,1.26176 0.4136,0.10806 1.056568,0.29659 1.428811,0.41896 0.372245,0.12238 1.150571,0.37098 1.729619,0.55245 0.579043,0.18147 1.188169,0.38805 1.353613,0.45906 0.165439,0.071 0.808407,0.31236 1.428815,0.53635 2.101242,0.75862 4.750415,2.04752 6.398758,3.11316 4.884885,3.15808 4.826832,10.52824 -0.110485,14.02548 -0.677822,0.48012 -2.268362,0.97761 -3.125551,0.97761 -0.418149,0 -0.423333,0.0115 -0.490213,1.09041 -0.03718,0.59972 -0.119134,1.20791 -0.18213,1.35152 -0.08494,0.19365 -0.02315,0.29679 0.239157,0.39917 1.173534,0.45803 1.387175,1.57609 0.490763,2.56831 -0.988198,1.09381 -1.948628,1.40297 -5.852325,1.88382 -1.07537,0.13246 -3.173471,0.40374 -4.662446,0.60283 -6.076,0.81242 -8.655081,1.15484 -10.227302,1.35784 -0.909928,0.11749 -2.906508,0.38086 -4.436843,0.58525 -1.530335,0.2044 -3.628436,0.47966 -4.662446,0.61168 -1.03401,0.13203 -3.098271,0.40331 -4.587245,0.60285 -4.8641203,0.65183 -8.5423318,1.14106 -10.22730036,1.36028 -4.50565814,0.58623 -7.71717384,1.01342 -9.62569474,1.28041 -1.9260289,0.26945 -3.5144819,0.33151 -4.8880479,0.19097 z m 3.534435,-1.26193 c 0.5790454,-0.083 1.8311378,-0.24889 2.7824269,-0.36867 0.9512897,-0.11978 2.203382,-0.28764 2.7824275,-0.37302 0.5790454,-0.0854 1.8649781,-0.25773 2.8576282,-0.38299 0.99264964,-0.12527 2.27858224,-0.2952 2.8576278,-0.37763 0.5790459,-0.0824 1.797298,-0.24466 2.7072265,-0.36051 2.839257,-0.36147 5.2222403,-0.67611 6.3168621,-0.83405 0.579046,-0.0836 1.864979,-0.2527 2.857628,-0.37591 2.56137,-0.31788 5.090847,-0.64965 6.316863,-0.82851 0.579045,-0.0845 1.898818,-0.26148 2.932828,-0.39336 1.03401,-0.13187 2.252262,-0.29274 2.707226,-0.35748 0.75978,-0.10811 1.629313,-0.22135 6.392064,-0.83244 0.909927,-0.11676 2.162021,-0.28359 2.782428,-0.37077 1.039033,-0.14599 2.343417,-0.31416 5.715253,-0.73686 3.697552,-0.46353 4.27958,-0.63381 4.721075,-1.38121 0.258048,-0.43683 0.04586,-0.89744 -0.407772,-0.88517 -0.387351,0.0105 -7.40134,0.79981 -9.276549,1.04394 -0.620406,0.0808 -2.041701,0.25182 -3.158433,0.38008 -1.116729,0.12827 -2.538024,0.30005 -3.15843,0.38173 -1.080352,0.14223 -2.458595,0.30446 -6.918468,0.8144 -1.116731,0.12769 -2.538025,0.30008 -3.158431,0.38309 -0.620406,0.083 -2.0417,0.25541 -3.158431,0.38309 -4.244788,0.48535 -5.9746243,0.68811 -6.9936688,0.81978 -0.5790458,0.0748 -1.9664993,0.24074 -3.0832298,0.36872 -1.1167312,0.12798 -2.5380255,0.30062 -3.1584315,0.38363 -0.6204061,0.083 -2.04169964,0.2554 -3.1584307,0.38309 -5.6729214,0.64864 -7.4969181,0.8683 -9.2496912,1.11394 -1.309168,0.18347 -4.458264,0.18972 -5.264052,0.0104 -0.330883,-0.0736 -0.872328,-0.21036 -1.203211,-0.30388 -0.330884,-0.0935 -0.97385,-0.25989 -1.428815,-0.36973 -1.230368,-0.29705 -1.841198,-0.5396 -2.218421,-0.88091 l -0.338404,-0.30618 0.002,0.66543 c 0.0033,1.06639 0.137888,1.32636 0.95757,1.84953 2.085694,1.33124 6.691467,2.16149 9.643681,1.7384 z m 0.7520071,-3.80655 c 0.7615968,-0.14376 0.9696065,-0.22878 0.7520073,-0.30736 -0.1654416,-0.0598 -0.7407272,-0.26479 -1.2784125,-0.45565 -0.5376849,-0.19085 -1.3055709,-0.46477 -1.7064129,-0.60872 -0.506603,-0.18194 -0.942226,-0.23338 -1.428814,-0.16874 -0.813234,0.10804 -4.1148,0.50627 -5.212055,0.62868 -1.770096,0.19746 -1.574828,0.40277 0.906981,0.95361 0.49381,0.1096 0.965517,0.22542 1.048238,0.25739 0.332747,0.12857 5.935915,-0.11375 6.9184681,-0.29921 z m 5.9408582,-0.69115 c 2.63941984,-0.38727 3.17412394,-0.45523 3.58187149,-0.45523 0.42084457,0 0.44406187,-0.035 0.51538215,-0.77725 0.0456427,-0.47502 0.17005312,-0.84699 0.31993882,-0.9566 0.37383004,-0.27334 0.29306174,-0.41661 -0.1683507,-0.2986 -0.22748212,0.0582 -1.36113344,0.20445 -2.51922446,0.32504 -1.1580915,0.12059 -2.9854695,0.31708 -4.06084,0.43663 -5.0769316,0.56442 -4.8009116,0.49925 -3.7257891,0.87982 0.3947678,0.13974 1.191524,0.45067 1.7705699,0.69095 1.1317167,0.4696 1.9435538,0.49901 4.2864419,0.15524 z m 8.0464794,-0.988 c 1.0753702,-0.12029 2.4628237,-0.28663 3.0832297,-0.36964 0.6204068,-0.083 2.0417003,-0.2554 3.1584316,-0.38309 4.244788,-0.48534 5.974625,-0.68811 6.993668,-0.81977 0.579046,-0.0748 1.966499,-0.24074 3.083231,-0.36873 1.116731,-0.12798 2.538024,-0.30062 3.15843,-0.38363 0.620407,-0.083 2.041701,-0.2554 3.158432,-0.38309 4.686047,-0.53579 5.851493,-0.67303 6.99367,-0.82349 2.036738,-0.26832 4.876325,-0.58714 6.768066,-0.75989 2.79463,-0.25519 2.784825,-0.2487 2.780122,-1.84096 -0.0034,-1.19654 -0.123228,-1.26742 -3.60733,-2.1362 -0.454964,-0.11344 -1.470174,-0.38643 -2.256024,-0.60663 -0.785847,-0.22021 -1.801056,-0.49033 -2.25602,-0.60027 -0.454967,-0.10994 -1.064093,-0.26751 -1.353613,-0.35015 -0.289524,-0.0826 -0.89865,-0.2485 -1.353613,-0.36859 -0.454968,-0.12008 -1.470178,-0.39843 -2.256024,-0.61856 -0.785846,-0.22012 -1.699537,-0.46425 -2.03042,-0.5425 -0.670552,-0.15857 -1.609898,-0.41726 -2.180821,-0.60058 -0.206803,-0.0664 -0.566575,-0.16248 -0.799494,-0.2135 l -0.423491,-0.0928 0.03442,3.87818 c 0.05012,5.64711 0.547441,5.09562 -5.128297,5.68695 -1.199451,0.12496 -2.722266,0.29357 -3.384033,0.37468 -0.661766,0.0811 -2.184581,0.25222 -3.384033,0.38023 -1.199452,0.12801 -2.688427,0.29357 -3.308832,0.36792 -0.6204066,0.0743 -2.1093816,0.23741 -3.3088326,0.36238 -5.4870403,0.57168 -5.2568643,0.51589 -5.2617492,1.27536 -0.00213,0.3318 0.039086,0.35063 0.5617025,0.25656 0.310203,-0.0558 1.4438542,-0.19992 2.519226,-0.32021 z m 11.8065153,-3.14551 c 1.116732,-0.12176 2.605706,-0.28971 3.308833,-0.37322 0.703127,-0.0835 1.920019,-0.22237 2.704205,-0.30855 1.892265,-0.20796 1.888968,-0.20392 1.859042,-2.27452 -0.02932,-2.02875 0.255127,-1.83783 -2.4545,-1.64748 -1.255692,0.0882 -3.014505,0.16037 -3.908471,0.16037 h -1.625393 l -0.05897,1.54162 c -0.0871,2.27691 -0.422616,2.69353 -2.393528,2.97211 -1.160368,0.16403 -1.40413,0.37028 -0.28884,0.2444 0.454964,-0.0514 1.740897,-0.19298 2.857628,-0.31473 z m -19.9281954,-4.52372 c 1.2408123,-0.0472 3.84651791,-0.14929 5.7904573,-0.22697 7.1765235,-0.28678 16.1018751,-0.61499 18.9881861,-0.69824 l 2.970429,-0.0857 v -1.91725 -1.91726 l -1.316013,-0.32897 c -1.557486,-0.38934 -3.360473,-0.78645 -3.572034,-0.78675 -2.941515,-0.005 -27.492383,0.48609 -27.5975001,0.55105 -0.1633587,0.10096 -0.2203295,5.37149 -0.059797,5.53202 0.050478,0.0505 0.6426836,0.063 1.3160132,0.0278 0.6733294,-0.0352 2.2394464,-0.10258 3.4802585,-0.14973 z m -5.7904568,-2.76409 v -2.8444 l -0.6392063,-0.094 c -0.3515635,-0.0517 -0.9287895,-0.16853 -1.2827265,-0.25958 -0.870439,-0.22391 -0.841511,-0.31817 -0.851574,2.77481 l -0.0089,2.74122 0.752008,0.25114 c 0.413604,0.13813 1.03965,0.25657 1.3912133,0.2632 l 0.6392063,0.0121 z m 56.3666662,1.8409 c 3.009089,-1.52734 4.497522,-4.58869 3.999085,-8.22519 -0.122592,-0.8944 -0.221071,-0.87838 -0.564292,0.0918 -1.32267,3.73882 -4.324383,5.82868 -7.098502,4.94214 -0.489304,-0.15637 -1.397253,-0.43339 -2.01766,-0.6156 -0.620406,-0.18221 -1.500255,-0.45406 -1.955219,-0.6041 -0.454963,-0.15005 -1.334812,-0.42234 -1.955218,-0.60507 -1.347696,-0.39698 -3.1953,-0.95937 -4.436847,-1.35053 -0.496321,-0.15637 -1.579212,-0.46388 -2.406421,-0.68335 -0.827209,-0.21948 -1.707056,-0.45697 -1.955219,-0.52778 -0.718262,-0.20493 -2.17905,-0.58055 -3.158431,-0.81213 -0.496325,-0.11737 -1.173131,-0.28594 -1.504015,-0.37462 -0.547981,-0.14687 -1.727983,-0.42403 -3.308833,-0.77719 -0.591816,-0.13221 -1.455198,-0.30788 -3.985638,-0.81091 -0.703128,-0.13977 -1.582976,-0.31492 -1.95522,-0.38922 -0.901764,-0.17999 -3.084387,-0.56269 -4.662445,-0.81751 -0.7031273,-0.11354 -1.7183371,-0.28048 -2.2560226,-0.37098 -0.5376855,-0.0905 -1.654416,-0.26524 -2.4816247,-0.3883 -0.827208,-0.12306 -1.9439393,-0.28971 -2.481624,-0.37034 -1.487382,-0.22302 -4.2086188,-0.57354 -6.467264,-0.83305 -1.1167305,-0.1283 -2.5718648,-0.29592 -3.2336317,-0.37247 -0.6617664,-0.0766 -2.1845813,-0.23935 -3.384033,-0.36176 -1.199452,-0.12241 -3.196032,-0.32784 -4.436844,-0.45651 -1.240812,-0.12867 -2.898988,-0.29601 -3.684836,-0.37187 -0.785848,-0.0759 -1.716457,-0.18433 -2.068021,-0.24104 -0.768214,-0.12393 -0.763869,-0.16438 -0.129755,1.20807 0.623231,1.34891 0.09736,1.16173 5.130605,1.82615 0.909929,0.12012 2.09434,0.27916 2.632026,0.35342 0.537685,0.0743 1.755937,0.24108 2.707226,0.3707 1.8589279,0.25329 4.2894581,0.60571 5.8656579,0.85052 0.5376855,0.0835 1.6544164,0.2484 2.4816247,0.36643 2.37139024,0.33837 4.4283066,0.64786 5.4896533,0.82602 0.5376855,0.0902 1.586736,0.26247 2.3312235,0.3827 0.7444875,0.12022 1.6920165,0.28426 2.1056205,0.36452 0.413604,0.0803 1.2934523,0.24368 1.9552191,0.36314 2.892754,0.52222 3.866266,0.70912 5.564855,1.06837 0.992649,0.20995 2.143221,0.44879 2.556825,0.53078 0.920744,0.1825 3.588156,0.82099 4.812847,1.15203 0.496325,0.13416 1.308493,0.33886 1.804818,0.45489 2.906324,0.67947 9.107381,2.44019 10.227299,2.90394 0.165444,0.0685 0.84225,0.29515 1.504016,0.50364 1.32976,0.41895 4.17074,1.39293 4.700047,1.61132 3.159381,1.3036 3.500697,1.31487 5.718968,0.18893 z m -59.976302,-2.67426 v -2.62495 l -0.564005,-0.15663 c -1.140553,-0.31675 -1.090411,-0.40926 -1.090411,2.01176 0,2.28202 0.0034,2.29438 0.753759,2.79317 0.186678,0.12408 0.414933,0.30764 0.507234,0.40789 0.351242,0.3815 0.393423,0.12083 0.393423,-2.43124 z m 59.126638,-1.32986 c 1.735959,-0.7967 4.617808,-5.82071 3.954495,-6.89396 -0.170296,-0.27555 -2.457348,-1.91337 -3.191027,-2.28519 -0.38892,-0.1971 -0.944008,-0.49032 -1.233528,-0.65159 -0.289524,-0.16126 -0.89865,-0.45024 -1.353614,-0.64216 -0.454967,-0.19191 -1.097931,-0.46674 -1.428814,-0.61074 -0.918176,-0.39957 -2.531619,-0.98891 -4.361645,-1.59316 -1.57656,-0.52056 -2.261821,-0.71758 -4.136041,-1.18916 -0.454963,-0.11448 -1.097927,-0.28072 -1.428815,-0.36942 -0.330882,-0.0887 -1.109208,-0.26817 -1.729614,-0.39883 -0.620407,-0.13067 -1.432575,-0.30396 -1.804818,-0.3851 -1.023537,-0.22313 -2.908981,-0.55641 -4.587245,-0.81087 -0.827209,-0.12543 -1.943939,-0.29519 -2.481625,-0.37724 -3.516384,-0.53662 -9.089688,-0.99305 -14.5137423,-1.1886 -2.2334618,-0.0805 -4.4210063,-0.18369 -4.8612083,-0.22927 -0.63264,-0.0655 -0.8847915,-0.0238 -1.2032123,0.199 -1.29778561,0.90803 -4.6755155,1.86868 -7.4717119,2.12501 -0.9099292,0.0834 -2.0297191,0.19344 -2.4884214,0.24453 -1.686614,0.18781 -7.6572238,-0.45351 -10.1453028,-1.08975 -0.496325,-0.12693 -1.040142,-0.26344 -1.208483,-0.30338 -0.493615,-0.1171 -1.724346,2.67864 -1.724346,3.91704 v 0.65124 l 1.767217,0.0945 c 3.306672,0.17673 8.831216,0.54731 10.4153028,0.69866 4.1375206,0.3953 8.43831259,0.88558 10.6033043,1.20876 0.5790458,0.0864 1.7296171,0.25372 2.5568251,0.37175 2.8318672,0.40406 4.512459,0.66097 5.4144525,0.82769 0.4963253,0.0917 1.4776953,0.26019 2.1808223,0.37433 1.506761,0.24458 4.334551,0.77999 5.18885,0.98244 0.330884,0.0784 1.00769,0.21812 1.504016,0.31046 0.496324,0.0923 1.139291,0.22304 1.428813,0.29045 0.289523,0.0674 1.03401,0.23351 1.654416,0.36909 2.803803,0.61276 3.93975,0.89559 7.595275,1.89107 0.661765,0.18022 1.541613,0.41599 1.955218,0.52396 0.413605,0.10795 1.225772,0.34146 1.80482,0.51888 0.579044,0.17743 1.425055,0.42696 1.880018,0.55451 0.454963,0.12754 1.199451,0.35344 1.654414,0.502 0.454967,0.14856 1.537858,0.48597 2.406426,0.74978 0.868568,0.26382 1.714578,0.53602 1.880018,0.60488 0.165443,0.0688 1.01145,0.34023 1.880017,0.60303 0.868568,0.26279 1.646897,0.5 1.729619,0.52712 0.363251,0.1191 1.538264,0.0438 1.898875,-0.12172 z m -54.2560993,-3.49583 c 0.1174229,-2.48516 0.1198683,-2.47555 -0.6305732,-2.47668 -0.3053211,-4.3e-4 -0.7920113,-0.0661 -1.0815342,-0.14577 -0.2895223,-0.0797 -1.1016903,-0.21 -1.8048173,-0.28955 -0.703127,-0.0795 -1.396854,-0.1904 -1.541615,-0.24634 -0.243245,-0.094 -0.263203,0.0637 -0.263203,2.07912 0,2.5124 -0.17201,2.26344 1.804818,2.61219 2.4646422,0.4348 2.7458839,0.49176 2.8265021,0.57237 0.4576326,0.45763 0.5881223,0.0597 0.6904226,-2.10534 z m 1.897528,0.0219 c 0,-2.13899 -0.020157,-2.19692 -0.7643085,-2.19692 -0.2706625,0 -0.2885017,0.13019 -0.2885017,2.10562 v 2.10562 h 0.5264051 0.5264051 z m 4.4266088,1.86873 c -0.2013967,-0.2014 -3.5166029,-0.58998 -3.6190593,-0.4242 -0.283161,0.45816 0.093989,0.56979 1.9250381,0.56979 1.1859396,0 1.7878823,-0.0518 1.6940212,-0.14559 z m 13.9975725,-0.25656 c 1.842141,-0.0645 2.803999,-0.14641 2.481624,-0.21138 -0.289523,-0.0583 -0.864809,-0.18208 -1.278412,-0.27495 -0.413604,-0.0929 -1.327293,-0.26892 -2.03042,-0.3912 -1.346915,-0.23426 -3.0806846,-0.54681 -4.5872448,-0.82697 -0.9537878,-0.17737 -2.8225493,-0.47495 -5.1888517,-0.82627 -0.78584739,-0.11668 -1.86873804,-0.28638 -2.40642353,-0.3771 -0.53768507,-0.0907 -1.69751087,-0.25421 -2.57739107,-0.36329 -0.8798785,-0.10907 -1.6751265,-0.24489 -1.7672174,-0.3018 -0.1176181,-0.0727 -0.1674358,0.25231 -0.1674358,1.0923 0,1.40192 -0.217479,1.2628 2.5524739,1.6329 0.9536822,0.12743 2.07237134,0.28383 2.48597541,0.34758 0.41360415,0.0637 1.59496409,0.22776 2.62524619,0.36447 1.0302795,0.13671 1.9101285,0.28723 1.9552192,0.33449 0.04509,0.0473 1.1648715,0.0455 2.4884048,-0.004 1.3235325,-0.0494 3.7600368,-0.1371 5.4144528,-0.195 z M -5.6129228,109.10423 c 2.3809078,-0.32675 5.06283699,-0.93672 5.31720924,-1.20934 0.0534848,-0.0573 -0.54572272,-0.0626 -1.33157044,-0.0116 -0.7858474,0.0509 -4.0683597,0.19402 -7.2944715,0.31801 -3.2261115,0.12398 -6.2717415,0.275 -6.7680665,0.3356 l -0.902409,0.11018 0.752007,0.10853 c 0.413605,0.0597 1.496495,0.18321 2.406424,0.27448 0.909929,0.0913 1.722097,0.1916 1.804818,0.22293 0.406328,0.15392 4.5587335,0.0512 6.0160592,-0.14875 z"
       id="path1619"
       sodipodi:nodetypes="ssssssscssssscsscccsscssssssssssssssssssssssssssssssssssssssssssssssssssscssssscssssssssssssssssssscsssssssssssscssssssssscssssssssssssssscsssscsscccscsscccccssscssccssssssssssssssssssssssssssssssssssssssssscsscssssscssssssssssscsscscssscssssssssscssssssssscscsssssssssscccssssscssssssssssssscccssssscssss" /></g></svg>
