<?xml version="1.0" encoding="UTF-8" standalone="no"?>
<svg
   xmlns:dc="http://purl.org/dc/elements/1.1/"
   xmlns:cc="http://creativecommons.org/ns#"
   xmlns:rdf="http://www.w3.org/1999/02/22-rdf-syntax-ns#"
   xmlns:svg="http://www.w3.org/2000/svg"
   xmlns="http://www.w3.org/2000/svg"
   xmlns:xlink="http://www.w3.org/1999/xlink"
   xmlns:sodipodi="http://sodipodi.sourceforge.net/DTD/sodipodi-0.dtd"
   xmlns:inkscape="http://www.inkscape.org/namespaces/inkscape"
   id="svg2"
   sodipodi:docname="10.svg"
   inkscape:export-filename="C:\Documents and Settings\Piotrek\Pulpit\analog clock.png"
   viewBox="0 0 400 400"
   sodipodi:version="0.32"
   inkscape:export-xdpi="90"
   version="1.0"
   inkscape:output_extension="org.inkscape.output.svg.inkscape"
   inkscape:export-ydpi="90"
   inkscape:version="1.0.2-2 (e86c870879, 2021-01-15)"
   width="100%"
   height="100%">
  <defs
     id="defs4">
    <filter
       id="filter3957"
       inkscape:collect="always">
      <feGaussianBlur
         id="feGaussianBlur3959"
         stdDeviation="5.2571429"
         inkscape:collect="always" />
    </filter>
    <filter
       id="filter3239"
       inkscape:collect="always">
      <feGaussianBlur
         id="feGaussianBlur3241"
         stdDeviation="5.2985541"
         inkscape:collect="always" />
    </filter>
    <filter
       id="filter3249"
       inkscape:collect="always">
      <feGaussianBlur
         id="feGaussianBlur3251"
         stdDeviation="5.2571429"
         inkscape:collect="always" />
    </filter>
    <filter
       id="filter3371"
       inkscape:collect="always">
      <feGaussianBlur
         id="feGaussianBlur3373"
         stdDeviation="1.0463822"
         inkscape:collect="always" />
    </filter>
    <linearGradient
       id="linearGradient2640"
       y2="332.36"
       gradientUnits="userSpaceOnUse"
       x2="-221.36"
       y1="614.71"
       x1="-485.71"
       inkscape:collect="always">
      <stop
         id="stop3225"
         style="stop-color:#ffffff"
         offset="0" />
      <stop
         id="stop3227"
         style="stop-color:#ffffff;stop-opacity:0"
         offset="1" />
    </linearGradient>
    <radialGradient
       id="radialGradient2642"
       gradientUnits="userSpaceOnUse"
       cy="332.36"
       cx="-485.71"
       r="262.86"
       inkscape:collect="always">
      <stop
         id="stop3965"
         style="stop-color:#f0f7f9"
         offset="0" />
      <stop
         id="stop3963"
         style="stop-color:#cccccc"
         offset="1" />
    </radialGradient>
    <radialGradient
       id="radialGradient2644"
       gradientUnits="userSpaceOnUse"
       cy="353"
       cx="-257.14"
       gradientTransform="matrix(1.6357 -.014127 .0086362 .99996 160.42 -3.6194)"
       r="52.319"
       inkscape:collect="always">
      <stop
         id="stop3344"
         style="stop-color:#ffffff"
         offset="0" />
      <stop
         id="stop3346"
         style="stop-color:#ffffff;stop-opacity:0"
         offset="1" />
    </radialGradient>
    <radialGradient
       id="radialGradient2646"
       gradientUnits="userSpaceOnUse"
       cy="219.21"
       cx="-260.01"
       gradientTransform="matrix(-.99219 .12477 -.075183 -.59784 -502.2 415.88)"
       r="37.016"
       inkscape:collect="always">
      <stop
         id="stop3359"
         style="stop-color:#ffffff"
         offset="0" />
      <stop
         id="stop3361"
         style="stop-color:#ffffff;stop-opacity:0"
         offset="1" />
    </radialGradient>
    <linearGradient
       inkscape:collect="always"
       xlink:href="#linearGradient2640"
       id="linearGradient3163"
       gradientUnits="userSpaceOnUse"
       x1="-485.71"
       y1="614.71"
       x2="-221.36"
       y2="332.36" />
    <linearGradient
       inkscape:collect="always"
       xlink:href="#linearGradient2640"
       id="linearGradient3216"
       gradientUnits="userSpaceOnUse"
       x1="-485.71"
       y1="614.71"
       x2="-221.36"
       y2="332.36" />
    <radialGradient
       inkscape:collect="always"
       xlink:href="#radialGradient2642"
       id="radialGradient3218"
       gradientUnits="userSpaceOnUse"
       cx="-485.71"
       cy="332.36"
       r="262.86"
       gradientTransform="matrix(0.65490872,0,0,0.65490872,796.45028,395.49847)" />
    <radialGradient
       inkscape:collect="always"
       xlink:href="#radialGradient2644"
       id="radialGradient3220"
       gradientUnits="userSpaceOnUse"
       gradientTransform="matrix(1.6357,-0.014127,0.0086362,0.99996,160.42,-3.6194)"
       cx="-257.14"
       cy="353"
       r="52.319" />
    <radialGradient
       inkscape:collect="always"
       xlink:href="#radialGradient2646"
       id="radialGradient3222"
       gradientUnits="userSpaceOnUse"
       gradientTransform="matrix(-0.99219,0.12477,-0.075183,-0.59784,-502.2,415.88)"
       cx="-260.01"
       cy="219.21"
       r="37.016" />
    <radialGradient
       inkscape:collect="always"
       xlink:href="#radialGradient2644"
       id="radialGradient3257"
       gradientUnits="userSpaceOnUse"
       gradientTransform="matrix(0.20879398,-0.00180328,0.00110239,0.12764298,415.01107,650.79317)"
       cx="-257.14"
       cy="353"
       r="52.319" />
  </defs>
  <sodipodi:namedview
     id="base"
     bordercolor="#666666"
     inkscape:pageshadow="2"
     guidetolerance="10"
     pagecolor="#ffffff"
     gridtolerance="10000"
     inkscape:zoom="2.6237529"
     objecttolerance="10"
     showgrid="false"
     borderopacity="1.0"
     inkscape:current-layer="layer1"
     inkscape:cx="157.24729"
     inkscape:cy="187.28255"
     showguides="false"
     inkscape:guide-bbox="true"
     inkscape:pageopacity="0.0"
     inkscape:document-units="px"
     inkscape:window-width="1920"
     inkscape:window-height="1017"
     inkscape:window-x="-8"
     inkscape:window-y="-8"
     inkscape:window-maximized="1"
     inkscape:document-rotation="0">
    <sodipodi:guide
       id="guide3076"
       position="300,352.63507"
       orientation="1,0" />
    <sodipodi:guide
       id="guide3078"
       position="247.1594,300"
       orientation="0,1" />
  </sodipodi:namedview>
  <g
     id="layer1"
     inkscape:label="Layer 1"
     inkscape:groupmode="layer"
     transform="translate(-278.34,-412.89)">
    <circle
       id="path3243"
       style="fill:#000000;fill-rule:evenodd;filter:url(#filter3249)"
       transform="matrix(0.72853774,0,0,0.72853774,832.21483,371.78788)"
       cx="-485.71429"
       cy="332.36218"
       r="262.85715" />
    <circle
       id="path3951"
       style="fill:#333333;fill-rule:evenodd;stroke-width:0.728538"
       cx="478.35364"
       cy="613.89069"
       r="191.50136" />
    <circle
       id="path3949"
       style="fill:#000000;fill-rule:evenodd;filter:url(#filter3957)"
       transform="matrix(0.67662102,0,0,0.67662102,807.00267,388.27424)"
       cx="-485.71429"
       cy="332.36218"
       r="262.85715" />
    <circle
       id="path2451"
       style="fill:none;stroke:url(#linearGradient3216);stroke-width:4.1411;stroke-linecap:round;filter:url(#filter3239)"
       transform="matrix(0.65490872,0,0,0.65490872,796.45028,395.49847)"
       cx="-485.71429"
       cy="332.36218"
       r="262.85715" />
    <circle
       id="path2383"
       style="fill:url(#radialGradient3218);fill-rule:evenodd;stroke-width:0.654909"
       cx="478.35175"
       cy="613.16534"
       r="172.14743" />
    <path
       inkscape:connector-curvature="0"
       d="m 359.05246,544.10977 117.27176,75.27476 1.13717,-1.93795 19.65333,14.3351 5.61796,-9.57575 -22.09604,-10.1687 1.31122,-2.2312 -122.89509,-65.69608 z"
       style="fill:#000000;fill-rule:evenodd"
       inkscape:transform-center-y="-25.884991"
       inkscape:transform-center-x="47.234695"
       id="rect3080" />
    <path
       inkscape:connector-curvature="0"
       d="m 382.24652,616.57745 100.07524,3.06183 0.002,-2.4317 18.07523,2.63007 0.0105,-12.03619 -18.08017,2.60372 0.003,-2.80207 -100.08573,3.20971 z"
       style="fill:#000000;fill-rule:evenodd"
       inkscape:transform-center-y="-0.39420154"
       inkscape:transform-center-x="37.2529"
       id="path3087"
       sodipodi:nodetypes="ccccccccc" />
    <path
       id="path2385"
       style="fill:#000000;fill-rule:evenodd"
       d="m 473.53913,454.32245 1.20183,21.31609 h 7.25065 l 1.21504,-21.31609 z m -9.77318,0.66035 -4.01493,0.43583 2.58857,15.80878 2.20557,-0.22452 z m 29.20067,0 -0.77921,16.02009 2.20557,0.22452 2.58857,-15.80878 z m -45.64339,2.40367 -3.9621,0.83204 4.22624,15.4654 2.17916,-0.47545 z m 62.08611,0 -2.43009,15.83519 2.16595,0.46225 4.21303,-15.45219 z m -78.21186,4.09417 -3.83003,1.24146 5.79788,14.93711 2.12632,-0.69997 z m 94.3244,0 -4.08096,15.50502 2.12632,0.67355 5.79788,-14.93711 z m -109.92186,5.75825 -3.68476,1.65088 7.32989,14.23714 2.04708,-0.91128 z m 125.51933,0 -5.66581,14.98995 2.03388,0.91128 7.32989,-14.25035 z m -137.97353,5.95636 -8.38645,4.83376 11.7014,17.85586 6.28654,-3.61871 z m 150.45414,0 -9.6279,19.07091 6.28653,3.61871 11.7014,-17.85586 z m -166.96289,10.28825 -3.26213,2.35085 10.12977,12.41458 1.79615,-1.3075 z m 183.44523,0 -8.6638,13.48435 1.80936,1.29428 10.14298,-12.40137 z m -196.49375,10.28826 -2.99799,2.69422 11.35802,11.27878 1.66408,-1.47918 z m 209.55547,0.0132 -10.02411,12.48062 1.63766,1.49239 11.39764,-11.26557 z m -221.45498,11.59575 -2.72064,3.01119 12.50703,10.02412 1.49239,-1.66409 z m 233.35449,0 -11.27878,11.38443 1.49239,1.65088 12.48061,-10.02412 z m -243.98612,12.78437 -2.37726,3.26213 13.47114,8.677 1.3207,-1.82256 z m 254.61775,0.0264 -12.40137,10.11656 1.29428,1.80936 13.48435,-8.66379 z m -262.4495,11.35802 -4.83377,8.38644 19.07091,9.6147 3.63193,-6.28653 z m 270.26804,0 -17.86907,11.71461 3.63193,6.28653 19.07091,-9.6147 z m -279.40729,17.14268 -1.63767,3.71117 14.96354,5.67901 0.91128,-2.03388 z m 288.54654,0.0264 -14.23715,7.34309 0.89808,2.02067 14.97674,-5.6658 z m -294.701,15.42577 -1.24146,3.85645 15.47861,4.06775 0.69997,-2.11312 z m 300.85546,0.0132 -14.92391,5.82429 0.68676,2.11312 15.47861,-4.08097 z m -305.37225,15.99368 -0.83204,3.94889 15.82198,2.4433 0.47545,-2.17916 z m 309.88904,0.0264 -15.46539,4.21303 0.46224,2.16595 15.8352,-2.43009 z m -312.70213,16.36347 -0.40942,4.01493 15.99368,0.76601 0.23772,-2.20557 z m 315.51523,0.0264 -15.82199,2.56216 0.23773,2.21877 15.99367,-0.77921 z m -316.585,13.76169 v 9.66753 l 21.3161,-1.20184 v -7.25064 z m 317.65476,0 -21.3161,1.21505 v 7.25064 l 21.3161,1.20184 z m -301.00073,18.63508 -15.99368,0.77921 0.40942,4.01493 15.82198,-2.56216 z m 284.34671,0.0264 -0.23773,2.21878 15.82199,2.57536 0.40941,-4.02813 z m -282.12794,14.76543 -15.82198,2.43009 0.83204,3.9621 15.46539,-4.19983 z m 279.89595,0.0132 -0.46224,2.19236 15.46539,4.21303 0.83205,-3.9621 z m -276.13195,14.46166 -15.47861,4.08096 1.24146,3.83003 14.9107,-5.79787 z m 272.38116,0.0264 -0.69997,2.11312 14.93712,5.79787 1.24146,-3.83003 z m -267.13798,13.973 -14.96354,5.67901 1.63767,3.68475 14.23715,-7.32988 z m 261.8816,0.0132 -0.89808,2.04708 14.23715,7.31668 1.63767,-3.67154 z m -251.83108,8.53172 -19.07091,9.6147 4.83377,8.37323 17.86907,-11.7146 z m 241.79376,0 -3.63193,6.27333 17.86907,11.7146 4.83377,-8.37323 z m -237.10527,17.43324 -13.48435,8.66379 2.37726,3.27534 12.40137,-10.14298 z m 232.41678,0.0264 -1.3207,1.78295 12.40138,10.14298 2.39046,-3.26213 z m -223.11905,11.66179 -12.48062,10.02411 2.70744,3.01119 11.26557,-11.37122 z m 213.79491,0.0264 -1.49239,1.65087 11.27878,11.37123 2.70743,-2.99799 z m -203.29535,10.61843 -11.38443,11.29198 3.01119,2.70744 10.02412,-12.50703 z m 192.80899,0.0264 -1.65087,1.49239 10.02411,12.49382 2.99799,-2.72064 z m -181.26607,9.49583 -10.14298,12.40138 3.28855,2.36405 8.66379,-13.45793 z m 169.70995,0 -1.78295,1.3207 8.6638,13.47114 3.26212,-2.39046 -10.14297,-12.40137 z m -156.74068,2.37726 -11.7014,17.84266 8.38645,4.83376 9.60148,-19.04449 z m 143.79782,0 -6.28653,3.63193 9.6279,19.04449 8.36003,-4.83376 z m -131.02665,12.74476 -7.32988,14.23715 3.69796,1.65087 5.6658,-14.97674 z m 118.24227,0 -2.04708,0.91128 5.69221,14.98995 3.67155,-1.63767 z m -104.3353,5.4809 -5.79787,14.91071 3.85644,1.25466 4.08097,-15.49181 z m 90.41512,0 -2.13953,0.67356 4.10738,15.50502 3.83003,-1.24146 z m -48.81307,1.99426 -1.20183,21.32931 h 9.66752 l -1.21504,-21.32931 z m -27.1668,1.99426 -4.21303,15.43898 3.94889,0.84525 2.43009,-15.83519 z m 61.55783,0 -2.17915,0.44904 2.44329,15.83519 3.9621,-0.84525 z m -46.81881,2.44329 -2.58858,15.80878 4.02814,0.42263 0.77921,-15.99368 z m 32.06659,0 -2.20557,0.23773 0.76601,15.99368 4.02813,-0.42263 z"
       inkscape:connector-curvature="0" />
    <circle
       transform="matrix(0.1449168,-0.02618106,0.02618106,0.1449168,508.03534,564.29642)"
       style="opacity:0.8;fill:#000000;fill-rule:evenodd;filter:url(#filter3371)"
       id="path3365"
       cx="-257.14285"
       cy="291.65121"
       r="52.319111" />
    <circle
       transform="rotate(-10.240748)"
       style="fill:#000000;fill-rule:evenodd;stroke-width:0.147263"
       id="path3338"
       cx="361.71057"
       cy="688.28558"
       r="7.704658" />
    <circle
       transform="rotate(-10.240748)"
       style="fill:url(#radialGradient3257);fill-rule:evenodd;stroke-width:0.127648"
       id="path3340"
       cx="361.70999"
       cy="688.48389"
       r="6.6784344" />
  </g>
  <metadata
     id="metadata74">
    <rdf:RDF>
      <cc:Work>
        <dc:format>image/svg+xml</dc:format>
        <dc:type
           rdf:resource="http://purl.org/dc/dcmitype/StillImage" />
        <cc:license
           rdf:resource="http://creativecommons.org/licenses/publicdomain/" />
        <dc:publisher>
          <cc:Agent
             rdf:about="http://openclipart.org/">
            <dc:title>Openclipart</dc:title>
          </cc:Agent>
        </dc:publisher>
        <dc:title></dc:title>
        <dc:date>2009-07-05T21:07:07</dc:date>
        <dc:description />
        <dc:source>https://openclipart.org/detail/27002/analog-clock-by-sivvus-27002</dc:source>
        <dc:creator>
          <cc:Agent>
            <dc:title>sivvus</dc:title>
          </cc:Agent>
        </dc:creator>
        <dc:subject>
          <rdf:Bag>
            <rdf:li>analog</rdf:li>
            <rdf:li>clock</rdf:li>
            <rdf:li>photorealistic</rdf:li>
            <rdf:li>time</rdf:li>
          </rdf:Bag>
        </dc:subject>
      </cc:Work>
      <cc:License
         rdf:about="http://creativecommons.org/licenses/publicdomain/">
        <cc:permits
           rdf:resource="http://creativecommons.org/ns#Reproduction" />
        <cc:permits
           rdf:resource="http://creativecommons.org/ns#Distribution" />
        <cc:permits
           rdf:resource="http://creativecommons.org/ns#DerivativeWorks" />
      </cc:License>
    </rdf:RDF>
  </metadata>
</svg>
